<?xml version="1.0" encoding="UTF-8"?>
<svg xmlns="http://www.w3.org/2000/svg" version="1.1" xmlns:svg="http://www.w3.org/2000/svg" viewBox="0 0 120 120">
  <defs>
    <style>
      .cls-1 {
        fill: #b3b3b3;
      }
    </style>
  </defs>
  <!-- Generator: Adobe Illustrator 28.6.0, SVG Export Plug-In . SVG Version: 1.2.0 Build 709)  -->
  <g>
    <g id="svg2811">
      <g>
        <g id="g186">
          <path id="path188" class="cls-1" d="M92.7,63.8c-.1-15.2,12.4-22.5,13-22.8-7.1-10.3-18-11.7-22-11.9-9.3-.9-18.2,5.5-23,5.5s-12.1-5.4-19.8-5.2c-10.2.2-19.6,5.9-24.8,15-10.6,18.4-2.7,45.6,7.6,60.5,5,7.3,11,15.5,18.9,15.2,7.6-.3,10.5-4.9,19.7-4.9s11.8,4.9,19.8,4.8c8.2-.2,13.4-7.4,18.4-14.7,5.8-8.5,8.2-16.6,8.3-17.1-.2,0-15.9-6.1-16.1-24.3"/>
        </g>
        <path id="path190" class="cls-1" d="M77.6,19.2c4.2-5.1,7-12.1,6.2-19.2-6,.2-13.3,4-17.7,9.1-3.9,4.5-7.3,11.7-6.4,18.6,6.7.5,13.6-3.4,17.8-8.5"/>
      </g>
    </g>
  </g>
</svg>