<?xml version="1.0" encoding="UTF-8"?>
<svg xmlns="http://www.w3.org/2000/svg" version="1.1" viewBox="0 0 48 48">
  <defs>
    <style>
      .cls-1 {
        fill: none;
        stroke: #bababa;
        stroke-width: 2px;
      }

      .cls-2 {
        fill: #222;
      }
    </style>
  </defs>
  <!-- Generator: Adobe Illustrator 28.6.0, SVG Export Plug-In . SVG Version: 1.2.0 Build 709)  -->
  <g>
    <g id="Layer_1">
      <circle class="cls-1" cx="24" cy="24" r="23"/>
      <path class="cls-2" d="M39.1,23.2c-1.2-2.6-3-4.9-5.2-6.7l3.8-3.7-1.8-1.7-4.2,4.1c-2.3-1.3-4.9-2-7.6-2-9.5,0-13.8,7.7-14.9,10.1-.1.3-.2.7-.2,1s0,.7.2,1c1.2,2.6,3,4.9,5.2,6.7l-3.8,3.7,1.8,1.7,4.2-4.1c2.3,1.3,4.9,2,7.6,2,9.5,0,13.8-7.7,14.9-10.1.1-.3.2-.7.2-1s0-.7-.2-1ZM11.5,24.2c.9-2,4.7-8.6,12.6-8.6,2,0,3.9.4,5.7,1.3l-2.2,2.2c-1.2-.8-2.7-1.1-4.1-1-1.4.1-2.8.8-3.8,1.8-1,1-1.7,2.3-1.8,3.7-.1,1.4.2,2.8,1,4l-2.6,2.6c-2-1.6-3.6-3.6-4.7-5.9ZM28,24.2c0,1-.4,1.9-1.1,2.6-.7.7-1.7,1.1-2.7,1.1-.6,0-1.1-.1-1.6-.4l5-4.9c.2.5.4,1,.4,1.6ZM20.4,24.2c0-1,.4-1.9,1.1-2.6.7-.7,1.7-1.1,2.7-1.1.6,0,1.1.1,1.6.4l-5,4.9c-.2-.5-.4-1-.4-1.6ZM24.2,32.8c-2,0-3.9-.4-5.7-1.3l2.2-2.2c1.2.8,2.7,1.1,4.1,1,1.5-.1,2.8-.8,3.8-1.8,1-1,1.7-2.3,1.8-3.7s-.2-2.8-1-4l2.6-2.6c2,1.6,3.7,3.6,4.7,6-1,2-4.7,8.6-12.6,8.6Z"/>
    </g>
  </g>
</svg>