<svg width="64" height="64" viewBox="0 0 64 64" fill="none" xmlns="http://www.w3.org/2000/svg">
<rect width="64" height="64" rx="8" fill="#EAF3FF"/>
<g clip-path="url(#clip0_2350_5571)">
<path d="M48.2401 34.1001H49.6701V42.5701C49.6701 42.5701 49.7601 42.6101 49.8001 42.6301C49.8801 42.5101 49.9801 42.3901 50.0301 42.2501C50.8201 40.2801 51.6101 38.3101 52.4001 36.3401C52.4401 36.2301 52.4901 36.1201 52.5501 35.9601C52.9801 36.1301 53.4001 36.2901 53.8601 36.4701C53.0401 38.5101 52.2401 40.5301 51.4201 42.6001H53.9901C53.8501 45.6201 51.7101 47.7801 49.1601 48.1501C48.1901 48.2901 47.1901 48.2301 46.2001 48.2501C45.6801 48.2601 45.1701 48.2501 44.6701 48.2501C43.9301 50.2001 42.7601 51.1101 41.0801 51.0801C39.4801 51.0501 38.2801 50.0701 37.6701 48.2701H35.5101V53.8901H14.2401C14.2401 52.8101 14.2301 51.7401 14.2401 50.6701C14.2401 50.3501 14.1501 50.1901 13.8701 50.0201C11.4001 48.5101 10.0401 46.2901 10.0001 43.3801C9.93012 38.1301 12.1801 34.1901 16.8001 31.6501C17.3901 31.3301 18.0301 31.0501 18.6801 30.8901C19.3501 30.7201 19.5701 30.3201 19.6301 29.6901C18.6601 29.3601 17.9001 28.7701 17.4201 27.8401C17.3801 27.7601 17.2001 27.7201 17.0901 27.7101C15.3501 27.6201 14.2401 26.4501 14.2301 24.6901C14.2301 23.5801 14.2301 22.4801 14.2301 21.3801C13.1001 21.0501 12.8101 20.6701 12.8101 19.5101C12.8101 19.2601 12.8101 19.0101 12.8101 18.7601C12.8101 17.6901 13.2501 17.1801 14.3301 17.0401C14.4001 16.7701 14.4601 16.4901 14.5401 16.2101C15.6201 12.3801 19.0401 9.89008 23.1001 10.0001C26.9201 10.1001 30.2101 12.8701 31.0501 16.6901C31.1101 16.9701 31.1901 17.0701 31.4801 17.1101C32.1801 17.2101 32.6401 17.7901 32.6701 18.5001C32.6701 18.8401 32.6701 19.1801 32.6701 19.5201C32.6701 20.6901 32.3801 21.0701 31.2501 21.3901C31.2501 22.5001 31.2501 23.6201 31.2501 24.7401C31.2501 26.4501 30.1201 27.6201 28.4001 27.7201C28.2801 27.7201 28.1001 27.7901 28.0501 27.8801C27.5601 28.7901 26.8201 29.3701 25.8601 29.6901C25.9301 30.3001 26.1501 30.6801 26.8101 30.8801C28.9301 31.5201 30.7201 32.7201 32.2101 34.3601C32.3301 34.4901 32.4501 34.6201 32.5701 34.7501C32.5701 34.7501 32.5901 34.7501 32.6601 34.7801V31.2801H35.4901V22.7701H38.3301V19.9601H39.7401V22.7301H41.1601V18.5401H42.5701V22.7401H43.9901V19.9701H45.4101V22.7601H48.2401V34.1201V34.1001ZM19.1801 32.1601C18.5801 32.4201 18.0101 32.6101 17.4801 32.9001C13.3501 35.1601 11.3601 38.6801 11.4101 43.3601C11.4301 45.4201 12.3101 47.0801 13.9101 48.3701C15.9201 49.9801 18.2701 49.6801 20.5901 49.6701V48.1301C19.7401 47.9401 18.9001 47.7701 18.0701 47.5601C16.0801 47.0401 14.7401 45.7901 14.3701 43.7601C14.1401 42.4701 14.2301 41.1301 14.1801 39.7901H15.6401C15.6401 40.7801 15.6401 41.7301 15.6401 42.6901C15.6601 44.6801 17.1301 46.2001 19.1601 46.3101V32.1601H19.1801ZM30.9101 42.6001C30.0801 40.5301 29.2801 38.5201 28.4701 36.4801C28.9301 36.3001 29.3401 36.1301 29.7801 35.9601C29.8701 36.1601 29.9401 36.3201 30.0001 36.4801C30.7701 38.4101 31.5401 40.3401 32.3201 42.2601C32.3701 42.3901 32.4801 42.5001 32.5601 42.6101C32.6001 42.5901 32.6401 42.5701 32.6801 42.5401C32.6801 40.8701 32.6801 39.2101 32.6801 37.5401C32.6801 37.3901 32.5901 37.2301 32.5101 37.1001C31.6201 35.6001 30.4601 34.3601 28.9701 33.4501C28.1501 32.9501 27.2601 32.5601 26.3401 32.0901V46.8101C27.6201 46.9901 28.4101 47.8001 28.4301 48.9101C28.4501 50.0601 27.7101 50.8501 26.3301 51.1201V52.4701H29.8501C29.8501 50.6601 29.8401 48.8701 29.8501 47.0901C29.8501 46.6001 29.7501 46.2001 29.4401 45.8001C28.7201 44.8701 28.4201 43.7801 28.3301 42.5901H30.9201L30.9101 42.6001ZM42.6001 31.2601V34.0601H46.8101V24.1901H36.9501V31.2601H42.6001ZM18.4901 21.3601C18.4901 23.0001 18.4901 24.6001 18.4901 26.1901C18.4901 27.5201 19.3901 28.4201 20.7101 28.4201C22.0501 28.4201 23.4001 28.4201 24.7401 28.4201C26.0901 28.4201 26.9801 27.5201 26.9901 26.1701C26.9901 24.6901 26.9901 23.2201 26.9901 21.7401C26.9901 21.6101 26.9701 21.4901 26.9701 21.3501H18.4901V21.3601ZM41.1501 32.7101H34.1201V42.5801H41.1501V32.7101ZM30.0401 44.0301C30.6901 45.5201 31.7301 46.5301 33.2601 46.7301C34.6801 46.9101 36.1401 46.8301 37.5901 46.8401C37.6901 46.8401 37.8101 46.6901 37.8801 46.5801C38.3101 45.8401 38.9401 45.4501 39.8001 45.4401C40.7201 45.4401 41.6301 45.4401 42.5501 45.4401C43.4101 45.4401 44.0601 45.8301 44.4601 46.5801C44.5801 46.8001 44.7101 46.8601 44.9401 46.8601C46.0501 46.8501 47.1501 46.8601 48.2601 46.8601C49.6201 46.8401 50.7501 46.3001 51.6101 45.2401C51.8901 44.9001 52.0901 44.4901 52.3601 44.0401H30.0601L30.0401 44.0301ZM22.7401 36.6501C22.0701 37.4801 21.4501 38.2501 20.8501 39.0301C20.7201 39.2001 20.6301 39.4501 20.6301 39.6601C20.6101 41.1201 20.6201 42.5801 20.6201 44.0401C20.6201 44.9101 20.6201 45.7801 20.6201 46.6201C20.9401 46.8201 21.1701 46.7701 21.3801 46.5001C22.0501 45.6501 22.9201 45.3001 23.9901 45.4201C24.2701 45.4501 24.5501 45.4701 24.8301 45.4901C24.8301 45.4601 24.8601 45.4201 24.8601 45.3801C24.8601 43.4201 24.8601 41.4501 24.8601 39.4901C24.8601 39.3901 24.8401 39.2801 24.7801 39.2001C24.1201 38.3601 23.4401 37.5201 22.7401 36.6301V36.6501ZM42.6001 42.5801H48.2201V35.5501H42.6001V42.5801ZM14.2701 18.5201V19.8801H31.2201V18.5201H14.2701ZM20.6001 11.7901C18.1901 12.4001 16.0801 14.8901 15.8701 17.0601H20.6001V11.7901ZM24.8801 17.0701H29.6401C29.4401 14.8601 26.9401 12.1101 24.8801 11.8101V17.0701ZM34.0501 52.5001V48.3901C33.0901 48.1301 32.1701 47.8901 31.2701 47.6401V52.5001H34.0501ZM22.7401 34.2301C23.2701 33.4301 23.7101 32.6601 24.2601 31.9801C24.7401 31.3901 24.8101 30.8301 24.4701 30.1901C24.4601 30.1601 24.4601 30.1201 24.4401 30.1101C24.3201 30.0201 24.2001 29.8601 24.0701 29.8501C23.3901 29.8201 22.7201 29.8401 22.0401 29.8401C21.1301 29.8401 21.1201 29.8401 20.8401 30.7301C20.7801 30.9101 20.7201 31.1701 20.8101 31.3001C21.4201 32.2701 22.0701 33.2101 22.7501 34.2401L22.7401 34.2301ZM22.0301 49.6801C23.4401 49.6801 24.7901 49.6801 26.1501 49.6801C26.6701 49.6801 26.9901 49.4001 26.9901 48.9701C26.9901 48.5401 26.6701 48.2701 26.1501 48.2601C25.7301 48.2601 25.3101 48.2601 24.8701 48.2601C24.8701 48.0201 24.8701 47.8401 24.8701 47.6701C24.8601 47.1201 24.6001 46.8901 24.0601 46.8401C23.3601 46.7701 22.7801 46.9301 22.3601 47.5301C22.2401 47.7001 22.0701 47.8801 22.0501 48.0701C22.0101 48.5801 22.0401 49.1001 22.0401 49.6801H22.0301ZM41.1801 46.8501C40.7401 46.8501 40.3001 46.8501 39.8501 46.8501C39.2901 46.8501 39.0001 47.1601 39.0401 47.7101C39.1001 48.7901 40.0601 49.6801 41.1601 49.6801C42.2601 49.6801 43.2201 48.7901 43.2801 47.7101C43.3101 47.1801 43.0301 46.8701 42.5101 46.8501C42.0701 46.8401 41.6301 46.8501 41.1801 46.8501ZM22.0601 11.4501V17.0501H23.4201V11.4501H22.0601ZM20.6301 52.4901H24.8301V51.1301H20.6301V52.4901ZM15.6801 50.9201V52.4901H19.1601V51.1801C17.9801 51.0901 16.8301 51.0101 15.6801 50.9201ZM28.4201 26.2901C29.2801 26.2301 29.8701 25.6001 29.8201 24.8101C29.7801 24.0701 29.1601 23.4901 28.4201 23.5201V26.2901ZM17.0501 23.4901C16.1801 23.5501 15.6001 24.1701 15.6501 24.9701C15.6901 25.7101 16.3101 26.2901 17.0501 26.2601V23.4901ZM20.6501 33.6701V36.9901C21.0901 36.4401 21.4701 35.9601 21.8601 35.4801C21.4701 34.8901 21.0801 34.3201 20.6501 33.6701ZM23.6101 35.4801C24.0001 35.9701 24.3901 36.4601 24.8201 37.0001V33.6701C24.3801 34.3201 24.0001 34.8901 23.6101 35.4901V35.4801ZM28.4201 21.9901C28.9201 22.1301 29.3601 22.2501 29.7901 22.3701V21.3801H28.4201V21.9901ZM17.0501 21.3801H15.6601V22.3701C16.1301 22.2401 16.5801 22.1101 17.0501 21.9801V21.3701V21.3801Z" fill="black"/>
<path d="M38.3601 28.4402H39.7201V29.8002H38.3601V28.4402Z" fill="black"/>
<path d="M44.02 26.9801V25.6201H45.39V26.9801H44.02Z" fill="black"/>
<path d="M42.5602 25.6101V26.9701H41.1902V25.6101H42.5602Z" fill="black"/>
<path d="M38.3501 26.9801V25.6201H39.7201V26.9801H38.3501Z" fill="black"/>
<path d="M45.4 28.46V29.81H44.02V28.46H45.4Z" fill="black"/>
<path d="M41.2002 28.4402H42.5602V29.8202H41.2002V28.4402Z" fill="black"/>
<path d="M45.39 32.65H44.02V31.29H45.39V32.65Z" fill="black"/>
<path d="M39.7101 41.1601H38.3601V34.1201H39.7101V41.1601Z" fill="black"/>
<path d="M36.89 41.1601H35.53V34.1301H36.89V41.1601Z" fill="black"/>
<path d="M46.8 38.3302H44.04V36.9502H46.8V38.3302Z" fill="black"/>
<path d="M46.83 39.79V41.15H44.04V39.79H46.83Z" fill="black"/>
</g>
<defs>
<clipPath id="clip0_2350_5571">
<rect width="44" height="44" fill="white" transform="translate(10 10)"/>
</clipPath>
</defs>
</svg>
