<svg width="64" height="64" viewBox="0 0 64 64" fill="none" xmlns="http://www.w3.org/2000/svg">
<rect width="64" height="64" rx="8" fill="#EAF3FF"/>
<g clip-path="url(#clip0_2325_1952)">
<path d="M44.3444 22.5074C45.0981 22.4565 45.862 22.487 46.6259 22.487C48.2148 22.4769 49.8444 22.4667 51.4536 22.5074C52.8185 22.538 53.6027 22.0593 53.9897 20.9491V14.4306C53.674 13.5343 53.1749 13.0556 52.4212 12.913C52.2073 12.8722 51.9731 12.862 51.7694 12.862H43.9574V12.0472C43.9472 11.0491 43.499 10.4176 42.562 10.0713C42.5009 10.0509 42.4601 10.0204 42.4296 10H15.8259L15.6935 10.0611C15.5713 10.112 15.4593 10.163 15.3472 10.2241C14.7157 10.5704 14.3796 11.0694 14.3185 11.7519C14.2981 11.9556 14.2981 12.1593 14.2981 12.3528V35.7685H12.2306C10.7741 35.7787 10 36.5528 10 38.0093V51.7898C10 53.2361 10.7639 53.9898 12.2102 53.9898H28.8528C30.3092 53.9898 31.0833 53.2157 31.0833 51.7491V38.2333H34.3426C34.4037 38.2333 34.6277 38.2435 34.6889 38.4065C34.7296 38.5185 34.7703 38.6102 34.8111 38.712C34.9333 38.9972 35.0657 39.2824 35.0963 39.5981C35.1676 40.2704 34.5361 40.4843 34.2305 40.5963C33.4361 40.8713 32.9472 41.5537 32.9166 42.4093C32.8963 43.0611 32.8963 43.7639 32.9166 44.4768C32.937 45.363 33.4463 46.0454 34.3018 46.3509C34.7092 46.4935 34.9435 46.687 35.0555 46.9417C35.1574 47.1963 35.1166 47.5019 34.9333 47.8991C34.5361 48.7444 34.6685 49.5491 35.3203 50.2213C35.7685 50.6796 36.2268 51.138 36.6953 51.5963C37.3472 52.238 38.1722 52.3704 39.0175 51.9833C39.262 51.8611 39.4759 51.8102 39.6694 51.8102C39.7814 51.8102 39.8833 51.8306 39.975 51.8611C40.2296 51.9731 40.4231 52.2074 40.5657 52.6148C40.8916 53.5111 41.5638 53.9898 42.5111 53.9898C43.1425 54 43.7842 54 44.4157 53.9898C45.3425 53.9796 46.0249 53.5009 46.3407 52.6352C46.4935 52.2176 46.687 51.9731 46.9416 51.8611C47.1962 51.7593 47.5018 51.8 47.9092 51.9935C48.724 52.3602 49.5388 52.238 50.1703 51.637C50.6694 51.1685 51.1583 50.6694 51.637 50.1704C52.2277 49.5593 52.3601 48.7139 51.9935 47.9194C51.7999 47.4917 51.7592 47.1759 51.8712 46.9213C51.9731 46.6667 52.2175 46.4833 52.6351 46.3407C53.2768 46.1269 53.6944 45.6685 53.9897 44.8843V42.012C53.674 41.187 53.1647 40.6981 52.3907 40.4741C52.1666 40.413 51.9935 40.2602 51.8916 40.0565C51.7694 39.8018 51.7694 39.4861 51.9018 39.1806C52.4009 37.9685 52.2786 37.3778 51.362 36.4509L51.0462 36.1454C50.7916 35.8907 50.5472 35.6361 50.2925 35.3815C49.549 34.6481 48.7851 34.5157 47.8277 34.9639C47.3694 35.1778 47.0536 35.1065 46.8703 35.0046C46.687 34.913 46.4527 34.6889 46.3712 34.1796L46.3305 33.9454H47.0435C47.4916 33.9454 47.9296 33.9352 48.3777 33.9352C49.3962 33.925 50.4351 33.9148 51.4638 33.9556C52.8185 33.9963 53.6027 33.5278 53.9897 32.3972V25.8787C53.6638 24.962 53.1444 24.4833 52.3398 24.3509C52.1564 24.3204 51.9527 24.3204 51.7694 24.3204H43.9981V22.5278L44.3444 22.5074ZM15.3167 12.1796C15.3167 11.3444 15.6324 11.0287 16.488 11.0287H41.4925C42.1037 11.0287 42.4703 11.0694 42.7046 11.3241C42.949 11.5787 42.9694 11.9963 42.9287 12.6685V12.862H35.249C33.65 12.862 32.9268 13.575 32.9064 15.1639V15.388L32.8861 15.7139H15.3167V12.1796ZM30.0444 51.8102C30.0444 52.6657 29.7389 52.9713 28.8833 52.9713H12.2C11.3444 52.9713 11.0287 52.6556 11.0287 51.8102C11.0185 47.2065 11.0185 42.5926 11.0287 37.9889C11.0287 37.113 11.3241 36.8074 12.2102 36.8074H28.8629C29.749 36.8074 30.0444 37.1028 30.0444 37.9787V51.8102ZM35.0453 37.0111C34.9231 37.1333 34.7398 37.2148 34.5768 37.2148C34.0064 37.225 33.4768 37.225 32.9879 37.225C32.4176 37.225 31.8981 37.2148 31.4092 37.2148C31.2157 37.2148 30.9713 37.062 30.8796 36.8889C30.462 36.125 29.8305 35.7685 28.8833 35.7685C25.7565 35.7787 22.6296 35.7787 19.5028 35.7787H15.3472V16.7833H32.9064V20.2259C32.9166 21.7231 33.6703 22.487 35.1574 22.487H42.9287V24.3204H35.137C33.7009 24.3204 32.9166 25.1046 32.9166 26.5204C32.9064 28.2722 32.9064 30.0241 32.9166 31.7657C32.9166 33.1509 33.7009 33.9454 35.0759 33.9454C36.3185 33.9556 37.5713 33.9454 38.824 33.9454H40.5351V34.1694C40.5046 34.5259 40.3518 34.8111 40.0972 34.9741C39.8425 35.137 39.5268 35.1574 39.2009 35.025L38.987 34.9435C38.7629 34.8519 38.5592 34.7602 38.3453 34.7296C37.7342 34.6481 37.1944 34.8213 36.7463 35.2796C36.4611 35.5546 36.1861 35.8398 35.9111 36.125C35.6157 36.4204 35.3407 36.7157 35.0453 37.0111ZM46.5444 35.9824C47.1148 36.2269 47.7666 36.1861 48.3166 35.8704C48.7342 35.6361 49.1518 35.6972 49.5083 36.0537L50.8527 37.3981C51.1888 37.7343 51.2601 38.1315 51.0564 38.5796C50.7509 39.262 50.6999 39.863 50.9036 40.3518C51.1073 40.8509 51.5759 41.2481 52.3092 41.5333C52.737 41.6963 52.961 42.012 52.961 42.4398C52.9712 43.1222 52.9712 43.8046 52.961 44.4768C52.9509 44.9454 52.6962 45.2713 52.2583 45.3833C51.6879 45.5157 51.1786 45.9537 50.9342 46.5343C50.6796 47.125 50.7203 47.7667 51.0564 48.3269C51.2703 48.7037 51.2296 49.1111 50.9342 49.4167C50.4657 49.9157 49.9564 50.4148 49.4268 50.9241C49.3148 51.0259 49.1823 51.087 49.0601 51.138C49.0194 51.138 48.9685 51.1685 48.9175 51.1991L48.8462 51.2398L48.5916 51.138C48.4694 51.0972 48.3472 51.0565 48.2351 51.0056C47.6648 50.7407 47.0638 50.7102 46.5444 50.9241C46.0351 51.138 45.6379 51.5657 45.424 52.1565C45.1898 52.7981 44.9657 52.9611 44.2731 52.9713H43.4583C43.1527 52.9611 42.8472 52.9611 42.5416 52.9713H42.5212C42.0222 52.9713 41.6861 52.7268 41.5129 52.2278C41.2787 51.5861 40.8916 51.1278 40.3722 50.9139C39.8527 50.7 39.2518 50.7407 38.6305 51.0361C38.1518 51.2704 37.7342 51.1991 37.3777 50.8324C36.95 50.4046 36.5222 49.9667 36.0944 49.5491C35.7277 49.1926 35.6564 48.775 35.8703 48.2963C36.1657 47.6546 36.2166 47.0537 36.0027 46.5444C35.7889 46.0352 35.3203 45.6278 34.6583 45.3935C34.1694 45.2102 33.9352 44.8843 33.9453 44.3852C33.9555 43.7639 33.9555 43.1426 33.9453 42.5213C33.9352 42.0324 34.1796 41.6963 34.6583 41.513C35.3203 41.2787 35.7889 40.8815 36.0027 40.3722C36.2064 39.863 36.1657 39.2519 35.8703 38.6102C35.6564 38.1417 35.7176 37.7343 36.0639 37.388C36.5018 36.95 36.95 36.512 37.3777 36.0741C37.724 35.7278 38.1314 35.6565 38.6 35.8602C39.262 36.1657 39.8527 36.2167 40.362 36.0028C40.8611 35.7991 41.2685 35.3204 41.5333 34.6278C41.6962 34.1796 42.0222 33.9454 42.4907 33.9454H42.5111C43.1425 33.9556 43.774 33.9556 44.4157 33.9454C44.9148 33.9454 45.2509 34.2 45.3731 34.6583C45.5361 35.2593 45.9537 35.738 46.5342 35.9824H46.5444ZM51.8407 25.3491C52.6351 25.3491 52.961 25.675 52.9712 26.4593V31.7963C52.9712 32.5806 52.6453 32.9065 51.8509 32.9065C50.649 32.9065 49.437 32.9167 48.2351 32.9167C47.4407 32.9167 46.6462 32.9065 45.8416 32.9065H35.1166C34.2509 32.9065 33.9453 32.6111 33.9453 31.7657V26.4694C33.9453 25.6648 34.2611 25.3491 35.0555 25.3491H51.8407ZM35.1676 21.4583C34.2305 21.4583 33.9453 21.163 33.9453 20.2157V15.0213C33.9453 14.2167 34.2713 13.8907 35.0555 13.8907H51.8814C52.6249 13.8907 52.961 14.2269 52.9712 14.9907V20.3278C52.9712 21.1426 52.6453 21.4583 51.8101 21.4583H35.1676Z" fill="black"/>
<path d="M17.2009 18.6167V28.1907H31.0426V18.6167H17.2009ZM30.0241 27.1519H18.1991V19.6556H30.0241V27.1519Z" fill="black"/>
<path d="M31.0629 32.937H17.2009V33.9148H31.0629V32.937Z" fill="black"/>
<path d="M31.063 30.075H20.063V31.0426H31.063V30.075Z" fill="black"/>
<path d="M18.1585 30.0852H17.1907V31.0428H18.1585V30.0852Z" fill="black"/>
<path d="M24.3102 38.6713V50.0787H22.487V47.5731C22.487 45.6176 22.487 43.662 22.4972 41.7065C22.4972 41.5537 22.4666 41.5231 22.4666 41.5231C22.4666 41.5231 22.4463 41.5028 22.2935 41.5028C21.4889 41.513 20.6842 41.513 19.8694 41.513H18.7287C18.7287 41.513 18.6268 41.513 18.5759 41.5231V50.0787H16.7528V48.0926C16.7528 46.9417 16.7528 45.8009 16.7629 44.65C16.7731 44.4667 16.7426 44.4157 16.7222 44.3954C16.712 44.3852 16.6611 44.3546 16.4676 44.3648C15.8157 44.3852 15.1639 44.375 14.512 44.375H12.8926V51.1074H28.1805V38.6713H24.3102ZM15.6935 50.0889H13.9213V45.4241H15.6935V50.0889ZM21.4278 50.0787H19.6555V42.562H21.4278V50.0787ZM27.162 50.0685H25.3898V39.7H27.162V50.0685Z" fill="black"/>
<path d="M43.5806 37.225H43.4991C41.8288 37.225 40.2602 37.8565 39.0788 39.0074C37.8973 40.1583 37.2454 41.6963 37.2251 43.3463C37.1843 46.8602 39.8936 49.6407 43.3973 49.6917C45.0473 49.7019 46.6158 49.0806 47.8075 47.9296C48.9991 46.7583 49.6713 45.1898 49.6917 43.4991V43.438C49.6917 40.0565 46.9621 37.2657 43.5806 37.225ZM43.9575 38.0704L46.5954 39.1704L46.7278 39.5981L46.351 39.9241C46.1371 40.1176 45.913 40.3111 45.6889 40.4944C45.6278 40.5454 45.5463 40.5657 45.4343 40.5657C45.251 40.5657 45.0065 40.4944 44.6806 40.3518C43.9778 40.0361 43.9676 39.812 43.9676 39.7407C43.9575 39.4759 43.9575 39.2111 43.9575 38.8852V38.0704ZM40.3621 39.2722C41.0343 38.7528 41.7982 38.437 42.6945 38.3046L42.9288 38.2741V40.0361L41.4214 40.6778L40.1788 39.4148L40.3621 39.2722ZM39.2825 40.0361L40.6371 41.5028L40.0464 42.9185H38.101L39.2825 40.0361ZM39.4658 46.7889L39.3232 46.5954C38.7834 45.913 38.4575 45.1593 38.3047 44.2222L38.264 43.9778H40.026L40.2093 44.3954C40.3315 44.6602 40.4538 44.9352 40.5658 45.2102C40.6269 45.3731 40.5658 45.5972 40.4639 45.7093C40.2806 45.9231 40.0871 46.137 39.8732 46.3611L39.4658 46.7889ZM42.9491 48.0519V48.612L42.7251 48.5917C41.9306 48.5102 41.1973 48.225 40.4028 47.675L40.1991 47.5426L41.4825 46.2593L41.6149 46.3102C41.6964 46.3509 41.788 46.3917 41.8797 46.4324C42.063 46.5241 42.2464 46.6056 42.4297 46.6565C42.6945 46.7278 43.0001 46.8806 42.9593 47.3796C42.9389 47.5935 42.9389 47.8074 42.9491 48.0519ZM43.4278 45.8111C42.8065 45.8009 42.2158 45.5463 41.7778 45.0981C41.3297 44.6398 41.0954 44.0491 41.0954 43.4278C41.1056 42.8065 41.3602 42.2157 41.8186 41.7676C42.2667 41.3398 42.8371 41.0954 43.4482 41.0954H43.4788C44.7825 41.1157 45.8213 42.1852 45.8112 43.4787C45.801 44.7722 44.7417 45.8111 43.4584 45.8111H43.4278ZM46.5852 47.5528C45.9945 48.113 44.9352 48.5611 44.1713 48.5611H43.9575V48.0519C43.9575 47.7565 43.9575 47.4611 43.9676 47.1556C43.9676 47.0435 44.0288 46.8398 44.1917 46.7583C44.5482 46.5954 44.9149 46.4426 45.2713 46.3102C45.4343 46.2491 45.6176 46.3509 45.6991 46.4324C45.9232 46.6259 46.1371 46.8296 46.351 47.0231L46.7482 47.4L46.5852 47.5528ZM48.5917 44.1917C48.5 45.037 48.1945 45.7806 47.6038 46.5954L47.4612 46.7991L46.4528 45.7296C46.4528 45.7296 46.3917 45.6787 46.3713 45.638C46.2186 45.4037 46.463 44.8741 46.6158 44.5787C46.9417 43.9676 47.1454 43.9676 47.2167 43.9676C47.4713 43.9574 47.7362 43.9574 48.0112 43.9574H48.6223L48.5917 44.1917ZM47.7158 42.9491C47.5325 42.9491 47.3593 42.9491 47.176 42.9389C46.9926 42.9287 46.7991 42.7657 46.738 42.6231C46.6158 42.3685 46.5241 42.1139 46.4223 41.8491L46.2491 41.4213L47.5223 40.2093L47.6547 40.3926C48.1538 41.0343 48.4695 41.7981 48.6019 42.7148L48.6426 42.9491H47.7158Z" fill="black"/>
<path d="M35.7991 15.7546V19.5953H39.65V15.7546H35.7991ZM38.621 18.5664H36.8382V16.7938H38.621V18.5664Z" fill="black"/>
<path d="M51.1073 18.6167H41.5435V19.5944H51.1073V18.6167Z" fill="black"/>
<path d="M51.1074 15.7546V16.7426C51.0361 16.7528 50.9648 16.7528 50.9037 16.7528H49.213C47.6852 16.7528 46.1472 16.7528 44.6195 16.763C44.4158 16.763 44.3852 16.7324 44.3852 16.7222C44.375 16.7222 44.3547 16.6815 44.3648 16.5287C44.3852 16.3046 44.3852 16.0806 44.375 15.8463V15.7546H51.1074Z" fill="black"/>
<path d="M42.5113 15.7444H41.5435V16.7225H42.5113V15.7444Z" fill="black"/>
<path d="M35.7991 27.213V31.0537H39.65V27.213H35.7991ZM38.6108 30.0349H36.8484V28.2419H38.6108V30.0349Z" fill="black"/>
<path d="M51.0971 30.075H41.5435V31.063H51.0971V30.075Z" fill="black"/>
<path d="M51.1074 27.213H44.4158V28.1907H51.1074V27.213Z" fill="black"/>
<path d="M42.5113 27.2028H41.5435V28.191H42.5113V27.2028Z" fill="black"/>
<path d="M18.1585 12.8926H17.1907V13.8502H18.1585V12.8926Z" fill="black"/>
<path d="M21.0206 12.8824H20.063V13.8604H21.0206V12.8824Z" fill="black"/>
<path d="M23.8827 12.8824H22.925V13.8604H23.8827V12.8824Z" fill="black"/>
</g>
<defs>
<clipPath id="clip0_2325_1952">
<rect width="44" height="44" fill="white" transform="translate(10 10)"/>
</clipPath>
</defs>
</svg>
