<svg width="64" height="64" viewBox="0 0 64 64" fill="none" xmlns="http://www.w3.org/2000/svg">
<rect width="64" height="64" rx="8" fill="#EAF3FF"/>
<g clip-path="url(#clip0_2350_5364)">
<mask id="mask0_2350_5364" style="mask-type:luminance" maskUnits="userSpaceOnUse" x="10" y="10" width="44" height="44">
<path d="M54 10H10V54H54V10Z" fill="white"/>
</mask>
<g mask="url(#mask0_2350_5364)">
<path d="M24.829 34.1542C24.3637 32.9539 23.9156 31.7863 23.4536 30.6244C23.3869 30.5019 23.2919 30.3972 23.1765 30.3188C22.4636 29.7411 21.7506 29.1626 21.0271 28.5979C20.603 28.321 20.2744 27.9203 20.0858 27.4502C19.8971 26.9801 19.8577 26.4634 19.9727 25.9702C20.0666 25.4726 20.3143 25.0172 20.681 24.6681C21.0477 24.3189 21.5147 24.0938 22.0163 24.0244C22.0681 24.008 22.1187 23.9881 22.1678 23.9649C22.1067 23.8272 22.0521 23.6903 21.9861 23.5575C21.4945 22.5732 21.0015 21.5897 20.5072 20.607C20.3009 20.2119 20.1787 19.7783 20.1484 19.3336C20.1181 18.8889 20.1804 18.4427 20.3312 18.0233C20.4345 17.7893 20.485 17.5355 20.4793 17.2798C20.4735 17.0241 20.4116 16.7728 20.298 16.5436C20.1843 16.3145 20.0217 16.1132 19.8215 15.9539C19.6214 15.7947 19.3887 15.6814 19.14 15.622C18.6653 15.488 18.1981 15.3292 17.7401 15.1462C17.6189 15.0916 17.5107 15.012 17.4225 14.9125C17.3343 14.8131 17.2681 14.6961 17.2284 14.5693C17.232 14.4365 17.2662 14.3064 17.3282 14.1889C17.3902 14.0715 17.4785 13.97 17.5861 13.8922C20.383 12.0535 23.5898 10.9321 26.9231 10.6272C29.9073 10.4067 32.9015 10.3523 35.8917 10.4642C36.9533 10.5219 37.9875 10.8225 38.9147 11.3428C39.8418 11.8631 40.6372 12.5892 41.2395 13.4653C41.8418 14.3414 42.235 15.3441 42.3888 16.396C42.5427 17.448 42.453 18.5213 42.1267 19.5331C41.6965 20.8751 41.1774 22.1878 40.7 23.5135C40.6527 23.6455 40.6087 23.7791 40.5517 23.9486C40.6959 23.9853 40.8238 24.0203 40.9534 24.0496C41.4088 24.1322 41.8307 24.3448 42.1679 24.6619C42.5051 24.979 42.7432 25.387 42.8535 25.8365C42.9953 26.2853 42.9984 26.7665 42.8625 27.2171C42.7266 27.6677 42.4579 28.0669 42.0917 28.3625C41.3046 29.0477 40.4669 29.6759 39.6594 30.3376C39.5396 30.431 39.4445 30.5524 39.3824 30.6912C38.9286 31.827 38.4861 32.9678 38.0314 34.133C38.1219 34.133 38.2661 34.1493 38.4111 34.1493C40.0921 34.1493 41.7723 34.1493 43.4524 34.1493C43.9271 34.1248 44.4016 34.2003 44.8452 34.3708C45.2889 34.5413 45.6918 34.8031 46.0278 35.1393C46.3639 35.4754 46.6256 35.8783 46.796 36.322C46.9664 36.7657 47.0418 37.2402 47.0172 37.7149C47.0172 38.4637 47.005 39.2117 47.0294 39.9597C47.0389 40.041 47.0664 40.1191 47.1098 40.1884C47.1532 40.2578 47.2115 40.3166 47.2804 40.3606C48.6017 40.9541 49.7534 41.8691 50.6304 43.0219C51.5074 44.1747 52.0819 45.5288 52.3013 46.9606C52.4146 47.913 52.4601 48.8723 52.4374 49.8312C52.4561 50.4521 52.448 51.0738 52.4374 51.6947C52.4489 51.7976 52.4371 51.9019 52.4028 51.9996C52.3686 52.0974 52.3128 52.1862 52.2395 52.2595C52.1663 52.3328 52.0774 52.3886 51.9797 52.4228C51.8819 52.4571 51.7777 52.4689 51.6747 52.4573C51.5761 52.4573 51.4775 52.4573 51.3781 52.4573H11.4774C10.5811 52.4573 10.4019 52.2944 10.4125 51.4054C10.3734 50.051 10.4049 48.6955 10.507 47.3444C10.6509 45.8742 11.1768 44.4672 12.0326 43.2631C12.8883 42.059 14.0442 41.0997 15.3853 40.4804C15.5333 40.431 15.6599 40.3322 15.7438 40.2007C15.8278 40.0691 15.864 39.9127 15.8465 39.7576C15.7944 38.8279 15.8162 37.8956 15.9117 36.9693C16.026 36.1774 16.4254 35.4543 17.0349 34.9359C17.6444 34.4174 18.4222 34.1392 19.2223 34.1533C21.0963 34.1395 22.9777 34.1533 24.8266 34.1533M45.6646 51.0885V50.6371C45.6646 46.3457 45.6646 42.0543 45.6646 37.763C45.696 37.4585 45.6588 37.151 45.5559 36.8627C45.453 36.5745 45.2869 36.313 45.0698 36.0973C44.8527 35.8816 44.5901 35.7172 44.3012 35.6161C44.0123 35.5151 43.7045 35.4799 43.4003 35.5133H19.4691C19.1608 35.4772 18.8484 35.5114 18.5551 35.6134C18.2619 35.7153 17.9956 35.8822 17.7761 36.1017C17.5566 36.3212 17.3897 36.5876 17.2877 36.8808C17.1858 37.174 17.1516 37.4864 17.1877 37.7948C17.1877 42.0731 17.1877 46.3517 17.1877 50.6305V51.0958L45.6646 51.0885ZM40.229 20.8368C40.4099 20.3349 40.5989 19.8346 40.7717 19.3294C41.0764 18.4744 41.1708 17.5586 41.0468 16.6595C40.9228 15.7603 40.5841 14.9042 40.0593 14.1636C39.5345 13.423 38.8391 12.8197 38.0318 12.4047C37.2246 11.9897 36.3293 11.7752 35.4216 11.7793C33.459 11.7679 31.4961 11.7679 29.5329 11.7793C26.7026 11.7939 23.9033 12.3705 21.2976 13.4758C20.7272 13.7202 20.1691 13.9989 19.5783 14.2751C19.6598 14.3501 19.6761 14.3778 19.6989 14.3851C20.105 14.5216 20.4788 14.7398 20.7974 15.0261C21.116 15.3125 21.3726 15.6611 21.5514 16.0504C21.7303 16.4396 21.8276 16.8614 21.8373 17.2897C21.847 17.7179 21.769 18.1437 21.608 18.5407C21.4795 18.8836 21.4718 19.2601 21.586 19.6081C21.9266 20.4685 22.3674 21.2899 22.7797 22.1487C24.3279 21.1171 25.832 20.1206 27.3305 19.1135C28.4496 18.3335 29.7766 17.9064 31.1406 17.8872C32.5372 17.8927 33.8901 17.4001 34.9563 16.4979C35.4229 16.1101 35.8966 15.7298 36.3774 15.3572C36.4467 15.2845 36.5319 15.2287 36.6264 15.1944C36.7208 15.16 36.822 15.148 36.9218 15.1592C37.0217 15.1704 37.1177 15.2045 37.2022 15.259C37.2866 15.3134 37.3574 15.3866 37.4089 15.4729C38.5 17.1702 39.8974 18.7183 40.229 20.8368ZM23.9865 25.3493C23.9865 25.5122 23.9816 25.6377 23.9865 25.7616C24.1106 28.5924 24.9018 31.3539 26.2957 33.8209C26.3468 33.9329 26.432 34.026 26.5391 34.0868C26.6462 34.1477 26.7697 34.1732 26.8921 34.1599C29.914 34.1501 32.9356 34.1501 35.9569 34.1599C36.0794 34.1738 36.2032 34.1487 36.3107 34.0882C36.4181 34.0276 36.5036 33.9346 36.555 33.8225C37.7654 31.6786 38.5233 29.3092 38.7819 26.8608C38.8348 26.3637 38.8487 25.8626 38.8813 25.3648H37.5279C37.5279 26.0508 37.5368 26.7116 37.5279 27.3725C37.5301 27.9087 37.3193 28.4239 36.942 28.8049C36.5646 29.1859 36.0515 29.4016 35.5153 29.4046C35.0492 29.4152 34.5831 29.416 34.1171 29.4046C33.5812 29.3988 33.0693 29.1814 32.6929 28.7999C32.3165 28.4183 32.1062 27.9035 32.1077 27.3676C32.1077 27.1492 32.1077 26.93 32.1077 26.7157H30.7478C30.7478 26.9471 30.7478 27.1549 30.7478 27.3676C30.7486 27.6365 30.696 27.9028 30.593 28.1512C30.49 28.3996 30.3388 28.6251 30.148 28.8146C29.9572 29.0041 29.7307 29.1538 29.4816 29.2551C29.2325 29.3564 28.9658 29.4072 28.6969 29.4046C28.3303 29.4111 27.9636 29.4046 27.5961 29.4046C27.2881 29.4384 26.9765 29.4022 26.6844 29.2988C26.3924 29.1954 26.1274 29.0275 25.9092 28.8075C25.691 28.5876 25.5253 28.3212 25.4243 28.0283C25.3233 27.7354 25.2897 27.4235 25.326 27.1158C25.326 26.5291 25.326 25.9425 25.326 25.3476L23.9865 25.3493ZM32.0914 25.3183C32.0971 25.205 32.1037 25.1219 32.1045 25.0396C32.1183 24.1344 32.2674 23.9804 33.1637 23.9804H38.7966C39.0259 22.7109 38.9496 21.405 38.5739 20.1709C38.1983 18.9368 37.5342 17.8098 36.6365 16.8833C36.3994 17.0732 36.1321 17.2777 35.8738 17.4945C34.543 18.6361 32.8442 19.2578 31.0908 19.2447C30.0245 19.2656 28.9889 19.6062 28.1184 20.2225C26.9233 21.0248 25.7264 21.8238 24.5275 22.6196C23.9025 23.036 23.8374 23.2128 24.0386 23.9836H24.4542C26.2756 23.9836 28.0972 23.9836 29.9191 23.9836C30.5026 23.9836 30.7405 24.2281 30.7503 24.8042C30.7503 24.9671 30.7503 25.1342 30.7503 25.3183H32.0914ZM15.8123 41.7205C15.3234 42.0579 14.8809 42.3251 14.4833 42.6494C11.7577 44.8739 11.5581 47.9058 11.8197 51.0713H15.8123V41.7205ZM47.0506 41.7629V51.0844H51.1679C51.1588 49.6432 51.0608 48.204 50.8746 46.7748C50.666 45.7014 50.2124 44.6907 49.5492 43.8213C48.8859 42.952 48.0308 42.2475 47.0506 41.7629ZM26.6803 25.3566V27.093C26.6803 27.1745 26.6803 27.2616 26.6803 27.3464C26.6755 27.4349 26.6887 27.5235 26.7189 27.6068C26.7491 27.6902 26.7958 27.7666 26.8562 27.8315C26.9165 27.8964 26.9894 27.9485 27.0703 27.9847C27.1512 28.021 27.2386 28.0405 27.3272 28.0422C27.8055 28.0642 28.2854 28.0634 28.7629 28.0422C28.9151 28.047 29.0631 27.9923 29.1757 27.8898C29.2882 27.7873 29.3564 27.645 29.3659 27.493C29.4017 26.7842 29.3773 26.0704 29.3773 25.3582L26.6803 25.3566ZM33.4595 25.3566V27.1362C33.4595 27.2062 33.4595 27.2771 33.4595 27.3472C33.4551 27.436 33.4687 27.5248 33.4993 27.6083C33.53 27.6917 33.5771 27.7682 33.638 27.833C33.6988 27.8979 33.7721 27.9498 33.8534 27.9858C33.9347 28.0217 34.0225 28.0409 34.1114 28.0422C34.5888 28.0634 35.0696 28.0634 35.5463 28.0422C35.6984 28.0463 35.8463 27.9912 35.9586 27.8884C36.0709 27.7857 36.139 27.6434 36.1484 27.4914C36.1843 26.7825 36.1598 26.0696 36.1598 25.359L33.4595 25.3566ZM22.8685 28.3331C22.7683 27.2828 22.6754 26.3197 22.5834 25.3599C22.3296 25.3203 22.0699 25.3669 21.8458 25.4923C21.6217 25.6177 21.4461 25.8146 21.3471 26.0516C21.2481 26.2886 21.2314 26.5519 21.2997 26.7995C21.3679 27.047 21.5173 27.2646 21.7237 27.4173C22.0782 27.713 22.444 27.995 22.8645 28.3331M39.9528 28.3665C40.4571 27.951 40.8988 27.6267 41.2915 27.2527C41.4572 27.0851 41.563 26.8676 41.5924 26.6338C41.6219 26.4 41.5734 26.163 41.4545 25.9596C41.3433 25.744 41.1645 25.5709 40.9455 25.4669C40.7265 25.3628 40.4793 25.3335 40.242 25.3835C40.2103 25.8545 40.1899 26.3319 40.1434 26.807C40.097 27.282 40.0269 27.7709 39.9528 28.3665Z" fill="black"/>
<path d="M51.5605 52.6652H11.4773C11.1154 52.7173 10.7475 52.6242 10.4539 52.4061C10.3494 52.2638 10.2739 52.1022 10.232 51.9306C10.19 51.7591 10.1824 51.5809 10.2095 51.4064C10.2144 51.0152 10.2095 50.6152 10.2095 50.2289C10.1812 49.2596 10.2136 48.2894 10.3064 47.3241C10.4528 45.8201 10.9904 44.3807 11.8656 43.1489C12.7409 41.9171 13.9234 40.9359 15.2955 40.3029C15.5824 40.157 15.6508 40.0519 15.6451 39.7651C15.6451 39.6274 15.6394 39.4889 15.6361 39.3512C15.5956 38.5481 15.6209 37.7431 15.7119 36.9442C15.828 36.1047 16.2502 35.3377 16.8975 34.7906C17.5515 34.2512 18.3727 33.9559 19.2205 33.9555C19.8805 33.9506 20.5878 33.9481 21.4466 33.9481H23.1471H24.5282L24.3367 33.4535C23.9693 32.5043 23.623 31.608 23.2604 30.6978C23.2043 30.6095 23.1308 30.5336 23.0444 30.4746L22.9825 30.4241C22.3021 29.8732 21.5973 29.3029 20.8982 28.7553C20.4442 28.4548 20.093 28.0224 19.892 27.5164C19.691 27.0103 19.6497 26.4548 19.7738 25.9246C19.8743 25.4037 20.1308 24.9255 20.5091 24.5535C20.8874 24.1814 21.3697 23.933 21.8923 23.8412C21.8638 23.7752 21.8344 23.7116 21.8035 23.6489C21.3146 22.6711 20.8167 21.677 20.3246 20.6984C20.107 20.279 19.9781 19.8192 19.9458 19.3478C19.9136 18.8764 19.9787 18.4034 20.1372 17.9582C20.2314 17.7494 20.2781 17.5222 20.2739 17.2932C20.2697 17.0641 20.2147 16.8389 20.1129 16.6336C20.0111 16.4284 19.865 16.2483 19.6852 16.1064C19.5054 15.9644 19.2963 15.8642 19.073 15.8128C18.9166 15.759 18.7544 15.7101 18.5964 15.6621C18.2745 15.573 17.9594 15.4608 17.6536 15.3264C17.5014 15.2581 17.3661 15.1569 17.2576 15.0301C17.1492 14.9033 17.0701 14.754 17.0262 14.593C17.0245 14.4215 17.0647 14.2522 17.1434 14.0998C17.2221 13.9475 17.3368 13.8166 17.4776 13.7187C20.3036 11.8646 23.5417 10.733 26.9075 10.4236C28.8321 10.2778 30.8292 10.2036 32.8442 10.2036C33.8489 10.2036 34.8764 10.2224 35.8989 10.2582C36.9746 10.2978 38.0261 10.5882 38.9697 11.1061C39.9132 11.624 40.7228 12.3551 41.3338 13.2412C41.9612 14.1347 42.3815 15.1568 42.5641 16.2332C42.7541 17.3567 42.6702 18.5094 42.3197 19.5935C42.0247 20.5135 41.6841 21.4326 41.3541 22.3215C41.2009 22.7338 41.0429 23.1608 40.8913 23.5812C40.8652 23.6529 40.8408 23.7255 40.8139 23.8053C40.8767 23.8216 40.9378 23.8371 40.9989 23.8509C41.4898 23.9426 41.944 24.1734 42.3075 24.5157C42.6711 24.858 42.9287 25.2976 43.0498 25.7821C43.2043 26.2683 43.2083 26.79 43.0611 27.2786C42.914 27.7671 42.6226 28.1998 42.2252 28.5198C41.7249 28.9558 41.1969 29.3738 40.6868 29.7787C40.391 30.0134 40.0847 30.2562 39.7905 30.499C39.6976 30.5708 39.6232 30.6639 39.5738 30.7704C39.2307 31.6275 38.9032 32.4692 38.5552 33.3606L38.3263 33.9473H38.4135H43.4555C43.957 33.9228 44.458 34.0036 44.9263 34.1844C45.3947 34.3651 45.82 34.6419 46.175 34.997C46.53 35.352 46.8067 35.7774 46.9873 36.2458C47.168 36.7142 47.2486 37.2152 47.2241 37.7166C47.2241 37.9448 47.2241 38.1729 47.2241 38.4011C47.2241 38.9112 47.2241 39.4384 47.2371 39.9549C47.2535 40.0442 47.3023 40.1242 47.374 40.1798C48.7238 40.7877 49.9004 41.7231 50.7969 42.9012C51.6933 44.0793 52.2813 45.4627 52.5073 46.9257C52.6088 47.6271 52.6518 48.3357 52.6361 49.0442C52.6361 49.3017 52.6361 49.5681 52.6467 49.8272C52.6662 50.4709 52.6564 51.1236 52.6467 51.7013C52.6583 51.8304 52.6416 51.9604 52.5976 52.0823C52.5536 52.2042 52.4834 52.3149 52.3919 52.4067C52.3005 52.4985 52.1901 52.5692 52.0684 52.6137C51.9467 52.6582 51.8167 52.6756 51.6876 52.6644L51.5605 52.6652ZM21.4466 34.3539C20.5886 34.3539 19.8821 34.3539 19.223 34.3612C18.4706 34.3433 17.7379 34.6024 17.1641 35.0893C16.5902 35.5761 16.2152 36.2568 16.1104 37.0021C16.0228 37.7788 15.9985 38.5615 16.0378 39.3422C16.0411 39.4813 16.0441 39.6201 16.0468 39.7586C16.0655 39.9517 16.0196 40.1457 15.9164 40.31C15.8132 40.4744 15.6585 40.5999 15.4764 40.6671C14.1655 41.2714 13.0356 42.2084 12.199 43.3849C11.3625 44.5614 10.8485 45.9363 10.7081 47.373C10.6176 48.3208 10.586 49.2732 10.6136 50.2249C10.6136 50.6135 10.6201 51.0152 10.6136 51.4104C10.6071 51.8056 10.6454 52.0224 10.7407 52.1185C10.8361 52.2146 11.0504 52.2562 11.4741 52.2562H51.5605H51.6721C52.0673 52.2432 52.2311 52.0802 52.2376 51.694C52.2458 51.1236 52.2547 50.4718 52.2376 49.8403C52.2303 49.5763 52.2286 49.3074 52.227 49.0475C52.2422 48.3624 52.201 47.6773 52.104 46.999C51.8875 45.6 51.325 44.2772 50.4675 43.1508C49.6101 42.0244 48.4848 41.13 47.1939 40.5489C47.092 40.4883 47.0058 40.4044 46.9423 40.3042C46.8789 40.204 46.84 40.0902 46.8289 39.9721C46.8118 39.4473 46.8142 38.9128 46.8158 38.4027C46.8158 38.1754 46.8158 37.9481 46.8158 37.7207C46.8403 37.2728 46.7701 36.8247 46.6098 36.4057C46.4495 35.9866 46.2028 35.6061 45.8856 35.2888C45.5684 34.9716 45.1879 34.7247 44.7689 34.5643C44.35 34.4039 43.9019 34.3336 43.4539 34.358H38.4118C38.3018 34.358 38.1951 34.3515 38.1087 34.3466L38.0232 34.3417L37.7388 34.3286L37.8423 34.0638L38.1739 33.214C38.5218 32.3218 38.8502 31.4792 39.1941 30.6204C39.2694 30.4496 39.3855 30.3 39.5322 30.1845C39.8304 29.9401 40.1376 29.6956 40.435 29.4609C40.9418 29.0592 41.4658 28.6461 41.9587 28.2143C42.2965 27.9426 42.544 27.575 42.6688 27.1599C42.7936 26.7448 42.7898 26.3017 42.6578 25.8888C42.5566 25.475 42.3374 25.0995 42.0268 24.8079C41.7163 24.5163 41.3278 24.3212 40.9084 24.2461C40.8082 24.2233 40.7104 24.1981 40.6069 24.1712L40.2892 24.0897L40.4008 23.7581C40.4391 23.6424 40.4725 23.5429 40.5084 23.4427C40.6607 23.0206 40.8188 22.5929 40.9728 22.1789C41.2987 21.2941 41.641 20.3798 41.9327 19.4689C42.2547 18.4662 42.3381 17.4022 42.1763 16.3616C42.0144 15.321 41.6118 14.3326 41.0005 13.4751C40.4254 12.6407 39.6634 11.9522 38.7751 11.4644C37.8869 10.9767 36.897 10.7031 35.8843 10.6656C34.8658 10.6298 33.8432 10.611 32.8434 10.611C30.839 10.611 28.8508 10.6844 26.9376 10.8302C23.6382 11.135 20.4641 12.2455 17.6944 14.0642C17.6199 14.1218 17.5581 14.194 17.5127 14.2764C17.4673 14.3588 17.4393 14.4496 17.4304 14.5433C17.5042 14.7284 17.6462 14.878 17.8272 14.9613C18.115 15.0873 18.4116 15.1924 18.7145 15.2758C18.8775 15.3247 19.0404 15.3752 19.2034 15.4315C19.4732 15.5102 19.7248 15.6414 19.9438 15.8176C20.1627 15.9938 20.3448 16.2114 20.4794 16.4581C20.5949 16.7139 20.6582 16.9902 20.6655 17.2707C20.6728 17.5513 20.6239 17.8304 20.5218 18.0918C20.3788 18.4856 20.3195 18.9047 20.3475 19.3227C20.3756 19.7406 20.4904 20.1481 20.6847 20.5192C21.1736 21.4969 21.6747 22.4902 22.1636 23.4696C22.2117 23.5649 22.2541 23.6635 22.2948 23.7589C22.3127 23.8004 22.3307 23.8404 22.3494 23.8835L22.4358 24.0783L22.237 24.1598L22.1742 24.1866C22.1352 24.2056 22.0942 24.2201 22.052 24.2298C21.5894 24.2929 21.1584 24.4999 20.8201 24.8217C20.4818 25.1435 20.2534 25.5636 20.1673 26.0224C20.06 26.4775 20.0964 26.9547 20.2715 27.3882C20.4466 27.8218 20.7518 28.1903 21.1451 28.4432C21.8491 28.9932 22.5539 29.5644 23.2351 30.1161L23.297 30.1666C23.4403 30.2654 23.5563 30.3988 23.6344 30.5544C23.9978 31.467 24.3449 32.3649 24.7124 33.315L25.0114 34.0866L25.119 34.3637H24.8289H23.1495L21.4466 34.3539ZM45.8682 51.2923H16.9855V50.6233C16.9855 46.3444 16.9855 42.0659 16.9855 37.7875C16.9505 37.4529 16.9907 37.1148 17.1031 36.7977C17.2156 36.4806 17.3974 36.1927 17.6353 35.9548C17.8732 35.717 18.1612 35.5353 18.4783 35.423C18.7955 35.3106 19.1336 35.2705 19.4682 35.3056H43.3993C43.7304 35.2722 44.0648 35.3126 44.3784 35.4239C44.692 35.5352 44.9771 35.7145 45.2131 35.9491C45.4491 36.1837 45.6301 36.4677 45.7433 36.7807C45.8564 37.0936 45.8988 37.4277 45.8674 37.759C45.8674 40.9813 45.8674 44.2034 45.8674 47.4252L45.8682 51.2923ZM17.3929 50.8849H45.4608V47.426C45.4608 44.2042 45.4608 40.9822 45.4608 37.7598C45.492 37.4823 45.4601 37.2013 45.3673 36.9378C45.2746 36.6743 45.1235 36.4353 44.9253 36.2385C44.7271 36.0417 44.4869 35.8923 44.2228 35.8014C43.9587 35.7106 43.6775 35.6806 43.4001 35.7138H19.469C19.1883 35.6779 18.9031 35.7067 18.6352 35.7981C18.3674 35.8894 18.1239 36.0408 17.9236 36.2407C17.7233 36.4406 17.5714 36.6838 17.4796 36.9515C17.3877 37.2191 17.3583 37.5043 17.3937 37.7851C17.3937 42.0634 17.3937 46.342 17.3937 50.6209L17.3929 50.8849ZM51.3837 51.2923H46.8468V41.4184L47.1491 41.5813C48.1558 42.0801 49.0338 42.8045 49.7147 43.6981C50.3956 44.5917 50.8611 45.6304 51.0749 46.7334C51.2331 47.7208 51.3149 48.7189 51.3193 49.7189C51.3324 50.1613 51.3462 50.6152 51.3731 51.0682L51.3837 51.2923ZM47.2534 50.8849H50.9518C50.9323 50.5003 50.9209 50.1141 50.9095 49.7392C50.9071 48.7603 50.8284 47.7831 50.674 46.8165C50.4847 45.8299 50.0798 44.8973 49.4882 44.0854C48.8966 43.2735 48.1329 42.6023 47.2518 42.1199L47.2534 50.8849ZM16.015 51.2792H11.6289L11.6134 51.0926C11.3576 47.9963 11.5124 44.8145 14.3512 42.4955C14.6274 42.2698 14.9215 42.0735 15.2353 41.8657C15.3835 41.7671 15.5367 41.6652 15.6924 41.5569L16.0118 41.3352L16.015 51.2792ZM12.007 50.8718H15.6084V42.1036L15.4642 42.1998C15.1603 42.4018 14.8727 42.5933 14.6119 42.806C11.9752 44.9604 11.7829 47.9434 12.0078 50.8678L12.007 50.8718ZM35.9625 34.3629H35.9576C34.4543 34.358 32.9298 34.3555 31.4264 34.3555C29.9231 34.3555 28.3978 34.3555 26.8944 34.3629H26.8895C26.7316 34.3756 26.5736 34.3401 26.4362 34.2611C26.2989 34.1821 26.1888 34.0633 26.1204 33.9204C24.7139 31.425 23.9137 28.6339 23.7843 25.7723C23.7843 25.6835 23.7843 25.5987 23.7843 25.5009C23.7843 25.4545 23.7843 25.4048 23.7843 25.3502V25.1465H25.5296V25.9442C25.5296 26.3369 25.5296 26.7272 25.5296 27.1184C25.4929 27.3995 25.521 27.6853 25.6118 27.9539C25.7027 28.2224 25.8537 28.4667 26.0535 28.6679C26.2533 28.869 26.4964 29.0218 26.7643 29.1145C27.0323 29.2072 27.3179 29.2374 27.5992 29.2026C27.8241 29.2026 28.0482 29.2026 28.2731 29.2026C28.4361 29.2026 28.5697 29.2026 28.6968 29.2026C28.9397 29.2051 29.1807 29.1593 29.4057 29.0678C29.6308 28.9763 29.8354 28.841 30.0076 28.6697C30.1799 28.4984 30.3164 28.2946 30.4092 28.0701C30.5019 27.8456 30.5492 27.6049 30.5481 27.362C30.5481 27.2275 30.5481 27.0923 30.5481 26.9489C30.5481 26.8739 30.5481 26.7973 30.5481 26.7183V26.5146H32.3138V26.7183C32.3138 26.7884 32.3138 26.8592 32.3138 26.9301C32.3138 27.0719 32.3138 27.2186 32.3138 27.362C32.3112 27.6012 32.3558 27.8386 32.4452 28.0606C32.5345 28.2825 32.6667 28.4847 32.8343 28.6554C33.0019 28.8262 33.2015 28.9622 33.4218 29.0557C33.642 29.1492 33.8785 29.1983 34.1178 29.2002C34.5627 29.2108 35.0279 29.2108 35.5029 29.2002C35.7427 29.2003 35.9801 29.1529 36.2014 29.0606C36.4227 28.9683 36.6235 28.833 36.7921 28.6625C36.9607 28.4921 37.0939 28.2899 37.1838 28.0676C37.2737 27.8453 37.3186 27.6074 37.3159 27.3677C37.3241 26.9122 37.3216 26.4649 37.3159 25.9915C37.3159 25.784 37.3159 25.5745 37.3159 25.3632V25.1595H39.0906L39.0767 25.3763C39.0661 25.5344 39.058 25.6965 39.0498 25.8529C39.0319 26.1895 39.014 26.5382 38.9773 26.8812C38.7135 29.3566 37.9475 31.7521 36.726 33.9212C36.6579 34.0631 36.5486 34.1811 36.4124 34.2599C36.2762 34.3387 36.1194 34.3746 35.9625 34.3629ZM24.1884 25.5531C24.1884 25.6248 24.1884 25.6892 24.1884 25.7519C24.314 28.55 25.0955 31.2794 26.4699 33.72C26.5029 33.7998 26.5617 33.8663 26.6368 33.909C26.7119 33.9517 26.7992 33.968 26.8847 33.9555C28.3921 33.9506 29.9174 33.9481 31.4215 33.9481C32.9257 33.9481 34.4502 33.9481 35.9544 33.9555C36.0403 33.9691 36.1283 33.9535 36.2043 33.9113C36.2804 33.869 36.3401 33.8026 36.374 33.7224C37.568 31.6012 38.3166 29.2586 38.574 26.8381C38.6098 26.5064 38.6278 26.1634 38.6449 25.8318C38.6498 25.7446 38.6538 25.6558 38.6587 25.5669H37.7315C37.7315 25.7087 37.7315 25.8497 37.7315 25.9898C37.7315 26.4657 37.7315 26.9146 37.7274 27.375C37.727 27.9634 37.4946 28.5278 37.0805 28.9458C36.6665 29.3638 36.1043 29.6016 35.516 29.6076C35.0271 29.6182 34.5586 29.6182 34.108 29.6076C33.52 29.5988 32.959 29.3594 32.5459 28.9408C32.1329 28.5223 31.9008 27.9582 31.8998 27.3701C31.8998 27.221 31.8998 27.0719 31.8998 26.9277V26.922H30.9522V26.9464C30.9522 27.0923 30.9522 27.23 30.9522 27.3701C30.9535 27.6656 30.8961 27.9583 30.7833 28.2314C30.6704 28.5044 30.5045 28.7523 30.295 28.9607C30.0855 29.169 29.8367 29.3336 29.563 29.445C29.2894 29.5563 28.9963 29.6122 28.7009 29.6092C28.5713 29.6092 28.4344 29.6092 28.2707 29.6092C28.0458 29.6092 27.8209 29.6092 27.596 29.6092C27.2614 29.6425 26.9235 29.6008 26.6071 29.4871C26.2906 29.3733 26.0035 29.1905 25.7666 28.9518C25.5298 28.7131 25.3491 28.4246 25.2377 28.1073C25.1264 27.79 25.0872 27.4519 25.123 27.1175C25.123 26.7272 25.123 26.3361 25.123 25.9434V25.5531H24.1884ZM39.6911 28.8482L39.7547 28.3406C39.7775 28.1548 39.8003 27.9796 39.8223 27.8118C39.8712 27.4378 39.9127 27.1151 39.9445 26.7859C39.9763 26.4567 39.9958 26.1226 40.0154 25.7975C40.0244 25.6541 40.0325 25.5107 40.0423 25.3681L40.0537 25.2011L40.2167 25.1799C40.2947 25.1698 40.3734 25.1647 40.4521 25.1644C40.712 25.162 40.9668 25.236 41.1849 25.3772C41.403 25.5184 41.5748 25.7205 41.679 25.9586C41.7832 26.1966 41.8151 26.46 41.7708 26.716C41.7265 26.9721 41.608 27.2094 41.4299 27.3986C41.1529 27.6626 40.8522 27.903 40.5336 28.1572C40.3878 28.2738 40.2378 28.3935 40.0806 28.5223L39.6911 28.8482ZM40.4375 25.5726C40.4326 25.6558 40.4274 25.7389 40.422 25.822C40.4024 26.1479 40.3821 26.4893 40.3495 26.825C40.3169 27.1607 40.2729 27.5029 40.2256 27.8639V27.8884L40.2867 27.8395C40.5988 27.5901 40.8929 27.3555 41.1569 27.1061C41.2772 26.9719 41.3554 26.8052 41.3817 26.6269C41.408 26.4486 41.3812 26.2664 41.3048 26.1032C41.2284 25.9399 41.1057 25.8027 40.9519 25.7087C40.7981 25.6146 40.6201 25.5679 40.4399 25.5743L40.4375 25.5726ZM23.1178 28.7912L22.7421 28.4921L22.3714 28.1988C22.0993 27.9837 21.8426 27.7808 21.5941 27.5738C21.3544 27.394 21.1813 27.1395 21.1021 26.8506C21.0228 26.5616 21.0419 26.2544 21.1563 25.9775C21.2707 25.7005 21.4739 25.4695 21.734 25.3207C21.9941 25.1719 22.2963 25.1137 22.593 25.1555L22.769 25.1644L22.7861 25.3396C22.8424 25.9287 22.8986 26.5178 22.9573 27.1322L23.1178 28.7912ZM22.3983 25.5629C22.213 25.557 22.0305 25.6086 21.8758 25.7108C21.7211 25.8129 21.6019 25.9605 21.5346 26.1332C21.4511 26.3294 21.4373 26.5482 21.4955 26.7533C21.5538 26.9583 21.6806 27.1372 21.8548 27.2601C22.0993 27.463 22.3518 27.6675 22.6207 27.8753L22.5531 27.1664C22.4993 26.6221 22.448 26.0901 22.3983 25.5629ZM34.8104 28.2624C34.5773 28.2624 34.3394 28.2575 34.1031 28.2469C33.9895 28.2442 33.8775 28.2192 33.7736 28.1733C33.6696 28.1273 33.5758 28.0613 33.4974 27.979C33.419 27.8968 33.3576 27.7999 33.3167 27.6938C33.2757 27.5878 33.2561 27.4748 33.259 27.3612C33.259 27.3025 33.259 27.2471 33.259 27.1933C33.259 27.1746 33.259 27.1567 33.259 27.1379V25.1555H36.3658V25.3592C36.3658 25.5637 36.3658 25.7731 36.3699 25.9752C36.3748 26.4755 36.3805 26.9921 36.3544 27.5021C36.3423 27.7044 36.2531 27.8943 36.1052 28.0327C35.9572 28.1711 35.7618 28.2475 35.5592 28.2461C35.3115 28.2558 35.0605 28.2624 34.8104 28.2624ZM33.6639 25.5629V27.1387C33.6639 27.1583 33.6639 27.1778 33.6639 27.1982C33.6639 27.2471 33.6639 27.2935 33.6639 27.3384C33.659 27.4017 33.6671 27.4653 33.6876 27.5254C33.7082 27.5855 33.7408 27.6407 33.7834 27.6878C33.826 27.7348 33.8778 27.7727 33.9356 27.7991C33.9934 27.8254 34.0559 27.8397 34.1194 27.8411C34.3492 27.8509 34.5814 27.8566 34.8079 27.8566C35.0524 27.8566 35.2968 27.8509 35.5347 27.8386C35.636 27.8443 35.7353 27.8099 35.8115 27.743C35.8877 27.6762 35.9346 27.582 35.9421 27.4809C35.9674 26.9839 35.9625 26.473 35.9576 25.9792C35.9576 25.8424 35.9576 25.703 35.9576 25.5629H33.6639ZM28.0278 28.2632C27.7924 28.2632 27.5544 28.2575 27.3206 28.2469C27.2066 28.2442 27.0943 28.219 26.9902 28.1727C26.886 28.1263 26.7921 28.0597 26.7139 27.9768C26.6357 27.8939 26.5747 27.7963 26.5345 27.6896C26.4943 27.583 26.4757 27.4694 26.4797 27.3555C26.4797 27.287 26.4797 27.2226 26.4797 27.1599C26.4797 27.1363 26.4797 27.1135 26.4797 27.0898V25.1555H29.5858V25.3592C29.5858 25.5645 29.5858 25.7739 29.5898 25.9768C29.5947 26.4771 29.6004 26.9945 29.5744 27.5046C29.5624 27.707 29.473 27.8971 29.3246 28.0353C29.1762 28.1736 28.9803 28.2493 28.7775 28.2469C28.5273 28.2518 28.2755 28.2615 28.0287 28.2615L28.0278 28.2632ZM26.8871 25.5621V27.0947C26.8871 27.12 26.8871 27.1444 26.8871 27.1697C26.8871 27.2284 26.8871 27.2838 26.8871 27.3367C26.8819 27.3999 26.8896 27.4634 26.9098 27.5235C26.93 27.5836 26.9623 27.6389 27.0046 27.686C27.047 27.7332 27.0985 27.7712 27.156 27.7977C27.2136 27.8242 27.276 27.8387 27.3393 27.8403C27.807 27.8615 28.2845 27.8606 28.7571 27.8403C28.8578 27.8453 28.9565 27.8111 29.0325 27.7448C29.1084 27.6786 29.1558 27.5854 29.1645 27.485C29.1898 26.9872 29.1849 26.4763 29.18 25.9817C29.18 25.8448 29.18 25.7046 29.18 25.5637L26.8871 25.5621ZM32.2877 25.5246H30.5448V25.3184C30.5448 25.2549 30.5448 25.1938 30.5448 25.1343C30.5448 25.021 30.5448 24.9135 30.5448 24.8084C30.5367 24.3398 30.3818 24.1891 29.9174 24.1891C29.1979 24.1891 28.4084 24.1891 27.4322 24.1891H23.8796L23.8405 24.0359C23.6213 23.1828 23.7183 22.9164 24.4166 22.4511L25.4555 21.7585C26.2923 21.2012 27.1576 20.6243 28.0067 20.0539C28.9113 19.4168 29.9861 19.0652 31.0924 19.0444C32.7996 19.0617 34.4547 18.4559 35.7474 17.3406C35.9267 17.1898 36.1084 17.0464 36.2844 16.9079L36.5141 16.7262L36.6641 16.6064L36.7928 16.7482C37.6877 17.7092 38.3613 18.8545 38.7663 20.1036C39.1484 21.3726 39.2282 22.7134 38.9993 24.0188L38.9716 24.1899H33.1661C32.7432 24.1899 32.5419 24.2266 32.4482 24.3195C32.3545 24.4124 32.3146 24.6177 32.3081 25.0471C32.3081 25.1074 32.3081 25.1669 32.2999 25.2361C32.2999 25.2663 32.2999 25.2981 32.295 25.3331L32.2877 25.5246ZM30.9555 25.1172H31.9007C31.9007 25.0903 31.9007 25.065 31.9007 25.0406C31.8537 24.6829 31.9468 24.3208 32.1606 24.0302C32.4499 23.8181 32.8112 23.7288 33.1661 23.7817H38.6253C38.8175 22.5989 38.7363 21.3878 38.388 20.2413C38.0397 19.0947 37.4336 18.0431 36.616 17.167L36.5345 17.2306C36.361 17.3675 36.1825 17.5084 36.0081 17.6551C34.6389 18.824 32.8951 19.462 31.0948 19.4526C30.069 19.4738 29.073 19.8012 28.2348 20.3929C27.385 20.9632 26.5196 21.5401 25.682 22.0983L24.6431 22.7909C24.133 23.1306 24.0662 23.2301 24.1974 23.7817H27.4322C28.41 23.7817 29.1987 23.7817 29.9182 23.7817C30.0577 23.7603 30.2003 23.7717 30.3345 23.8152C30.4688 23.8587 30.591 23.9329 30.6915 24.032C30.7919 24.1311 30.8678 24.2524 30.9131 24.386C30.9584 24.5197 30.9718 24.6621 30.9522 24.8018C30.9538 24.9053 30.953 25.008 30.953 25.1155L30.9555 25.1172ZM22.6981 22.4519L22.5963 22.2401C22.4798 21.9956 22.3592 21.7512 22.2418 21.5173C21.9477 20.9241 21.6438 20.3106 21.3969 19.6864C21.2632 19.2915 21.2704 18.8625 21.4173 18.4724C21.5709 18.0837 21.642 17.6674 21.6261 17.2498C21.6103 16.8322 21.5078 16.4225 21.3252 16.0466C21.1594 15.7001 20.9243 15.3911 20.6345 15.1389C20.3447 14.8866 20.0063 14.6964 19.6401 14.58C19.5876 14.562 19.5409 14.5302 19.5049 14.4879C19.4902 14.4732 19.4698 14.4521 19.4397 14.4244L19.2164 14.2182L19.4918 14.0895C19.6784 14.0023 19.8642 13.9135 20.0435 13.8271C20.4444 13.6348 20.8224 13.4531 21.2184 13.2869C23.8489 12.1742 26.6735 11.5927 29.5295 11.5758C30.5073 11.5701 31.4981 11.5676 32.4759 11.5676C33.4537 11.5676 34.4445 11.5676 35.4215 11.5758C36.3609 11.5722 37.2874 11.7947 38.1227 12.2244C38.9581 12.6542 39.6778 13.2786 40.2211 14.045C40.7644 14.8114 41.1154 15.6972 41.2444 16.6278C41.3734 17.5583 41.2766 18.5062 40.9622 19.3915C40.8441 19.7369 40.7178 20.0849 40.5939 20.4214C40.5352 20.5844 40.4769 20.7446 40.4187 20.9021L40.026 20.8646C39.6758 19.338 38.9787 17.9125 37.989 16.6985C37.7364 16.3359 37.4756 15.9611 37.2328 15.583C37.1989 15.5185 37.1486 15.464 37.0869 15.4251C37.0253 15.3862 36.9545 15.3642 36.8816 15.3614C36.7394 15.3703 36.604 15.4255 36.4962 15.5186C36.0399 15.8706 35.5771 16.2422 35.0817 16.6545C33.9779 17.5839 32.5809 18.0928 31.138 18.091C29.8152 18.1148 28.5294 18.5317 27.4444 19.2888C26.4047 19.9879 25.3838 20.6666 24.3033 21.3861L22.8937 22.3248L22.6981 22.4519ZM20.0288 14.2867C20.756 14.5942 21.3465 15.1557 21.6902 15.8666C21.8976 16.2925 22.0144 16.7568 22.033 17.2302C22.0517 17.7036 21.9718 18.1757 21.7986 18.6166C21.6885 18.9121 21.6805 19.2359 21.7758 19.5365C22.0202 20.1444 22.303 20.7237 22.6069 21.3364C22.6884 21.5051 22.7764 21.6786 22.8611 21.853L24.0768 21.0439C25.1573 20.3252 26.1774 19.6465 27.2163 18.9474C28.3691 18.1456 29.7347 17.7056 31.1388 17.6836C32.4889 17.6919 33.7972 17.2154 34.8258 16.3408C35.3253 15.9252 35.7922 15.5512 36.2518 15.196C36.4303 15.0467 36.6532 14.9607 36.8857 14.9515C37.0266 14.9537 37.1646 14.9923 37.2862 15.0637C37.4077 15.1351 37.5086 15.2369 37.5791 15.3589C37.8178 15.7305 38.077 16.1021 38.3271 16.4622C39.1824 17.5534 39.8439 18.7835 40.2827 20.0987C40.3845 19.8209 40.4872 19.5373 40.5825 19.2562C40.8754 18.432 40.9655 17.5494 40.8453 16.683C40.7251 15.8166 40.3981 14.9919 39.8919 14.2786C39.3857 13.5652 38.7152 12.9842 37.9371 12.5847C37.159 12.1852 36.2962 11.9789 35.4215 11.9832C34.4437 11.9775 33.4553 11.975 32.4784 11.975C31.5014 11.975 30.5114 11.975 29.5344 11.9832C26.7307 12.0008 23.9582 12.5729 21.3765 13.6666C20.9903 13.8295 20.6163 14.008 20.2203 14.1986L20.0288 14.2867Z" fill="black"/>
<path d="M34.1373 46.3406C34.14 46.8763 33.984 47.4008 33.6888 47.8479C33.3937 48.295 32.9727 48.6446 32.479 48.8526C31.9854 49.0606 31.4411 49.1177 30.915 49.0166C30.389 48.9155 29.9046 48.6609 29.5231 48.2847C29.1417 47.9086 28.8802 47.4279 28.7717 46.9033C28.6633 46.3787 28.7127 45.8337 28.9137 45.3371C29.1147 44.8406 29.4583 44.4147 29.9012 44.1133C30.3441 43.8119 30.8663 43.6485 31.402 43.6436C32.1223 43.6388 32.815 43.9202 33.3279 44.426C33.8408 44.9317 34.1319 45.6204 34.1373 46.3406ZM32.7798 46.3635C32.7816 46.0952 32.7037 45.8324 32.5559 45.6085C32.4081 45.3846 32.1971 45.2096 31.9497 45.1058C31.7023 45.002 31.4297 44.974 31.1664 45.0253C30.903 45.0767 30.6609 45.2051 30.4707 45.3943C30.2804 45.5835 30.1507 45.825 30.0979 46.088C30.0451 46.351 30.0716 46.6238 30.1741 46.8718C30.2766 47.1197 30.4504 47.3316 30.6735 47.4807C30.8966 47.6297 31.159 47.709 31.4272 47.7087C31.7841 47.7068 32.1259 47.5647 32.379 47.313C32.632 47.0614 32.776 46.7203 32.7798 46.3635Z" fill="black"/>
<path d="M31.4313 49.2739C30.6581 49.2778 29.915 48.9744 29.3655 48.4304C28.816 47.8864 28.5051 47.1464 28.5013 46.3732C28.4974 45.6 28.8008 44.8569 29.3448 44.3074C29.8888 43.7579 30.6288 43.447 31.402 43.4431H31.4248C32.0008 43.4428 32.5639 43.6132 33.0431 43.9328C33.5222 44.2524 33.8959 44.7069 34.1169 45.2387C34.338 45.7706 34.3964 46.356 34.2849 46.9211C34.1734 47.4861 33.8969 48.0055 33.4904 48.4135C33.2215 48.6865 32.901 48.9032 32.5474 49.0509C32.1939 49.1986 31.8145 49.2745 31.4313 49.2739ZM31.4224 43.8497H31.4028C31.0735 43.8515 30.7477 43.9181 30.4441 44.0458C30.1405 44.1734 29.865 44.3597 29.6333 44.5938C29.4017 44.8279 29.2184 45.1054 29.094 45.4104C28.9696 45.7153 28.9065 46.0418 28.9083 46.3712C28.91 46.7005 28.9766 47.0263 29.1043 47.3299C29.232 47.6335 29.4182 47.909 29.6523 48.1406C29.8865 48.3723 30.1639 48.5555 30.4689 48.6799C30.7739 48.8044 31.1003 48.8675 31.4297 48.8657C32.0957 48.8625 32.7331 48.5959 33.2021 48.1231C33.6711 47.6503 33.9334 47.0106 33.9312 46.3447C33.9265 45.682 33.6602 45.0481 33.1903 44.5808C32.7204 44.1135 32.085 43.8508 31.4224 43.8497ZM31.4273 47.9148C31.2199 47.9144 31.0147 47.8728 30.8235 47.7922C30.6324 47.7117 30.4592 47.594 30.3141 47.4459C30.1689 47.2978 30.0547 47.1223 29.9781 46.9296C29.9014 46.7369 29.8639 46.5308 29.8677 46.3235C29.8743 46.0169 29.9712 45.7191 30.1462 45.4674C30.3213 45.2157 30.5667 45.0212 30.8518 44.9083C31.1369 44.7955 31.449 44.7693 31.7489 44.833C32.0489 44.8967 32.3233 45.0475 32.5379 45.2664C32.7526 45.4854 32.8978 45.7629 32.9554 46.064C33.0131 46.3652 32.9806 46.6767 32.862 46.9594C32.7434 47.2422 32.544 47.4837 32.2888 47.6536C32.0336 47.8236 31.7339 47.9144 31.4273 47.9148ZM31.4224 45.2072C31.1959 45.2074 30.9746 45.2747 30.7863 45.4004C30.598 45.5261 30.451 45.7047 30.3639 45.9137C30.2768 46.1227 30.2535 46.3528 30.2968 46.5751C30.3402 46.7973 30.4483 47.0018 30.6076 47.1627C30.7136 47.2716 30.8403 47.3581 30.9802 47.4173C31.1201 47.4765 31.2704 47.5071 31.4224 47.5074C31.7223 47.5016 32.0081 47.3788 32.2188 47.1653C32.4296 46.9518 32.5486 46.6644 32.5505 46.3644C32.5524 46.0645 32.4371 45.7756 32.2291 45.5594C32.0211 45.3432 31.7369 45.2169 31.437 45.2072H31.4224Z" fill="black"/>
</g>
</g>
<defs>
<clipPath id="clip0_2350_5364">
<rect width="44" height="44" fill="white" transform="translate(10 10)"/>
</clipPath>
</defs>
</svg>
