<svg width="64" height="64" viewBox="0 0 64 64" fill="none" xmlns="http://www.w3.org/2000/svg">
<rect width="64" height="64" rx="8" fill="#EAF3FF"/>
<g clip-path="url(#clip0_2350_5526)">
<mask id="mask0_2350_5526" style="mask-type:luminance" maskUnits="userSpaceOnUse" x="10" y="10" width="44" height="44">
<path d="M54 10H10V54H54V10Z" fill="white"/>
</mask>
<g mask="url(#mask0_2350_5526)">
<path d="M10.4075 25.4234C10.6363 24.9042 10.9158 24.4089 11.2418 23.9445C11.5048 23.6584 11.8292 23.4356 12.1906 23.2928C12.552 23.15 12.9411 23.0909 13.3286 23.1199C14.4693 23.1286 15.6076 23.1267 16.7435 23.1142C16.9206 23.1196 17.0939 23.0618 17.2324 22.9513C17.7678 22.4237 18.4746 22.1057 19.2246 22.055C22.9477 21.6128 26.6706 21.1682 30.3933 20.7211C34.2821 20.2561 38.1717 19.7949 42.0622 19.3376C44.0593 19.0996 46.0507 18.8682 48.0421 18.6075C49.3198 18.4396 50.4442 18.6572 51.1759 19.8175C51.4131 20.2133 51.5683 20.6528 51.6322 21.1098C51.818 22.3597 51.9459 23.6186 52.082 24.875C52.1847 25.8178 52.0299 26.0158 51.0953 26.2496C50.3603 26.4263 49.7155 26.8661 49.2829 27.486C48.8503 28.106 48.6599 28.8629 48.7477 29.6137C48.8355 30.3645 49.1954 31.0571 49.7594 31.5605C50.3234 32.0638 51.0523 32.343 51.8082 32.3453C52.7917 32.3453 52.9905 32.5172 53.1119 33.4746C53.2692 34.7433 53.4273 36.0111 53.5747 37.2806C53.6242 37.6617 53.595 38.0488 53.4887 38.4181C53.3825 38.7874 53.2015 39.1309 52.9571 39.4274C52.7126 39.7239 52.4099 39.967 52.0676 40.1417C51.7253 40.3164 51.3508 40.4189 50.9673 40.4429C49.2921 40.6295 47.6209 40.8405 45.9473 41.0418C45.8914 41.0571 45.8369 41.077 45.7843 41.1013C45.7843 41.4508 45.7843 41.8118 45.7843 42.1744C45.8089 42.5694 45.7493 42.9651 45.6095 43.3353C45.4697 43.7055 45.2528 44.0418 44.9733 44.3219C44.6937 44.602 44.3578 44.8195 43.9879 44.96C43.6179 45.1006 43.2223 45.1609 42.8273 45.137H42.6595C32.948 45.137 23.2365 45.137 13.525 45.137C12.9467 45.1888 12.3664 45.0645 11.86 44.7805C11.3537 44.4966 10.9451 44.0661 10.6878 43.5457C10.5807 43.3036 10.4871 43.0558 10.4075 42.8034L10.4075 37.9096C10.4864 37.7002 10.6285 37.5204 10.814 37.3952C10.9995 37.27 11.2193 37.2054 11.4431 37.2105C12.1125 37.1561 12.7459 36.8851 13.2474 36.4384C13.749 35.9917 14.0912 35.3938 14.2224 34.7351C14.3068 34.3186 14.3042 33.8891 14.2146 33.4737C14.1251 33.0582 13.9506 32.6658 13.7022 32.321C13.4537 31.9762 13.1366 31.6865 12.7709 31.4701C12.4051 31.2537 11.9986 31.1153 11.5767 31.0636C11.3395 31.0729 11.1044 31.0158 10.8978 30.8987C10.6913 30.7817 10.5214 30.6094 10.4075 30.4011V25.4234ZM37.7853 43.4088C37.8585 43.4262 37.9328 43.4387 38.0077 43.4463C39.6528 43.4463 41.2979 43.4593 42.9414 43.4463C43.097 43.4553 43.2527 43.4306 43.3979 43.3739C43.5431 43.3171 43.6743 43.2298 43.7826 43.1177C43.8909 43.0056 43.9737 42.8714 44.0254 42.7244C44.0771 42.5773 44.0965 42.4208 44.0821 42.2656C44.0936 41.2675 44.0732 40.2693 44.0927 39.2704C44.0993 38.9534 44.021 38.8059 43.6853 38.7228C42.821 38.5024 42.0439 38.0248 41.4568 37.3531C40.9036 36.7495 40.5149 36.0138 40.3281 35.2166C40.1413 34.4194 40.1627 33.5876 40.3901 32.801C40.6176 32.0145 41.0436 31.2997 41.6271 30.7253C42.2106 30.1509 42.932 29.7362 43.722 29.5211C43.7793 29.5155 43.8348 29.4981 43.8849 29.47C43.9351 29.4418 43.9789 29.4035 44.0135 29.3576C44.0482 29.3116 44.0729 29.259 44.0861 29.203C44.0993 29.147 44.1007 29.0888 44.0903 29.0322C44.0716 28.0479 44.0903 27.0645 44.0813 26.0793C44.106 25.9072 44.0901 25.7316 44.035 25.5667C43.9799 25.4017 43.8871 25.2519 43.7639 25.1291C43.6407 25.0063 43.4906 24.914 43.3255 24.8594C43.1603 24.8048 42.9847 24.7895 42.8127 24.8147C41.2661 24.8109 39.7199 24.8109 38.1739 24.8147C38.0533 24.8147 37.9295 24.8319 37.7795 24.8433V25.3753C37.7795 28.4689 37.7795 31.5622 37.7795 34.6553C37.7834 34.8518 37.7687 35.0482 37.7356 35.2419C37.7026 35.4346 37.6015 35.609 37.4506 35.7333C37.2998 35.8576 37.1093 35.9236 36.9139 35.9191C36.7185 35.9147 36.5312 35.8401 36.3861 35.7091C36.2411 35.578 36.148 35.3992 36.1238 35.2053C36.1017 35.0239 36.0925 34.8412 36.0961 34.6585C36.0961 31.5514 36.0961 28.4442 36.0961 25.337V24.8107H28.0295C23.165 24.8107 18.3011 24.8107 13.4378 24.8107C12.4918 24.8107 12.0925 25.2181 12.0917 26.1706C12.0909 27.1231 12.1064 28.083 12.0835 29.0388C12.0762 29.341 12.1854 29.4339 12.4584 29.5187C13.3894 29.7475 14.2252 30.2624 14.8483 30.991C15.4714 31.7196 15.8504 32.6253 15.9319 33.5805C16.0669 34.4796 15.9274 35.3984 15.5316 36.2169C15.1359 37.0353 14.5024 37.7153 13.714 38.1679C13.1915 38.4568 12.6504 38.7105 12.0941 38.9273V42.0424C12.0941 43.0511 12.4877 43.4528 13.4858 43.4528C20.8659 43.4528 28.2459 43.4528 35.626 43.4528C35.7743 43.4528 35.9226 43.4373 36.1222 43.4276C36.1222 42.8499 36.1092 42.317 36.1271 41.7857C36.1314 41.6214 36.1896 41.463 36.2926 41.335C36.3956 41.2069 36.5379 41.1162 36.6975 41.0768C36.8423 41.0148 37.0038 41.0035 37.1558 41.0448C37.3079 41.086 37.4415 41.1774 37.5351 41.3042C37.679 41.5388 37.7629 41.8052 37.7795 42.0799C37.8187 42.5101 37.7901 42.9468 37.7901 43.4129M51.4799 34.0385C50.8196 33.9874 50.1771 33.8007 49.5923 33.49C49.0075 33.1793 48.4931 32.7513 48.0813 32.2328C47.6158 31.6528 47.2926 30.972 47.1375 30.2447C46.9824 29.5174 46.9997 28.7639 47.1881 28.0445C47.3764 27.3251 47.7305 26.6598 48.2221 26.1018C48.7136 25.5438 49.329 25.1086 50.0189 24.831C50.0752 24.8197 50.1284 24.7966 50.1751 24.7632C50.2219 24.7299 50.261 24.687 50.29 24.6375C50.319 24.5879 50.3372 24.5328 50.3434 24.4757C50.3497 24.4187 50.3437 24.3609 50.3261 24.3063C50.1867 23.3049 50.0898 22.297 49.9627 21.2915C49.9579 21.1353 49.9196 20.9821 49.8504 20.842C49.7811 20.702 49.6826 20.5785 49.5614 20.48C49.4402 20.3814 49.2992 20.3101 49.148 20.2709C48.9967 20.2316 48.8389 20.2254 48.685 20.2526C48.1391 20.2933 47.5964 20.374 47.0554 20.4392C43.8755 20.8156 40.695 21.1924 37.5139 21.5693C34.0553 21.9811 30.5964 22.3947 27.1373 22.8103C26.4854 22.8918 25.8335 22.9733 25.1817 23.0547C30.9669 23.1175 36.7464 23.1175 42.5242 23.1183C42.7776 23.1183 43.0302 23.1183 43.2828 23.1403C43.8921 23.1814 44.4684 23.4321 44.9139 23.8497C45.3595 24.2673 45.6468 24.8262 45.7273 25.4316C45.8153 27.0294 45.7713 28.6346 45.7607 30.239C45.76 30.4255 45.6897 30.6051 45.5635 30.7426C45.4374 30.88 45.2645 30.9654 45.0787 30.9821C44.8864 31.022 44.6892 31.0424 44.4944 31.0676C43.7467 31.1964 43.072 31.5947 42.5981 32.1873C42.1242 32.7799 41.8839 33.5257 41.9228 34.2835C41.9616 35.0413 42.2769 35.7585 42.8089 36.2996C43.3409 36.8406 44.0527 37.1679 44.8098 37.2195C45.5504 37.314 45.7761 37.5682 45.7835 38.3195C45.7835 38.6511 45.7835 38.9828 45.7835 39.2973C45.8281 39.3145 45.8746 39.3262 45.922 39.3323C47.5956 39.1351 49.2709 38.9502 50.9421 38.731C51.0876 38.7185 51.2291 38.6761 51.3574 38.6064C51.4858 38.5367 51.5984 38.4412 51.6881 38.3258C51.7778 38.2105 51.8426 38.0779 51.8786 37.9363C51.9145 37.7947 51.9208 37.6472 51.897 37.503C51.7805 36.3582 51.6257 35.2175 51.4823 34.0368" fill="black"/>
<path d="M13.5201 45.1413C12.9416 45.1921 12.3612 45.0669 11.8552 44.7821C11.3492 44.4972 10.9411 44.066 10.6845 43.545C10.6076 43.3814 10.5423 43.2126 10.489 43.0398C10.4629 42.9584 10.4352 42.8769 10.4075 42.8027V37.9073C10.4877 37.6978 10.6304 37.518 10.8162 37.3922C11.0021 37.2665 11.222 37.2008 11.4464 37.2041C12.1151 37.1501 12.7481 36.8794 13.2491 36.4331C13.7501 35.9868 14.0918 35.3893 14.2224 34.7312C14.3067 34.3173 14.3046 33.8906 14.2164 33.4775C14.1282 33.0645 13.9558 32.6741 13.7099 32.3307C13.4612 31.9844 13.1437 31.6932 12.7771 31.4753C12.4106 31.2574 12.0031 31.1175 11.58 31.0645C11.3421 31.0741 11.1062 31.017 10.8991 30.8996C10.6919 30.7823 10.5216 30.6094 10.4075 30.4004V25.4211C10.489 25.2655 10.5704 25.1033 10.647 24.9469C10.8021 24.5882 11.0008 24.2499 11.2386 23.9398C11.4975 23.6574 11.8167 23.4369 12.1724 23.2946C12.5281 23.1523 12.9113 23.0918 13.2935 23.1176H13.3294C13.8468 23.1176 14.3512 23.1233 14.8278 23.1233C15.4895 23.1233 16.1315 23.1233 16.7443 23.1119C16.9195 23.1163 17.0907 23.0586 17.2275 22.949C17.7625 22.4198 18.4705 22.1016 19.2213 22.0527C21.2046 21.8139 23.2221 21.5695 25.1735 21.3373C26.9118 21.1292 28.6501 20.9214 30.3884 20.7139L35.7775 20.0759C37.8716 19.8282 39.966 19.58 42.0606 19.3312L43.1386 19.2065C44.7462 19.0126 46.4084 18.8154 48.0413 18.6011C48.2783 18.5702 48.517 18.5547 48.7559 18.5547C49.2362 18.5248 49.7156 18.6265 50.1424 18.8487C50.5693 19.071 50.9274 19.4054 51.1784 19.816C51.4163 20.2111 51.5723 20.65 51.6371 21.1067C51.8001 22.2156 51.9231 23.3498 52.0445 24.4474L52.0901 24.8727C52.192 25.8122 52.0445 26.0184 51.1001 26.2514C50.4039 26.4167 49.787 26.8196 49.3557 27.3907C48.9244 27.9618 48.7057 28.6653 48.7372 29.3803C48.7754 30.1724 49.1148 30.9199 49.6859 31.4701C50.2571 32.0202 51.0169 32.3313 51.8098 32.3397C52.8007 32.3397 52.9954 32.5116 53.1136 33.4723L53.1722 33.9433C53.3075 35.0359 53.4476 36.1661 53.5796 37.2783C53.6278 37.6471 53.6022 38.0218 53.5043 38.3806C53.4063 38.7393 53.2381 39.0751 53.0093 39.3683C52.7577 39.6735 52.4482 39.9257 52.0985 40.1105C51.7489 40.2952 51.3661 40.4088 50.9722 40.4447C49.7793 40.5775 48.5677 40.725 47.3968 40.8675L45.9521 41.0427C45.9239 41.0481 45.8965 41.0571 45.8707 41.0696C45.8495 41.0786 45.8234 41.0892 45.7892 41.1014C45.7892 41.2073 45.7892 41.3143 45.7892 41.4224C45.7892 41.6669 45.7892 41.9203 45.7892 42.1721C45.8131 42.5674 45.753 42.9634 45.6127 43.3338C45.4725 43.7042 45.2553 44.0406 44.9755 44.321C44.6957 44.6013 44.3596 44.8192 43.9895 44.9601C43.6194 45.1011 43.2235 45.162 42.8281 45.1388H29.2044C24.8973 45.138 19.223 45.138 13.5201 45.1413ZM13.2935 23.1225C12.9122 23.097 12.5299 23.1577 12.1752 23.3C11.8205 23.4423 11.5023 23.6626 11.2443 23.9447C11.0063 24.2542 10.8073 24.5919 10.6519 24.9501C10.5704 25.1066 10.4947 25.2687 10.4075 25.4227V30.3988C10.5214 30.6062 10.691 30.7778 10.8972 30.8941C11.1033 31.0104 11.3378 31.0669 11.5743 31.0572C11.9989 31.1099 12.408 31.2497 12.7761 31.4679C13.1441 31.686 13.4631 31.9778 13.7132 32.325C13.9597 32.6693 14.1325 33.0608 14.2208 33.475C14.3092 33.8891 14.3111 34.3171 14.2265 34.732C14.0962 35.3922 13.7539 35.9919 13.2517 36.4398C12.7494 36.8878 12.1147 37.1596 11.4439 37.2139C11.2201 37.2066 10.9997 37.2698 10.8138 37.3945C10.6278 37.5192 10.4857 37.6992 10.4075 37.909V42.7978C10.4368 42.8753 10.4637 42.9559 10.489 43.0341C10.5428 43.2067 10.6087 43.3752 10.6861 43.5385C10.9418 44.0591 11.349 44.4901 11.8543 44.7748C12.3595 45.0596 12.9391 45.1848 13.5168 45.1339C19.2205 45.1339 24.8941 45.1339 29.2004 45.1339H42.8224C43.2168 45.157 43.6116 45.0962 43.9808 44.9555C44.35 44.8149 44.6852 44.5976 44.9643 44.318C45.2434 44.0383 45.4601 43.7027 45.6 43.3333C45.7399 42.9638 45.8 42.5689 45.7761 42.1745C45.7761 41.9227 45.7761 41.6701 45.7761 41.4249C45.7761 41.3162 45.7761 41.2076 45.7761 41.099C45.8104 41.0867 45.8364 41.0761 45.8576 41.0672C45.8834 41.0544 45.9108 41.0451 45.9391 41.0395L47.3838 40.8643C48.5555 40.7217 49.7663 40.5742 50.9592 40.4414C51.3529 40.4063 51.7358 40.2932 52.0855 40.1089C52.4352 39.9245 52.7447 39.6725 52.9962 39.3675C53.2247 39.0752 53.3927 38.7404 53.4907 38.3826C53.5886 38.0248 53.6144 37.6511 53.5666 37.2832C53.437 36.171 53.2977 35.0408 53.1592 33.9481L53.1005 33.4772C52.9824 32.5214 52.7884 32.3527 51.8033 32.3503C51.0488 32.3441 50.3225 32.0626 49.7609 31.5587C49.1993 31.0548 48.841 30.3632 48.7534 29.6138C48.6657 28.8644 48.8548 28.1087 49.2849 27.4888C49.7151 26.8689 50.3568 26.4275 51.0896 26.2473C52.0282 26.0159 52.1757 25.8106 52.0739 24.876L52.0282 24.4507C51.9109 23.3539 51.7895 22.2205 51.6208 21.1099C51.557 20.6534 51.4018 20.2145 51.1645 19.8193C50.9152 19.4104 50.5593 19.0771 50.135 18.855C49.7107 18.633 49.234 18.5306 48.7559 18.5587C48.5172 18.5599 48.2788 18.5765 48.0421 18.6084C46.4125 18.8219 44.747 19.0158 43.1386 19.2106L42.063 19.3385C39.969 19.5878 37.8746 19.8361 35.78 20.0833L30.3908 20.7213C28.6525 20.9282 26.9143 21.136 25.176 21.3446C23.2253 21.5784 21.2078 21.8196 19.223 22.0551C18.4734 22.1044 17.7668 22.4227 17.2332 22.9514C17.0946 23.0617 16.9214 23.1195 16.7443 23.1144C16.1348 23.1217 15.4903 23.1258 14.8278 23.1258C14.3512 23.1258 13.8501 23.1258 13.3294 23.1201L13.2935 23.1225ZM40.9467 43.453C40.3976 43.453 39.8486 43.453 39.3 43.453H38.0118C37.9722 43.4512 37.9329 43.4455 37.8944 43.4358C37.8659 43.4301 37.8317 43.4228 37.7885 43.4155C37.7885 43.2745 37.7885 43.1352 37.7934 43.0007C37.8051 42.6949 37.7999 42.3886 37.7779 42.0833C37.7601 41.8093 37.6762 41.5437 37.5335 41.3092C37.4734 41.2216 37.3923 41.1505 37.2977 41.1024C37.203 41.0543 37.0978 41.0307 36.9916 41.0338C36.8924 41.0346 36.7939 41.0514 36.6999 41.0835C36.5412 41.1224 36.3998 41.2127 36.2977 41.3403C36.1955 41.4679 36.1385 41.6257 36.1353 41.7891C36.123 42.1598 36.1255 42.529 36.1279 42.9193C36.1279 43.0863 36.1279 43.2566 36.1279 43.4301L35.9348 43.4424C35.824 43.4497 35.7278 43.4562 35.6317 43.4562C28.2516 43.4562 20.8716 43.4562 13.4915 43.4562C12.4885 43.4562 12.0966 43.0602 12.0958 42.0425V38.925C12.2799 38.8387 12.4632 38.7621 12.6409 38.6879C13.0149 38.5456 13.3758 38.3711 13.7197 38.1664C14.5062 37.7129 15.1381 37.0333 15.5333 36.2159C15.9285 35.3986 16.0688 34.4812 15.936 33.5831C15.8509 32.6297 15.471 31.7264 14.8489 30.9989C14.2268 30.2714 13.3935 29.7558 12.4649 29.5237C12.1976 29.4422 12.0803 29.351 12.0876 29.0405C12.1039 28.3536 12.1007 27.6553 12.0982 26.979C12.0982 26.7074 12.0982 26.4383 12.0982 26.1716C12.0982 25.2158 12.5056 24.8084 13.4475 24.8084H36.1067V25.3364C36.1067 28.4435 36.1067 31.5507 36.1067 34.6578C36.1032 34.8402 36.1124 35.0227 36.1344 35.2038C36.1575 35.3927 36.2477 35.567 36.3886 35.6949C36.5295 35.8228 36.7117 35.8958 36.902 35.9004C37.0991 35.9164 37.295 35.8572 37.4503 35.7348C37.6057 35.6124 37.709 35.4358 37.7396 35.2404C37.7726 35.047 37.7874 34.8508 37.7836 34.6546C37.7836 32.0757 37.7836 29.4528 37.7836 26.9138V24.8353L37.9197 24.823C38.0142 24.8141 38.0957 24.8067 38.178 24.8067C39.7245 24.8067 41.2708 24.8067 42.8167 24.8067C42.9893 24.7815 43.1653 24.7969 43.3308 24.8517C43.4963 24.9064 43.6468 24.999 43.7703 25.1221C43.8937 25.2452 43.9868 25.3953 44.0421 25.5607C44.0973 25.726 44.1133 25.902 44.0887 26.0746C44.0887 26.451 44.0887 26.834 44.0887 27.2039C44.0887 27.8012 44.0887 28.4196 44.0968 29.0267C44.1066 29.0834 44.1046 29.1416 44.0909 29.1976C44.0773 29.2535 44.0522 29.3061 44.0174 29.3519C43.9825 29.3978 43.9386 29.436 43.8883 29.4641C43.8381 29.4923 43.7826 29.5098 43.7253 29.5156C42.9365 29.7307 42.2162 30.145 41.6336 30.7186C41.0511 31.2923 40.6257 32.0061 40.3985 32.7915C40.1712 33.5769 40.1496 34.4075 40.3358 35.2036C40.522 35.9997 40.9097 36.7346 41.4617 37.3378C42.048 38.009 42.8242 38.4863 43.6878 38.7067C44.0406 38.7938 44.1017 38.9609 44.0952 39.2575C44.0846 39.8132 44.0862 40.3787 44.087 40.9254C44.087 41.3605 44.087 41.8103 44.087 42.2527C44.1014 42.4088 44.0819 42.5661 44.0298 42.7138C43.9777 42.8616 43.8943 42.9964 43.7852 43.1089C43.6762 43.2215 43.5441 43.3091 43.398 43.3658C43.252 43.4225 43.0954 43.4469 42.939 43.4375C42.3482 43.4505 41.7151 43.453 40.9467 43.453ZM37.7926 43.4065L37.8953 43.4269C37.9332 43.4365 37.9719 43.4422 38.011 43.444H39.2992C39.8484 43.444 40.3973 43.444 40.9459 43.444C41.7135 43.444 42.349 43.444 42.9447 43.4358C43.1001 43.4453 43.2558 43.4211 43.401 43.3647C43.5461 43.3084 43.6769 43.2208 43.7852 43.1089C43.8936 42.9971 43.977 42.8636 44.0288 42.7167C44.0805 42.5699 44.0998 42.4135 44.0854 42.2584C44.0903 41.816 44.0854 41.3662 44.0854 40.9311C44.0854 40.3844 44.0854 39.8189 44.0936 39.2632C44.0993 38.9698 44.039 38.8061 43.691 38.7197C42.8257 38.4995 42.0479 38.0212 41.4609 37.3484C40.9076 36.7439 40.5191 36.0074 40.3327 35.2095C40.1463 34.4116 40.1683 33.5791 40.3965 32.7921C40.6248 32.0052 41.0516 31.2901 41.636 30.7157C42.2203 30.1413 42.9426 29.7269 43.7334 29.5123C43.791 29.5076 43.8468 29.4907 43.8974 29.4628C43.9479 29.4349 43.9919 29.3966 44.0265 29.3503C44.0611 29.3041 44.0855 29.251 44.098 29.1947C44.1106 29.1383 44.111 29.0799 44.0993 29.0234C44.0878 28.4156 44.0895 27.8012 44.0911 27.2007C44.0911 26.8307 44.0911 26.4478 44.0911 26.0713C44.1156 25.8997 44.0998 25.7248 44.0448 25.5604C43.9898 25.396 43.8973 25.2467 43.7745 25.1243C43.6518 25.0019 43.5022 24.9099 43.3376 24.8555C43.173 24.801 42.998 24.7858 42.8265 24.8108C41.28 24.807 39.7337 24.807 38.1878 24.8108C38.1063 24.8108 38.0248 24.8181 37.9303 24.8271L37.7975 24.8393V26.9098C37.7975 29.4463 37.7975 32.0692 37.7975 34.6505C37.8013 34.8473 37.7866 35.044 37.7535 35.238C37.7225 35.435 37.6182 35.6131 37.4615 35.7365C37.3049 35.86 37.1073 35.9197 36.9085 35.9037C36.7167 35.899 36.5329 35.8255 36.3908 35.6966C36.2486 35.5676 36.1577 35.3918 36.1344 35.2013C36.1124 35.02 36.1031 34.8373 36.1067 34.6546C36.1067 31.5474 36.1067 28.4403 36.1067 25.3331V24.8116H13.4402C12.4999 24.8116 12.099 25.219 12.0982 26.1675C12.0982 26.4391 12.0982 26.7082 12.0982 26.975C12.0982 27.6504 12.1039 28.3496 12.0876 29.0364C12.0803 29.3428 12.1968 29.4308 12.46 29.5131C13.3899 29.7455 14.2244 30.2619 14.8473 30.9904C15.4703 31.7189 15.8508 32.6235 15.936 33.5782C16.0691 34.4777 15.9286 35.3965 15.5328 36.2152C15.137 37.0338 14.5041 37.7145 13.7164 38.1689C13.3723 38.3739 13.0111 38.5486 12.6368 38.6912C12.4592 38.7653 12.2758 38.8411 12.0941 38.925V42.0368C12.0941 43.0488 12.4844 43.4432 13.4793 43.4432C20.8594 43.4432 28.2394 43.4432 35.6195 43.4432C35.7156 43.4432 35.811 43.4367 35.9218 43.4293L36.1116 43.4179C36.1116 43.2452 36.1116 43.0765 36.1116 42.9103C36.1116 42.52 36.1067 42.1509 36.119 41.7793C36.1236 41.6147 36.1819 41.4562 36.2848 41.3277C36.3877 41.1991 36.5297 41.1077 36.6893 41.0672C36.7841 41.0349 36.8834 41.0181 36.9835 41.0175C37.0908 41.0145 37.1971 41.0384 37.2927 41.0871C37.3884 41.1357 37.4703 41.2076 37.531 41.2961C37.6739 41.5318 37.7578 41.7985 37.7755 42.0735C37.7975 42.3791 37.8027 42.6856 37.791 42.9918C37.7958 43.1254 37.7934 43.2631 37.7926 43.4065ZM45.9122 39.3438C45.8926 39.342 45.8734 39.3373 45.8552 39.33C45.8364 39.3243 45.812 39.3161 45.7794 39.308C45.7794 39.214 45.7794 39.1187 45.7794 39.022C45.7794 38.7955 45.7794 38.5608 45.7794 38.3278C45.7721 37.5814 45.5456 37.3256 44.809 37.231C44.0557 37.1846 43.3457 36.8635 42.8133 36.3286C42.281 35.7937 41.9633 35.0821 41.9204 34.3287C41.8554 33.5652 42.0917 32.8065 42.5788 32.215C43.0464 31.6028 43.7319 31.1943 44.4928 31.0743L44.6232 31.058C44.7723 31.0393 44.9271 31.0197 45.0762 30.9887C45.2615 30.9732 45.4341 30.8886 45.5598 30.7517C45.6855 30.6148 45.7552 30.4356 45.755 30.2497C45.755 29.9238 45.7579 29.5978 45.7639 29.2719C45.7778 28.0147 45.7916 26.715 45.7216 25.4423C45.6428 24.8366 45.3559 24.2771 44.9099 23.8596C44.464 23.4422 43.8867 23.1929 43.2771 23.1543C43.0025 23.1347 42.7279 23.1323 42.5185 23.1323H42.3001C36.6901 23.1323 30.8927 23.1323 25.176 23.0687V23.0549L25.7521 22.9807C26.2043 22.9221 26.672 22.8618 27.1324 22.8064C31.3205 22.3036 34.5211 21.9207 37.509 21.5654C39.828 21.2895 42.1472 21.0146 44.4667 20.7408L47.0521 20.4344C47.2078 20.4157 47.3626 20.3961 47.5174 20.3766C47.8996 20.3277 48.2947 20.2772 48.685 20.2478C48.7323 20.2478 48.7787 20.2421 48.8236 20.2421C48.9679 20.2335 49.1124 20.2539 49.2486 20.3023C49.3849 20.3507 49.5099 20.4261 49.6164 20.5239C49.7229 20.6217 49.8085 20.7399 49.8683 20.8715C49.9281 21.0032 49.9607 21.1455 49.9643 21.29C50.0173 21.7088 50.0661 22.1366 50.1134 22.5489C50.1794 23.1241 50.247 23.719 50.3277 24.3024C50.346 24.3574 50.3524 24.4156 50.3465 24.4733C50.3405 24.5309 50.3223 24.5866 50.293 24.6367C50.2638 24.6867 50.2242 24.73 50.1769 24.7635C50.1297 24.7971 50.0758 24.8201 50.0189 24.8312C49.0213 25.2408 48.1913 25.9752 47.6631 26.9154C47.1349 27.8555 46.9395 28.9465 47.1085 30.0115C47.2775 31.0766 47.8011 32.0534 48.5945 32.7838C49.3878 33.5142 50.4045 33.9555 51.4799 34.0361C51.5228 34.3887 51.5662 34.7382 51.6102 35.0848C51.7145 35.9151 51.8131 36.699 51.8946 37.5024C51.9178 37.6469 51.9109 37.7947 51.8746 37.9365C51.8382 38.0782 51.7731 38.211 51.6832 38.3266C51.5933 38.4421 51.4806 38.538 51.3522 38.6081C51.2237 38.6783 51.0822 38.7212 50.9364 38.7344C49.6978 38.8973 48.4357 39.0432 47.2159 39.185L45.9122 39.3365V39.3438ZM45.7843 39.3015C45.8161 39.3096 45.8397 39.317 45.8576 39.3235C45.8769 39.3319 45.8977 39.3364 45.9187 39.3365L47.2224 39.185C48.4447 39.0432 49.7044 38.8973 50.9429 38.7344C51.0876 38.7214 51.2281 38.6789 51.3557 38.6093C51.4832 38.5398 51.5951 38.4447 51.6844 38.3301C51.7736 38.2155 51.8384 38.0837 51.8745 37.943C51.9107 37.8023 51.9175 37.6556 51.8946 37.5121C51.8131 36.7096 51.7145 35.9249 51.6102 35.0946C51.5668 34.7486 51.5233 34.3998 51.4799 34.0484C50.3989 33.9736 49.3753 33.5346 48.5761 32.803C47.777 32.0714 47.2495 31.0904 47.0798 30.0203C46.9101 28.9502 47.1083 27.8542 47.642 26.9112C48.1757 25.9683 49.0133 25.2342 50.0181 24.8287C50.0737 24.817 50.1262 24.7938 50.1723 24.7606C50.2184 24.7274 50.257 24.6849 50.2857 24.6359C50.3144 24.5868 50.3325 24.5323 50.3389 24.4759C50.3453 24.4194 50.3398 24.3623 50.3228 24.3081C50.2413 23.7247 50.1737 23.1298 50.1085 22.5546C50.0613 22.1415 50.0124 21.7145 49.9594 21.2957C49.956 21.1519 49.9235 21.0102 49.864 20.8792C49.8045 20.7482 49.7192 20.6305 49.6131 20.5333C49.507 20.4361 49.3824 20.3612 49.2468 20.3133C49.1111 20.2654 48.9672 20.2453 48.8236 20.2544C48.7787 20.2544 48.7323 20.2544 48.6858 20.2601C48.2964 20.2894 47.9012 20.3416 47.519 20.3888C47.3642 20.4084 47.2086 20.4287 47.053 20.4467L44.4667 20.7481C42.1483 21.0241 39.8294 21.2979 37.5098 21.5695C34.5219 21.9256 31.3213 22.3077 27.1332 22.8104C26.6728 22.865 26.2051 22.9261 25.7529 22.9848L25.229 23.0524C30.9253 23.1136 36.7073 23.1144 42.2993 23.1152H42.5177C42.7271 23.1152 43.0017 23.1152 43.2771 23.1372C43.8881 23.1765 44.4664 23.427 44.9131 23.8457C45.3597 24.2644 45.647 24.8254 45.7256 25.4325C45.7957 26.7061 45.7818 28.0065 45.768 29.2621C45.7647 29.5881 45.7617 29.914 45.759 30.2399C45.7593 30.4275 45.6891 30.6083 45.5623 30.7465C45.4356 30.8848 45.2615 30.9704 45.0746 30.9863C44.9247 31.0173 44.7698 31.0368 44.6207 31.0556L44.4904 31.0718C43.7403 31.1967 43.0625 31.5932 42.586 32.1857C42.1095 32.7783 41.8677 33.5254 41.9066 34.2848C41.9456 35.0442 42.2626 35.7626 42.7973 36.3033C43.3319 36.8439 44.0468 37.1689 44.8057 37.2164C45.5472 37.3109 45.7753 37.5692 45.7835 38.3204C45.7835 38.5535 45.7835 38.7881 45.7835 39.0147C45.784 39.1103 45.7843 39.2048 45.7843 39.2982V39.3015Z" fill="black"/>
<path d="M31.5952 32.8042C31.4731 33.0439 31.3264 33.2703 31.1576 33.4797C30.3974 34.2505 29.6046 34.9896 28.8492 35.7612C28.7812 35.8405 28.7298 35.9326 28.698 36.0321C28.6662 36.1316 28.6548 36.2365 28.6643 36.3405C28.8191 37.3819 29.0146 38.4183 29.1947 39.4556C29.2664 39.6391 29.2751 39.8412 29.2196 40.0303C29.1641 40.2193 29.0475 40.3846 28.8881 40.5003C28.7286 40.616 28.5352 40.6755 28.3383 40.6696C28.1414 40.6637 27.952 40.5926 27.7997 40.4676C26.8986 39.9787 25.9803 39.5224 25.084 39.0262C24.9637 38.9488 24.8233 38.9085 24.6803 38.9104C24.5372 38.9123 24.398 38.9562 24.2797 39.0368C23.3835 39.5338 22.4676 39.9934 21.5648 40.4774C21.4108 40.5906 21.2257 40.6537 21.0347 40.6582C20.8436 40.6628 20.6557 40.6084 20.4966 40.5026C20.3507 40.3912 20.2425 40.2377 20.1867 40.0628C20.1309 39.8879 20.1301 39.7002 20.1845 39.5248C20.3703 38.4591 20.5332 37.3892 20.7353 36.3283C20.7626 36.2224 20.7581 36.1107 20.7225 36.0073C20.6869 35.9039 20.6216 35.8132 20.5349 35.7465C19.773 35.0181 19.0242 34.275 18.268 33.54C18.1108 33.4318 17.9909 33.2777 17.9247 33.0987C17.8585 32.9198 17.8492 32.7247 17.8981 32.5402C17.9637 32.3538 18.0862 32.1926 18.2484 32.0796C18.4105 31.9666 18.6041 31.9074 18.8017 31.9104C19.861 31.7654 20.9162 31.613 21.9673 31.4337C22.0611 31.4104 22.1493 31.3686 22.2267 31.3106C22.3041 31.2527 22.3691 31.1798 22.4179 31.0964C22.9068 30.1496 23.3745 29.1889 23.8414 28.2291C23.8946 28.0438 24.0069 27.881 24.1612 27.7655C24.3156 27.6499 24.5034 27.588 24.6962 27.5891C24.8889 27.5902 25.076 27.6543 25.229 27.7716C25.382 27.8889 25.4924 28.053 25.5435 28.2388C26.0023 29.1857 26.4846 30.1227 26.9352 31.0744C26.9769 31.1832 27.0492 31.2777 27.1433 31.3465C27.2373 31.4153 27.3493 31.4555 27.4657 31.4622C28.538 31.6048 29.6062 31.767 30.6769 31.9234C30.9098 31.9392 31.1297 32.0365 31.298 32.1984C31.4662 32.3602 31.572 32.5762 31.5968 32.8083M24.6912 30.3337C24.336 31.0516 24.0076 31.6994 23.6939 32.3537C23.617 32.5422 23.4898 32.706 23.3261 32.8272C23.1625 32.9483 22.9686 33.0221 22.7658 33.0405C22.0382 33.1294 21.3146 33.2548 20.6473 33.3551C21.15 33.8945 21.6357 34.4355 22.1457 34.9562C22.2949 35.0843 22.4065 35.2504 22.4687 35.437C22.5308 35.6235 22.5411 35.8235 22.4986 36.0154C22.3511 36.7414 22.2476 37.4772 22.1132 38.2863C22.8066 37.9221 23.4429 37.6059 24.0606 37.2556C24.25 37.1346 24.4701 37.0704 24.6949 37.0704C24.9197 37.0704 25.1398 37.1346 25.3292 37.2556C25.946 37.6051 26.5824 37.9197 27.2709 38.2814C27.2195 37.7561 27.1302 37.2352 27.0037 36.7227C26.8405 36.3167 26.8257 35.8662 26.9619 35.4504C27.0981 35.0345 27.3766 34.6801 27.7484 34.4494C28.1329 34.1138 28.4937 33.752 28.828 33.3665C28.067 33.2516 27.3614 33.122 26.6509 33.0462C26.4347 33.0306 26.2276 32.9532 26.0543 32.8232C25.8809 32.6931 25.7486 32.516 25.6731 32.3129C25.3773 31.6676 25.0473 31.0402 24.6953 30.3345" fill="black"/>
<path d="M20.961 40.6646C20.7913 40.6627 20.6268 40.6055 20.4925 40.5017C20.3445 40.3905 20.2349 40.2359 20.1788 40.0595C20.1227 39.8831 20.123 39.6936 20.1796 39.5174C20.2489 39.1222 20.3157 38.7205 20.3801 38.331C20.4901 37.671 20.6033 36.9882 20.7304 36.32C20.7574 36.2146 20.7529 36.1037 20.7174 36.0008C20.682 35.898 20.6171 35.8078 20.5308 35.7415C20.0493 35.282 19.5661 34.8077 19.0984 34.3498C18.8208 34.0782 18.5429 33.8066 18.2648 33.535C18.1079 33.4255 17.9883 33.2706 17.922 33.0912C17.8558 32.9117 17.846 32.7163 17.8941 32.5311C17.9603 32.3442 18.0833 32.1827 18.246 32.0693C18.4086 31.9559 18.6027 31.8963 18.801 31.8988C19.7388 31.7701 20.8486 31.6128 21.9665 31.4222C22.0596 31.3987 22.1472 31.357 22.224 31.2993C22.3008 31.2417 22.3653 31.1693 22.4138 31.0865C22.8685 30.2114 23.3101 29.3102 23.7306 28.4383L23.8373 28.2191C23.8964 28.0382 24.0095 27.8796 24.1615 27.765C24.3135 27.6503 24.4969 27.585 24.6872 27.5779H24.6945C24.8858 27.5871 25.0697 27.6544 25.2217 27.7709C25.3737 27.8874 25.4865 28.0474 25.5452 28.2297C25.7367 28.6249 25.9363 29.0258 26.1286 29.4128C26.3975 29.9531 26.6745 30.5112 26.9369 31.0653C26.9786 31.1733 27.0505 31.267 27.144 31.3353C27.2374 31.4036 27.3485 31.4437 27.4641 31.4507C28.318 31.564 29.1833 31.6951 30.021 31.8157L30.6728 31.9119C30.9065 31.9274 31.1272 32.025 31.2961 32.1873C31.465 32.3496 31.5712 32.5663 31.596 32.7992C31.5504 32.8725 31.508 32.9483 31.4672 33.0217C31.3845 33.1867 31.2804 33.3401 31.1576 33.478C30.8015 33.8389 30.4333 34.1982 30.0764 34.5462C29.669 34.9414 29.2518 35.3504 28.8493 35.7627C28.7818 35.8416 28.7307 35.9333 28.6991 36.0322C28.6675 36.1311 28.6559 36.2353 28.6651 36.3388C28.7775 37.099 28.9144 37.8682 29.0473 38.6129C29.0972 38.8932 29.1467 39.1735 29.1955 39.4538C29.2572 39.6358 29.262 39.8323 29.2094 40.0172C29.1567 40.202 29.049 40.3665 28.9006 40.4886C28.7609 40.5976 28.5889 40.6573 28.4117 40.6581C28.1925 40.6469 27.9796 40.5811 27.7924 40.4666C27.3948 40.2515 26.9874 40.0388 26.5938 39.8327C26.0944 39.572 25.5778 39.3022 25.0767 39.0252C24.9593 38.9536 24.8254 38.9137 24.688 38.9095C24.5419 38.9151 24.3998 38.9587 24.2757 39.0358C23.7338 39.3365 23.1749 39.6282 22.6338 39.9109C22.281 40.0951 21.9168 40.2857 21.5599 40.4764C21.3788 40.5874 21.1731 40.6521 20.961 40.6646ZM24.6864 27.5901C24.4975 27.5973 24.3154 27.6623 24.1646 27.7762C24.0138 27.8901 23.9016 28.0476 23.843 28.2273L23.7363 28.4465C23.3126 29.3183 22.8734 30.2195 22.4195 31.0946C22.3702 31.1783 22.3048 31.2514 22.227 31.3096C22.1493 31.3677 22.0607 31.4099 21.9665 31.4336C20.8486 31.6243 19.7388 31.7815 18.801 31.9103C18.604 31.9076 18.4112 31.9667 18.2496 32.0792C18.088 32.1917 17.9656 32.3521 17.8998 32.5377C17.852 32.7213 17.8615 32.9152 17.927 33.0934C17.9926 33.2715 18.111 33.4253 18.2664 33.5342C18.5451 33.8058 18.8232 34.0774 19.1008 34.349C19.5685 34.8069 20.0525 35.2811 20.5333 35.7407C20.6204 35.8078 20.686 35.899 20.7217 36.003C20.7575 36.107 20.762 36.2192 20.7345 36.3257C20.6074 36.9939 20.4901 37.6767 20.3841 38.3367C20.3198 38.7254 20.253 39.1279 20.1837 39.5231C20.1273 39.6981 20.1269 39.8863 20.1826 40.0616C20.2382 40.2368 20.3471 40.3904 20.4941 40.5008C20.6278 40.6023 20.7908 40.6575 20.9586 40.6581C21.1706 40.6475 21.3766 40.5845 21.5583 40.4748C21.9152 40.2841 22.2794 40.0934 22.6322 39.9093C23.1724 39.6274 23.7314 39.3389 24.2741 39.0342C24.3992 38.9565 24.5424 38.9127 24.6896 38.9071C24.8282 38.9113 24.9632 38.9514 25.0815 39.0236C25.5827 39.3006 26.0993 39.5703 26.5987 39.8311C26.9931 40.0364 27.4005 40.2499 27.7973 40.465C27.9835 40.5789 28.1953 40.6445 28.4133 40.6557C28.5885 40.6546 28.7584 40.5955 28.8965 40.4878C29.0436 40.3663 29.1503 40.203 29.2024 40.0195C29.2545 39.836 29.2496 39.641 29.1882 39.4603C29.1393 39.18 29.0899 38.8997 29.0399 38.6194C28.9079 37.8755 28.771 37.1055 28.6578 36.3453C28.6484 36.2407 28.6601 36.1353 28.692 36.0353C28.7239 35.9352 28.7754 35.8426 28.8435 35.7627C29.2453 35.3504 29.6649 34.9414 30.0707 34.5462C30.4275 34.1982 30.7958 33.8389 31.1519 33.478C31.2764 33.3407 31.3822 33.1875 31.4664 33.0225C31.5072 32.9491 31.5479 32.8734 31.5952 32.8017C31.5687 32.5711 31.4619 32.3571 31.2936 32.1973C31.1253 32.0375 30.9061 31.9419 30.6744 31.9274L30.0226 31.8312C29.185 31.7074 28.3196 31.5794 27.4657 31.4662C27.3489 31.4591 27.2366 31.4186 27.1421 31.3496C27.0477 31.2805 26.975 31.1858 26.9328 31.0767C26.6704 30.5226 26.3926 29.9645 26.1245 29.4243C25.9322 29.0372 25.7326 28.6371 25.5411 28.2411C25.4829 28.0603 25.3708 27.9015 25.22 27.7859C25.0692 27.6703 24.8867 27.6034 24.697 27.5942L24.6864 27.5901ZM22.105 38.2829V38.2756C22.1458 38.0311 22.1865 37.7973 22.2199 37.5659C22.3063 37.0248 22.3878 36.5131 22.4904 36.0047C22.5333 35.8137 22.5232 35.6147 22.4613 35.4291C22.3995 35.2434 22.2881 35.0782 22.1393 34.9511C21.7807 34.5853 21.4271 34.2015 21.0857 33.8308C20.9385 33.6711 20.7905 33.5108 20.6416 33.35L20.6367 33.3451H20.6433C20.8396 33.3158 21.0417 33.2832 21.2462 33.2514C21.7351 33.17 22.2493 33.0934 22.7626 33.0306C22.9646 33.0121 23.1577 32.9385 23.3208 32.8178C23.4839 32.6971 23.6107 32.534 23.6874 32.3462C23.8993 31.9045 24.1168 31.4686 24.3466 31.0074C24.4566 30.7858 24.5698 30.5601 24.6855 30.3263C24.7923 30.5405 24.8966 30.7483 24.9993 30.9512C25.2339 31.4165 25.4555 31.8557 25.6617 32.3046C25.737 32.5079 25.8692 32.6852 26.0426 32.8152C26.216 32.9453 26.4233 33.0226 26.6395 33.038C27.1324 33.0909 27.6173 33.1691 28.1314 33.2514C28.3538 33.2873 28.5836 33.324 28.8167 33.359H28.824L28.8191 33.3639C28.6993 33.4861 28.5844 33.6083 28.4744 33.7322C28.2518 33.992 28.0064 34.2315 27.7411 34.4476C27.3705 34.6784 27.093 35.0323 26.9572 35.4472C26.8213 35.8621 26.8357 36.3115 26.998 36.7168C27.0943 37.0506 27.1589 37.3927 27.1911 37.7386C27.2131 37.9122 27.2359 38.0914 27.2661 38.2756V38.2829H27.2595C27.0485 38.1721 26.8432 38.0662 26.6411 37.9619C26.1807 37.724 25.7448 37.4999 25.3178 37.2571C25.1294 37.1354 24.9098 37.0707 24.6855 37.0707C24.4612 37.0707 24.2417 37.1354 24.0533 37.2571C23.6263 37.5015 23.1928 37.7231 22.7333 37.9611C22.5287 38.067 22.3193 38.1745 22.105 38.287V38.2829ZM20.6522 33.3533C20.8 33.5119 20.9466 33.6703 21.0922 33.8283C21.4344 34.1991 21.7881 34.5828 22.1458 34.9487C22.2955 35.0764 22.4075 35.2425 22.4698 35.4292C22.5321 35.6158 22.5423 35.8159 22.4994 36.008C22.3959 36.5164 22.3144 37.0273 22.2289 37.5691C22.1922 37.7981 22.1556 38.0311 22.1156 38.2715C22.3275 38.1599 22.5344 38.0531 22.7373 37.9456C23.1969 37.7077 23.6336 37.4836 24.0573 37.2416C24.2469 37.1193 24.4677 37.0543 24.6933 37.0543C24.9189 37.0543 25.1397 37.1193 25.3293 37.2416C25.757 37.486 26.1921 37.7085 26.6517 37.9456C26.8513 38.0491 27.0591 38.1542 27.2636 38.2634C27.2335 38.0808 27.2115 37.904 27.1903 37.7329C27.1583 37.3876 27.0939 37.046 26.998 36.7128C26.8353 36.306 26.8208 35.855 26.9571 35.4386C27.0934 35.0223 27.3718 34.6671 27.7435 34.4354C28.0088 34.2195 28.2542 33.9804 28.4769 33.7208C28.5861 33.6018 28.6985 33.4763 28.8167 33.3574C28.5861 33.3223 28.3587 33.2865 28.1387 33.2506C27.6254 33.1691 27.1406 33.0877 26.6476 33.038C26.4305 33.023 26.2222 32.946 26.0477 32.8159C25.8732 32.6859 25.7397 32.5084 25.6633 32.3046C25.458 31.8557 25.2364 31.4165 25.0009 30.952C24.8998 30.7508 24.7955 30.5446 24.6904 30.3336C24.5764 30.565 24.4647 30.7891 24.3547 31.0083C24.125 31.4694 23.9074 31.9045 23.6955 32.347C23.6184 32.536 23.4908 32.7001 23.3267 32.8215C23.1626 32.9429 22.9683 33.0169 22.765 33.0355C22.2517 33.0982 21.7424 33.1789 21.2495 33.2563C21.0458 33.2922 20.847 33.324 20.6522 33.3533Z" fill="black"/>
<path d="M36.1117 38.4818C36.107 38.3731 36.1245 38.2646 36.1632 38.163C36.2019 38.0613 36.2609 37.9686 36.3367 37.8905C36.4124 37.8124 36.5032 37.7506 36.6037 37.7088C36.7041 37.667 36.812 37.6461 36.9208 37.6474C37.0328 37.6414 37.1449 37.6585 37.25 37.6977C37.3551 37.737 37.451 37.7975 37.5316 37.8755C37.6122 37.9536 37.6759 38.0474 37.7185 38.1512C37.7612 38.2549 37.782 38.3664 37.7796 38.4786C37.7754 38.6989 37.6856 38.909 37.5293 39.0644C37.373 39.2198 37.1624 39.3084 36.942 39.3113C36.722 39.3096 36.5114 39.2217 36.3556 39.0664C36.1997 38.9112 36.111 38.701 36.1084 38.481" fill="black"/>
<path d="M36.9419 39.3154C36.7215 39.3131 36.5108 39.2245 36.3548 39.0687C36.1989 38.9129 36.1101 38.7023 36.1076 38.4818C36.1024 38.3724 36.1198 38.2631 36.1586 38.1606C36.1974 38.0582 36.2569 37.9648 36.3333 37.8863C36.4097 37.8078 36.5014 37.7458 36.6027 37.7041C36.7041 37.6625 36.8129 37.6421 36.9224 37.6442H36.9419C37.0556 37.6419 37.1686 37.6624 37.2742 37.7043C37.3799 37.7463 37.476 37.809 37.5571 37.8887C37.6327 37.9665 37.6919 38.0586 37.7313 38.1596C37.7708 38.2607 37.7897 38.3685 37.7869 38.477C37.7819 38.6989 37.691 38.9102 37.5335 39.0665C37.3759 39.2229 37.1639 39.3121 36.9419 39.3154ZM36.9419 37.6507H36.924C36.8156 37.6488 36.7079 37.6692 36.6077 37.7106C36.5074 37.7519 36.4167 37.8134 36.3412 37.8913C36.2656 37.9691 36.2069 38.0616 36.1685 38.163C36.1302 38.2645 36.113 38.3727 36.1182 38.481C36.1205 38.6991 36.2079 38.9076 36.3618 39.0621C36.5157 39.2166 36.7239 39.3049 36.9419 39.3081C37.1606 39.3033 37.369 39.2144 37.5238 39.0599C37.6786 38.9054 37.7679 38.6972 37.7731 38.4786C37.7759 38.371 37.7572 38.264 37.718 38.1638C37.6788 38.0636 37.62 37.9723 37.5449 37.8952C37.4655 37.8166 37.3714 37.7546 37.2679 37.7127C37.1644 37.6707 37.0536 37.6497 36.9419 37.6507Z" fill="black"/>
</g>
</g>
<defs>
<clipPath id="clip0_2350_5526">
<rect width="44" height="44" fill="white" transform="translate(10 10)"/>
</clipPath>
</defs>
</svg>
