<svg width="64" height="64" viewBox="0 0 64 64" fill="none" xmlns="http://www.w3.org/2000/svg">
<rect width="64" height="64" rx="8" fill="#EAF3FF"/>
<g clip-path="url(#clip0_2325_1855)">
<path d="M53.9897 32.0051C53.9897 32.3413 53.8267 32.5247 53.4905 32.5756C53.3683 32.596 53.246 32.5858 53.1238 32.5858H32.5857V53.1442C32.5857 53.2971 32.5857 53.4295 32.5551 53.5619C32.494 53.8574 32.2801 54 31.9745 53.9898C31.6688 53.9796 31.4855 53.837 31.4243 53.5518C31.404 53.4295 31.404 53.2869 31.404 53.1442V32.5858H10.8557C10.7233 32.5858 10.601 32.596 10.489 32.5756C10.1528 32.5145 9.98977 32.3311 9.99996 31.9949C9.99996 31.6485 10.1528 31.4652 10.4991 31.4142C10.6214 31.404 10.7437 31.404 10.8659 31.404H31.404V10.8456C31.404 10.7335 31.404 10.6214 31.4141 10.5094C31.4549 10.1732 31.6383 10.0102 31.9846 10H32.0152C32.331 10 32.5348 10.1936 32.5755 10.5196C32.5857 10.6316 32.5857 10.7437 32.5857 10.8558V31.404H52.9913H53.134C53.2664 31.404 53.3886 31.404 53.5007 31.4244C53.8369 31.4753 53.9897 31.6587 53.9897 32.0051Z" fill="black"/>
<path d="M50.6279 40.583C49.8027 36.8747 46.1046 34.1954 42.4065 34.6029C38.3824 35.0614 35.3669 38.3214 35.3873 42.2028C35.3975 45.2795 36.8136 47.6328 39.5948 49.1915C40.0023 49.4156 40.1551 49.6805 40.1449 50.1389C40.1143 50.8622 40.1245 51.5957 40.1347 52.3089V52.5024C40.1449 53.022 40.3181 53.1952 40.8478 53.2054H41.6221L41.6628 53.348C41.8564 53.9287 41.9379 53.9898 42.5186 54H43.6494C44.2606 53.9898 44.3218 53.9491 44.5459 53.3378L44.5968 53.2054H45.2183C45.9314 53.2054 46.0638 53.0627 46.0638 52.3394V51.7791C46.074 51.178 46.074 50.577 46.0638 49.9759C46.0537 49.6295 46.1759 49.4258 46.5019 49.2628C49.7619 47.6226 51.4225 44.1283 50.6279 40.583ZM40.2773 43.6189C39.7883 43.6189 39.391 43.2216 39.391 42.7224C39.391 42.2232 39.7883 41.8361 40.2773 41.8361C40.7663 41.8361 41.1738 42.2334 41.1738 42.7224C41.1738 43.2114 40.7663 43.6189 40.2773 43.6189ZM44.8719 52.0032H41.3368V50.0676H44.8719V52.0032ZM45.0858 42.7224C45.0858 42.2334 45.4832 41.8361 45.9722 41.8361C46.4612 41.8361 46.8687 42.2334 46.8687 42.7224C46.8687 43.2114 46.4612 43.6189 45.9722 43.6189C45.4832 43.6189 45.0858 43.2216 45.0858 42.7224ZM45.585 48.3154L45.31 48.4172V44.4033L45.5443 44.4339C46.1046 44.5052 46.6242 44.383 47.0215 44.0671C47.378 43.7921 47.592 43.3744 47.6429 42.8854C47.6938 42.3964 47.5512 41.9176 47.2252 41.5406C46.9094 41.1739 46.4612 40.9498 45.9722 40.9294C45.473 40.8988 45.0043 41.072 44.6681 41.3878C44.3014 41.7342 44.1078 42.2334 44.0976 42.7937V48.7738H42.1009V42.753C42.1009 42.213 41.8971 41.7342 41.5508 41.4082C41.2146 41.0822 40.7561 40.8886 40.2671 40.9294C39.7985 40.9396 39.3503 41.1331 39.0344 41.4795C38.7084 41.8157 38.5353 42.2741 38.5454 42.753C38.576 43.7615 39.391 44.4848 40.4301 44.4746C40.4811 44.4746 40.532 44.4746 40.5829 44.4645L40.8988 44.4441V48.3357L40.6543 48.2848C38.4436 47.8569 36.4061 44.6988 36.5589 41.8972C36.7321 38.7085 39.3808 36.019 42.5899 35.7745C45.8601 35.5096 48.7635 37.6897 49.5072 40.9294C50.1898 43.9449 48.4273 47.266 45.585 48.3154Z" fill="black"/>
<path d="M26.1677 24.1811C26.0047 22.4696 25.0674 21.1044 23.3661 20.1264L23.1522 20.0042L23.3152 19.8106C24.9757 17.9667 25.0878 15.868 23.6208 14.3297C22.2862 12.9238 19.9838 12.7812 18.4965 14.0139C17.712 14.6557 17.2638 15.5013 17.1517 16.5098C17.0193 17.7629 17.4471 18.8428 18.4659 19.7902L18.6595 19.9838L18.4252 20.1162C16.3876 21.3082 15.4402 23.0502 15.5421 25.4341C15.5625 25.9639 15.5523 26.4936 15.5523 27.003C15.5421 27.2781 15.5421 27.5531 15.5421 27.8282C15.5421 28.47 15.6949 28.6126 16.3571 28.6126C17.7528 28.6126 19.1383 28.6126 20.534 28.6126H23.1929C23.9875 28.6126 24.7822 28.6126 25.5768 28.6126C26.0047 28.6126 26.2186 28.4496 26.2186 28.1135C26.2288 27.8384 26.2288 27.5633 26.2288 27.2883C26.2492 26.2593 26.2695 25.1998 26.1677 24.1811ZM18.3029 16.9581C18.3029 16.245 18.5576 15.593 19.0364 15.104C19.5152 14.615 20.1672 14.3501 20.8702 14.3399H20.8905C21.5935 14.3399 22.2455 14.6048 22.7243 15.0836C23.2031 15.5624 23.468 16.2144 23.4782 16.9173C23.4782 17.6305 23.2133 18.2825 22.7243 18.7613C22.2455 19.2503 21.5935 19.5152 20.8905 19.5152C19.4643 19.505 18.3335 18.3844 18.3131 16.9581H18.3029ZM25.0572 26.402V27.4411H16.6321V27.2271C16.6729 26.8502 16.6831 26.4834 16.6933 26.1167C16.7136 25.3119 16.7442 24.4867 16.9174 23.6921C17.3453 21.7768 19.3013 20.4626 21.349 20.7071C23.4374 20.9618 24.9961 22.6326 25.0572 24.6904C25.0674 25.2508 25.0674 25.8213 25.0572 26.402Z" fill="black"/>
<path d="M48.5597 15.4503C47.1029 13.9833 45.1673 13.1683 43.1094 13.1683H43.0992C38.851 13.1683 35.3872 16.6117 35.377 20.8599C35.3669 22.9178 36.1717 24.8636 37.6387 26.3408C39.0955 27.8078 41.0311 28.6126 43.089 28.6228H43.0992C47.3474 28.6228 50.8112 25.1692 50.8213 20.9312C50.8315 18.8632 50.0267 16.9173 48.5597 15.4503ZM43.0992 27.4411H43.089C39.4826 27.4411 36.5486 24.5071 36.5486 20.9007C36.5486 19.1484 37.2312 17.5082 38.4842 16.2653C39.7271 15.0225 41.3673 14.3399 43.1094 14.3399H43.1298C46.7361 14.3603 49.66 17.3045 49.6498 20.9109C49.6396 24.5172 46.7056 27.4411 43.0992 27.4411Z" fill="black"/>
<path d="M20.9107 35.3772H20.9005C18.8427 35.3772 16.907 36.182 15.44 37.6388C13.973 39.1058 13.1682 41.0414 13.1682 43.0993C13.1682 47.3475 16.6218 50.8113 20.87 50.8215H20.8802C22.9381 50.8215 24.8737 50.0167 26.3407 48.5598C27.8077 47.0928 28.6125 45.1572 28.6125 43.0993C28.6125 38.8511 25.1589 35.3874 20.9107 35.3772ZM25.5155 47.7245C24.2726 48.9673 22.6222 49.6499 20.8802 49.6499H20.87C17.2636 49.6397 14.3398 46.6955 14.3398 43.0891C14.3398 39.4827 17.2738 36.5487 20.8802 36.5487C24.4866 36.5487 27.4206 39.4827 27.4308 43.079C27.4308 44.8312 26.7482 46.4816 25.5053 47.7245H25.5155Z" fill="black"/>
<path d="M45.3609 22.1639V22.6122C45.4526 23.6513 45.0349 24.3135 44.0773 24.6293C43.8837 24.7006 43.7717 24.9451 43.7411 25.047C43.6494 25.3119 43.4762 25.4341 43.1808 25.4443C42.9261 25.4239 42.7427 25.3221 42.6001 25.0368C42.5084 24.8433 42.3148 24.6599 42.1213 24.5784C41.398 24.2626 40.9701 23.6411 41.021 22.9891C41.0414 22.6733 41.184 22.5103 41.4693 22.4696C41.5304 22.4594 41.5915 22.4594 41.6425 22.4594C41.9277 22.4594 42.0907 22.5816 42.1213 22.8159C42.2232 23.4679 42.651 23.5189 43.0585 23.4781C43.14 23.4679 43.2113 23.4781 43.2928 23.4781C43.4049 23.4781 43.5068 23.4781 43.6188 23.4679C43.7105 23.4577 44.0467 23.3559 44.0569 23.1216C44.0875 22.7039 44.0875 22.2964 44.0569 21.9194C44.0467 21.6851 43.68 21.5832 43.5475 21.5731C43.354 21.5629 43.1604 21.5629 42.9668 21.5629C42.7937 21.5629 42.6307 21.5731 42.4575 21.5629C41.6017 21.5323 41.0007 21.0229 40.8886 20.2385C40.7969 19.5763 40.7969 19.0669 40.8988 18.6492C40.9803 18.313 41.235 17.9157 41.5915 17.5897C41.6934 17.498 41.8055 17.4267 41.9379 17.3452C42.1824 17.1822 42.4677 16.9988 42.651 16.6423C42.7325 16.4793 42.9567 16.4793 43.0178 16.4793C43.2113 16.4895 43.4558 16.6015 43.5272 16.8053C43.6596 17.1822 43.9041 17.3147 44.169 17.4165C44.821 17.6916 45.2285 18.3028 45.1775 18.9549C45.1572 19.2809 45.0043 19.454 44.6885 19.4846C44.4746 19.505 44.1282 19.4948 44.0773 19.1382C43.9652 18.3843 43.3845 18.4455 43.14 18.476H42.6714C42.6001 18.4658 42.4982 18.4658 42.3963 18.527C41.999 18.8122 42.0602 19.2095 42.1009 19.4948C42.1213 19.6069 42.1315 19.7087 42.1213 19.8004C42.1009 20.0449 42.4167 20.3302 42.6307 20.3709C42.8548 20.4117 43.0891 20.4015 43.3132 20.4015C43.4151 20.4015 43.5068 20.4015 43.5985 20.4015C44.7191 20.4015 45.3507 21.0433 45.3609 22.1741V22.1639Z" fill="black"/>
<path d="M25.4443 43.0993C25.4443 43.4763 25.2202 43.68 24.7821 43.68C24.4866 43.6902 24.2014 43.6902 23.9161 43.6902C23.4781 43.68 23.0298 43.68 22.5918 43.7004C22.3676 43.7106 22.0926 43.8328 21.9296 44.006C21.6443 44.3015 21.2674 44.4747 20.8905 44.4747C20.5441 44.4747 20.1875 44.3422 19.9226 44.0773C19.6578 43.8125 19.5151 43.4661 19.5151 43.1095C19.5151 42.7224 19.6781 42.3556 19.9634 42.0704C20.1468 41.8972 20.2792 41.612 20.2894 41.3675C20.3098 40.9192 20.3098 40.4709 20.2996 40.0227V39.2383C20.3098 38.5557 20.7376 38.5557 20.8803 38.5455C21.0636 38.5455 21.2063 38.6066 21.298 38.7085C21.3998 38.8206 21.461 39.0141 21.461 39.2484C21.4711 39.5031 21.4711 39.7476 21.4711 40.0023V41.1739C21.4711 42.0602 21.9092 42.5085 22.7751 42.5085H23.4373C23.8754 42.5085 24.3135 42.5085 24.7515 42.5186C25.1998 42.5186 25.4239 42.7122 25.4341 43.0993H25.4443Z" fill="black"/>
</g>
<defs>
<clipPath id="clip0_2325_1855">
<rect width="44" height="44" fill="white" transform="translate(10 10)"/>
</clipPath>
</defs>
</svg>
