<svg width="64" height="64" viewBox="0 0 64 64" fill="none" xmlns="http://www.w3.org/2000/svg">
<rect width="64" height="64" rx="8" fill="#EAF3FF"/>
<g clip-path="url(#clip0_2350_5354)">
<mask id="mask0_2350_5354" style="mask-type:luminance" maskUnits="userSpaceOnUse" x="10" y="10" width="44" height="44">
<path d="M54 10H10V54H54V10Z" fill="white"/>
</mask>
<g mask="url(#mask0_2350_5354)">
<path d="M10.4075 52.1456V49.7443C10.5009 49.3045 10.6955 48.8926 10.976 48.5412C11.2565 48.1899 11.6151 47.9088 12.0232 47.7203C12.1104 47.6812 12.1593 47.4693 12.1618 47.3365C12.174 46.5641 12.1618 45.7884 12.1715 45.0192C12.1541 44.8772 12.1692 44.733 12.2157 44.5977C12.2621 44.4623 12.3388 44.3393 12.4398 44.238C12.5409 44.1366 12.6636 44.0596 12.7988 44.0127C12.934 43.9658 13.0781 43.9503 13.2202 43.9673C13.4492 43.9599 13.679 43.9673 13.9242 43.9673V29.8465H13.3775C12.4755 29.8416 12.1707 29.532 12.1683 28.6194C12.1683 28.1509 12.1683 27.6807 12.1683 27.2122V26.3078C11.4504 26.307 10.7399 26.443 10.4075 25.6445V25.2306C10.6115 24.9627 10.8431 24.7169 11.0984 24.4973C14.1328 22.3673 17.1748 20.2474 20.2244 18.1376C23.9339 15.5579 27.6454 12.9812 31.3588 10.4075H31.8559C32.0726 10.5517 32.2918 10.6918 32.5077 10.8393L41.0673 16.7932L52.1407 24.4973C52.7428 24.9161 52.8944 25.2102 52.751 25.6714C52.6076 26.1326 52.2833 26.3061 51.5882 26.307H51.0472C51.0472 27.1674 51.0553 27.9676 51.0472 28.7669C51.0681 28.9122 51.055 29.0603 51.0091 29.1997C50.9632 29.3391 50.8856 29.4659 50.7824 29.5704C50.6793 29.6748 50.5534 29.7539 50.4145 29.8015C50.2757 29.8491 50.1278 29.864 49.9822 29.8449C49.7549 29.8522 49.5276 29.8449 49.2717 29.8449V30.3664C49.2717 31.9528 49.2815 33.5441 49.2636 35.1273C49.2575 35.2753 49.2854 35.4226 49.3451 35.5581C49.4049 35.6935 49.4949 35.8135 49.6082 35.9087C50.9979 37.1386 51.9969 38.7486 52.4817 40.5398C52.9665 42.3311 52.9159 44.2252 52.3362 45.988C52.1496 46.6399 51.84 47.2616 51.5776 47.9191C52.0205 48.2152 52.3712 48.6298 52.5897 49.1156C52.8083 49.6014 52.8859 50.1389 52.8137 50.6667C52.795 50.9828 52.8137 51.3014 52.8137 51.6184C52.8137 52.5049 52.5098 52.8047 51.6151 52.8047C38.2831 52.8047 24.9508 52.8069 11.6183 52.8113C11.3718 52.8444 11.1212 52.7976 10.9033 52.6778C10.6853 52.558 10.5116 52.3714 10.4075 52.1456ZM49.0705 24.5233C48.8847 24.3873 48.7885 24.3131 48.6899 24.2438C43.0976 20.3566 37.5071 16.4662 31.9186 12.5724C31.8295 12.4926 31.7132 12.4498 31.5935 12.4528C31.4739 12.4558 31.3599 12.5044 31.2749 12.5887C25.7005 16.477 20.122 20.3607 14.5394 24.2398C14.4335 24.3139 14.3341 24.397 14.1646 24.5266L49.0705 24.5233ZM51.0439 43.0881C51.0428 41.5173 50.5762 39.982 49.703 38.6763C48.8298 37.3705 47.5892 36.3528 46.138 35.7517C44.6867 35.1507 43.0899 34.9931 41.5492 35.2991C40.0084 35.6051 38.593 36.3608 37.4815 37.4708C36.37 38.5807 35.6124 39.9952 35.3044 41.5355C34.9964 43.0759 35.1518 44.6729 35.7509 46.125C36.3501 47.577 37.3661 48.8189 38.6707 49.6939C39.9753 50.5688 41.5099 51.0374 43.0807 51.0407C44.1258 51.0414 45.1608 50.8363 46.1266 50.437C47.0924 50.0378 47.97 49.4522 48.7095 48.7137C49.449 47.9752 50.0357 47.0983 50.4363 46.1331C50.8368 45.1678 51.0433 44.1331 51.0439 43.0881ZM21.0318 29.8457V43.9485C21.1769 43.955 21.2983 43.964 21.4197 43.9648C22.5425 43.9738 22.7682 44.2019 22.7682 45.3329V47.4816H26.3086C26.3086 46.648 26.3037 45.8373 26.3086 45.0265C26.2892 44.8851 26.3024 44.7411 26.3471 44.6055C26.3918 44.4699 26.4669 44.3463 26.5667 44.2441C26.6664 44.142 26.7881 44.0639 26.9226 44.0159C27.0571 43.9679 27.2007 43.9513 27.3426 43.9673C27.5724 43.9591 27.8021 43.9673 28.0344 43.9673V29.8457C27.7679 29.8457 27.5333 29.8563 27.301 29.8457C27.1653 29.8565 27.0288 29.8371 26.9014 29.7891C26.774 29.741 26.6587 29.6654 26.5639 29.5676C26.4691 29.4698 26.3971 29.3523 26.3529 29.2235C26.3088 29.0947 26.2936 28.9577 26.3086 28.8223C26.3013 28.4646 26.3086 28.1053 26.3086 27.7467V26.3273H22.7682C22.7682 27.156 22.7739 27.9659 22.7682 28.7718C22.7617 29.5051 22.4423 29.8229 21.709 29.8416C21.4922 29.8481 21.2747 29.8416 21.0367 29.8416M15.7282 43.9355H19.223V29.8726H15.7282V43.9355ZM29.8726 43.9355H33.3429V29.8685H29.8726V43.9355ZM42.1763 33.4203V29.8465H41.729C40.7129 29.8465 40.4481 29.5817 40.4473 28.5787C40.4473 27.8364 40.4473 27.0949 40.4473 26.3404H36.9077C36.9077 27.187 36.9142 28.001 36.9077 28.815C36.924 28.95 36.9101 29.0869 36.8672 29.2159C36.8242 29.345 36.7532 29.4629 36.6592 29.5612C36.5653 29.6595 36.4507 29.7358 36.3238 29.7846C36.1968 29.8333 36.0607 29.8534 35.925 29.8433C35.6806 29.8571 35.4362 29.8433 35.1917 29.8433V37.4455C36.006 36.3191 37.0493 35.3776 38.2532 34.6831C39.4572 33.9885 40.7944 33.5565 42.1771 33.4154M12.1683 51.0236H37.3779C36.8002 50.4597 36.2371 49.8999 35.6602 49.3597C35.5457 49.2882 35.4108 49.2564 35.2764 49.2693C27.9485 49.2655 20.6206 49.2655 13.2927 49.2693C12.517 49.2693 12.1838 49.6058 12.1691 50.3733C12.1691 50.577 12.1691 50.7807 12.1691 51.0252M47.4816 34.3133V29.875H43.9933V33.3038L47.4816 34.3133ZM35.1249 26.3281H28.0939V28.0287H35.1273L35.1249 26.3281ZM13.9674 28.0368H20.9821V26.3412H13.9674V28.0368ZM42.2236 28.0368H49.244V26.3371H42.2236V28.0368ZM20.9789 45.7704H13.9715V47.4816H20.9789V45.7704ZM34.4176 47.493C34.2286 47.0098 34.033 46.5714 33.8904 46.1159C33.8815 46.0568 33.861 46.0001 33.83 45.9489C33.799 45.8978 33.7582 45.8533 33.71 45.818C33.6617 45.7827 33.607 45.7573 33.5489 45.7433C33.4908 45.7292 33.4305 45.7268 33.3714 45.7362C31.7418 45.7517 30.1187 45.7436 28.4931 45.7452C28.3619 45.7452 28.2307 45.7623 28.1004 45.7721V47.4938L34.4176 47.493ZM48.7584 51.0122H51.0513C51.0154 50.3994 51.2142 49.7582 50.5445 49.3727L48.7584 51.0122Z" fill="black"/>
<path d="M11.6118 52.8178H11.6077C11.3623 52.8481 11.1137 52.7995 10.8979 52.6789C10.682 52.5583 10.5102 52.372 10.4075 52.1472L10.4075 49.7443C10.4987 49.3028 10.6928 48.8891 10.974 48.5367C11.2552 48.1843 11.6155 47.9032 12.0257 47.7162C12.1072 47.6779 12.1593 47.4718 12.1618 47.3357C12.1683 46.9544 12.1675 46.5673 12.1658 46.195C12.1642 45.8226 12.1658 45.4127 12.1707 45.0216C12.1528 44.8788 12.1676 44.7338 12.214 44.5975C12.2605 44.4613 12.3373 44.3374 12.4388 44.2353C12.5403 44.1332 12.6637 44.0555 12.7996 44.0082C12.9356 43.961 13.0805 43.9453 13.2235 43.9624C13.305 43.9624 13.3864 43.9624 13.494 43.9624H13.9242V29.8506H13.3775C12.473 29.8457 12.1667 29.5352 12.1642 28.6194C12.1642 28.3065 12.1642 27.9936 12.1642 27.6807V26.311C12.0738 26.311 11.9825 26.311 11.8937 26.3151C11.8049 26.3192 11.7193 26.3192 11.6338 26.3192C11.3832 26.3619 11.1256 26.3184 10.9029 26.1959C10.6802 26.0734 10.5055 25.879 10.4075 25.6445V25.229C10.48 25.1475 10.5501 25.066 10.6169 24.9845C10.7552 24.7994 10.9177 24.6336 11.1001 24.4915C14.0122 22.448 16.8355 20.4851 20.226 18.1319C23.1324 16.1136 26.0927 14.0635 28.9445 12.0803L31.3564 10.4075H31.8558L32.075 10.5517C32.2176 10.6454 32.3651 10.7415 32.5069 10.8401L41.0698 16.7899L46.6064 20.6424L52.1431 24.4948C52.7444 24.9128 52.8993 25.2102 52.755 25.673C52.6108 26.1358 52.2849 26.311 51.5882 26.3118H51.0513C51.0513 26.575 51.0513 26.8333 51.0513 27.0867C51.0513 27.6669 51.0513 28.2144 51.0513 28.7677C51.0724 28.9136 51.0595 29.0624 51.0135 29.2024C50.9675 29.3424 50.8896 29.4699 50.786 29.5748C50.6824 29.6796 50.5559 29.759 50.4164 29.8067C50.277 29.8545 50.1283 29.8692 49.9822 29.8498C49.9007 29.8498 49.8193 29.8498 49.7133 29.8498H49.275V30.3704C49.275 30.7844 49.275 31.1983 49.275 31.6122C49.275 32.766 49.275 33.9589 49.266 35.1314C49.2598 35.2787 49.2875 35.4255 49.347 35.5604C49.4065 35.6953 49.4961 35.8147 49.609 35.9095C50.9966 37.1418 51.994 38.7525 52.4788 40.5438C52.9636 42.3351 52.9146 44.229 52.3378 45.9929C52.1995 46.4413 52.0324 46.8803 51.8376 47.3072C51.752 47.5068 51.6632 47.7146 51.5801 47.9215C52.0238 48.2171 52.3751 48.6319 52.5936 49.1182C52.8121 49.6046 52.889 50.1427 52.8153 50.6707C52.8023 50.8834 52.8064 51.1001 52.8096 51.3095C52.8096 51.4122 52.8096 51.5181 52.8096 51.6224C52.8096 52.5122 52.5041 52.8129 51.607 52.8129H40.1556C29.5515 52.8112 20.6391 52.8129 11.6118 52.8178ZM13.4899 43.9672C13.3856 43.9672 13.2992 43.9672 13.2194 43.9672C13.0776 43.9504 12.9337 43.9661 12.7989 44.0131C12.664 44.0601 12.5416 44.1373 12.441 44.2387C12.3404 44.3401 12.2642 44.4631 12.2182 44.5983C12.1722 44.7335 12.1577 44.8775 12.1756 45.0192C12.1691 45.4103 12.1699 45.8079 12.1707 46.1925C12.1715 46.5771 12.1707 46.9552 12.1667 47.3332C12.1667 47.4701 12.1137 47.6812 12.0257 47.7211C11.6156 47.9071 11.2553 48.1875 10.974 48.5392C10.6928 48.8909 10.4987 49.3033 10.4075 49.7443V52.1447C10.51 52.3685 10.6814 52.5537 10.8965 52.6733C11.1117 52.7929 11.3594 52.8407 11.6036 52.8096H11.6077C20.635 52.8039 29.5467 52.8031 40.1515 52.8031H51.6086C52.5 52.8031 52.8023 52.5049 52.8031 51.6208C52.8031 51.5165 52.8031 51.4106 52.8031 51.3079C52.8031 51.0977 52.7966 50.8809 52.8088 50.6683C52.8824 50.1411 52.8056 49.6039 52.5872 49.1185C52.3688 48.6332 52.0177 48.2194 51.5744 47.9248C51.6558 47.7162 51.7471 47.5084 51.8327 47.3072C52.0272 46.8805 52.194 46.4418 52.3321 45.9937C52.9093 44.2297 52.9582 42.3355 52.4728 40.5442C51.9874 38.7528 50.9888 37.1424 49.6001 35.9112C49.4863 35.8157 49.3961 35.6953 49.3362 35.5594C49.2763 35.4235 49.2484 35.2757 49.2546 35.1273C49.2676 33.9548 49.2652 32.7644 49.2636 31.6081C49.2636 31.1942 49.2636 30.7803 49.2636 30.3664V29.8408H49.706C49.8103 29.8408 49.895 29.8408 49.9741 29.8408C50.119 29.8598 50.2663 29.845 50.4045 29.7975C50.5427 29.75 50.668 29.6712 50.7707 29.5672C50.8733 29.4631 50.9504 29.3367 50.996 29.1979C51.0415 29.059 51.0543 28.9115 51.0333 28.7669C51.0407 28.2136 51.039 27.6661 51.0333 27.0859C51.0333 26.8309 51.0333 26.5718 51.0333 26.307V26.3029H51.5784C52.2702 26.3029 52.5953 26.1244 52.7371 25.6698C52.8789 25.2151 52.7257 24.9161 52.1284 24.5005L46.6016 20.6489L41.0649 16.7964L32.5028 10.8426C32.361 10.744 32.2135 10.647 32.071 10.5541L31.8542 10.4075H31.3596L28.9461 12.086C26.087 14.0684 23.1308 16.1193 20.2276 18.1376C16.8388 20.4908 14.0155 22.4561 11.1017 24.4972C10.9202 24.6381 10.7582 24.8025 10.6201 24.9861C10.5525 25.0676 10.4832 25.1491 10.4115 25.2306V25.638C10.5098 25.871 10.6841 26.0638 10.9061 26.1849C11.1282 26.306 11.3847 26.3481 11.6338 26.3045C11.7152 26.3045 11.8081 26.3045 11.8937 26.3004C11.9792 26.2964 12.0738 26.2964 12.1642 26.2964H12.1748V27.6815C12.1748 27.9944 12.1748 28.3073 12.1748 28.6202C12.1748 29.5304 12.4812 29.8424 13.3799 29.8424H13.9307V43.9697H13.9242L13.4899 43.9672ZM43.1158 51.048H43.0816C40.9727 51.048 38.9503 50.2103 37.4591 48.7191C35.9679 47.2279 35.1302 45.2055 35.1302 43.0966C35.1302 40.9878 35.9679 38.9653 37.4591 37.4741C38.9503 35.983 40.9727 35.1452 43.0816 35.1452H43.0978C44.5083 35.1428 45.8939 35.5162 47.1121 36.2271C48.3303 36.938 49.337 37.9608 50.0286 39.19C50.7202 40.4193 51.0717 41.8106 51.0469 43.2209C51.0222 44.6311 50.622 46.0093 49.8877 47.2135C50.6165 46.0089 51.0121 44.6323 51.0341 43.2246C51.0562 41.8169 50.7038 40.4286 50.013 39.2018C49.3223 37.975 48.318 36.9537 47.103 36.2426C45.8879 35.5314 44.5057 35.1558 43.0978 35.1542H43.0816C40.9846 35.1657 38.9767 36.0031 37.4928 37.4848C36.009 38.9665 35.1688 40.9732 35.1542 43.0701C35.1503 45.1777 35.9829 47.2007 37.4692 48.6949C38.9555 50.1891 40.974 51.0325 43.0816 51.0398H43.1174C44.5537 51.0411 45.9628 50.6485 47.1915 49.9048C45.9644 50.654 44.5543 51.0496 43.1166 51.048H43.1158ZM37.3868 51.0276H12.1642V51.0235C12.1642 50.9421 12.1642 50.872 12.1642 50.8011C12.1642 50.652 12.1642 50.5102 12.1642 50.3717C12.1789 49.5952 12.5154 49.2635 13.2919 49.2635H22.8896C27.1731 49.2635 31.3401 49.2635 35.2748 49.2635C35.412 49.2501 35.5499 49.2825 35.6667 49.3556C36.1075 49.7671 36.5475 50.1989 36.9704 50.6169L37.3778 51.0195L37.3868 51.0276ZM12.1715 51.0195H37.3673L36.9598 50.6235C36.5345 50.2055 36.0945 49.7736 35.6561 49.3621C35.5421 49.2917 35.4083 49.2602 35.2748 49.2725C31.3393 49.2725 27.1723 49.2725 22.8896 49.2725H13.2919C12.5219 49.2725 12.187 49.5984 12.1724 50.3725C12.1724 50.511 12.1724 50.652 12.1724 50.8019C12.1715 50.8704 12.1715 50.9429 12.1715 51.0195ZM51.0513 51.0195H48.7445L48.7518 51.0121L50.5379 49.3727C51.0684 49.6767 51.057 50.1346 51.0456 50.6194C51.0456 50.7498 51.039 50.8842 51.0456 51.0154L51.0513 51.0195ZM48.7649 51.0113H51.0464C51.039 50.881 51.0423 50.7473 51.0464 50.6186C51.0586 50.137 51.0692 49.6824 50.5453 49.3809L48.7649 51.0113ZM34.4241 47.5003H28.0963V45.7704L28.2169 45.7598C28.3057 45.7517 28.3986 45.7435 28.489 45.7435H30.9286C31.6008 45.7435 32.4849 45.7435 33.3681 45.7338H33.3853C33.5035 45.7177 33.6232 45.7489 33.7186 45.8206C33.8139 45.8923 33.8771 45.9987 33.8945 46.1167C33.9947 46.4378 34.121 46.7482 34.2538 47.0758C34.3084 47.211 34.3655 47.3504 34.4209 47.493L34.4241 47.5003ZM28.1044 47.4921H34.4119C34.3573 47.352 34.3011 47.2143 34.249 47.0807C34.1153 46.7547 33.9898 46.4418 33.8888 46.1208C33.8716 46.0045 33.8093 45.8997 33.7154 45.829C33.6214 45.7584 33.5034 45.7277 33.3869 45.7435H33.373C32.4906 45.7517 31.6057 45.7533 30.9335 45.7533H28.4964C28.4059 45.7533 28.3138 45.7615 28.225 45.7696L28.1085 45.7794L28.1044 47.4921ZM20.983 47.4921H13.9666V45.7704H20.983V47.4921ZM13.9755 47.484H20.9756V45.7786H13.9747L13.9755 47.484ZM26.3135 47.4881H22.7641V45.3329C22.7641 44.2068 22.5376 43.977 21.4197 43.9689C21.3382 43.9689 21.2567 43.964 21.1712 43.9591L21.0318 43.9518V29.8416H21.4661C21.5574 29.8416 21.6291 29.8416 21.7041 29.8416C22.4374 29.8229 22.7568 29.5043 22.7633 28.7758C22.7682 28.2136 22.7633 27.6351 22.7633 27.0827C22.7633 26.8322 22.7633 26.5805 22.7633 26.3273V26.3232H26.311V27.7467C26.311 27.8554 26.311 27.964 26.311 28.0727C26.311 28.3171 26.311 28.5713 26.311 28.8207C26.2969 28.9551 26.3125 29.0911 26.3567 29.2188C26.401 29.3466 26.4727 29.4631 26.5669 29.5601C26.6611 29.6571 26.7755 29.7323 26.9019 29.7802C27.0283 29.8281 27.1638 29.8477 27.2986 29.8375C27.3801 29.8416 27.4615 29.8441 27.5667 29.8441H27.7867H28.0311H28.0352V43.9705H28.0311C27.882 43.9705 27.7337 43.9705 27.5862 43.9705C27.4925 43.9705 27.4143 43.9705 27.3418 43.9705C27.2001 43.9547 27.0567 43.9715 26.9225 44.0196C26.7884 44.0677 26.6669 44.1459 26.5676 44.2481C26.4682 44.3503 26.3935 44.4738 26.3492 44.6093C26.3049 44.7448 26.2921 44.8886 26.3118 45.0298C26.3118 45.583 26.3118 46.1241 26.3118 46.6961C26.3118 46.9573 26.3118 47.2203 26.3118 47.4848L26.3135 47.4881ZM22.7731 47.4799H26.3053C26.3053 47.2165 26.3053 46.9549 26.3053 46.6952C26.3053 46.1249 26.3053 45.5822 26.3053 45.0289C26.2856 44.8867 26.2986 44.7419 26.3433 44.6055C26.3881 44.4691 26.4634 44.3447 26.5635 44.2418C26.6637 44.1389 26.786 44.0602 26.9211 44.0118C27.0563 43.9634 27.2007 43.9465 27.3434 43.9624C27.4175 43.9624 27.4958 43.9624 27.5878 43.9624C27.7345 43.9624 27.8812 43.9624 28.0287 43.9624V29.8498H27.7842H27.5642C27.4599 29.8498 27.3752 29.8498 27.2953 29.8432C27.1602 29.8527 27.0246 29.8325 26.898 29.7841C26.7715 29.7357 26.657 29.6603 26.5626 29.563C26.4683 29.4658 26.3963 29.3491 26.3517 29.2212C26.3071 29.0932 26.291 28.9571 26.3045 28.8223C26.2996 28.573 26.3045 28.3195 26.3045 28.0743C26.3045 27.9656 26.3045 27.857 26.3045 27.7484V26.3314H22.7723C22.7723 26.5834 22.7723 26.8339 22.7723 27.0827C22.7723 27.6384 22.7723 28.2136 22.7723 28.7758C22.7658 29.5092 22.4464 29.831 21.7057 29.8498C21.6348 29.8498 21.559 29.8498 21.4678 29.8498H21.0375V43.9461L21.1728 43.9526C21.2592 43.9575 21.3407 43.9615 21.4173 43.9624C22.5425 43.9713 22.7698 44.2019 22.7698 45.3345L22.7731 47.4799ZM19.2278 43.9379H15.7241V29.8685H19.2278V43.9379ZM15.7331 43.9298H19.2197V29.8767H15.7323L15.7331 43.9298ZM33.3478 43.9347H29.8685V29.8644H33.347L33.3478 43.9347ZM29.8775 43.9265H33.3396V29.8726H29.8767L29.8775 43.9265ZM35.1844 37.4593V29.8408H35.415H35.6439C35.749 29.8408 35.8362 29.8408 35.9177 29.8335C36.0526 29.8432 36.1881 29.8229 36.3143 29.7742C36.4405 29.7255 36.5544 29.6495 36.6478 29.5516C36.7412 29.4538 36.8119 29.3365 36.8547 29.2081C36.8975 29.0798 36.9114 28.9436 36.8955 28.8092C36.9012 28.2389 36.9004 27.6791 36.8955 27.0859C36.8955 26.8382 36.8955 26.5881 36.8955 26.3355H40.4432V27.0932C40.4432 27.5903 40.4432 28.0841 40.4432 28.5778C40.4432 29.5792 40.7064 29.8392 41.7208 29.8416H42.1698V33.4195C40.7868 33.5576 39.449 33.9882 38.2451 34.6827C37.0412 35.3773 35.9987 36.3198 35.1868 37.4479L35.1844 37.4593ZM35.1925 29.849V37.4349C36.0231 36.3128 37.0722 35.3705 38.2766 34.6645C39.4764 33.9884 40.8008 33.5626 42.1698 33.413V29.8506H41.729C40.7088 29.8506 40.444 29.5858 40.4432 28.5787C40.4432 28.0849 40.4432 27.5903 40.4432 27.0932V26.3444H36.9118C36.9118 26.5959 36.9118 26.8447 36.9118 27.0908C36.9118 27.684 36.9118 28.2438 36.9118 28.8141C36.9279 28.9497 36.9138 29.0871 36.8706 29.2165C36.8274 29.346 36.756 29.4643 36.6617 29.5629C36.5674 29.6616 36.4525 29.7382 36.3251 29.7872C36.1978 29.8362 36.0611 29.8565 35.925 29.8465C35.8435 29.8514 35.7564 29.8538 35.6504 29.8538H35.4207L35.1925 29.849ZM47.4873 34.3182L46.494 34.0314L43.9917 33.3087V29.871H47.4905L47.4873 34.3182ZM43.9974 33.3038L46.4964 34.0257L47.4799 34.3092V29.8815H43.9974V33.3038ZM49.2489 28.0441H42.2195V26.333H49.2481L49.2489 28.0441ZM42.2284 28.036H49.2407V26.3412H42.2276L42.2284 28.036ZM20.987 28.0417H13.9633V26.3371H20.9862L20.987 28.0417ZM13.9723 28.0335H20.9797V26.3452H13.9723V28.0335ZM35.1322 28.0335H28.089V26.3224H35.1306L35.1322 28.0335ZM28.0987 28.0254H35.1241V26.3338H28.0979L28.0987 28.0254ZM49.0835 24.529H14.1556L14.1654 24.5217L14.3284 24.3962C14.4098 24.3318 14.4742 24.2813 14.5418 24.2332L18.6746 21.3578C22.8065 18.4831 27.0794 15.5107 31.279 12.5822C31.3741 12.502 31.4922 12.4541 31.6163 12.4453C31.7301 12.4522 31.8388 12.4943 31.9275 12.5659C36.6755 15.8798 41.5098 19.2417 46.1868 22.4928L48.7005 24.2406C48.7616 24.283 48.8203 24.327 48.9018 24.3872L49.0818 24.5201L49.0835 24.529ZM14.1776 24.5209H49.0582L48.8887 24.3954C48.8073 24.3351 48.7486 24.2919 48.6883 24.2487L46.1778 22.5026C41.5033 19.2515 36.6698 15.8895 31.9186 12.5757C31.8313 12.5052 31.7242 12.4637 31.6122 12.4567C31.4899 12.4655 31.3735 12.5129 31.2798 12.592C27.081 15.5204 22.8057 18.4929 18.6754 21.3675L14.5418 24.243C14.4742 24.2903 14.4098 24.3408 14.3284 24.406L14.1776 24.5209Z" fill="black"/>
<path d="M22.7893 22.7651V21.0303H38.4598C38.4737 20.9985 38.4875 20.9676 38.5006 20.935L31.0858 15.5385C31.4541 15.0536 31.8003 14.5965 32.1597 14.1223C32.2917 14.2111 32.4041 14.2853 32.5158 14.3619C35.5577 16.5749 38.6019 18.7888 41.6482 21.0034C41.7731 21.0893 41.8903 21.1858 41.9986 21.2919C42.1174 21.4099 42.1976 21.5611 42.2286 21.7257C42.2596 21.8902 42.2399 22.0603 42.1721 22.2134C42.1202 22.365 42.0238 22.4973 41.8954 22.5931C41.767 22.689 41.6127 22.7438 41.4526 22.7504C41.3288 22.761 41.2082 22.7634 41.0803 22.7634H22.7893V22.7651Z" fill="black"/>
<path d="M23.2075 22.769H22.7854V21.0253H38.4567C38.4698 20.9959 38.4828 20.9658 38.495 20.9356L32.9315 16.8844L31.0835 15.5391L31.9659 14.3772L32.1631 14.1165L32.2927 14.202C32.3741 14.2542 32.4475 14.3039 32.52 14.356C35.5136 16.5324 38.6091 18.7821 41.6524 20.9976C41.7772 21.0838 41.8945 21.1806 42.0028 21.2868C42.1226 21.405 42.2035 21.557 42.2346 21.7224C42.2658 21.8878 42.2458 22.0588 42.1772 22.2125C42.1255 22.3652 42.0286 22.4986 41.8994 22.5951C41.7702 22.6915 41.6147 22.7465 41.4536 22.7527C41.3436 22.7616 41.2247 22.7657 41.0813 22.7657L23.2075 22.769ZM22.7935 22.7608H41.0845C41.2279 22.7608 41.3461 22.7568 41.4561 22.7478C41.6155 22.7417 41.7694 22.6873 41.8973 22.5919C42.0252 22.4964 42.1211 22.3644 42.1723 22.2133C42.2401 22.061 42.2599 21.8917 42.229 21.728C42.1982 21.5642 42.1181 21.4137 41.9995 21.2966C41.8914 21.1907 41.7745 21.0942 41.65 21.0082C38.6067 18.7927 35.5112 16.543 32.5175 14.3666C32.4458 14.3145 32.3701 14.2648 32.291 14.2126L32.1647 14.1311L31.9716 14.3853L31.0949 15.5375L32.9364 16.8746L38.5024 20.9275C38.4893 20.9601 38.4755 20.991 38.4616 21.0228H22.7935V22.7608Z" fill="black"/>
<path d="M42.2039 38.6668V36.9353H43.9557V38.6692C44.8569 38.6432 45.7304 38.6122 46.3032 39.4311C46.6094 39.999 46.7147 40.6536 46.6023 41.2889H44.8724V40.4814H41.3532V42.208H41.7835C42.7767 42.208 43.77 42.2006 44.7632 42.208C45.0056 42.1931 45.2485 42.229 45.4762 42.3134C45.7039 42.3978 45.9115 42.5289 46.0856 42.6982C46.2598 42.8675 46.3966 43.0713 46.4874 43.2965C46.5782 43.5218 46.6209 43.7635 46.6129 44.0063C46.6283 44.6125 46.6308 45.2212 46.6039 45.8266C46.5896 46.2659 46.4084 46.6834 46.0971 46.9938C45.7859 47.3043 45.3681 47.4845 44.9286 47.4977C44.6272 47.514 44.3249 47.4977 43.9769 47.4977V49.2325H42.2186V47.5165C41.3614 47.5165 40.5123 47.5817 39.9265 46.8141C39.5796 46.235 39.4527 45.5504 39.5688 44.8855H41.2954C41.3084 45.147 41.3231 45.4143 41.3394 45.7133H44.83V43.9655H44.4039C43.4261 43.9655 42.4483 43.972 41.4657 43.9655C41.2093 43.9872 40.9514 43.9525 40.7098 43.864C40.4683 43.7754 40.249 43.6352 40.0674 43.453C39.8857 43.2708 39.7461 43.0511 39.6583 42.8093C39.5705 42.5675 39.5366 42.3094 39.559 42.0532C39.5552 41.5567 39.5552 41.0602 39.559 40.5637C39.544 40.3178 39.5801 40.0715 39.6649 39.8402C39.7497 39.6089 39.8815 39.3977 40.052 39.2198C40.2224 39.042 40.4278 38.9013 40.6553 38.8067C40.8827 38.7121 41.1273 38.6655 41.3736 38.67C41.6343 38.6578 41.8943 38.67 42.2072 38.67" fill="black"/>
<path d="M43.9819 49.2416H42.2146V47.5207H41.8781C41.5192 47.5762 41.1521 47.5408 40.8105 47.4176C40.4688 47.2945 40.1635 47.0876 39.9225 46.8159C39.5926 46.2973 39.4631 45.6762 39.5583 45.069C39.5583 45.0078 39.5583 44.9467 39.564 44.8848H41.2996C41.3126 45.1447 41.3273 45.4112 41.3436 45.7086H44.8261V43.9698H44.404H42.6628C42.1991 43.9698 41.8186 43.9698 41.465 43.9649C41.2089 43.9851 40.9514 43.9496 40.7104 43.8607C40.4693 43.7718 40.2505 43.6316 40.0689 43.4499C39.8873 43.2681 39.7473 43.0491 39.6586 42.808C39.5699 42.5669 39.5346 42.3094 39.5551 42.0533C39.551 41.5066 39.551 41.0201 39.5551 40.5638C39.5406 40.3176 39.577 40.071 39.6622 39.8395C39.7474 39.608 39.8794 39.3966 40.0501 39.2185C40.2207 39.0404 40.4262 38.8994 40.6539 38.8043C40.8815 38.7093 41.1263 38.6622 41.3729 38.6661C41.4544 38.6621 41.5489 38.6604 41.6597 38.6604H41.9115H42.2024V36.9314H43.9591V38.6653H43.9722C44.1253 38.6612 44.2842 38.6564 44.4374 38.6564C44.7893 38.6089 45.1475 38.6554 45.4756 38.7911C45.8037 38.9267 46.0901 39.1467 46.3058 39.4288C46.5932 39.9233 46.7017 40.5016 46.613 41.0666C46.613 41.1399 46.6073 41.2141 46.6048 41.2882H44.8685V40.4807H41.3574V42.1992H41.7836C42.3792 42.1992 42.9756 42.1992 43.5713 42.1992C44.0325 42.1992 44.4113 42.1992 44.7634 42.2041C45.0064 42.1898 45.2497 42.2263 45.4779 42.3113C45.706 42.3963 45.914 42.5279 46.0884 42.6977C46.2629 42.8675 46.4001 43.0718 46.4913 43.2975C46.5824 43.5233 46.6255 43.7655 46.6179 44.0089C46.6358 44.7072 46.6333 45.2857 46.6089 45.83C46.5931 46.2698 46.411 46.6873 46.0995 46.9982C45.788 47.3091 45.3702 47.4903 44.9304 47.5052C44.831 47.511 44.7242 47.5134 44.5947 47.5134C44.5002 47.5134 44.404 47.5134 44.3054 47.5134C44.2068 47.5134 44.0944 47.5134 43.9795 47.5134L43.9819 49.2416ZM42.2228 49.2335H43.9738V47.4987H43.9779C44.0911 47.4987 44.1995 47.4987 44.3038 47.4987C44.4081 47.4987 44.4985 47.4987 44.5931 47.4987C44.7226 47.4987 44.8285 47.4987 44.9288 47.4906C45.3664 47.4769 45.7825 47.2979 46.0934 46.9896C46.4042 46.6813 46.5867 46.2666 46.604 45.8292C46.6276 45.2857 46.6309 44.7072 46.613 44.0089C46.6201 43.767 46.5767 43.5263 46.4858 43.3021C46.3948 43.0779 46.2582 42.875 46.0847 42.7064C45.9111 42.5379 45.7044 42.4072 45.4776 42.3228C45.2508 42.2385 45.009 42.2022 44.7674 42.2163C44.4146 42.2163 44.0341 42.2114 43.5753 42.2114C42.9789 42.2114 42.3833 42.2114 41.7876 42.2114H41.3533V40.4775H44.8766V41.285H46.5983C46.5983 41.2116 46.6032 41.1391 46.6065 41.0674C46.694 40.5051 46.5858 39.9299 46.3001 39.4378C46.0851 39.1568 45.7997 38.9376 45.4727 38.8025C45.1457 38.6674 44.7888 38.6212 44.4382 38.6686C44.2851 38.6686 44.127 38.6735 43.9738 38.6775H43.9518V36.9395H42.2113V38.671H42.204C42.1005 38.671 42.0028 38.671 41.9091 38.671H41.6573C41.5473 38.671 41.456 38.671 41.3705 38.6767C41.1249 38.6731 40.8813 38.7201 40.6547 38.8148C40.4281 38.9095 40.2235 39.0499 40.0536 39.2272C39.8838 39.4045 39.7522 39.6149 39.6673 39.8453C39.5823 40.0757 39.5458 40.3211 39.5599 40.5663C39.5559 41.0218 39.5559 41.509 39.5599 42.0558C39.5389 42.3112 39.5737 42.5681 39.6618 42.8087C39.7499 43.0493 39.8893 43.2679 40.0703 43.4493C40.2512 43.6308 40.4695 43.7707 40.7099 43.8594C40.9503 43.9482 41.2071 43.9836 41.4625 43.9632C41.8153 43.9632 42.1959 43.9681 42.6603 43.9681H44.4016H44.8326V45.72H41.3362C41.3199 45.4226 41.3061 45.1561 41.2922 44.8962H39.573C39.573 44.9565 39.573 45.0168 39.5673 45.0763C39.4728 45.6817 39.6017 46.3009 39.9299 46.8184C40.1708 47.0899 40.4762 47.2965 40.818 47.4191C41.1597 47.5417 41.5268 47.5764 41.8854 47.5199H42.226L42.2228 49.2335Z" fill="black"/>
</g>
</g>
<defs>
<clipPath id="clip0_2350_5354">
<rect width="44" height="44" fill="white" transform="translate(10 10)"/>
</clipPath>
</defs>
</svg>
