<svg width="65" height="64" viewBox="0 0 65 64" fill="none" xmlns="http://www.w3.org/2000/svg">
<rect x="0.666504" width="64" height="64" rx="8" fill="#EAF3FF"/>
<g clip-path="url(#clip0_2325_1972)">
<path d="M32.2233 15.9801C28.8513 14.0445 25.4792 12.0986 22.1173 10.1426C21.9543 10.0509 21.8015 10 21.6589 10C21.5061 10 21.3634 10.0408 21.2004 10.1426C17.6042 12.2311 14.3238 14.126 11.1657 15.9292C10.7989 16.1431 10.6665 16.3876 10.6665 16.8359C10.6767 18.2214 10.6767 19.6171 10.6767 21.0026V24.0996C10.6767 25.5258 10.6767 26.9521 10.6665 28.3784C10.6665 28.7553 10.7888 28.9794 11.0944 29.1526C14.4766 31.0984 17.8589 33.0443 21.231 35.0105C21.5366 35.1836 21.7709 35.1836 22.0766 35.0105C25.4486 33.0544 28.8309 31.0984 32.2132 29.1526C32.5188 28.9794 32.641 28.7757 32.641 28.4293C32.6308 24.5275 32.6308 20.6154 32.641 16.7034C32.641 16.3672 32.5188 16.1533 32.2233 15.9801ZM19.876 12.0884C20.3752 11.793 20.854 11.5179 21.3532 11.2633C21.557 11.1614 21.8932 11.2123 22.0969 11.3244C24.1446 12.496 26.1923 13.6777 28.2298 14.8595L31.1027 16.52L30.2979 16.9785C29.7172 17.3147 29.1569 17.6407 28.5966 17.9565C28.5456 17.987 28.4845 17.9972 28.4336 17.9972C28.291 17.9972 28.1483 17.9259 28.1178 17.9055C25.2143 16.2348 22.3109 14.5538 19.4176 12.8729C19.3463 12.8423 19.3259 12.7812 19.2954 12.7506L19.1527 12.5061L19.876 12.0884ZM27.8936 20.5237C27.8936 21.3388 27.8936 22.113 27.8835 22.8873C27.8835 23.0503 27.7612 23.2031 27.6491 23.2744C27.313 23.4781 26.9666 23.6717 26.5896 23.8856L25.8867 24.2931V23.3151C25.8867 22.5001 25.8867 21.7361 25.8969 20.9618C25.8969 20.809 26.0191 20.646 26.121 20.5849C26.4776 20.3709 26.8239 20.1672 27.2111 19.9532L27.8835 19.5559V20.5237H27.8936ZM16.6364 13.963C17.0032 13.749 17.3495 13.5453 17.6959 13.3619C17.8487 13.2702 18.083 13.3008 18.2155 13.3823C20.7624 14.8391 23.2991 16.3163 25.8358 17.7833L27.0379 18.4862L27.1907 18.7307L27.0277 18.8632L26.6813 19.0771C26.3349 19.2809 25.9886 19.4846 25.632 19.6782C25.5607 19.7189 25.469 19.7393 25.3773 19.7393C25.2754 19.7393 25.1838 19.7189 25.1124 19.6782C22.5146 18.1806 19.9168 16.683 17.268 15.1549L15.9335 14.3806L16.6364 13.963ZM21.1393 30.6909V33.1665C21.1393 33.1665 21.1393 33.248 21.1291 33.3091L21.0884 33.737L14.1303 29.7231C13.4477 29.3258 12.7651 28.9387 12.0826 28.5312C11.9399 28.4497 11.7056 28.2154 11.7056 27.9708C11.6954 25.1387 11.6954 22.2964 11.6954 19.4133V17.4369L12.1437 17.6712C12.2456 17.7222 12.3373 17.7731 12.4188 17.824L20.7012 22.602C20.905 22.7243 21.1597 22.8669 21.1495 23.2744C21.1495 25.75 21.1495 28.2255 21.1495 30.6909H21.1393ZM21.6691 21.8583C21.2819 21.8583 20.9254 21.6138 20.579 21.3795C20.4465 21.2878 20.3243 21.2063 20.202 21.135C18.1543 19.9532 16.1067 18.7715 14.0691 17.5897L12.8874 16.9174C12.8161 16.8766 12.755 16.8257 12.6633 16.7747L12.2354 16.4997L13.0708 16.0208C13.6107 15.7152 14.1201 15.4096 14.6396 15.1243C14.8128 15.0327 15.0573 15.0632 15.2 15.1447C17.9302 16.7136 20.6605 18.2825 23.4519 19.9023L24.328 20.4117L23.7473 20.7581C23.5334 20.8905 23.3398 21.0127 23.1361 21.1248C23.0036 21.1961 22.8814 21.2878 22.7489 21.3693C22.4127 21.6138 22.0562 21.8583 21.6691 21.8583ZM31.2555 28.5312C29.0652 29.7944 26.8851 31.0577 24.6948 32.3107L22.698 33.4721C22.698 33.4721 22.6165 33.5027 22.5656 33.5333L22.1988 33.6861L22.1784 33.248C22.1682 33.1461 22.1682 33.0646 22.1682 32.9729V30.3955C22.1682 28.0625 22.1682 25.7296 22.1682 23.3966C22.1682 22.9993 22.3007 22.765 22.6369 22.5816C23.0749 22.3575 23.5028 22.1028 23.9612 21.8379L24.8679 21.3082V23.1929C24.8679 23.8245 24.8679 24.4663 24.8781 25.1081C24.8883 25.3526 24.98 25.5462 25.1328 25.6277C25.2856 25.7194 25.4792 25.699 25.6829 25.587C26.3248 25.2304 26.9564 24.8636 27.588 24.4969C27.9344 24.2931 28.2808 24.0996 28.6271 23.8958C28.8513 23.7736 28.9226 23.5902 28.9226 23.2336V21.8278C28.9226 21.0433 28.9226 20.2589 28.9124 19.4846C28.9124 19.1077 29.0448 18.8734 29.3708 18.7002C29.8089 18.4659 30.247 18.2112 30.7054 17.9361L31.6223 17.4064V20.2792C31.6223 22.7956 31.6223 25.3017 31.6325 27.8078C31.6325 28.032 31.6325 28.3274 31.2657 28.5312H31.2555Z" fill="black"/>
<path d="M54.6564 39.7986C54.6564 38.4029 54.6462 37.0174 54.6666 35.6319C54.6768 35.1735 54.524 34.929 54.1368 34.6946C50.9176 32.8609 47.5659 30.9252 44.1836 28.9489C44.0002 28.847 43.8372 28.796 43.6742 28.796C43.5214 28.796 43.3686 28.847 43.1852 28.9489C39.7622 30.9456 36.4003 32.8813 33.2014 34.715C32.8245 34.929 32.6819 35.1735 32.6921 35.6217C32.7023 39.656 32.7023 43.405 32.6819 47.0725C32.6819 47.531 32.8347 47.7755 33.2218 48.0098C36.6245 49.9454 39.9558 51.881 43.1343 53.725C43.5316 53.9593 43.8271 53.9593 44.2142 53.7352C47.7798 51.6569 51.264 49.65 54.198 47.969C54.5342 47.7755 54.6666 47.5411 54.6666 47.1336C54.6564 45.7176 54.6564 44.3117 54.6564 42.8956V39.7986ZM41.871 30.8947C42.3702 30.5992 42.8592 30.314 43.3584 30.0491C43.5214 29.9676 43.8067 29.937 43.9901 30.0389C46.5573 31.5161 49.1144 32.9933 51.6613 34.4705L52.7412 35.092L52.9755 35.3976L52.3438 35.7541C51.7733 36.0903 51.2028 36.4163 50.6222 36.7423C50.5712 36.7729 50.5101 36.7831 50.4591 36.7831C50.3063 36.7831 50.1637 36.7016 50.1433 36.6914C47.2399 35.0206 44.3364 33.3397 41.433 31.6587C41.3719 31.6282 41.3413 31.5671 41.3209 31.5263L41.1681 31.3022L41.871 30.8947ZM38.6314 32.7692C39.0083 32.5451 39.3649 32.3413 39.7215 32.1477C39.8845 32.0561 40.1086 32.0866 40.241 32.1681C43.1547 33.8389 46.0683 35.53 48.9718 37.211C49.0329 37.2415 49.0635 37.2823 49.0838 37.323L49.2265 37.5064L49.0533 37.6592L48.7171 37.8528C48.3707 38.0565 48.0141 38.2705 47.6576 38.464C47.5863 38.4946 47.4946 38.515 47.4131 38.515C47.2908 38.515 47.1788 38.4844 47.0973 38.4335C44.5809 36.997 42.0748 35.5402 39.5381 34.0732L37.9488 33.1665L38.6314 32.7692ZM49.9192 38.352V40.0329C49.9192 40.5015 49.9192 40.9905 49.909 41.4694C49.8988 41.7139 49.746 41.9889 49.5525 42.1214C49.2672 42.3149 48.9616 42.4779 48.6458 42.6613C48.5031 42.7326 48.3707 42.8141 48.2179 42.8956L47.9123 43.0688V42.0195C47.9123 41.2656 47.9123 40.5423 47.9224 39.819C47.9224 39.6458 48.0447 39.4319 48.1975 39.3402C48.5235 39.1466 48.8495 38.953 49.2163 38.7493L49.9192 38.352ZM43.1649 52.0339C43.1649 52.095 43.1445 52.1357 43.1343 52.1663L43.0222 52.4719L36.4207 48.6618C35.6465 48.2237 34.8722 47.7755 34.1081 47.3272C33.9655 47.2355 33.7312 47.0012 33.7312 46.7669C33.7108 43.894 33.721 41.0211 33.721 38.1177V36.2941L34.1183 36.4571C34.21 36.4876 34.2915 36.5182 34.3628 36.5691C37.1746 38.189 39.9864 39.8088 42.7981 41.4388C42.9713 41.5407 43.1547 41.7954 43.1547 42.0093C43.1649 45.0044 43.1649 47.9996 43.1649 50.9947V52.0339ZM43.7048 40.6747C43.5724 40.6747 43.4399 40.6136 43.3584 40.5729C40.8217 39.116 38.2952 37.6592 35.7076 36.1616L34.2304 35.3059L35.076 34.8169C35.6363 34.4909 36.166 34.1853 36.6958 33.8898C36.8486 33.8083 37.0829 33.8491 37.2153 33.9306C39.9049 35.4689 42.574 37.0276 45.2533 38.5761L46.0072 39.004L46.1702 39.3198L45.4978 39.7069C44.9681 40.0227 44.4281 40.3284 43.8882 40.6238C43.8271 40.6544 43.7659 40.6747 43.7048 40.6747ZM53.6377 37.7917C53.6377 40.7359 53.6377 43.6801 53.6275 46.6141C53.6275 46.8484 53.495 47.1642 53.2913 47.2865C50.6935 48.8044 48.0956 50.302 45.4978 51.8097L44.7032 52.2682C44.7032 52.2682 44.6319 52.2987 44.5707 52.3293L44.1836 52.4923V49.5175C44.1938 47.0827 44.1938 44.6479 44.1734 42.2131C44.1734 41.7954 44.3262 41.5509 44.693 41.3471C45.1311 41.1128 45.5488 40.8683 45.997 40.6034L46.8833 40.094V42.0501C46.8833 42.6715 46.8833 43.2929 46.8935 43.9144C46.9037 44.1487 46.9954 44.3321 47.1482 44.4238C47.2908 44.5053 47.4844 44.4951 47.6779 44.383C48.3911 43.9857 49.094 43.5782 49.797 43.1707L50.6527 42.6715C50.8666 42.5492 50.938 42.3761 50.938 42.0093V38.2908C50.9278 37.9954 50.9889 37.6898 51.3964 37.4758C51.8345 37.2517 52.2623 36.997 52.7208 36.7321C52.9042 36.6201 53.0977 36.508 53.2913 36.396L53.5765 36.233L53.6173 36.7016C53.6275 36.7933 53.6377 36.8748 53.6377 36.9563V37.7917Z" fill="black"/>
<path d="M29.9514 45.5342C28.3112 44.0366 26.8442 42.6817 25.3467 41.3573C25.2142 41.2554 24.9188 41.1841 24.7863 41.235C24.6743 41.2758 24.5317 41.4999 24.4603 41.7342C24.389 41.9482 24.3687 42.1927 24.3483 42.4474C24.3381 42.5696 24.3279 42.6817 24.3075 42.8039L24.2872 43.0382L24.063 42.9873C22.2802 42.5798 20.7521 41.9176 19.3768 40.9702C17.5226 39.6967 16.5242 38.2603 16.2288 36.4571C16.1881 36.2024 16.0352 36.0496 15.7806 36.019H15.6991C15.5564 36.019 15.3832 36.07 15.2406 36.3654C14.5988 37.6898 14.4358 39.0957 14.7414 40.5423C15.3221 43.242 16.8808 45.2999 19.5092 46.8484C20.6604 47.5106 21.9746 47.9792 23.5435 48.2645L23.7268 48.295L23.6759 48.835C23.6555 49.0795 23.6352 49.3036 23.6046 49.5277C23.5435 50.0065 23.737 50.0778 23.8083 50.0982C24.0121 50.1695 24.3075 50.1593 24.4502 50.0677C26.2737 48.8859 28.1075 47.6532 29.8801 46.4511C30.0635 46.3186 30.1756 46.1658 30.1857 46.013C30.1959 45.85 30.1144 45.687 29.9514 45.5342ZM24.9901 48.4988L24.8984 48.2543L24.8067 47.9486C24.766 47.7551 24.715 47.5819 24.6233 47.4902C24.5113 47.3781 24.2464 47.3374 24.0223 47.3068L23.9102 47.2865C20.3344 46.6752 17.8792 45.0146 16.3918 42.2029C15.8621 41.2147 15.6176 40.1857 15.6379 39.0651V38.4742L16.1066 39.0753C16.1677 39.1466 16.2084 39.2077 16.2492 39.2688C17.3291 40.8785 18.847 42.0908 20.8845 42.9669C21.781 43.3439 22.8201 43.6801 24.1547 44.0264C24.6335 44.1487 24.878 44.1589 25.0105 44.0774C25.1633 43.9755 25.255 43.6597 25.3467 43.1503L25.418 42.7836L28.8512 45.9111L24.9901 48.4988Z" fill="black"/>
<path d="M49.8784 21.3184C48.4929 18.5474 46.1803 16.7645 42.8083 15.8782C42.5841 15.8171 42.3498 15.7662 42.1155 15.7152L41.6061 15.593V15.4198C41.6367 15.2975 41.6469 15.1855 41.6673 15.0632C41.6978 14.8289 41.7284 14.6048 41.708 14.401C41.6876 14.1361 41.5858 13.8713 41.4737 13.8101C41.3514 13.7388 41.0254 13.749 40.8828 13.8509C39.1 15.0021 37.307 16.2144 35.5751 17.386L35.463 17.4675C35.2695 17.5999 35.1574 17.7527 35.1472 17.9055C35.1268 18.1093 35.2695 18.2723 35.3815 18.3844C36.93 19.8004 38.4378 21.1859 39.9863 22.5613C40.1086 22.6631 40.4142 22.7344 40.5466 22.6835C40.6587 22.6428 40.8013 22.4186 40.8726 22.1843C40.9439 21.9806 40.9541 21.7564 40.9847 21.4712C40.9949 21.3286 41.0051 21.1656 41.0254 20.9924L41.056 20.7275L41.3107 20.8294C41.6673 20.972 42.0238 21.1044 42.3804 21.2369C43.1546 21.5221 43.8779 21.787 44.5809 22.1436C47.301 23.5291 48.6967 25.1795 49.1245 27.5022C49.1551 27.6245 49.4098 27.8486 49.5524 27.8588C49.6848 27.869 49.9701 27.6448 50.1127 27.5226C50.1637 27.4818 50.2044 27.3596 50.235 27.2577C50.2452 27.2068 50.2655 27.166 50.2859 27.1253C50.999 25.2304 50.8666 23.2744 49.8784 21.3184ZM49.6848 25.2711L49.3385 24.884C49.1653 24.6905 48.9921 24.4765 48.8189 24.2728C48.4522 23.8449 48.0752 23.4068 47.6677 23.0299C45.834 21.3693 43.5519 20.2894 40.8828 19.831C40.3327 19.7291 40.2002 19.7495 39.9659 20.7682L39.8844 21.1044L36.4818 18.0074L40.4957 15.3179L40.5161 15.6745C40.5466 16.4997 40.5976 16.5098 41.3922 16.6423C45.1412 17.2434 47.6575 19.016 49.1042 22.0519C49.5117 22.928 49.7154 23.8347 49.695 24.7516V25.2711H49.6848Z" fill="black"/>
</g>
<defs>
<clipPath id="clip0_2325_1972">
<rect width="44" height="44" fill="white" transform="translate(10.6665 10)"/>
</clipPath>
</defs>
</svg>
