<svg width="65" height="64" viewBox="0 0 65 64" fill="none" xmlns="http://www.w3.org/2000/svg">
<rect x="0.666504" width="64" height="64" rx="8" fill="#EAF3FF"/>
<g clip-path="url(#clip0_2383_29975)">
<path d="M49.3601 44.099C49.3601 45.2607 49.3601 46.3701 49.3601 47.4795C49.3601 49.0495 48.4182 50.0124 46.8482 50.0228C45.0062 50.0228 43.1641 50.0228 41.3116 50.0228C41.1546 50.0228 40.9872 50.0228 40.7883 50.0228C40.7883 51.059 40.7883 52.0533 40.7883 53.0371C40.7883 53.8639 40.6418 54.0105 39.8254 54.0105C36.3925 54.0105 32.9596 54.0105 29.5266 54.0105C28.7417 54.0105 28.5951 53.8535 28.5951 53.058C28.5951 52.0742 28.5951 51.0799 28.5951 50.0228C28.3754 50.0228 28.187 50.0228 27.9986 50.0228C23.0794 50.0228 18.1603 50.0228 13.2412 50.0228C11.8911 50.0228 10.9596 49.3216 10.7188 48.1284C10.677 47.9296 10.677 47.7098 10.677 47.5005C10.6665 37.8088 10.6665 28.117 10.6665 18.4358C10.6665 16.9182 11.6399 15.9343 13.1679 15.9239C13.8692 15.9239 14.5704 15.9239 15.3449 15.9239C15.3449 15.7564 15.3449 15.6099 15.3449 15.4634C15.3449 14.4272 15.3449 13.3911 15.3449 12.3654C15.3554 11.1094 16.245 10.1465 17.5009 10.0209C17.6789 10 17.8568 10 18.0452 10C29.1394 10 40.2336 10 51.3278 10C51.6732 10 52.029 10.0209 52.3535 10.1047C53.3792 10.3873 54.0385 11.2873 54.0385 12.3863C54.0385 14.7412 54.0385 17.0961 54.0385 19.451C54.0385 26.7774 54.0385 34.1142 54.0385 41.4405C54.0385 43.157 53.1175 44.078 51.4115 44.0885C50.7417 44.0885 50.0718 44.0885 49.3601 44.0885V44.099ZM16.5171 18.666C16.5171 18.844 16.5171 18.9591 16.5171 19.0742C16.5171 26.568 16.5171 34.0618 16.5171 41.5557C16.5171 42.4767 16.9567 42.9163 17.9091 42.9163C21.4886 42.9163 25.0785 42.9163 28.6579 42.9163C28.7731 42.9163 28.8987 42.8953 29.1289 42.8744C28.951 42.7907 28.8882 42.7488 28.8149 42.7279C27.716 42.3302 27.4648 41.6708 28.03 40.6451C28.5114 39.7764 28.9929 38.9182 29.4743 38.0495C30.9186 35.4434 32.363 32.8373 33.8178 30.2417C34.2678 29.4358 35.0737 29.4358 35.5343 30.2312C35.7226 30.5557 35.9006 30.8801 36.0785 31.215C37.8473 34.3968 39.6161 37.5785 41.3744 40.7602C41.8663 41.6499 41.5837 42.3825 40.6313 42.7069C40.5266 42.7383 40.4324 42.7907 40.3278 42.843C40.3278 42.8744 40.3382 42.9058 40.3487 42.9372C40.4952 42.9372 40.6313 42.9372 40.7778 42.9372C44.3154 42.9372 47.853 42.9372 51.3906 42.9372C52.4372 42.9372 52.8454 42.5186 52.8454 41.4615C52.8454 34.0409 52.8454 26.6204 52.8454 19.1998V18.687C52.6047 18.687 52.4058 18.687 52.2174 18.687C45.1004 18.687 37.9729 18.687 30.8559 18.687C30.343 18.687 29.9348 18.53 29.579 18.1532C28.8673 17.3787 28.1346 16.6251 27.3915 15.8925C27.2555 15.7564 27.0147 15.6518 26.8159 15.6518C25.3297 15.6308 23.8435 15.6413 22.3677 15.6413C22.1061 15.6413 21.834 15.6413 21.5409 15.6413C21.5409 16.2483 21.5409 16.803 21.5409 17.3473C21.5409 18.2892 21.1537 18.6765 20.2012 18.687C18.9872 18.687 17.7731 18.687 16.4962 18.687L16.5171 18.666ZM15.3449 17.0961C14.6332 17.0961 13.9843 17.0961 13.3249 17.0961C12.2469 17.0961 11.8387 17.5147 11.8387 18.5928C11.8387 28.1798 11.8387 37.7774 11.8387 47.3644C11.8387 48.4215 12.2469 48.8402 13.2935 48.8402C18.2231 48.8402 23.1527 48.8402 28.0928 48.8402H28.5951C28.5951 48.1389 28.5951 47.5109 28.5951 46.883C28.6161 46.0457 29.0871 45.5852 29.9139 45.5642C30.1755 45.5642 30.4372 45.5642 30.7407 45.5642C30.7093 45.2607 30.6989 45.0409 30.657 44.8211C30.5209 44.1094 30.5105 44.099 29.7988 44.099C25.853 44.099 21.9177 44.099 17.9719 44.099C16.2659 44.099 15.3449 43.157 15.3449 41.451C15.3449 33.5385 15.3449 25.6261 15.3449 17.7136C15.3449 17.5357 15.3449 17.3578 15.3449 17.0961ZM52.8663 17.5043C52.8663 15.725 52.8663 14.0086 52.8663 12.3026C52.8663 11.863 52.6465 11.4967 52.2488 11.3397C51.9662 11.2245 51.6418 11.1931 51.3278 11.1931C42.0024 11.1931 32.677 11.1931 23.3516 11.1931C21.5514 11.1931 19.7512 11.1931 17.951 11.1931C16.9358 11.1931 16.5171 11.6118 16.5171 12.6061C16.5171 14.0923 16.5171 15.5785 16.5171 17.0542C16.5171 17.2008 16.5276 17.3368 16.5381 17.4833H20.3896C20.3896 16.8972 20.3896 16.3216 20.3896 15.7564C20.3896 14.8563 20.7873 14.4586 21.6665 14.4586C23.4458 14.4586 25.2355 14.4586 27.0147 14.4586C27.4648 14.4586 27.8206 14.6051 28.1242 14.9296C28.8463 15.6936 29.5894 16.4367 30.3011 17.2008C30.5105 17.431 30.7303 17.5147 31.0442 17.5147C38.1508 17.5147 45.2574 17.5147 52.3639 17.5147C52.5105 17.5147 52.657 17.5147 52.8559 17.5147L52.8663 17.5043ZM40.4638 41.5138C38.7683 38.4577 37.0833 35.412 35.3982 32.3768C35.3563 32.3872 35.3249 32.3977 35.2831 32.4082C35.2831 33.2664 35.2831 34.1351 35.2935 34.9933C35.2935 35.098 35.4505 35.2236 35.5552 35.2969C36.3192 35.7574 36.6751 36.5633 36.4553 37.3587C36.246 38.1541 35.5133 38.7193 34.7074 38.7298C33.8387 38.7298 33.148 38.2065 32.9282 37.3692C32.7084 36.5423 33.0642 35.7678 33.8178 35.2969C33.9539 35.2131 34.0794 34.9933 34.0899 34.8259C34.1213 34.2712 34.1004 33.7165 34.1004 33.1618C34.1004 32.9106 34.1004 32.6489 34.1004 32.3977C34.0585 32.3977 34.0166 32.3977 33.9748 32.3977C32.2897 35.4225 30.6151 38.4472 28.9301 41.4929C30.8768 42.1941 31.8606 43.5547 31.9234 45.5642H37.4496C37.5228 43.5233 38.5067 42.1732 40.4534 41.5243L40.4638 41.5138ZM39.6056 46.7678H29.8197V52.7859H39.6056V46.7678ZM38.6009 45.5642C38.8834 45.5642 39.0509 45.5642 39.2079 45.5642C40.422 45.5642 40.8092 45.9515 40.8092 47.1865C40.8092 47.7203 40.8092 48.254 40.8092 48.8192C42.9862 48.8192 45.1108 48.8297 47.2355 48.8088C47.7274 48.8088 48.1774 48.3378 48.1879 47.8249C48.2193 46.6004 48.1879 45.3758 48.1879 44.099C47.4657 44.099 46.7645 44.099 46.0633 44.099C43.834 44.099 41.5942 44.099 39.3649 44.099C39.2079 44.099 38.9567 44.1722 38.9253 44.2664C38.7892 44.6641 38.716 45.0828 38.6009 45.5642ZM35.3459 36.8668C35.3459 36.5109 35.0319 36.2179 34.676 36.2284C34.3202 36.2493 34.048 36.5423 34.0585 36.9191C34.0585 37.3064 34.3306 37.5576 34.7179 37.5471C35.0737 37.5366 35.3563 37.2331 35.3459 36.8668Z" fill="black"/>
<path d="M44.7444 33.9153C44.0432 30.6917 41.0394 27.3635 37.2087 26.5157C37.1878 26.6413 37.1564 26.7669 37.1355 26.8925C37.0308 27.4577 36.6331 27.8449 36.0575 27.8554C35.1574 27.8763 34.2573 27.8763 33.3572 27.8554C32.6664 27.8344 32.321 27.4158 32.2059 26.5576C29.5893 26.903 25.7168 29.6137 24.6179 33.9049C24.8063 33.9258 24.9947 33.9363 25.183 33.9572C25.7901 34.02 26.2087 34.3863 26.2297 34.9829C26.2611 35.9248 26.2611 36.8668 26.2297 37.8192C26.2087 38.4367 25.7587 38.8344 25.1412 38.8449C24.2411 38.8658 23.341 38.8658 22.4409 38.8449C21.792 38.8344 21.3629 38.3739 21.3419 37.7146C21.3315 36.8563 21.3315 36.0086 21.3419 35.1503C21.3419 34.4177 21.7711 33.9886 22.5037 33.9467C23.3515 33.8944 23.341 33.8944 23.6131 33.0885C24.5865 30.1579 26.439 27.9496 29.1288 26.432C29.223 26.3796 29.3277 26.3168 29.4009 26.1808C29.2753 26.1808 29.1497 26.1808 29.0242 26.1808C27.4542 26.1808 25.8738 26.1808 24.3039 26.1808C24.0527 26.1808 23.9062 26.2331 23.791 26.4843C23.341 27.4367 22.2316 27.9182 21.1745 27.667C20.1488 27.4158 19.4162 26.4634 19.4266 25.3853C19.4371 24.3073 20.1697 23.4072 21.2059 23.1874C22.3258 22.9572 23.4143 23.4386 23.8015 24.4539C23.9899 24.9562 24.2516 25.0295 24.7121 25.019C27.0251 24.9981 29.3277 25.019 31.6407 25.019H32.2059C32.2059 24.726 32.2059 24.4643 32.2059 24.2027C32.2268 23.4177 32.6455 22.9781 33.4409 22.9677C34.2468 22.9467 35.0632 22.9572 35.8691 22.9677C36.6854 22.9781 37.0936 23.4177 37.1145 24.2341C37.1145 24.4748 37.1145 24.705 37.1145 24.9772C37.282 24.9876 37.4076 25.0086 37.5332 25.0086C39.9928 25.0086 42.4523 25.0086 44.9119 25.0086C45.2154 25.0086 45.341 24.9248 45.4457 24.6318C45.8015 23.5956 46.8272 22.9886 47.8843 23.1456C49.067 23.313 49.8729 24.1503 49.9461 25.2807C50.0194 26.3796 49.36 27.3111 48.3029 27.6251C47.2144 27.9391 46.1469 27.4891 45.5817 26.4948C45.5085 26.3587 45.3096 26.2017 45.1735 26.1912C43.478 26.1703 41.7825 26.1808 40.0869 26.1912C40.0451 26.1912 40.0137 26.2122 39.9195 26.2436C40.0451 26.3273 40.1183 26.3796 40.2021 26.432C43.0803 28.0438 44.9747 30.4301 45.8852 33.5909C45.969 33.8839 46.0841 33.9886 46.3771 33.9572C46.5655 33.9363 46.7644 33.9572 46.9633 33.9572C47.654 34.0095 48.0727 34.4386 48.0831 35.1189C48.0936 35.9772 48.0936 36.8249 48.0831 37.6832C48.0831 38.3844 47.6331 38.8449 46.9319 38.8554C46.0632 38.8658 45.1945 38.8658 44.3258 38.8554C43.6664 38.8449 43.2059 38.4367 43.1849 37.7774C43.1536 36.8668 43.1536 35.9458 43.1849 35.0352C43.2163 34.3863 43.635 34.02 44.2944 33.9572C44.4409 33.9467 44.5874 33.9363 44.7339 33.9258L44.7444 33.9153ZM35.9737 26.6832V24.1608H33.4304V26.6832H35.9737ZM44.3467 37.6727H46.89V35.1503H44.3467V37.6727ZM22.5456 35.1399V37.6727H25.0784V35.1399H22.5456ZM22.9014 25.3958C22.9014 24.7678 22.3781 24.255 21.7501 24.2655C21.1222 24.2655 20.6198 24.7888 20.6302 25.4167C20.6302 26.0552 21.1431 26.5471 21.7815 26.5366C22.4514 26.5366 22.9119 26.0657 22.9014 25.3958ZM48.7634 25.4167C48.7634 24.7678 48.282 24.2655 47.6436 24.2655C47.0156 24.2655 46.4923 24.7783 46.4923 25.4063C46.4923 26.0238 47.0156 26.5471 47.6331 26.5471C48.3134 26.5471 48.753 26.1075 48.753 25.4272L48.7634 25.4167Z" fill="black"/>
<path d="M44.2212 14.333C44.2212 13.412 44.9538 12.6689 45.8749 12.6689C46.7854 12.6689 47.539 13.4329 47.518 14.3435C47.5076 15.2436 46.775 15.9762 45.8853 15.9762C44.9643 15.9762 44.2317 15.254 44.2212 14.3225V14.333ZM46.4086 14.4691C46.4086 14.3958 46.4086 14.333 46.4086 14.2598C46.2307 14.1237 46.0528 13.8934 45.8749 13.8934C45.7179 13.8934 45.4667 14.1237 45.4143 14.3016C45.3306 14.5842 45.5399 14.8249 45.833 14.7935C46.0318 14.7726 46.2098 14.5842 46.4086 14.4691Z" fill="black"/>
<path d="M43.5096 14.3226C43.5096 15.2436 42.777 15.9867 41.8664 15.9867C40.9559 15.9867 40.2023 15.2226 40.2128 14.3226C40.2128 13.4329 40.9559 12.6898 41.8455 12.6794C42.756 12.6689 43.5096 13.412 43.5201 14.3226H43.5096ZM41.9501 13.7888C41.8873 13.7888 41.8141 13.7888 41.7513 13.7888C41.6257 13.9772 41.4059 14.1656 41.4164 14.3539C41.4164 14.5109 41.6676 14.7517 41.8455 14.7935C42.1176 14.8563 42.3583 14.6365 42.3165 14.3435C42.2851 14.1446 42.0862 13.9667 41.9501 13.7888Z" fill="black"/>
<path d="M49.8417 15.9867C48.9311 15.9762 48.188 15.2017 48.2089 14.3016C48.2299 13.412 48.9834 12.6794 49.8626 12.6794C50.7732 12.6794 51.5267 13.4434 51.5163 14.3435C51.5163 15.254 50.7522 15.9971 49.8417 15.9867ZM50.4173 14.4272C50.4173 14.3644 50.4173 14.2912 50.4173 14.2284C50.2289 14.1028 50.0301 13.883 49.8521 13.8934C49.6847 13.8934 49.4439 14.1551 49.4125 14.333C49.3602 14.6051 49.58 14.8459 49.8626 14.804C50.0615 14.7726 50.2394 14.5633 50.4173 14.4377V14.4272Z" fill="black"/>
</g>
<defs>
<clipPath id="clip0_2383_29975">
<rect width="44" height="44" fill="white" transform="translate(10.6665 10)"/>
</clipPath>
</defs>
</svg>
