<svg width="64" height="64" viewBox="0 0 64 64" fill="none" xmlns="http://www.w3.org/2000/svg">
<rect width="64" height="64" rx="8" fill="#EAF3FF"/>
<g clip-path="url(#clip0_2350_5540)">
<mask id="mask0_2350_5540" style="mask-type:luminance" maskUnits="userSpaceOnUse" x="10" y="10" width="44" height="44">
<path d="M54 10H10V54H54V10Z" fill="white"/>
</mask>
<g mask="url(#mask0_2350_5540)">
<path d="M53.7556 32.9135C53.6456 33.7324 53.5756 34.5594 53.4207 35.3693C52.8801 38.555 51.6097 41.5723 49.7091 44.1854C47.8084 46.7985 45.329 48.9364 42.4647 50.432C39.1547 52.2806 35.3819 53.1355 31.5984 52.8944C23.6132 52.4014 17.6341 48.6141 13.7319 41.6426C11.867 38.3392 11.0083 34.5628 11.2614 30.7778C11.7552 22.7845 15.5563 16.8054 22.5482 12.8927C25.125 11.4712 27.9874 10.6451 30.9253 10.4751C31.0335 10.4602 31.1406 10.4376 31.2455 10.4075H33.7381C33.8427 10.4382 33.9494 10.4611 34.0575 10.4759C36.6164 10.6324 39.1206 11.2847 41.4307 12.3964C44.5528 13.8208 47.2784 15.9885 49.3688 18.71C51.4593 21.4314 52.8511 24.6237 53.4224 28.0075C53.578 28.8035 53.6473 29.6159 53.7564 30.4218L53.7556 32.9135ZM52.3403 31.6741C52.3416 27.7495 51.1794 23.9126 49.0006 20.6483C46.8218 17.384 43.7242 14.8389 40.0993 13.3346C36.4744 11.8304 32.4849 11.4345 28.635 12.197C24.7852 12.9595 21.2478 14.8462 18.4699 17.6186C15.6921 20.3909 13.7984 23.9246 13.0284 27.773C12.2583 31.6213 12.6463 35.6115 14.1435 39.2394C15.6406 42.8673 18.1796 45.9699 21.4396 48.1551C24.6996 50.3403 28.5342 51.5101 32.4588 51.5165C37.7263 51.5208 42.7798 49.4329 46.5081 45.712C50.2364 41.991 52.3342 36.9416 52.3403 31.6741Z" fill="#1A1818"/>
<path d="M32.8588 53.1372C32.4384 53.1372 32.0098 53.1242 31.5861 53.0973C23.5601 52.6019 17.4963 48.7853 13.5542 41.7428C11.6691 38.4068 10.8018 34.592 11.0593 30.7689C11.2237 27.0273 12.3375 23.3891 14.2957 20.1967C16.3414 17.059 19.1434 14.4862 22.4438 12.715C25.0485 11.2798 27.9409 10.4446 30.9098 10.2706C30.9702 10.264 31.0299 10.252 31.0882 10.2347C31.1257 10.225 31.1632 10.2152 31.2007 10.207L31.2218 10.2021H33.76L33.782 10.207C33.8187 10.2152 33.8545 10.225 33.8904 10.2339C33.9492 10.2516 34.0094 10.2639 34.0704 10.2706C36.6554 10.4307 39.1849 11.0895 41.5195 12.2107C44.6477 13.6842 47.3899 15.8658 49.5291 18.5825C51.6079 21.3478 53.0097 24.5618 53.6219 27.9667C53.7303 28.52 53.7979 29.0871 53.8664 29.6347C53.8957 29.8832 53.9267 30.1407 53.9609 30.3925V30.4193V32.9379C53.9267 33.1954 53.8949 33.4594 53.8647 33.7145C53.7987 34.2702 53.7311 34.8446 53.6203 35.4052C53.0443 38.6128 51.7642 41.6528 49.8721 44.3062C47.9314 46.9213 45.4352 49.0737 42.5633 50.6088C39.5967 52.2647 36.2562 53.135 32.8588 53.1372ZM31.2667 10.6112L31.1917 10.6299C31.1098 10.6541 31.0257 10.6705 30.9407 10.6788C28.0322 10.8481 25.1982 11.6652 22.6459 13.0703C15.7118 16.9521 11.9507 22.9149 11.4667 30.7933C11.2146 34.5384 12.0643 38.2754 13.9111 41.5432C17.7774 48.4536 23.7329 52.2075 31.6105 52.6915C32.0261 52.7176 32.4457 52.7306 32.858 52.7306C36.187 52.7281 39.4602 51.8749 42.3669 50.2519C45.2012 48.7665 47.6549 46.6476 49.5372 44.0598C51.4196 41.472 52.6799 38.4851 53.2202 35.331C53.3253 34.7843 53.3921 34.2172 53.4573 33.6688C53.4875 33.417 53.5176 33.1563 53.5518 32.8996V30.4356C53.5184 30.1855 53.4875 29.9313 53.4581 29.6852C53.3938 29.1442 53.327 28.5852 53.2218 28.0466C52.65 24.6961 51.2689 21.5358 49.1985 18.8403C47.128 16.1447 44.4308 13.9954 41.341 12.579C39.0536 11.481 36.5752 10.836 34.0427 10.6796C33.9558 10.6714 33.8698 10.6548 33.7861 10.6299L33.7111 10.6112H31.2667ZM32.5044 51.7186H32.4587C27.1414 51.7172 22.0425 49.6036 18.2836 45.8427C14.5246 42.0818 12.4137 36.9817 12.4151 31.6644C12.4165 26.3471 14.5302 21.2481 18.291 17.4892C22.0519 13.7303 27.152 11.6193 32.4693 11.6207H32.5174C37.1364 11.6367 41.6084 13.2465 45.1778 16.1782C48.7472 19.1099 51.1952 23.1838 52.1083 27.7117C53.0215 32.2396 52.3437 36.9439 50.1895 41.0298C48.0354 45.1158 44.5368 48.333 40.285 50.1379C37.8248 51.1845 35.178 51.7223 32.5044 51.7186ZM32.4701 12.0265C29.8907 12.0259 27.3363 12.5333 24.953 13.5198C22.5696 14.5064 20.4039 15.9527 18.5795 17.7762C14.8949 21.4589 12.8242 26.4545 12.8229 31.664C12.8216 36.8734 14.8898 41.8701 18.5726 45.5546C22.2553 49.2392 27.2509 51.3099 32.4604 51.3112H32.5035C35.0829 51.3122 37.6372 50.8051 40.0206 49.8189C42.404 48.8327 44.5698 47.3867 46.3943 45.5635C48.2189 43.7403 49.6665 41.5756 50.6545 39.1929C51.6424 36.8103 52.1514 34.2564 52.1524 31.677C52.1534 29.0976 51.6463 26.5434 50.6601 24.16C49.6739 21.7766 48.2279 19.6108 46.4047 17.7862C44.5815 15.9616 42.4168 14.514 40.0341 13.5261C37.6515 12.5381 35.0976 12.0291 32.5182 12.0281L32.4701 12.0265Z" fill="#1A1818"/>
<path d="M35.6227 38.0379C35.7408 35.3156 35.8166 33.435 35.9095 31.556C35.9242 31.4431 35.9038 31.3284 35.851 31.2275C35.7982 31.1267 35.7157 31.0445 35.6145 30.9922C35.1717 30.7051 34.7977 30.3238 34.5192 29.8755C34.2407 29.4271 34.0647 28.9229 34.0036 28.3986C33.8259 27.1482 33.9263 25.8739 34.2978 24.6668C34.4159 24.27 34.5333 23.8723 34.6547 23.4763C34.8264 22.8224 35.1967 22.2378 35.7147 21.8032C36.2326 21.3686 36.8726 21.1054 37.5465 21.0498C38.2422 20.9843 38.94 21.1511 39.5309 21.5243C40.1218 21.8974 40.5723 22.4558 40.8122 23.1121C41.373 24.4255 41.6745 25.8349 41.7004 27.2628C41.6841 28.8378 41.293 30.2181 39.8516 31.1079C39.803 31.1594 39.766 31.2206 39.7428 31.2874C39.7196 31.3543 39.7109 31.4253 39.7171 31.4957C39.8076 33.7487 39.9094 36.0017 40.0096 38.2587C40.0748 39.7514 40.1628 41.2434 40.2019 42.7402C40.2242 43.3073 40.0351 43.8625 39.6712 44.2981C39.3073 44.7336 38.7946 45.0185 38.2325 45.0974C37.6907 45.1996 37.1303 45.1106 36.6467 44.8457C36.1632 44.5807 35.7866 44.1563 35.5811 43.6446C35.4548 43.2659 35.4014 42.8667 35.4239 42.468C35.485 40.7121 35.5787 38.957 35.6219 38.0444M37.0885 36.7806C36.9989 38.7289 36.9019 40.6771 36.8213 42.6261C36.8081 42.7631 36.8238 42.9013 36.8673 43.0319C36.9108 43.1625 36.9812 43.2825 37.0739 43.3842C37.1667 43.4859 37.2797 43.567 37.4057 43.6223C37.5317 43.6777 37.6679 43.706 37.8055 43.7055C37.9432 43.705 38.0792 43.6756 38.2048 43.6194C38.3303 43.5631 38.4427 43.4811 38.5347 43.3787C38.6267 43.2763 38.6962 43.1558 38.7387 43.0249C38.7813 42.894 38.7959 42.7557 38.7817 42.6188C38.7556 41.8309 38.7067 41.0429 38.6701 40.2558C38.5272 37.1324 38.3854 34.0089 38.2447 30.8854C38.226 30.7187 38.2614 30.5504 38.3458 30.4054C38.4302 30.2604 38.559 30.1464 38.7133 30.0804C38.9387 29.977 39.1535 29.8517 39.3545 29.7064C39.677 29.4218 39.928 29.0655 40.0876 28.6661C40.2471 28.2667 40.3105 27.8354 40.2728 27.407C40.2629 26.0893 39.9886 24.7871 39.4662 23.5774C39.3299 23.2514 39.1011 22.9725 38.808 22.7752C38.5149 22.578 38.1704 22.471 37.8171 22.4675C37.4638 22.464 37.1173 22.5642 36.8204 22.7557C36.5234 22.9472 36.2892 23.2215 36.1466 23.5448C35.6117 24.7798 35.3315 26.11 35.3228 27.4559C35.2708 28.0043 35.3945 28.5551 35.676 29.0286C35.9575 29.5021 36.3823 29.8739 36.8889 30.0902C37.052 30.1549 37.1882 30.2734 37.2748 30.426C37.3615 30.5786 37.3935 30.7562 37.3656 30.9294C37.2748 32.8774 37.1855 34.8256 37.0975 36.7741" fill="#1A1818"/>
<path d="M37.7957 45.3403C37.2778 45.3405 36.7717 45.1853 36.3429 44.8948C35.9141 44.6042 35.5823 44.1918 35.3904 43.7107C35.2537 43.3075 35.1961 42.8817 35.2209 42.4567C35.269 41.0658 35.3366 39.701 35.3839 38.7085C35.3969 38.4519 35.4075 38.2253 35.4173 38.0347C35.4499 37.2924 35.4784 36.612 35.5061 35.9773C35.5794 34.2662 35.6373 32.9193 35.7049 31.552C35.7178 31.4745 35.7048 31.395 35.668 31.3256C35.6312 31.2563 35.5726 31.201 35.5012 31.1682C35.0345 30.8651 34.6402 30.463 34.3463 29.9904C34.0525 29.5178 33.8662 28.9864 33.8007 28.4337C33.6209 27.1515 33.7252 25.8455 34.1062 24.6082L34.1877 24.3458C34.2782 24.041 34.3719 23.7257 34.4664 23.4161C34.6712 22.7143 35.0761 22.0874 35.6316 21.6121C36.1686 21.1579 36.8378 20.889 37.5399 20.8453C37.6213 20.8396 37.7093 20.8372 37.7933 20.8372C38.4918 20.8222 39.1775 21.0264 39.7541 21.4209C40.3308 21.8155 40.7694 22.3807 41.0085 23.0372C41.5838 24.3731 41.8903 25.8093 41.9105 27.2636C41.9252 28.0358 41.7868 28.8032 41.5031 29.5215C41.1918 30.2537 40.6556 30.8678 39.9721 31.275C39.939 31.3405 39.923 31.4134 39.9256 31.4868C40.0071 33.4579 40.0943 35.4615 40.1807 37.3991L40.2182 38.2457C40.2385 38.715 40.2622 39.1917 40.2842 39.6529C40.333 40.66 40.3836 41.7013 40.4104 42.728C40.4339 43.3431 40.229 43.9452 39.8352 44.4183C39.4414 44.8914 38.8865 45.2021 38.2773 45.2906C38.1188 45.3231 37.9575 45.3397 37.7957 45.3403ZM37.7867 21.2487C37.7118 21.2487 37.6352 21.2487 37.5586 21.256C36.9256 21.3067 36.3243 21.5539 35.8386 21.9629C35.3529 22.3719 35.007 22.9224 34.8493 23.5375C34.7556 23.8463 34.6619 24.1608 34.5715 24.4647L34.49 24.7271C34.1287 25.9061 34.0305 27.1499 34.2024 28.371C34.2606 28.8665 34.4271 29.3432 34.6902 29.7672C34.9532 30.1912 35.3063 30.5521 35.7244 30.8244C35.8552 30.8963 35.9616 31.0054 36.0304 31.1378C36.0991 31.2702 36.1271 31.42 36.1107 31.5683C36.043 32.9339 35.9852 34.2825 35.9119 35.9903C35.885 36.625 35.8556 37.3054 35.823 38.0485C35.8141 38.24 35.8027 38.4673 35.7896 38.724C35.7399 39.7189 35.6731 41.0821 35.6267 42.4722C35.6049 42.8441 35.6538 43.2168 35.7709 43.5705C35.9333 43.9742 36.2131 44.3198 36.5741 44.5626C36.9351 44.8055 37.3606 44.9345 37.7957 44.9329C37.9292 44.9329 38.0624 44.9198 38.1933 44.8938C38.709 44.8262 39.1806 44.5676 39.5149 44.1692C39.8492 43.7708 40.0219 43.2615 39.999 42.7419C39.9721 41.7201 39.9216 40.6804 39.8727 39.6757C39.8499 39.2137 39.827 38.7362 39.8067 38.2669L39.7692 37.4203C39.6828 35.4819 39.5932 33.4782 39.5142 31.5064C39.505 31.3999 39.521 31.2927 39.5611 31.1936C39.6012 31.0944 39.6641 31.0062 39.7447 30.936C40.9376 30.2027 41.4779 29.0676 41.4974 27.262C41.476 25.8598 41.1789 24.4755 40.6231 23.1879C40.4126 22.6084 40.0258 22.1093 39.5171 21.7609C39.0083 21.4125 38.4032 21.2322 37.7867 21.2454V21.2487ZM37.803 43.9005C37.6439 43.907 37.4851 43.8807 37.3365 43.8233C37.1879 43.7658 37.0527 43.6784 36.9393 43.5665C36.8247 43.4374 36.7377 43.2862 36.6838 43.1223C36.6298 42.9583 36.61 42.785 36.6256 42.6131C36.6819 41.2475 36.7479 39.8607 36.8106 38.5195C36.835 38.004 36.8592 37.4879 36.8831 36.9713L36.8896 36.7652L36.9581 35.3181C37.0249 33.8514 37.0923 32.3847 37.1602 30.9181C37.1764 30.5685 37.0787 30.3754 36.822 30.2719C36.2822 30.0367 35.8291 29.6391 35.5258 29.1344C35.2225 28.6297 35.084 28.043 35.1296 27.4559C35.1369 26.0849 35.4207 24.7294 35.964 23.4707C36.1011 23.0997 36.3532 22.7823 36.6834 22.5648C37.0137 22.3472 37.4048 22.241 37.7998 22.2615H37.8267C38.2254 22.2458 38.6186 22.3578 38.9492 22.5812C39.2799 22.8045 39.5306 23.1276 39.6649 23.5033C40.1953 24.7396 40.4739 26.0692 40.4846 27.4144C40.5203 27.8725 40.4484 28.3326 40.2747 28.758C40.101 29.1835 39.8302 29.5624 39.484 29.8645C39.2719 30.0178 39.0454 30.1502 38.8077 30.2597C38.6893 30.3082 38.5904 30.3945 38.5264 30.5053C38.4624 30.616 38.437 30.7449 38.4541 30.8716C38.5804 33.6803 38.7156 36.6568 38.8794 40.242C38.8924 40.5215 38.9071 40.801 38.921 41.0805C38.947 41.5807 38.9739 42.0973 38.9902 42.6074C39.0048 42.7803 38.9841 42.9544 38.9295 43.1191C38.8749 43.2838 38.7874 43.4357 38.6724 43.5656C38.5592 43.6771 38.4244 43.7644 38.2763 43.8221C38.1283 43.8798 37.97 43.9068 37.8112 43.9013L37.803 43.9005ZM37.3068 36.5672L37.3003 36.7807C37.2731 37.3652 37.246 37.9497 37.2188 38.5342C37.1553 39.8753 37.0901 41.2613 37.0339 42.6253C37.0217 42.7419 37.0332 42.8597 37.0676 42.9717C37.1021 43.0837 37.1588 43.1876 37.2343 43.2772C37.3101 43.3491 37.3998 43.4048 37.4979 43.4408C37.5959 43.4768 37.7003 43.4924 37.8047 43.4866H37.8128C37.9172 43.4924 38.0217 43.4767 38.1198 43.4406C38.2179 43.4044 38.3075 43.3485 38.3832 43.2764C38.4598 43.1852 38.5174 43.0797 38.5526 42.9659C38.5877 42.8521 38.5996 42.7324 38.5877 42.6139C38.5706 42.1079 38.5445 41.593 38.5184 41.0943C38.5038 40.814 38.4891 40.5337 38.4769 40.2534C38.3139 36.6682 38.1779 33.6925 38.0516 30.883C38.0318 30.6766 38.0775 30.4692 38.1822 30.2902C38.2869 30.1111 38.4453 29.9696 38.635 29.8857C38.8486 29.7879 39.0522 29.6694 39.2428 29.5321C39.5425 29.2665 39.7747 28.9334 39.9204 28.5604C40.066 28.1874 40.1209 27.7851 40.0804 27.3867C40.0654 26.0971 39.7954 24.8233 39.286 23.6385C39.1808 23.3396 38.9816 23.0828 38.7183 22.9065C38.4549 22.7302 38.1415 22.644 37.825 22.6607H37.8022C37.4899 22.6401 37.1793 22.7212 36.9169 22.8918C36.6546 23.0625 36.4546 23.3137 36.347 23.6076C35.8227 24.8168 35.5469 26.1192 35.5362 27.4372C35.5802 28.7409 36.0251 29.4995 36.976 29.8898C37.1778 29.9711 37.346 30.1185 37.4533 30.3077C37.5606 30.497 37.6006 30.717 37.5667 30.9319C37.4983 32.3986 37.4309 33.8653 37.3647 35.3319L37.3068 36.5672Z" fill="#1A1818"/>
<path d="M25.0864 36.7774C25.1809 34.8153 25.2697 32.8524 25.3765 30.8904C25.3887 30.7687 25.3712 30.6458 25.3257 30.5323C25.2801 30.4188 25.2078 30.318 25.1149 30.2385C24.6057 29.7496 24.0891 29.2656 23.6254 28.736C23.4299 28.5118 23.3137 28.2294 23.2946 27.9326C23.2669 25.9265 23.2808 23.9196 23.2791 21.9135C23.2791 21.5738 23.3525 21.2356 23.6988 21.1338C23.8177 21.0981 23.9428 21.0883 24.0658 21.105C24.1887 21.1217 24.3067 21.1646 24.4117 21.2307C24.5894 21.4318 24.6861 21.6917 24.6831 21.96C24.7043 23.7721 24.7002 25.5851 24.6888 27.3981C24.6788 27.5333 24.7001 27.6691 24.751 27.7948C24.8018 27.9206 24.8809 28.0329 24.9821 28.1232C25.4979 28.6048 25.9827 29.1198 26.4871 29.6119C26.6071 29.7262 26.6995 29.8663 26.7574 30.0216C26.8153 30.1768 26.8371 30.3433 26.8211 30.5082C26.612 34.5019 26.4072 38.4945 26.2068 42.486C26.1695 42.699 26.1997 42.9184 26.293 43.1135C26.3863 43.3087 26.5382 43.4698 26.7274 43.5746C26.891 43.6671 27.0787 43.7077 27.2658 43.6911C27.4529 43.6745 27.6306 43.6015 27.7753 43.4817C27.9159 43.3681 28.0244 43.2196 28.0899 43.0511C28.1553 42.8825 28.1755 42.6998 28.1485 42.521C27.9497 38.5273 27.747 34.5347 27.5406 30.5432C27.5238 30.3648 27.5485 30.1849 27.6126 30.0176C27.6768 29.8502 27.7788 29.7 27.9106 29.5785C28.419 29.0896 28.925 28.5966 29.4017 28.0768C29.5517 27.9101 29.641 27.6977 29.6551 27.4738C29.6746 25.6747 29.6665 23.8764 29.6673 22.0773C29.6588 21.9252 29.6659 21.7725 29.6885 21.6218C29.7096 21.468 29.7842 21.3265 29.8993 21.2222C30.0143 21.1179 30.1624 21.0575 30.3175 21.0515C30.4711 21.0306 30.6271 21.0665 30.7561 21.1524C30.8852 21.2384 30.9784 21.3685 31.0183 21.5184C31.0655 21.6913 31.0864 21.8704 31.0802 22.0496C31.0802 23.9734 31.0745 25.8964 31.0891 27.8201C31.0978 28.0128 31.0635 28.2049 30.9887 28.3827C30.9138 28.5604 30.8003 28.7192 30.6565 28.8476C30.1529 29.3218 29.664 29.8107 29.1898 30.3143C29.0668 30.4524 28.9979 30.6304 28.9959 30.8154C29.1757 34.6575 29.3658 38.4991 29.5663 42.3401C29.6722 44.2957 28.0181 45.6279 26.2858 44.9475C25.7957 44.7445 25.3849 44.3876 25.1155 43.9306C24.8461 43.4736 24.7326 42.9414 24.7923 42.4143C24.8911 40.5353 24.9886 38.6561 25.0848 36.7766" fill="#1A1818"/>
<path d="M27.2048 45.3329C26.8636 45.3312 26.5258 45.2651 26.2091 45.1382C25.68 44.9188 25.2361 44.5342 24.9436 44.0418C24.651 43.5495 24.5256 42.9757 24.586 42.4061C24.6452 41.2784 24.7039 40.151 24.762 39.0238C24.8011 38.272 24.8399 37.5205 24.8785 36.7692C24.9024 36.2803 24.9258 35.7885 24.9486 35.2936C25.017 33.8481 25.0879 32.3529 25.1686 30.8822C25.1785 30.7905 25.1654 30.6979 25.1305 30.6125C25.0957 30.5272 25.0402 30.4518 24.9689 30.3933L24.8418 30.2654C24.3774 29.8213 23.8966 29.3626 23.464 28.8688C23.2356 28.6088 23.1013 28.2797 23.0826 27.9342C23.0623 26.4675 23.0639 24.9683 23.0663 23.5228C23.0663 22.9861 23.0663 22.4494 23.0663 21.9127C23.0663 21.3757 23.257 21.0482 23.6326 20.9349C23.7353 20.9064 23.8414 20.8924 23.948 20.8934C24.1603 20.8855 24.3689 20.9501 24.5395 21.0767C24.7602 21.3153 24.8815 21.6292 24.8785 21.9543C24.9021 23.9448 24.894 25.9086 24.8842 27.3964C24.8745 27.5035 24.8901 27.6115 24.9299 27.7114C24.9697 27.8114 25.0325 27.9005 25.1132 27.9717C25.4261 28.2634 25.7316 28.5722 26.0266 28.868C26.2205 29.0635 26.4209 29.2664 26.6214 29.4611C26.7621 29.5958 26.8707 29.7605 26.9391 29.9429C27.0075 30.1253 27.034 30.3207 27.0166 30.5147C26.7884 34.8666 26.5684 39.2031 26.4022 42.4925C26.3657 42.6663 26.386 42.8471 26.4601 43.0085C26.5342 43.1699 26.6581 43.3032 26.8137 43.3888C26.9244 43.4496 27.0483 43.4826 27.1746 43.4849C27.3471 43.4796 27.513 43.4181 27.6472 43.3097C27.7597 43.217 27.8458 43.0962 27.8969 42.9596C27.9479 42.823 27.9622 42.6754 27.9381 42.5316C27.6937 37.6973 27.5095 34.0021 27.3303 30.5538C27.3114 30.3462 27.3405 30.137 27.4154 29.9425C27.4903 29.7479 27.6089 29.5732 27.7621 29.4318C28.251 28.96 28.7692 28.454 29.2443 27.9383C29.3601 27.8083 29.4302 27.6441 29.4439 27.4706C29.4586 26.1228 29.4578 24.7523 29.4561 23.4266C29.4561 22.9768 29.4561 22.5271 29.4561 22.0773C29.4561 22.0496 29.4561 22.0211 29.4561 21.9958C29.4495 21.8578 29.4583 21.7196 29.4822 21.5835C29.5125 21.3864 29.6103 21.206 29.7589 21.0731C29.9076 20.9402 30.0978 20.8632 30.297 20.8551C30.3264 20.8551 30.3565 20.8551 30.385 20.8551C30.5708 20.8498 30.7529 20.9071 30.9021 21.0178C31.0514 21.1285 31.1591 21.2861 31.208 21.4654C31.2621 21.6583 31.2863 21.8583 31.2797 22.0586C31.2797 22.7549 31.2797 23.4511 31.2797 24.1469C31.2797 25.3537 31.2797 26.6011 31.2878 27.8274C31.2966 28.048 31.2567 28.2677 31.1709 28.4711C31.0852 28.6744 30.9557 28.8564 30.7916 29.004C30.2807 29.4856 29.791 29.9769 29.3355 30.4642C29.2496 30.5624 29.2004 30.6874 29.1962 30.8178C29.3966 35.0915 29.5702 38.6865 29.7666 42.3401C29.798 42.743 29.7462 43.1481 29.6146 43.5301C29.483 43.9122 29.2743 44.2632 29.0015 44.5613C28.7707 44.806 28.4922 45.0008 28.1832 45.1335C27.8741 45.2662 27.5411 45.3341 27.2048 45.3329ZM23.9529 21.3024C23.8849 21.3016 23.8172 21.3101 23.7516 21.3277C23.6164 21.3676 23.4786 21.4678 23.4786 21.9119C23.4786 22.4486 23.4786 22.9855 23.4786 23.5228C23.4786 24.9674 23.4786 26.461 23.4949 27.9293C23.5128 28.1775 23.6109 28.4131 23.7744 28.6007C24.1949 29.0814 24.6707 29.5337 25.127 29.972L25.2517 30.091C25.3658 30.1909 25.4548 30.3163 25.5114 30.457C25.568 30.5977 25.5907 30.7498 25.5776 30.9009C25.4961 32.3676 25.4261 33.8636 25.3576 35.3091C25.3343 35.8012 25.3109 36.2936 25.2875 36.7863C25.2484 37.5387 25.2096 38.2905 25.171 39.0417C25.1129 40.1694 25.0542 41.2971 24.995 42.4249C24.9362 42.9094 25.0378 43.3999 25.2843 43.8212C25.5308 44.2426 25.9086 44.5715 26.3598 44.7577C26.6293 44.8647 26.9165 44.92 27.2064 44.9206C27.4882 44.9208 27.767 44.8631 28.0255 44.7509C28.2839 44.6388 28.5166 44.4747 28.7089 44.2688C28.9431 44.0105 29.1217 43.707 29.2339 43.3769C29.346 43.0469 29.3892 42.6973 29.3608 42.3499C29.1644 38.6954 28.9909 35.098 28.7904 30.8243C28.7896 30.5838 28.8782 30.3514 29.0389 30.1725C29.5001 29.6787 29.9955 29.1808 30.5129 28.6936C30.6365 28.5846 30.7339 28.449 30.7977 28.297C30.8614 28.145 30.89 27.9806 30.8812 27.816C30.8723 26.5881 30.8731 25.339 30.8731 24.1323C30.8731 23.4364 30.8731 22.7406 30.8731 22.0447C30.879 21.8869 30.8617 21.729 30.8218 21.5762C30.7959 21.4705 30.7313 21.3783 30.6408 21.318C30.5503 21.2576 30.4404 21.2335 30.3329 21.2503C30.2219 21.2529 30.1156 21.2956 30.0337 21.3705C29.9518 21.4454 29.8997 21.5474 29.8872 21.6577C29.8697 21.7654 29.8637 21.8746 29.8692 21.9836C29.8692 22.0137 29.8692 22.0431 29.8692 22.0732C29.8692 22.523 29.8692 22.9728 29.8692 23.4226C29.8692 24.7499 29.8692 26.122 29.857 27.4722C29.8423 27.7462 29.7338 28.0068 29.5498 28.2104C29.0675 28.7368 28.5444 29.2452 28.0506 29.7211C27.94 29.8225 27.8546 29.9483 27.8012 30.0884C27.7477 30.2286 27.7277 30.3793 27.7426 30.5286C27.9226 33.9801 28.1101 37.6753 28.3512 42.5063C28.3812 42.7186 28.355 42.9351 28.2752 43.1341C28.1955 43.3331 28.0649 43.5077 27.8966 43.6406C27.7214 43.7843 27.507 43.872 27.2813 43.8922C27.0556 43.9124 26.8291 43.8642 26.6312 43.7538C26.406 43.6328 26.2243 43.4444 26.1114 43.2151C25.9984 42.9857 25.96 42.7268 26.0013 42.4746C26.1643 39.1827 26.3884 34.8463 26.6157 30.4968C26.6303 30.3607 26.6134 30.2231 26.5662 30.0946C26.519 29.9662 26.4428 29.8503 26.3435 29.7561C26.1415 29.5589 25.9361 29.3552 25.7438 29.158C25.4513 28.8631 25.149 28.5575 24.8418 28.2707C24.7196 28.1614 24.6238 28.0258 24.5617 27.874C24.4996 27.7223 24.4728 27.5584 24.4833 27.3948C24.4931 25.9086 24.5012 23.9481 24.4776 21.9608C24.4802 21.7494 24.4081 21.5439 24.2739 21.3806C24.1778 21.3215 24.0654 21.2941 23.9529 21.3024Z" fill="#1A1818"/>
<path d="M46.6578 31.3858C46.6968 33.2647 46.3607 35.1325 45.6691 36.88C44.9776 38.6275 43.9444 40.2195 42.6301 41.5628C42.2684 41.9425 41.8528 42.0069 41.5359 41.7298C41.1993 41.4349 41.2034 41.0177 41.5961 40.603C43.5583 38.5933 44.8035 35.9931 45.139 33.2045C45.4746 30.416 44.8817 27.5946 43.4523 25.1769C43.115 24.5927 42.6856 24.0614 42.2936 23.509C42.1736 23.3813 42.1033 23.2149 42.0954 23.0399C42.0875 22.8649 42.1425 22.6928 42.2504 22.5548C42.3195 22.4666 42.4088 22.3964 42.5107 22.3499C42.6126 22.3035 42.7242 22.2823 42.836 22.288C42.9479 22.2938 43.0567 22.3264 43.1533 22.383C43.25 22.4396 43.3315 22.5187 43.3912 22.6135C45.4459 25.0811 46.5981 28.1753 46.6578 31.3858Z" fill="#1A1818"/>
<path d="M41.9709 42.1037C41.7484 42.0966 41.5363 42.0083 41.3744 41.8555C41.2126 41.7027 41.1123 41.4959 41.0925 41.2742C41.0938 41.1211 41.1262 40.9699 41.1879 40.8298C41.2495 40.6897 41.3391 40.5637 41.451 40.4594C43.3824 38.482 44.6082 35.9232 44.9387 33.1789C45.2692 30.4347 44.6861 27.658 43.2795 25.2785C43.0338 24.8719 42.7659 24.4791 42.4769 24.102C42.3628 23.9471 42.2447 23.7866 42.1306 23.6269C41.9837 23.4644 41.8991 23.255 41.892 23.036C41.8848 22.817 41.9555 22.6026 42.0915 22.4308C42.1699 22.3234 42.2723 22.236 42.3906 22.1754C42.5089 22.1148 42.6398 22.0828 42.7727 22.082C42.924 22.0875 43.0722 22.1264 43.2067 22.1958C43.3412 22.2653 43.4587 22.3636 43.5508 22.4837C45.6352 24.9874 46.8038 28.1268 46.8639 31.384C46.888 33.2876 46.5478 35.1782 45.8616 36.954C45.1519 38.7218 44.1056 40.3348 42.7808 41.7036C42.6802 41.8219 42.5564 41.9184 42.4172 41.9872C42.2779 42.056 42.126 42.0956 41.9709 42.1037ZM42.7735 22.4903C42.703 22.4912 42.6337 22.5089 42.5713 22.5419C42.509 22.5749 42.4554 22.6223 42.415 22.6801C42.3339 22.7837 42.2939 22.9137 42.3028 23.045C42.3117 23.1763 42.3687 23.2997 42.463 23.3914C42.5747 23.5487 42.692 23.7076 42.8053 23.8608C43.1036 24.2501 43.3799 24.6556 43.6331 25.0757C45.0844 27.5315 45.6862 30.397 45.3454 33.2292C45.0045 36.0614 43.7401 38.7023 41.7476 40.7437C41.6752 40.8088 41.6164 40.8874 41.5744 40.9752C41.5325 41.063 41.5083 41.1583 41.5032 41.2554C41.5085 41.3181 41.5267 41.379 41.5567 41.4342C41.5867 41.4895 41.6279 41.5379 41.6776 41.5765C41.7584 41.6519 41.8644 41.6946 41.975 41.6963C42.0748 41.6868 42.1718 41.6577 42.2603 41.6105C42.3489 41.5634 42.4272 41.4992 42.4908 41.4217C44.4321 39.4317 45.7359 36.9079 46.2352 34.173C46.7345 31.4382 46.4067 28.6165 45.2937 26.0689C44.7647 24.8707 44.072 23.7516 43.2355 22.7437C43.1816 22.6703 43.1123 22.6097 43.0325 22.5659C42.9527 22.5221 42.8643 22.4963 42.7735 22.4903Z" fill="#1A1818"/>
<path d="M18.3224 31.468C18.3565 28.5847 19.2752 25.7814 20.9543 23.4372C20.9994 23.347 21.063 23.2672 21.1409 23.2031C21.2188 23.139 21.3094 23.092 21.4066 23.0651C21.5039 23.0382 21.6057 23.0321 21.7055 23.047C21.8052 23.062 21.9008 23.0978 21.9858 23.152C22.0711 23.2072 22.1433 23.2802 22.1977 23.3659C22.2522 23.4515 22.2874 23.548 22.3011 23.6486C22.3148 23.7492 22.3066 23.8515 22.2771 23.9486C22.2476 24.0458 22.1974 24.1354 22.1301 24.2113C21.2032 25.4919 20.5295 26.9378 20.1452 28.4712C19.6107 30.487 19.5856 32.6041 20.072 34.6321C20.5584 36.6601 21.5412 38.5355 22.9318 40.0896C23.1119 40.3006 23.3107 40.497 23.4794 40.7137C23.5986 40.8515 23.6592 41.0303 23.6482 41.2121C23.6372 41.3939 23.5556 41.5642 23.4207 41.6866C23.3534 41.7534 23.2726 41.8051 23.1838 41.8385C23.0951 41.8718 23.0002 41.886 22.9055 41.8801C22.8109 41.8741 22.7186 41.8483 22.6346 41.8041C22.5507 41.7599 22.477 41.6985 22.4185 41.6239C21.842 41.0082 21.3042 40.3573 20.8084 39.6749C19.1468 37.2642 18.2778 34.3956 18.3224 31.468Z" fill="#1A1818"/>
<path d="M22.9459 42.0859C22.8158 42.0835 22.6879 42.0531 22.5706 41.9968C22.4534 41.9406 22.3496 41.8598 22.2663 41.76L22.0789 41.5498C21.563 40.9942 21.0827 40.4067 20.6407 39.7906C19.8101 38.5849 19.1697 37.2586 18.7422 35.8583C18.3192 34.4337 18.1096 32.9542 18.1205 31.4681C18.153 28.543 19.0837 25.6985 20.7866 23.3199C20.8734 23.1776 20.9937 23.0587 21.137 22.9734C21.2803 22.8882 21.4422 22.8394 21.6087 22.8311C21.783 22.8325 21.9531 22.8852 22.0976 22.9826C22.1977 23.0451 22.2841 23.1272 22.3516 23.224C22.4191 23.3207 22.4663 23.4302 22.4904 23.5456C22.5126 23.6821 22.5071 23.8216 22.4742 23.9558C22.4413 24.0901 22.3816 24.2163 22.2989 24.3271C21.385 25.586 20.7212 27.0086 20.3433 28.5176C19.8207 30.5027 19.7977 32.5863 20.2762 34.5825C20.7548 36.5787 21.7201 38.4253 23.086 39.9576C23.1544 40.0391 23.2278 40.1206 23.2987 40.1956C23.4136 40.3211 23.5317 40.4498 23.6393 40.5891C23.7894 40.7677 23.8647 40.9973 23.8495 41.2301C23.8343 41.4628 23.7298 41.6807 23.5578 41.8382C23.3915 41.9937 23.1735 42.082 22.9459 42.0859ZM21.6087 23.2393C21.5078 23.2493 21.4107 23.2833 21.3256 23.3386C21.2405 23.3939 21.17 23.4688 21.1199 23.5571C19.4576 25.8878 18.5522 28.6732 18.5264 31.5358C18.5006 34.3984 19.3557 37.1997 20.9756 39.56C21.4085 40.1628 21.8787 40.7379 22.3836 41.2817L22.5719 41.4928C22.6169 41.5494 22.6736 41.5956 22.7381 41.6282C22.8027 41.6609 22.8736 41.6791 22.9459 41.6818C23.0726 41.6786 23.1935 41.628 23.2848 41.54C23.3815 41.4518 23.4394 41.3289 23.4456 41.1982C23.4519 41.0674 23.4061 40.9396 23.3182 40.8425C23.2213 40.7171 23.1137 40.5981 22.9996 40.475C22.9263 40.3936 22.8505 40.3121 22.7772 40.2306C21.3786 38.64 20.3819 36.7372 19.8707 34.6817C19.4083 32.6207 19.4334 30.4801 19.9441 28.4305C20.3329 26.8715 21.0172 25.4016 21.9599 24.1005C22.0117 24.0348 22.0497 23.9592 22.0715 23.8784C22.0933 23.7977 22.0986 23.7133 22.087 23.6304C22.0738 23.5683 22.0479 23.5096 22.0111 23.4578C21.9742 23.4061 21.9271 23.3625 21.8727 23.3297C21.7956 23.2747 21.7042 23.2433 21.6096 23.2393H21.6087Z" fill="#1A1818"/>
<path d="M32.5557 17.4158C33.619 17.569 34.6856 17.7067 35.7449 17.8827C35.8423 17.8909 35.9368 17.9201 36.022 17.9682C36.1071 18.0163 36.1809 18.0822 36.2383 18.1614C36.2956 18.2406 36.3353 18.3312 36.3545 18.4271C36.3737 18.523 36.372 18.6219 36.3495 18.717C36.3295 18.816 36.2887 18.9095 36.2297 18.9914C36.1706 19.0732 36.0948 19.1415 36.0072 19.1917C35.9196 19.2418 35.8224 19.2727 35.7219 19.2822C35.6214 19.2916 35.5201 19.2795 35.4247 19.2467C33.5731 18.8237 31.6513 18.8109 29.7943 19.2092C29.2304 19.3322 28.6804 19.5221 28.1247 19.6867C27.6024 19.8415 27.2284 19.7087 27.0883 19.3102C26.9359 18.8784 27.1437 18.5345 27.6717 18.3447C29.2449 17.7956 30.8908 17.4826 32.5557 17.4158Z" fill="#1A1818"/>
<path d="M27.7321 19.9546C27.5486 19.965 27.3668 19.9143 27.2152 19.8104C27.0636 19.7064 26.9508 19.5551 26.8944 19.3801C26.7038 18.8407 26.9686 18.3828 27.6009 18.1579C29.1925 17.6014 30.858 17.2843 32.5427 17.2168H32.5631H32.5827C32.8847 17.2603 33.187 17.3029 33.4895 17.3447C34.24 17.4498 35.0157 17.5582 35.7767 17.6845C35.9056 17.7022 36.0295 17.7461 36.1408 17.8135C36.2521 17.8809 36.3483 17.9704 36.4237 18.0764C36.5121 18.2145 36.5616 18.3738 36.5671 18.5376C36.5725 18.7015 36.5336 18.8637 36.4545 19.0073C36.3754 19.1509 36.2591 19.2705 36.1177 19.3534C35.9763 19.4364 35.8152 19.4797 35.6512 19.4787C35.5599 19.4782 35.469 19.4678 35.3799 19.4478C34.4319 19.2351 33.4637 19.1258 32.4922 19.1218C31.5994 19.122 30.7092 19.2176 29.8367 19.407C29.4391 19.4934 29.0374 19.6181 28.6495 19.7378C28.4964 19.7851 28.3383 19.834 28.1818 19.8804C28.0362 19.9266 27.8848 19.9515 27.7321 19.9546ZM32.5452 17.6209C30.9063 17.6876 29.2862 17.9965 27.7378 18.5376C27.1079 18.7641 27.235 19.1251 27.2766 19.2441C27.3056 19.339 27.3666 19.4211 27.4491 19.4763C27.5317 19.5315 27.6307 19.5566 27.7296 19.5472C27.8427 19.5449 27.9549 19.5265 28.0629 19.4926C28.2169 19.4469 28.3741 19.3989 28.5257 19.3516C28.9217 19.2286 29.3315 19.1023 29.7479 19.0118C30.6487 18.8161 31.5679 18.7172 32.4898 18.7169C33.4907 18.7196 34.4885 18.8308 35.4655 19.0485C35.5259 19.0622 35.5877 19.0693 35.6496 19.0697C35.7396 19.0707 35.8283 19.0476 35.9063 19.0028C35.9844 18.9579 36.049 18.893 36.0934 18.8147C36.1378 18.7364 36.1605 18.6476 36.1589 18.5576C36.1574 18.4676 36.1318 18.3797 36.0847 18.3029C36.0404 18.2426 35.9841 18.1921 35.9193 18.1545C35.8545 18.1169 35.7827 18.0931 35.7083 18.0846C34.9529 17.9591 34.1797 17.8507 33.4317 17.7464L32.5452 17.6209Z" fill="#1A1818"/>
<path d="M25.4099 24.6106C25.4099 23.7143 25.405 22.8123 25.4099 21.9144C25.4099 21.3701 25.6666 21.0588 26.0919 21.0458C26.5172 21.0327 26.8211 21.366 26.8252 21.9184C26.8317 23.7023 26.8317 25.486 26.8252 27.2693C26.8252 27.8055 26.5466 28.1102 26.1123 28.1086C25.678 28.107 25.418 27.8128 25.414 27.2653C25.4058 26.3812 25.414 25.4955 25.414 24.6106" fill="#1A1818"/>
<path d="M26.1138 28.3105H26.1097C25.5499 28.3105 25.2134 27.9177 25.2085 27.2651C25.2028 26.6377 25.2045 26.0005 25.2085 25.3837C25.2085 25.1256 25.2085 24.8676 25.2085 24.6096C25.2085 24.338 25.2085 24.0685 25.2085 23.8013C25.2085 23.182 25.2085 22.5416 25.2085 21.9117C25.2134 21.2599 25.5418 20.8582 26.0877 20.8411H26.1195C26.6613 20.8411 27.0264 21.2737 27.0296 21.9166C27.0362 23.851 27.0362 25.602 27.0296 27.27C27.046 27.4 27.0346 27.532 26.9961 27.6573C26.9576 27.7826 26.8929 27.8983 26.8063 27.9967C26.7197 28.0951 26.6132 28.1739 26.4938 28.228C26.3744 28.2821 26.2449 28.3102 26.1138 28.3105ZM26.1179 21.2468H26.0991C25.7031 21.2591 25.6167 21.616 25.6151 21.9134C25.611 22.5416 25.6151 23.1812 25.6151 23.7997C25.6151 24.0713 25.6151 24.341 25.6151 24.6088C25.6151 24.8673 25.6151 25.1256 25.6151 25.3837C25.6151 25.9997 25.6151 26.636 25.6151 27.2577C25.62 27.8974 25.9891 27.899 26.1105 27.899V28.1027V27.9031C26.5481 27.9031 26.6157 27.5038 26.6165 27.2667C26.6239 25.6004 26.6239 23.8502 26.6165 21.9174C26.619 21.4994 26.4307 21.2493 26.1179 21.2493V21.2468Z" fill="#1A1818"/>
<path d="M28.9388 24.6138C28.9388 25.5264 28.9477 26.4389 28.9388 27.3515C28.9493 27.4451 28.9403 27.5399 28.9122 27.6299C28.8842 27.7198 28.8379 27.8029 28.776 27.874C28.7142 27.9451 28.6383 28.0026 28.5531 28.0428C28.468 28.083 28.3754 28.1051 28.2812 28.1077C28.1841 28.1135 28.0868 28.0992 27.9954 28.0657C27.9041 28.0321 27.8207 27.9801 27.7504 27.9127C27.6802 27.8454 27.6246 27.7642 27.5872 27.6744C27.5498 27.5846 27.5314 27.4879 27.5332 27.3907C27.5254 27.28 27.5235 27.169 27.5275 27.0582C27.5275 25.6345 27.5275 24.2102 27.5275 22.7853C27.5275 22.426 27.512 22.065 27.5479 21.7081C27.5562 21.5257 27.6359 21.3539 27.7699 21.2298C27.9038 21.1057 28.0813 21.0393 28.2638 21.045C28.4463 21.0507 28.6192 21.128 28.7452 21.2601C28.8712 21.3923 28.9402 21.5687 28.9371 21.7513C28.9469 21.8621 28.9445 21.9721 28.9445 22.0838V24.6138H28.9388Z" fill="#1A1818"/>
<path d="M28.234 28.3105C27.9959 28.3088 27.7679 28.2142 27.5986 28.0467C27.4293 27.8792 27.3322 27.6523 27.3279 27.4142C27.3199 27.3243 27.3175 27.2339 27.3206 27.1437C27.3206 27.116 27.3206 27.0883 27.3206 27.0622C27.3206 25.6648 27.3206 24.2193 27.3206 22.7893C27.3206 22.7013 27.3206 22.6133 27.3206 22.5253C27.3128 22.2475 27.3204 21.9695 27.3434 21.6926C27.3465 21.5749 27.3728 21.4589 27.4207 21.3514C27.4686 21.2438 27.5372 21.1467 27.6227 21.0657C27.7081 20.9847 27.8086 20.9213 27.9186 20.8791C28.0285 20.8369 28.1456 20.8168 28.2633 20.8199C28.3811 20.823 28.497 20.8493 28.6045 20.8972C28.7121 20.9451 28.8092 21.0137 28.8902 21.0991C28.9712 21.1845 29.0347 21.2851 29.0768 21.395C29.119 21.505 29.1391 21.6221 29.136 21.7398C29.145 21.84 29.1442 21.9386 29.1442 22.0332V22.0877V24.8214C29.1442 25.0175 29.1442 25.2136 29.1442 25.4097C29.1442 26.0486 29.1442 26.7086 29.1385 27.358C29.1487 27.4772 29.1345 27.5972 29.0966 27.7108C29.0588 27.8243 28.9981 27.9289 28.9184 28.0181C28.8386 28.1073 28.7415 28.1793 28.6329 28.2295C28.5243 28.2798 28.4066 28.3074 28.287 28.3105H28.234ZM28.234 21.2469C28.1065 21.2489 27.9847 21.2998 27.8937 21.3891C27.8027 21.4785 27.7495 21.5993 27.7451 21.7268C27.7235 21.9888 27.7164 22.2519 27.7239 22.5147C27.7239 22.6043 27.7239 22.694 27.7239 22.7836C27.7239 24.2128 27.7239 25.6583 27.7239 27.0557C27.7239 27.0858 27.7239 27.1151 27.7239 27.1453C27.7212 27.2189 27.7228 27.2927 27.7288 27.3661C27.7663 27.7206 27.9635 27.9169 28.2633 27.9014C28.6422 27.8819 28.7254 27.5886 28.7278 27.3466C28.7368 26.6996 28.7351 26.0429 28.7335 25.4049C28.7335 25.1403 28.7335 24.876 28.7335 24.612V22.0258C28.7335 21.9354 28.7335 21.8506 28.727 21.7675C28.7314 21.6356 28.6839 21.5072 28.5946 21.4099C28.5053 21.3127 28.3813 21.2544 28.2495 21.2477L28.234 21.2469Z" fill="#1A1818"/>
<path d="M32.4994 44.4341C32.981 44.4064 33.4503 44.3746 33.9205 44.3526C34.4289 44.3298 34.7491 44.5653 34.785 44.9816C34.7947 45.0828 34.7822 45.1849 34.7485 45.2809C34.7148 45.3768 34.6607 45.4642 34.5899 45.5372C34.519 45.6101 34.4332 45.6667 34.3383 45.7032C34.2434 45.7397 34.1417 45.7551 34.0402 45.7484C33.0062 45.7826 31.9682 45.7834 30.9342 45.7484C30.8325 45.7534 30.731 45.7359 30.6369 45.697C30.5429 45.6581 30.4586 45.5989 30.3902 45.5235C30.3218 45.4482 30.2709 45.3586 30.2413 45.2612C30.2116 45.1639 30.2039 45.0611 30.2188 44.9604C30.2628 44.5604 30.5683 44.3347 31.0605 44.355C31.5526 44.3754 32.0268 44.408 32.4994 44.4365" fill="#1A1818"/>
<path d="M32.4962 45.9782C31.9706 45.9782 31.4426 45.9693 30.9277 45.9513C30.7947 45.9511 30.6632 45.9231 30.5415 45.8693C30.4199 45.8154 30.3108 45.7368 30.2212 45.6385C30.1402 45.5422 30.0801 45.4301 30.0449 45.3093C30.0097 45.1885 30.0001 45.0616 30.0167 44.9369C30.0288 44.8203 30.0639 44.7073 30.12 44.6043C30.1761 44.5014 30.2522 44.4107 30.3437 44.3375C30.4352 44.2642 30.5404 44.2099 30.6531 44.1777C30.7658 44.1455 30.8838 44.136 31.0002 44.1498H31.0695C31.4117 44.1636 31.7555 44.1848 32.0888 44.2044L32.4962 44.2288L32.9305 44.2028C33.2507 44.1832 33.5824 44.1636 33.9083 44.149H33.9841C34.1035 44.1352 34.2245 44.1455 34.3399 44.1793C34.4554 44.213 34.5629 44.2695 34.6561 44.3455C34.7494 44.4214 34.8265 44.5152 34.8829 44.6214C34.9393 44.7276 34.9739 44.844 34.9846 44.9638C34.9972 45.0847 34.9847 45.207 34.948 45.3229C34.9112 45.4388 34.8511 45.546 34.7712 45.6376C34.6779 45.7371 34.5651 45.8163 34.44 45.8704C34.3148 45.9245 34.1799 45.9523 34.0435 45.9522C33.5278 45.9693 33.0063 45.9782 32.4962 45.9782ZM30.9994 44.5564C30.7549 44.5564 30.46 44.6297 30.4209 44.9817C30.4108 45.0505 30.4151 45.1207 30.4337 45.1878C30.4522 45.2548 30.4844 45.3173 30.5284 45.3712C30.5813 45.4272 30.6452 45.4715 30.7163 45.5013C30.7873 45.531 30.8637 45.5456 30.9407 45.5439C31.4516 45.5619 31.9747 45.5708 32.4954 45.5708C33.0014 45.5708 33.5188 45.5619 34.0329 45.5456C34.1139 45.5476 34.1944 45.5328 34.2694 45.5023C34.3445 45.4717 34.4124 45.426 34.4689 45.3679C34.5119 45.3175 34.544 45.2588 34.5634 45.1955C34.5827 45.1321 34.5888 45.0655 34.5813 44.9996C34.5495 44.6322 34.2399 44.5556 33.9865 44.5556H33.9286C33.6027 44.5702 33.2915 44.589 32.9574 44.6093L32.5101 44.6362H32.4872L32.0635 44.611C31.7327 44.5906 31.3897 44.5702 31.0515 44.5564H30.9994Z" fill="#1A1818"/>
</g>
</g>
<defs>
<clipPath id="clip0_2350_5540">
<rect width="44" height="44" fill="white" transform="translate(10 10)"/>
</clipPath>
</defs>
</svg>
