<svg width="65" height="64" viewBox="0 0 65 64" fill="none" xmlns="http://www.w3.org/2000/svg">
<rect x="0.333252" width="64" height="64" rx="8" fill="#EAF3FF"/>
<g clip-path="url(#clip0_2325_1922)">
<path d="M53.0498 43.3589H52.8562V36.1054C52.8562 29.6261 52.8562 23.1366 52.8562 16.6573C52.8562 14.7828 51.705 13.3668 49.9222 13.0509C49.6675 13.0102 49.3924 13.0102 49.1378 13.0102C41.9046 13 34.6714 13 27.4383 13H15.5189C13.298 13.0102 11.8004 14.4976 11.8004 16.7083V43.2672L11.6374 43.308C10.5983 43.5627 10.3028 43.9294 10.3334 44.9787V45.6919C10.3436 46.4865 10.3538 47.3117 10.5168 48.0859C10.9752 50.2457 12.9516 51.8146 15.2132 51.8146C26.6233 51.8248 38.0333 51.8349 49.4332 51.8146C51.7763 51.8146 53.7935 50.1031 54.2417 47.7599C54.2621 47.6784 54.2825 47.6071 54.313 47.5358L54.3334 47.4747V44.3471C54.0482 43.6849 53.661 43.3895 53.0498 43.3589ZM12.8701 16.7083C12.8701 15.0783 13.8787 14.0697 15.4985 14.0697H49.1581C50.778 14.0697 51.7865 15.0681 51.7865 16.6675V43.3385H34.9567L34.6511 42.0753C34.4371 41.2603 34.2334 40.4351 34.0296 39.6201C33.3063 36.8185 31.5235 35.1172 28.7321 34.5569C28.5895 34.5263 28.4469 34.5161 28.3246 34.5059L27.8865 34.455L28.2329 33.6807C28.4672 33.151 28.7015 32.6212 28.9562 32.1119C29.0275 31.959 29.2109 31.8775 29.5166 31.847C31.0854 31.6942 32.1959 30.4615 32.094 28.9843C32.0736 28.6786 31.9514 28.3628 31.8189 28.0266C31.7578 27.8636 31.6865 27.7006 31.6356 27.5275C31.6152 27.4561 31.5846 27.3746 31.5541 27.3033C31.4726 27.0894 31.3809 26.8653 31.3911 26.6309C31.442 24.5323 30.8817 22.7699 29.7101 21.2519C27.7439 18.7254 24.4228 17.6048 21.4378 18.4503C18.1574 19.3876 16.1912 21.5881 15.6004 24.9806C15.5392 25.3575 15.5291 25.7344 15.5291 26.1318C15.5291 26.3661 15.5189 26.5902 15.5087 26.8245C15.4985 27.0079 15.4577 27.2422 15.3355 27.4154C14.7039 28.2406 14.5816 29.3408 15.0299 30.2781C15.4883 31.2357 16.4256 31.8266 17.5258 31.847C17.7194 31.847 17.7805 31.9081 17.8111 31.9794L19.0438 34.455L18.7483 34.4754C16.2727 34.7199 14.4797 35.9627 13.2776 38.2651L12.9312 38.9273L12.8803 37.9697C12.8701 37.8576 12.8701 37.7761 12.8701 37.7048V16.7083ZM18.0556 40.2008C18.0352 39.885 17.8111 39.6608 17.5156 39.6608H17.5054C17.21 39.6608 16.9961 39.885 16.9961 40.2211C16.9859 40.7916 16.9859 41.352 16.9859 41.9225V43.3385H13.1655L13.1452 43.1552C13.135 43.0737 13.1146 43.0023 13.135 42.9208C13.2267 42.5643 13.3082 42.2077 13.3999 41.841C13.5934 41.0056 13.7972 40.1396 14.0722 39.3043C14.7242 37.2769 16.1505 36.0442 18.3306 35.6164C18.4631 35.596 18.5955 35.5858 18.7483 35.5858C18.8196 35.5858 18.9011 35.5858 18.9826 35.5858L19.1966 35.5654V36.7064C19.2068 37.4603 19.4716 38.0919 19.9403 38.4791C20.4191 38.856 21.0813 38.9884 21.825 38.8458C22.0083 38.8051 22.1917 38.7745 22.3853 38.7439L22.8845 38.6624V43.3385H18.0556V41.1482C18.0658 40.8324 18.0658 40.5268 18.0556 40.211V40.2008ZM20.2866 36.1665C20.2866 36.0442 20.2968 35.9118 20.2968 35.7896V35.5043L22.8743 36.3601V37.5418L22.7113 37.5724C22.5686 37.5928 22.4362 37.6233 22.2936 37.6539C21.9778 37.715 21.6518 37.7863 21.3156 37.8271C21.2748 37.8271 21.2239 37.8373 21.1831 37.8373C20.9692 37.8373 20.7756 37.7659 20.6126 37.6437C20.4394 37.4909 20.3274 37.2769 20.2968 37.0223C20.2764 36.737 20.2764 36.4416 20.2866 36.1665ZM22.4056 35.0866C20.4191 34.618 18.9928 32.988 18.84 31.0523C18.7993 30.4513 18.8094 29.84 18.8196 29.2491C18.8196 28.9741 18.8298 28.7092 18.8298 28.4341V28.2304H19.4716C21.3869 28.21 23.2003 28.1998 24.8099 26.9875L24.9627 26.8754L25.1563 27.1098C25.2072 27.1607 25.2683 27.2218 25.3193 27.2931C25.9203 28.0266 26.6742 28.5156 27.5707 28.7296C27.8458 28.8009 28.131 28.9333 28.1005 29.3918C28.0903 29.5344 28.1005 29.7076 28.1107 29.8604C28.1412 30.217 28.1616 30.5735 27.9782 30.8486C27.7949 31.1338 27.4281 31.2459 27.0715 31.3682C26.9289 31.4089 26.7965 31.4497 26.6742 31.5006C26.6029 31.5413 26.5214 31.5719 26.4501 31.6025C26.338 31.6432 26.226 31.684 26.1241 31.7349C25.2174 32.173 24.3718 32.3462 23.5161 32.2647C23.3531 32.2545 23.1595 32.336 23.1188 32.3869C23.0067 32.5499 22.9354 32.8046 22.966 32.9778C23.0067 33.2732 23.3327 33.314 23.4753 33.3242H23.5467C24.3922 33.3445 25.197 33.3751 25.9407 32.9676C26.2056 32.8148 26.501 32.7129 26.8067 32.6009C26.9391 32.5499 27.0919 32.499 27.2345 32.4379L27.693 32.2647L27.4485 32.8454C27.4179 32.9269 27.3975 32.9982 27.3568 33.0491C26.5112 34.404 24.9933 35.2089 23.4346 35.2089C23.0882 35.2089 22.7418 35.1681 22.4056 35.0866ZM16.7923 26.3864H16.5682L16.5784 26.1827C16.6191 23.7173 17.6379 21.7919 19.6041 20.4369C21.8759 18.868 24.922 18.8477 27.1836 20.3656C29.2109 21.7307 30.2602 23.6867 30.3112 26.1929V26.4272L29.1396 26.2948L29.1091 26.1318C28.8645 24.5527 28.1616 23.32 26.9493 22.3522C25.4415 21.1399 23.404 20.824 21.5193 21.4964C19.6346 22.1688 18.2695 23.7071 17.8722 25.6122C17.7194 26.3049 17.6073 26.3355 16.7923 26.3864ZM17.699 27.4358V30.706H17.5054L17.4239 30.7162C17.0266 30.7162 16.6497 30.5735 16.3644 30.3087C16.0384 30.003 15.8449 29.5955 15.8347 29.1371C15.8143 28.699 15.9671 28.2813 16.2626 27.9655C16.5784 27.6293 17.0164 27.446 17.4851 27.4358H17.699ZM31.0549 29.0352C31.0752 29.9521 30.4131 30.655 29.4249 30.7467L29.2007 30.7671V27.4256H29.4045C30.3316 27.4561 31.0243 28.1285 31.0549 29.0352ZM18.7993 26.8754C18.8196 25.2454 19.492 23.9618 20.7756 23.0755C22.3547 21.9752 24.0764 21.8937 25.7268 22.831C27.3975 23.7784 28.1922 25.3473 28.0801 27.5173V27.7821L27.8152 27.7006C26.7252 27.3339 25.9917 26.6411 25.5536 25.5816C25.523 25.5205 25.5027 25.4492 25.4823 25.3779C25.4619 25.3269 25.4517 25.2658 25.4313 25.2149C25.3193 24.9602 25.1359 24.8379 24.8914 24.8583C24.7793 24.8685 24.4228 24.9194 24.4126 25.276C24.3718 26.1114 23.8115 26.4476 23.2716 26.6717C22.3241 27.069 20.0727 27.2829 18.9724 27.0792L18.7993 27.0486V26.8754ZM26.6029 36.1665C26.6029 36.4517 26.6131 36.7574 26.5825 37.0528C26.552 37.2973 26.4399 37.5011 26.2565 37.6437C26.0935 37.7659 25.8898 37.8373 25.6657 37.8373C25.6147 37.8373 25.5536 37.8271 25.4925 37.8271C25.1868 37.7761 24.8812 37.715 24.5654 37.6437C24.433 37.6233 24.2903 37.5928 24.1579 37.5622L23.9949 37.5316V36.3601L26.5927 35.5043V35.7896C26.5927 35.9118 26.5927 36.0442 26.6029 36.1665ZM23.9949 38.6217L24.382 38.7134C25.3091 38.9069 26.175 39.1005 26.9493 38.4485C27.7439 37.7863 27.7134 36.8694 27.6828 35.8914V35.596H27.8764C30.0667 35.5451 32.1246 37.0834 32.7868 39.2228C33.0516 40.0683 33.2656 40.9445 33.4693 41.7798C33.561 42.1466 33.6425 42.5133 33.7342 42.8801C33.7546 42.9514 33.7546 43.0023 33.7444 43.0635V43.3385H29.8935V40.2925C29.8833 39.8951 29.6897 39.6608 29.3637 39.6608C29.0377 39.6608 28.834 39.9053 28.8238 40.3026C28.8136 40.8528 28.8238 41.4029 28.8238 41.953V43.3385H23.9949V38.6217ZM25.5027 44.612L25.5332 44.449H39.0928L39.1234 44.6018C39.2966 45.3149 39.1845 45.9465 38.8178 46.405C38.4714 46.8329 37.9315 47.0672 37.2896 47.0672H37.2591C33.5101 47.0162 30.4334 47.0162 27.5605 47.0672H27.4994C26.7761 47.0672 26.2158 46.8532 25.8592 46.4356C25.4925 45.9975 25.36 45.3659 25.5027 44.612ZM53.3045 44.6731C53.2841 44.9889 53.2841 45.2945 53.2841 45.6104C53.2739 46.2929 53.2637 46.9959 53.1516 47.6784C52.8664 49.3696 51.3077 50.6939 49.5045 50.7551H15.4577C13.4508 50.7551 11.831 49.5122 11.5152 47.7294C11.3929 47.0366 11.3827 46.3133 11.3725 45.6205C11.3623 45.3047 11.3623 44.9889 11.342 44.6731V44.4592H24.382V45.3353C24.4126 46.9246 25.5332 48.0859 27.0614 48.1063C30.5455 48.1471 34.0806 48.1471 37.5953 48.1063C39.1132 48.0859 40.2338 46.9246 40.2644 45.3353C40.2746 45.1927 40.2644 45.05 40.2644 44.8972V44.4592H53.3147V44.6731H53.3045Z" fill="black"/>
<path d="M49.8814 18.6439C49.8508 17.1871 48.6895 15.985 47.2836 15.9748C45.4396 15.9748 43.5753 15.9544 41.6702 15.9544C39.7652 15.9544 37.8703 15.9646 35.8837 15.9748C34.5288 15.985 33.347 17.126 33.3063 18.4605C33.2553 20.5286 33.2553 22.6884 33.3063 24.8685C33.3368 26.1623 34.3862 27.2422 35.7513 27.3746C35.9652 27.395 36.1792 27.395 36.4135 27.4052L36.9636 27.4358V27.9961C36.9738 28.261 36.9738 28.5258 36.9636 28.7805C36.933 29.4936 37.147 29.9317 37.6462 30.1966C38.1454 30.4717 38.6242 30.3902 39.2456 29.9521C40.407 29.1167 41.4665 28.373 42.4852 27.7006C42.7501 27.5275 43.0965 27.4154 43.4327 27.4154C43.9726 27.395 44.5228 27.395 45.0627 27.4052C45.8064 27.4052 46.5705 27.4052 47.3243 27.3645C48.7812 27.2931 49.8508 26.1725 49.8814 24.7055C49.9222 22.668 49.9222 20.6305 49.8814 18.6439ZM48.8219 24.5629C48.8117 25.6224 48.1291 26.3049 47.0595 26.3151C45.8166 26.3355 44.5635 26.3355 43.3308 26.3151C42.8112 26.3151 42.3732 26.4476 41.9555 26.743C41.2016 27.2931 40.4376 27.8229 39.6633 28.3526L38.7974 28.9537C38.7159 29.0046 38.6344 29.0556 38.5223 29.1269L38.0333 29.4427V28.6073C38.0333 28.2915 38.0435 28.0165 38.0333 27.7312C38.0129 26.9162 37.473 26.3559 36.6478 26.3253H36.0875C35.028 26.2948 34.3556 25.6224 34.3454 24.5629V18.7967C34.3658 17.7067 35.0483 17.0343 36.1384 17.0343C39.7652 17.0241 43.3919 17.0241 47.0187 17.0343C48.1088 17.0343 48.8117 17.727 48.8219 18.7967C48.8321 20.6814 48.8321 22.6171 48.8219 24.5629Z" fill="black"/>
<path d="M21.7433 46.8431C21.7535 47.1589 21.5396 47.3728 21.2136 47.383C20.5107 47.4034 19.767 47.4034 19.0131 47.383C18.6871 47.3728 18.4731 47.1589 18.4731 46.8532C18.4731 46.5476 18.6871 46.3337 19.0233 46.3235H21.183C21.5192 46.3337 21.7433 46.5374 21.7433 46.8431Z" fill="black"/>
<path d="M17.3017 46.8431C17.3017 46.9959 17.2508 47.1283 17.1489 47.2302C17.047 47.3321 16.9146 47.383 16.7821 47.383C16.6395 47.383 16.5071 47.3321 16.4052 47.22C16.3033 47.1181 16.2422 46.9857 16.2422 46.8431C16.2422 46.7106 16.3033 46.5782 16.4052 46.4763C16.5071 46.3846 16.6395 46.3235 16.7821 46.3235H16.7923C17.0776 46.3337 17.2915 46.5476 17.3017 46.8431Z" fill="black"/>
<path d="M15.0909 46.8634C15.0909 46.9959 15.0298 47.1283 14.9177 47.2302C14.8158 47.3321 14.6834 47.3932 14.5408 47.383C14.3981 47.383 14.2759 47.3219 14.1842 47.22C14.0823 47.1181 14.0314 46.9755 14.0416 46.8227C14.0518 46.5374 14.2657 46.3235 14.5611 46.3235C14.7038 46.3235 14.8362 46.3846 14.9381 46.4967C15.0399 46.5986 15.1011 46.7208 15.0909 46.8634Z" fill="black"/>
<path d="M46.9168 20.1415C46.9473 20.4063 46.8353 20.5897 46.5908 20.6814C46.4379 20.7323 46.2546 20.7323 46.1119 20.7323C43.0964 20.7425 40.0809 20.7425 37.0552 20.7425H36.9941C36.9024 20.7425 36.8209 20.7425 36.7394 20.7323C36.4236 20.6814 36.2402 20.4777 36.2504 20.172C36.2606 19.8664 36.4542 19.683 36.77 19.683C37.1775 19.6728 37.585 19.6728 37.9925 19.6728H46.1527C46.2648 19.6728 46.3768 19.6728 46.4787 19.683C46.7436 19.7238 46.8862 19.8766 46.9168 20.1415Z" fill="black"/>
<path d="M42.4751 23.1672C42.465 23.6256 42.0676 23.6969 41.8333 23.6969C41.2526 23.7071 40.6719 23.7071 40.0811 23.6969H36.9433C36.6784 23.6969 36.4849 23.6358 36.3728 23.5136C36.2811 23.4321 36.2404 23.3098 36.2506 23.1468C36.2506 22.9227 36.3219 22.6374 36.9229 22.6374C38.5529 22.6272 40.1829 22.6272 41.8129 22.6374C42.0575 22.6374 42.2306 22.6985 42.3427 22.8106C42.4344 22.8921 42.4751 23.0144 42.4751 23.1672Z" fill="black"/>
</g>
<defs>
<clipPath id="clip0_2325_1922">
<rect width="44" height="44" fill="white" transform="translate(10.3333 10)"/>
</clipPath>
</defs>
</svg>
