<svg width="80" height="80" viewBox="0 0 80 80" fill="none" xmlns="http://www.w3.org/2000/svg">
<g clip-path="url(#clip0_2289_403)">
<path d="M63.6969 41.9001L33.8969 71.7C33.5969 72 33.1969 72.4 32.7969 72.7C33.2969 72.8 33.7969 72.9001 34.2969 72.9001H62.2969C65.6969 72.9001 68.3969 70.1001 68.3969 66.8001V41.8C67.0969 41.8 65.6969 41.6 64.2969 41.3C64.0969 41.5 63.8969 41.8 63.5969 42L63.6969 41.9001Z" fill="white"/>
<path d="M76.3 22.4C76.3 22.4 76.3 22.4 76.2 22.3C73.4 19.5 69.4 17 64.9 15.1C64.1 14.8 63.2 14.4 62.4 14.2C62.4 10.5 59.4 7.59995 55.8 7.49995L38 7.19995C35.6 7.19995 33.4 8.09995 31.7 9.79995L1.8 39.5C-0.6 41.9 -0.6 45.8 1.8 48.2L21.6 68C24 70.4 27.9 70.4 30.3 68L60.1 38.2C61 37.3 61.6 36.3 62 35.2C65 36 67.9 36.5 70.5 36.5C76.8 36.5 78.9 33.7 79.6 32C80.3 30.3 80.8 26.9 76.3 22.4ZM39.5 39.2999C38.8 39.6999 38.1 40.1 37.4 40.5C36.7 40.8 36.5 40.8 36.2 40C35.7 38.5 34.9 37.2999 33.7 36.2999C33.4 35.9999 33.1 35.7999 32.7 35.5999C31.3 35.0999 30.2 35.9 30.3 37.4C30.4 38.9 30.6 38.8 30.9 39.5C31.4 40.7 31.9 41.7999 32.2 43.0999C33.3 46.9999 30.8 50.8 26.9 51.2C25.5 51.3 24.1 50.9999 22.9 50.2999C22.4 49.9999 21.9 50 21.5 50.5C21.1 50.9 20.6 51.3999 20.2 51.7999C19.8 52.1999 19.4 52.1999 19 51.7999C18.5 51.3999 18.1 50.9 17.6 50.4C17.2 50 17.2 49.6 17.6 49.2C17.9 48.9 18.2 48.6 18.5 48.2C19.2 47.5 19.2 47.4 18.6 46.7C17.9 45.7 17.2 44.7 16.8 43.5C16.5 42.6 16.6 42.4 17.4 41.9C18 41.6 18.6 41.2 19.2 40.9C19.9 40.5 20.1 40.6 20.4 41.4C20.8 42.7 21.5 43.9 22.3 45C22.8 45.7 23.5 46.1999 24.3 46.5999C25.9 47.1999 27.3 46.1 27.1 44.5C27.1 43.9 26.9 43.4 26.7 42.9C26.2 41.5 25.5 40.1999 25.1 38.7999C24.5 36.4999 24.8 34.4 26.7 32.7C28.8 30.8 31.2 30.7 33.7 31.9C34.7 32.4 34.7 32.4 35.5 31.6C36.3 30.8 36 31.0999 36.3 30.7999C36.9 30.1999 37.1 30.1999 37.7 30.7999L38.2 31.2999C39.0667 32.1666 39.0667 32.9999 38.2 33.7999C37.3333 34.5999 37.3 35.2333 38.1 35.7C38.7 36.5 39.1 37.3 39.5 38.2C39.7 38.7 39.5 39.0999 39.1 39.2999H39.5ZM74.8 30.1C74.2 31.4 68.2 32.5999 59.1 28.7999C56.4 27.6999 53.9 26.2999 51.9 24.7999C51.9 24.7999 51.8 25 51.7 25C49.7 27 46.5 27 44.5 25C42.5 23 42.5 19.8 44.5 17.8C46.5 15.8 49.7 15.8 51.7 17.8C52.9 19 53.4 20.6 53.1 22.1C55 23.5 57.4 24.7999 59.9 25.7999C60.8 26.1999 61.6 26.4999 62.5 26.7999V19.6C62.5 19.6 62.7 19.7 62.8 19.8C66.7 21.4 70.2 23.6 72.5 25.9C74.6 28.1 74.9 29.4 74.7 29.9L74.8 30.1Z" fill="white"/>
</g>
<defs>
<clipPath id="clip0_2289_403">
<rect width="80" height="80" fill="white"/>
</clipPath>
</defs>
</svg>
