<svg width="80" height="80" viewBox="0 0 80 80" fill="none" xmlns="http://www.w3.org/2000/svg">
<g clip-path="url(#clip0_2289_397)">
<path d="M40 12C24.5 12 12 24.5 12 40C12 55.5 24.5 68 40 68C55.5 68 68 55.5 68 40C68 24.5 55.5 12 40 12ZM52.7 49.7C52.2 50.3 51.4 50.7 50.6 50.7C50 50.7 49.4 50.5 48.9 50.1L38.2 42.1C37.6 41.6 37.2 40.8 37.2 40V21.3C37.2 19.8 38.4 18.6 39.9 18.6C41.4 18.6 42.6 19.8 42.6 21.3V38.7L52.3 45.9C53.4 46.8 53.7 48.4 52.8 49.6L52.7 49.7Z" fill="white"/>
<path d="M40 0C17.9 0 0 17.9 0 40C0 62.1 17.9 80 40 80C62.1 80 80 62.1 80 40C80 17.9 62.1 0 40 0ZM40 73.5C21.5 73.5 6.5 58.5 6.5 40C6.5 21.5 21.5 6.5 40 6.5C58.5 6.5 73.5 21.5 73.5 40C73.5 58.5 58.5 73.5 40 73.5Z" fill="white"/>
</g>
<defs>
<clipPath id="clip0_2289_397">
<rect width="80" height="80" fill="white"/>
</clipPath>
</defs>
</svg>
