<svg width="80" height="80" viewBox="0 0 80 80" fill="none" xmlns="http://www.w3.org/2000/svg">
<g clip-path="url(#clip0_2289_409)">
<path fill-rule="evenodd" clip-rule="evenodd" d="M64.3031 61.7L67.7031 65.5C68.0031 65.9 68.0031 66.4 67.7031 66.7L61.7031 72.7C61.4031 73 60.8031 73.1 60.5031 72.7L56.7031 69.3C55.7031 68.4 54.4031 68.3 53.3031 68.9C51.5031 69.9 49.6031 70.7 47.6031 71.3C46.4031 71.7 45.5031 72.7 45.5031 74L45.3031 79.1C45.3031 79.6 44.9031 80 44.4031 80H35.9031C35.4031 80 35.0031 79.6 35.0031 79.1L34.8031 74C34.8031 72.7 33.9031 71.6 32.7031 71.3C30.7031 70.7 28.8031 69.9 27.0031 68.9C25.9031 68.3 24.5031 68.4 23.6031 69.3L19.8031 72.7C19.4031 73 18.9031 73 18.5031 72.7L12.5031 66.7C12.2031 66.4 12.1031 65.8 12.5031 65.5L15.9031 61.7C16.8031 60.7 16.9031 59.4 16.3031 58.3C15.3031 56.5 14.5031 54.6 13.9031 52.6C13.5031 51.4 12.5031 50.5 11.2031 50.5L6.10313 50.3C5.60313 50.3 5.20312 49.9 5.20312 49.4V46.2H19.7031C20.2031 57 29.2031 65.6 40.1031 65.6C51.0031 65.6 60.0031 57 60.5031 46.2H75.0031V49.4C75.0031 49.9 74.6031 50.3 74.1031 50.3L69.0031 50.5C67.7031 50.5 66.6031 51.4 66.3031 52.6C65.7031 54.6 64.9031 56.5 63.9031 58.3C63.3031 59.4 63.4031 60.8 64.3031 61.7ZM40.0031 58C46.8031 58 52.3031 52.8 52.9031 46.1H27.1031C27.6031 52.7 33.2031 58 40.0031 58ZM3.20312 44.1H76.9031C78.6031 44.1 79.9031 42.7 79.9031 41.1C79.9031 39.5 78.6031 38.1 76.9031 38.1H3.20312C1.50312 38.1 0.203125 39.5 0.203125 41.1C0.203125 42.7 1.50312 44.1 3.20312 44.1ZM29.7031 36H50.3031C51.7031 36 53.0031 35.5 53.9031 34.4C54.9031 33.3 55.3031 32.1 55.1031 30.6C54.4031 24 48.8031 19 42.1031 19H37.8031C31.1031 19 25.6031 24 24.8031 30.6C24.6031 32 25.0031 33.3 26.0031 34.4C27.0031 35.5 28.2031 36 29.6031 36H29.7031ZM22.8031 30.3C23.1031 27.2 24.4031 24.5 26.2031 22.3C24.7031 21.6 23.1031 21.3 21.5031 21.3H17.8031C12.0031 21.3 7.20313 25.6 6.50313 31.4C6.40313 32.6 6.70313 33.7 7.50313 34.6C8.30313 35.5 9.40313 36 10.6031 36H24.8031C24.8031 36 24.6031 35.8 24.6031 35.7C23.2031 34.2 22.7031 32.3 22.9031 30.3H22.8031ZM53.7031 22.3C55.5031 24.5 56.8031 27.3 57.1031 30.3C57.3031 32.3 56.7031 34.2 55.4031 35.7C55.4031 35.7 55.2031 35.9 55.2031 36H69.4031C70.6031 36 71.7031 35.5 72.5031 34.6C73.3031 33.7 73.7031 32.6 73.5031 31.4C72.9031 25.7 68.0031 21.3 62.2031 21.3H58.5031C56.9031 21.3 55.2031 21.7 53.8031 22.3H53.7031ZM53.4031 11.6C53.4031 15.4 56.5031 18.5 60.3031 18.5C64.1031 18.5 67.2031 15.4 67.2031 11.6C67.2031 7.8 64.1031 4.7 60.3031 4.7C56.5031 4.7 53.4031 7.8 53.4031 11.6ZM40.0031 16C44.4031 16 48.0031 12.4 48.0031 8C48.0031 3.6 44.4031 0 40.0031 0C35.6031 0 32.0031 3.6 32.0031 8C32.0031 12.4 35.6031 16 40.0031 16ZM19.6031 18.5C23.4031 18.5 26.5031 15.4 26.5031 11.6C26.5031 7.8 23.4031 4.7 19.6031 4.7C15.8031 4.7 12.7031 7.8 12.7031 11.6C12.7031 15.4 15.8031 18.5 19.6031 18.5Z" fill="white"/>
</g>
<defs>
<clipPath id="clip0_2289_409">
<rect width="80" height="80" fill="white"/>
</clipPath>
</defs>
</svg>
