<svg width="65" height="64" viewBox="0 0 65 64" fill="none" xmlns="http://www.w3.org/2000/svg">
<rect x="0.333252" width="64" height="64" rx="8" fill="#EAF3FF"/>
<g clip-path="url(#clip0_2325_1962)">
<path d="M50.9102 12.8729C50.1258 12.8627 49.3414 12.8627 48.5264 12.8627H47.1001L47.1307 12.6385C47.3038 11.2429 46.8352 10.3973 45.6535 9.99997H19.013C18.412 10.2343 17.9637 10.4992 17.76 10.9882C17.6581 11.253 17.6173 11.5485 17.5766 11.8541C17.5562 11.956 17.546 12.0579 17.5257 12.1597C17.5155 12.2514 17.5155 12.3431 17.5257 12.445V12.8627H15.8243C15.0908 12.8627 14.3675 12.8627 13.634 12.8729C12.0855 12.9034 10.7917 13.9324 10.4148 15.4503C10.4046 15.5216 10.374 15.5929 10.3536 15.6643L10.3333 15.7254V42.5288C10.3333 42.5288 10.3842 42.6205 10.4046 42.6817C10.7917 44.3422 11.9836 45.3202 13.6646 45.3712C14.4694 45.4017 15.2946 45.3915 16.0892 45.3814H16.5578C16.8125 45.3712 17.1182 45.2999 17.1283 44.9331C17.1283 44.8109 17.0978 44.709 17.0265 44.6377C16.9348 44.546 16.7616 44.495 16.5375 44.495C16.3133 44.495 16.1198 44.495 15.9058 44.495C15.315 44.4849 14.7139 44.4747 14.123 44.495C13.196 44.5562 12.4013 44.2709 11.8716 43.7004C11.3316 43.1095 11.1177 42.264 11.2603 41.2656L11.2909 41.0924H53.4164V41.2961C53.4164 41.4184 53.4164 41.5406 53.4266 41.6527C53.4367 41.9176 53.4469 42.1927 53.396 42.4575C53.1922 43.7106 52.2142 44.4849 50.8389 44.4849C49.2802 44.4849 47.7215 44.4849 46.1628 44.4849H19.6447C19.5122 44.4849 19.3798 44.4849 19.2474 44.495C19.0029 44.5154 18.8704 44.658 18.85 44.9025C18.8399 45.1369 18.9519 45.2897 19.1964 45.3406C19.3289 45.3712 19.4817 45.3712 19.6345 45.3712H26.8371V50.2306H25.6044C24.8505 50.2408 24.0762 50.251 23.3122 50.2103C22.813 50.1899 22.4157 50.3121 22.161 50.5872C21.9063 50.8419 21.7942 51.229 21.8248 51.7078C21.8452 51.9218 21.8452 52.1357 21.835 52.3496V52.7979C21.8656 53.5314 22.324 53.9797 23.0371 53.9797C27.3363 53.9898 31.6252 53.9898 35.9142 53.9797C36.1281 53.9797 36.2911 53.9287 36.393 53.837C36.4643 53.7657 36.4949 53.6537 36.4949 53.5314C36.4949 53.4193 36.4847 53.0933 35.8836 53.0933H22.7519V51.1475H41.9146V53.0933H38.8889C38.7972 53.0933 38.7056 53.0933 38.6139 53.1035C38.3694 53.1443 38.2369 53.2767 38.2369 53.5212C38.2267 53.6638 38.2675 53.7861 38.3388 53.8676C38.3999 53.9287 38.4814 53.9695 38.5935 53.9695C39.8262 54 40.8653 54.0102 41.9146 53.9593C42.3935 53.9287 42.7908 53.4907 42.8213 52.9405C42.8519 52.4006 42.8519 51.8505 42.8213 51.3105C42.7908 50.6585 42.3323 50.2408 41.6599 50.2306C40.9366 50.2205 40.2031 50.2205 39.4696 50.2306H37.8396V45.3712H50.7982C52.4995 45.3712 53.7729 44.4645 54.1906 42.9567C54.2823 42.6409 54.3231 42.2945 54.3231 41.9482C54.3333 33.3906 54.3333 24.8331 54.3333 16.2755C54.3333 14.3093 52.8968 12.8729 50.9102 12.8627V12.8729ZM17.5053 40.145H14.0925V17.9055C14.0925 16.9886 14.449 16.6321 15.3557 16.6321H17.5053V40.145ZM17.5053 15.7356H15.3863C13.9396 15.7458 13.2061 16.4691 13.2061 17.9157V40.1551H11.2298V16.4181C11.2298 14.7576 12.2179 13.7592 13.8785 13.7592H17.5053V15.7356ZM24.6773 40.145H18.4527V32.4737H24.6773V40.145ZM25.1765 22.928H25.1561C24.5041 22.928 23.8929 22.6733 23.4344 22.225C22.976 21.7666 22.7315 21.1553 22.7315 20.5033C22.7315 19.1484 23.7808 18.0889 25.1256 18.0787H25.1459C25.7979 18.0787 26.4092 18.3334 26.8676 18.7918C27.3261 19.2503 27.5808 19.8615 27.5808 20.5033C27.5808 21.8277 26.5009 22.9178 25.1765 22.928ZM26.7861 24.1709L26.6333 24.395C26.1647 25.0266 25.7674 25.3221 25.3293 25.3526C25.2988 25.3628 25.2682 25.3628 25.2376 25.3628C24.7894 25.3628 24.3106 25.0776 23.6687 24.4459L23.4446 24.2218L23.7401 24.1097C24.6569 23.7328 25.5738 23.7226 26.5314 24.0792L26.7861 24.1709ZM23.8216 25.7601C24.7283 26.4733 25.5534 26.4834 26.4499 25.7805L26.6639 25.6073C26.888 25.4443 27.1121 25.2711 27.3159 25.0776C27.591 24.8229 27.866 24.8229 28.1716 25.0572C28.3754 25.2202 28.5995 25.3526 28.8236 25.5054L29.058 25.6582C29.4451 25.9027 29.8118 25.9944 30.1378 25.8926C30.474 25.8009 30.7491 25.5258 30.9528 25.0979C30.9732 25.0674 30.9936 25.0368 31.0242 24.9961L31.1566 24.8025L32.97 25.4036L32.5727 26.4427C32.318 27.1253 32.0429 27.8384 31.7577 28.521C31.5743 28.9692 31.126 29.1628 30.637 29.0201C30.4027 28.9488 29.7813 28.7553 29.8933 28.0319C29.9137 27.9199 29.9035 27.7976 29.8933 27.655C29.8628 27.4003 29.7405 27.2781 29.496 27.2577C29.2311 27.2373 29.0885 27.3494 29.0376 27.6143C29.007 27.7569 29.007 27.9097 29.007 28.0727V31.5263H21.3664V31.3225C21.3664 30.8845 21.3562 30.4566 21.3562 30.0287C21.346 28.9692 21.3358 27.9708 21.3867 26.9521C21.4173 26.2593 21.7637 25.6073 22.4666 24.9146L22.5991 24.7923L23.8216 25.7601ZM35.2825 15.7559C35.0482 15.705 34.8547 15.8374 34.7834 16.1023C34.5694 16.8969 34.3759 17.6916 34.1721 18.4862L33.6627 20.5237L33.4692 20.483C32.8273 20.3709 32.267 20.5237 31.7067 20.9822L31.3705 21.247V13.7897H43.3613V22.8974H35.1297L34.926 22.3167C34.7935 21.9092 34.6611 21.5323 34.5389 21.1452C34.4879 20.9822 34.5287 20.7886 34.5592 20.6663C34.8037 19.6578 35.0482 18.6594 35.3029 17.661L35.5678 16.5709C35.5882 16.4793 35.6187 16.3978 35.6289 16.3163C35.6697 16.0208 35.5474 15.8171 35.2825 15.7559ZM33.8563 22.4594L34.0295 22.5409L33.2756 24.558L31.3909 23.9264L31.6762 23.1725C31.8392 22.7344 31.992 22.3065 32.1753 21.8888C32.3383 21.5017 32.6847 21.3082 33.1533 21.3489H33.3571V21.5628C33.3265 22.1843 33.3469 22.2149 33.8665 22.4594H33.8563ZM46.224 40.145H25.6248V32.4737H46.224V40.145ZM46.2545 31.5365H29.9341V29.825L30.1684 29.8555C30.2499 29.8657 30.3314 29.8861 30.4129 29.8963C30.5657 29.9268 30.7185 29.9472 30.8713 29.9574C31.6863 29.988 32.3587 29.4888 32.6643 28.6941C33.2247 27.2475 33.7646 25.8212 34.2944 24.3644C34.4472 23.906 34.7324 23.8041 35.0992 23.8041H35.1094C37.3201 23.8143 39.5409 23.8143 41.7516 23.8143H42.913C43.8401 23.8143 44.268 23.3762 44.268 22.439C44.2781 19.7087 44.2781 16.9784 44.268 14.2482C44.268 13.3211 43.8299 12.8729 42.913 12.8729C39.2048 12.8627 35.5067 12.8627 31.8086 12.8729C30.9121 12.8729 30.4537 13.3211 30.4537 14.2074V22.5714C30.4537 22.5714 30.4435 22.6937 30.4435 22.714C30.7287 23.3253 30.5148 23.8245 30.3008 24.3135C30.2193 24.5071 30.1276 24.7108 30.0767 24.9247L30.0054 25.1998L27.0714 23.2642L27.2548 23.091C28.2531 22.1537 28.6199 21.1044 28.406 19.8921C28.2531 19.0669 27.8355 18.3843 27.1529 17.8648C25.7878 16.8154 23.8623 17.009 22.6806 18.2926C21.7637 19.291 21.2645 21.4304 23.0371 23.0808L23.2205 23.254L22.9251 23.4679C22.8537 23.5087 22.7926 23.5596 22.7315 23.5902C21.2034 24.558 20.4189 25.9639 20.3985 27.7467C20.3884 28.47 20.3884 29.1831 20.3985 29.9065V31.5263H18.412V12.1597C18.412 11.2225 18.7482 10.8863 19.6752 10.8863H45.0015C45.898 10.8863 46.2545 11.2327 46.2545 12.119V31.5365ZM33.2858 50.2103H31.3807V48.2644H33.2858V50.2103ZM36.882 50.2001H34.2129V48.6108C34.2027 47.8467 33.7442 47.3781 32.9903 47.3679C32.5625 47.3577 32.1244 47.3577 31.6965 47.3679C30.9325 47.3781 30.4638 47.8366 30.4537 48.6006V50.2103H27.7845V45.4119H36.882V50.2001ZM50.5741 40.145H47.1816V16.6423H48.0577C48.5977 16.6321 49.1478 16.6321 49.6877 16.6524C50.1665 16.683 50.4925 17.0192 50.5639 17.5591C50.5741 17.6406 50.5741 17.7323 50.5741 17.824V40.145ZM53.4469 39.7171C53.4469 39.768 53.4367 39.819 53.4266 39.8801L53.4062 40.1551H51.4604V17.987C51.4604 16.4589 50.7574 15.7356 49.2293 15.7356H47.1612V13.8305L47.3853 13.7897C47.3853 13.7897 47.4872 13.7592 47.5483 13.7592H48.4754C49.321 13.7592 50.1767 13.749 51.0223 13.7592C52.3772 13.7796 53.4368 14.8391 53.4368 16.1736C53.4469 22.2556 53.4469 28.3376 53.4469 34.4195V39.7171Z" fill="black"/>
<path d="M43.7076 35.856H41.3441C38.6546 35.856 35.9549 35.856 33.2653 35.8662H33.2552C32.9597 35.8662 32.7254 35.7847 32.5522 35.4485C32.216 34.7965 31.6557 34.4501 30.912 34.4399H30.8407C30.4943 34.4399 29.934 34.5112 29.6182 34.9595C29.2616 35.4689 28.8032 35.9986 27.8863 35.8967C27.815 35.8866 27.7641 35.9069 27.7131 35.9579C27.6214 36.0394 27.5807 36.182 27.5909 36.345C27.6113 36.5895 27.7437 36.7117 27.9984 36.7423C28.1919 36.7627 28.3651 36.7627 28.5179 36.7423H28.6198C28.9662 36.7423 29.1292 36.9562 29.2413 37.1702C29.5876 37.8324 30.1581 38.1788 30.8815 38.1889H30.8916C31.6455 38.1889 32.216 37.8324 32.5522 37.16C32.7356 36.8136 32.9597 36.7423 33.2552 36.7423H33.2653C34.3758 36.7525 35.476 36.7423 36.5763 36.7525H39.2251C40.7226 36.7525 42.2202 36.7525 43.7178 36.7423C43.9113 36.7423 44.0641 36.6914 44.166 36.5997C44.2373 36.5284 44.2679 36.4265 44.2679 36.3042C44.2679 35.9375 43.9113 35.8662 43.7076 35.856ZM30.9018 37.3026H30.8815C30.6268 37.3026 30.3721 37.1804 30.1887 36.9868C29.9951 36.7932 29.8933 36.5284 29.9035 36.2737C29.9136 36.0088 30.0257 35.7643 30.2295 35.5911C30.423 35.4077 30.6879 35.316 30.963 35.3364C31.5029 35.3568 31.9002 35.7949 31.8798 36.345C31.8595 36.8747 31.4214 37.3026 30.9018 37.3026Z" fill="black"/>
<path d="M22.3444 36.3144C22.3444 36.4163 22.3342 36.7321 21.8248 36.7423C21.7739 36.7525 21.7128 36.7423 21.6618 36.7423H21.4479C21.3766 36.7423 21.3053 36.7525 21.2339 36.7423C20.9487 36.7321 20.7551 36.5589 20.7551 36.3144C20.7551 36.0699 20.9385 35.8866 21.2339 35.856H21.8554C22.1712 35.8764 22.3546 36.0394 22.3444 36.3144Z" fill="black"/>
</g>
<defs>
<clipPath id="clip0_2325_1962">
<rect width="44" height="44.0001" fill="white" transform="translate(10.3333 9.99997)"/>
</clipPath>
</defs>
</svg>
