<svg width="64" height="64" viewBox="0 0 64 64" fill="none" xmlns="http://www.w3.org/2000/svg">
<rect width="64" height="64" rx="8" fill="#EAF3FF"/>
<g clip-path="url(#clip0_2350_5562)">
<path d="M21.5 54C21.05 53.75 20.94 53.37 21.02 52.88C21.29 50.97 22.7 49.68 24.63 49.62C25.4 49.6 26.18 49.62 26.95 49.6C27.14 49.6 27.37 49.5 27.51 49.37C28.2 48.71 28.88 48.03 29.54 47.33C29.67 47.19 29.78 46.96 29.78 46.78C29.79 38.07 29.79 29.36 29.78 20.65C29.78 20.54 29.77 20.43 29.76 20.3C29.65 20.29 29.55 20.26 29.45 20.26C27.29 20.27 25.12 20.26 22.96 20.31C22.04 20.33 21.16 20.6 20.29 21.01C20.36 21.19 20.43 21.35 20.5 21.52C22.76 26.46 25.02 31.41 27.3 36.34C27.58 36.94 27.62 37.51 27.49 38.13C27.01 40.45 25.08 42.18 22.73 42.24C20.07 42.3 17.4 42.31 14.74 42.24C12.2 42.15 10.06 39.91 10 37.38C10 37.08 10.09 36.76 10.22 36.48C12.5 31.48 14.79 26.49 17.08 21.5C17.14 21.37 17.19 21.24 17.26 21.07C16.69 20.78 16.14 20.5 15.53 20.19C15.74 19.76 15.95 19.35 16.18 18.88C16.75 19.16 17.29 19.43 17.86 19.71C18.11 19.37 18.17 18.84 18.74 18.81C19.31 18.78 19.45 19.25 19.67 19.65C20.07 19.51 20.45 19.31 20.85 19.24C21.87 19.06 22.9 18.85 23.94 18.81C25.71 18.74 27.49 18.79 29.27 18.79C29.42 18.79 29.58 18.79 29.76 18.79V17.33H28.34V15.86H29.58C29.41 15.18 29.25 14.56 29.1 13.93C28.75 12.52 29.18 11.31 30.29 10.52C31.3 9.80996 32.65 9.81996 33.72 10.54C34.76 11.24 35.21 12.52 34.89 13.89C34.74 14.53 34.57 15.16 34.4 15.84H35.62V17.31H34.23V18.79C34.38 18.79 34.54 18.79 34.71 18.79C36.76 18.8 38.81 18.81 40.85 18.83C41.91 18.84 42.92 19.1 43.89 19.5C44.02 19.55 44.15 19.6 44.28 19.65C44.86 18.4 45.69 18.62 46.1 19.71C46.65 19.44 47.19 19.17 47.79 18.88C48.01 19.31 48.21 19.73 48.44 20.18C47.86 20.47 47.3 20.75 46.7 21.06C49.13 26.38 51.56 31.68 53.99 36.98V37.75C53.96 37.81 53.93 37.88 53.92 37.94C53.51 40.35 51.57 42.16 49.14 42.22C46.51 42.29 43.87 42.29 41.24 42.22C38.89 42.16 36.95 40.41 36.49 38.1C36.37 37.5 36.39 36.94 36.66 36.35C38.96 31.39 41.23 26.42 43.5 21.46C43.57 21.31 43.62 21.16 43.69 20.99C42.79 20.59 41.9 20.31 40.96 20.3C38.8 20.26 36.64 20.27 34.47 20.25C34.39 20.25 34.31 20.28 34.21 20.29C34.21 20.4 34.18 20.5 34.18 20.6C34.18 29.32 34.18 38.05 34.18 46.77C34.18 46.96 34.29 47.19 34.42 47.32C35.08 48.01 35.76 48.69 36.45 49.36C36.59 49.49 36.82 49.58 37.01 49.58C37.78 49.61 38.56 49.58 39.33 49.6C41.26 49.66 42.66 50.95 42.94 52.86C43.01 53.36 42.9 53.73 42.46 53.98H21.5V54ZM25.68 36.37C25.63 36.24 25.6 36.16 25.56 36.08C23.41 31.39 21.26 26.7 19.1 22.01C19.04 21.88 18.87 21.72 18.76 21.73C18.64 21.73 18.5 21.91 18.44 22.04C16.3 26.69 14.17 31.34 12.04 36C11.99 36.11 11.95 36.23 11.89 36.37H25.67H25.68ZM38.3 36.35H52.09C52.01 36.17 51.95 36.02 51.88 35.88C50.61 33.1 49.33 30.32 48.06 27.53C47.21 25.67 46.36 23.81 45.5 21.96C45.45 21.85 45.31 21.71 45.23 21.72C45.11 21.73 45 21.86 44.89 21.95C44.85 21.98 44.84 22.05 44.81 22.1C42.69 26.71 40.58 31.33 38.47 35.94C38.41 36.07 38.36 36.2 38.3 36.34V36.35ZM32.69 46.64V20.29H31.29V46.65H32.69V46.64ZM26 37.87H11.58C11.75 39.31 13.19 40.71 14.69 40.74C17.42 40.79 20.16 40.79 22.9 40.74C24.37 40.71 25.79 39.33 26 37.87ZM52.42 37.87H37.99C37.99 37.96 37.99 38.03 38.01 38.09C38.33 39.47 39.73 40.72 41.15 40.74C43.83 40.79 46.51 40.79 49.18 40.74C50.75 40.71 52.11 39.45 52.42 37.86V37.87ZM41.39 52.51C41.31 52.35 41.27 52.22 41.19 52.11C40.73 51.4 40.08 51.07 39.24 51.07C34.4 51.07 29.56 51.07 24.72 51.07C24.62 51.07 24.52 51.07 24.42 51.08C23.57 51.16 22.78 51.8 22.65 52.52H41.38L41.39 52.51ZM31.97 15.85C32.13 15.85 32.29 15.83 32.44 15.85C32.8 15.91 32.94 15.74 33.01 15.41C33.15 14.74 33.34 14.08 33.49 13.41C33.65 12.72 33.41 12.12 32.87 11.76C32.33 11.4 31.64 11.4 31.1 11.76C30.56 12.12 30.33 12.72 30.49 13.41C30.61 13.94 30.75 14.46 30.88 14.99C31.02 15.5566 31.3833 15.84 31.97 15.84V15.85ZM29.37 49.58H34.56C33.81 48.78 33.23 47.85 31.94 48.13C31.67 48.19 31.37 48.13 31.08 48.14C30.97 48.14 30.83 48.14 30.76 48.21C30.31 48.64 29.87 49.08 29.36 49.58H29.37ZM32.69 18.77V17.35H31.28V18.77H32.69Z" fill="black"/>
</g>
<defs>
<clipPath id="clip0_2350_5562">
<rect width="44" height="44" fill="white" transform="translate(10 10)"/>
</clipPath>
</defs>
</svg>
