<svg width="64" height="64" viewBox="0 0 64 64" fill="none" xmlns="http://www.w3.org/2000/svg">
<rect width="64" height="64" rx="8" fill="#EAF3FF"/>
<g clip-path="url(#clip0_2350_5501)">
<path d="M24.6559 43.7237H28.3199C28.3199 43.5528 28.3199 43.3926 28.3199 43.2323C28.3199 41.7475 28.3199 40.2734 28.3199 38.7885C28.3199 38.1262 28.5763 37.8699 29.2279 37.8699C31.0652 37.8699 32.8919 37.8699 34.7292 37.8699C35.4022 37.8699 35.6479 38.1262 35.6479 38.8206C35.6479 40.4336 35.6479 42.0573 35.6479 43.7024H38.5748C38.5748 43.4246 38.5748 43.1469 38.5748 42.8798C38.5748 41.5018 38.5748 40.1345 38.5748 38.7565C38.5748 38.1262 38.8419 37.8699 39.4721 37.8699C41.3201 37.8699 43.1682 37.8699 45.0162 37.8699C45.6464 37.8699 45.9028 38.1369 45.9028 38.7672C45.9028 40.4016 45.9028 42.0359 45.9028 43.7344C46.1592 43.7344 46.3942 43.7344 46.6292 43.7344C47.8042 43.7878 49.0006 43.7024 50.133 43.9374C52.5044 44.4394 54.0854 46.7147 53.9572 49.1823C53.829 51.5431 52.013 53.562 49.6629 53.9145C49.3745 53.9573 49.0861 53.9893 48.7977 53.9893C37.5921 53.9893 26.3757 53.9893 15.1701 53.9893C12.1791 53.9893 9.89311 51.6072 9.98925 48.6375C10.0747 46.0204 12.2539 43.8305 14.871 43.7344C15.6615 43.7024 16.452 43.7344 17.3066 43.7344C17.3066 43.5421 17.3066 43.3819 17.3066 43.2217C17.3066 41.7368 17.3066 40.2627 17.3066 38.7779C17.3066 38.1262 17.5629 37.8699 18.2252 37.8699C20.0626 37.8699 21.8892 37.8699 23.7266 37.8699C24.3782 37.8699 24.6345 38.1262 24.6345 38.7885C24.6345 40.252 24.6345 41.7261 24.6345 43.1896C24.6345 43.3498 24.6345 43.5208 24.6345 43.7237H24.6559ZM32.0053 45.1979C28.2665 45.1979 24.5277 45.1979 20.7783 45.1979C18.8662 45.1979 16.9647 45.1765 15.0526 45.1979C12.7559 45.2299 11.0895 47.3236 11.5275 49.5669C11.8693 51.3401 13.3648 52.5152 15.2983 52.5152C26.4185 52.5152 37.528 52.5152 48.6481 52.5152C48.7656 52.5152 48.8938 52.5152 49.0113 52.5152C50.9128 52.4297 52.4617 50.8381 52.4937 48.9366C52.5258 46.8429 50.9021 45.1979 48.7656 45.1872C43.1788 45.1872 37.5921 45.1872 31.9946 45.1872L32.0053 45.1979ZM23.1497 43.713V39.3654H21.6969V40.7647H20.2228V39.3547H18.8021V43.713H23.139H23.1497ZM29.7941 43.7024H34.1417V39.3547H32.6996V40.7647H31.2148V39.3547H29.7941V43.7024ZM41.4911 39.3654H40.0703V43.7024H44.4073V39.3547H42.9652V40.7647H41.4911V39.3547V39.3654Z" fill="black"/>
<path d="M31.2575 24.6133C29.965 24.9658 29.73 24.1432 29.5911 23.1605C29.292 23.3421 29.0463 23.4809 28.8006 23.6305C28.4374 23.8441 28.0956 23.8121 27.7965 23.513C27.1342 22.8614 26.4826 22.1991 25.8203 21.5368C25.5105 21.227 25.4785 20.8745 25.7028 20.5006C25.8417 20.2656 25.9805 20.0306 26.1408 19.7635C25.8417 19.6781 25.5853 19.6033 25.3182 19.5392C24.8696 19.4324 24.6453 19.1653 24.6453 18.6953C24.6453 17.798 24.6453 16.89 24.6453 15.9927C24.6453 15.4693 24.8269 15.2663 25.3396 15.1275C25.5639 15.074 25.7776 15.01 26.0019 14.9459C26.0339 14.9459 26.0553 14.9245 26.1194 14.8818C25.9699 14.6361 25.8203 14.3904 25.6814 14.1447C25.4678 13.7815 25.4892 13.4397 25.7883 13.1406C26.4399 12.4783 27.1022 11.8267 27.7645 11.1644C28.0742 10.8546 28.4268 10.8225 28.8006 11.0469C29.0356 11.1857 29.2707 11.3246 29.5484 11.4848C29.6232 11.1857 29.6979 10.9294 29.762 10.673C29.9009 10.1709 30.1146 10 30.6487 10C31.5353 10 32.4219 10 33.3085 10C33.832 10 34.0349 10.1709 34.1738 10.6943C34.2379 10.94 34.302 11.1964 34.3874 11.4955C34.6011 11.3673 34.7934 11.2498 34.9856 11.1323C35.5625 10.7798 35.8082 10.8012 36.2782 11.2712C36.8657 11.848 37.4425 12.4355 38.0301 13.0231C38.4787 13.4824 38.5108 13.7174 38.1796 14.2729C38.0621 14.4652 37.9446 14.6681 37.8057 14.9031C38.1155 14.9886 38.3826 15.0634 38.6603 15.1275C39.0876 15.2343 39.3012 15.512 39.3012 15.9607C39.3012 16.858 39.3012 17.766 39.3012 18.6633C39.3012 19.1546 39.0876 19.4324 38.6069 19.5392C38.3505 19.5926 38.1048 19.6674 37.8057 19.7529C37.9553 20.0092 38.0835 20.2442 38.2223 20.4686C38.4787 20.8852 38.4253 21.2377 38.0835 21.5795C37.4532 22.1991 36.8337 22.84 36.2034 23.4596C35.8295 23.8335 35.5518 23.8548 35.0925 23.5878C34.8681 23.4596 34.6545 23.3207 34.3554 23.1498C34.2272 24.1326 33.9601 24.9551 32.689 24.6239C32.689 25.1474 32.6676 25.6067 32.6996 26.0554C32.6996 26.1729 32.8599 26.3224 32.9881 26.3865C33.7038 26.8031 34.1845 27.4227 34.1311 28.2452C34.0563 29.2707 34.3554 30.1039 35.007 30.8303C35.68 31.5781 35.7013 32.2938 35.1565 33.1377C34.7506 33.7572 34.4836 34.4729 34.1417 35.1352C33.896 35.6159 33.5008 35.7762 33.0949 35.5732C32.689 35.3702 32.5821 34.9643 32.8278 34.4729C33.1803 33.7572 33.5542 33.0629 33.8854 32.3365C33.9601 32.1763 33.9281 31.9412 33.864 31.7703C33.4474 30.7876 32.7637 30.3389 31.6314 30.4885C31.108 30.5632 30.7982 30.6914 30.4564 31.1187C29.933 31.781 29.8795 32.3365 30.3496 33.0202C30.6593 33.4688 30.8623 33.9922 31.0973 34.4836C31.3323 34.9643 31.2148 35.3809 30.7982 35.5732C30.4137 35.7548 30.0184 35.6052 29.7834 35.1459C29.3241 34.2379 28.8754 33.3193 28.4054 32.4006C28.2452 32.0801 28.2558 31.7917 28.4588 31.4926C28.5977 31.2896 28.7152 31.076 28.8647 30.8837C29.495 30.1039 29.8582 29.2707 29.7727 28.2132C29.7086 27.4013 30.2107 26.7924 30.9264 26.3651C31.0546 26.2904 31.1828 26.0874 31.1935 25.9272C31.2362 25.5212 31.2041 25.1046 31.2041 24.5919L31.2575 24.6133ZM36.7375 20.8531C36.7375 20.8531 36.7375 20.789 36.7162 20.7677C36.5346 20.4472 36.3423 20.1374 36.1607 19.8276C35.7761 19.1653 35.9577 18.7167 36.6948 18.5244C37.0793 18.4283 37.4532 18.3321 37.8378 18.236V16.4414C37.4105 16.3345 37.0153 16.2491 36.62 16.1316C36.0004 15.9607 35.8082 15.4907 36.1179 14.9352C36.3209 14.5613 36.5559 14.1981 36.7375 13.899C36.2995 13.4504 35.8829 13.0337 35.4557 12.6065C35.1245 12.7987 34.7827 13.0124 34.4195 13.2153C33.832 13.5465 33.3726 13.3435 33.2017 12.7026C33.0949 12.2967 32.9987 11.8908 32.8919 11.4955H31.108C31.0546 11.7092 31.0012 11.9014 30.9584 12.0937C30.905 12.2967 30.8623 12.5103 30.7982 12.7133C30.6166 13.3542 30.1573 13.5465 29.5698 13.2153C29.2066 13.0017 28.8434 12.7881 28.5443 12.5958C28.0849 13.0444 27.6683 13.4397 27.241 13.8456C27.4547 14.1981 27.6683 14.5506 27.8713 14.9138C28.2024 15.5013 28.0208 15.9607 27.3692 16.1423C26.9633 16.2598 26.5574 16.3559 26.1515 16.4521V18.236C26.5467 18.3428 26.9313 18.4389 27.3158 18.5351C28.0315 18.7274 28.2238 19.1653 27.8499 19.8063C27.647 20.1588 27.4333 20.5113 27.241 20.8318C27.679 21.2804 28.0849 21.6863 28.5015 22.1136C28.6831 22.0068 28.8647 21.9 29.0463 21.7932C29.2279 21.6863 29.4095 21.5688 29.5911 21.462C30.1466 21.1522 30.6166 21.3445 30.7875 21.9641C30.905 22.37 30.9905 22.7866 31.0973 23.2032H32.8812C32.9881 22.7866 33.0842 22.37 33.2017 21.9641C33.3726 21.3445 33.832 21.1629 34.3981 21.4727C34.772 21.6756 35.1352 21.9 35.4877 22.1136C35.915 21.6863 36.3209 21.2804 36.7375 20.8745V20.8531ZM32.721 29.0464C32.6996 28.5336 32.8919 27.9782 32.3258 27.7111C32.1228 27.615 31.7596 27.6363 31.578 27.7645C31.108 28.0743 31.2789 28.587 31.2896 29.0464H32.721Z" fill="black"/>
<path d="M40.7861 16.6016V15.1595C40.893 15.1595 40.9784 15.1382 41.0639 15.1382C44.621 15.1382 48.1782 15.1382 51.7354 15.1382C52.7395 15.1382 53.5727 15.7471 53.8611 16.6551C54.1496 17.563 53.8611 18.5672 53.0707 19.0906C52.6861 19.3363 52.1734 19.4965 51.714 19.5286C50.539 19.5927 49.3639 19.5499 48.1569 19.5499C48.1355 19.6568 48.1141 19.7636 48.1141 19.8597C48.1141 21.1629 48.1141 22.4555 48.1141 23.7587C48.1141 23.9083 48.2423 24.1219 48.3705 24.1967C49.1396 24.6453 49.5989 25.297 49.5455 26.1729C49.4814 27.0916 49.7912 27.7966 50.304 28.523C51.2974 29.9437 51.2226 29.5592 50.4749 31.1188C50.1758 31.7383 49.866 32.3472 49.5562 32.9561C49.3105 33.4368 48.9046 33.597 48.5094 33.3834C48.1141 33.1804 48.0073 32.7745 48.253 32.2831C48.6055 31.5674 48.9473 30.8624 49.3212 30.1574C49.4387 29.933 49.3853 29.7835 49.2892 29.5805C48.8298 28.5657 48.1141 28.1598 46.9925 28.32C46.5011 28.3841 46.2127 28.523 45.8922 28.9182C45.3474 29.6019 45.294 30.1894 45.7961 30.9051C46.0952 31.3324 46.2875 31.8452 46.5225 32.3259C46.7468 32.8066 46.6293 33.2232 46.2127 33.4154C45.8281 33.597 45.4436 33.4368 45.2086 32.9775C44.7492 32.0802 44.3113 31.1722 43.8519 30.2749C43.6703 29.9224 43.6917 29.6019 43.916 29.2921C44.0442 29.1212 44.1403 28.9289 44.2792 28.758C44.9095 27.9675 45.3047 27.1236 45.2192 26.0447C45.1445 25.2542 45.6465 24.6453 46.3409 24.2287C46.4691 24.154 46.64 24.0151 46.64 23.8976C46.6613 22.4662 46.6507 21.0348 46.6507 19.5713H40.8289V18.0865C40.9784 18.0865 41.1386 18.0865 41.2989 18.0865C44.6851 18.0865 48.0821 18.0865 51.4683 18.0865C51.6179 18.0865 51.7781 18.0972 51.9277 18.0651C52.2909 17.9797 52.5152 17.734 52.5152 17.3494C52.5152 16.9648 52.2909 16.7191 51.917 16.6444C51.7674 16.6123 51.6179 16.623 51.4577 16.623C48.0821 16.623 44.7065 16.623 41.3309 16.623H40.7861V16.6016ZM48.1034 26.8459C48.0928 26.3652 48.2744 25.8418 47.7723 25.5533C47.5693 25.4358 47.1848 25.4358 46.9818 25.5533C46.4797 25.8418 46.672 26.3652 46.6613 26.8459H48.1034Z" fill="black"/>
<path d="M23.0855 18.0651V19.5072H17.3278C17.3278 20.02 17.3278 20.49 17.3278 20.96C17.3278 21.8573 17.3278 22.7653 17.3278 23.6626C17.3278 23.9404 17.3919 24.0899 17.6483 24.2288C18.364 24.6027 18.834 25.2436 18.7699 26.0341C18.6845 27.0916 19.0263 27.9462 19.6886 28.7046C20.3189 29.4203 20.3295 30.0933 19.8168 30.8838C19.4109 31.5247 19.1224 32.2404 18.7806 32.9241C18.5349 33.4155 18.1504 33.5757 17.7444 33.3834C17.3278 33.1805 17.221 32.7745 17.4774 32.2511C17.8085 31.5781 18.1397 30.9158 18.4815 30.2429C18.5242 30.1467 18.5883 30.0506 18.6204 29.9544C18.7058 29.6447 17.7017 28.3307 17.3812 28.3307C17.2424 28.3307 17.1035 28.3521 16.9646 28.3307C15.843 28.085 15.1166 28.5764 14.6893 29.5912C14.6252 29.7622 14.6039 29.9972 14.668 30.1574C14.9884 30.8624 15.3516 31.5568 15.6935 32.2511C15.9498 32.7745 15.8537 33.1805 15.4371 33.3834C15.0205 33.5864 14.6466 33.4155 14.3795 32.8814C13.9416 32.0268 13.5357 31.1508 13.087 30.3069C12.8734 29.901 12.8947 29.5592 13.1725 29.2067C13.322 29.0144 13.4288 28.7901 13.5784 28.5978C14.1873 27.8714 14.4864 27.0702 14.4116 26.0875C14.3582 25.2543 14.8282 24.624 15.5653 24.1967C15.6828 24.122 15.843 23.9724 15.843 23.8549C15.8644 22.4342 15.8537 21.0134 15.8537 19.5393C15.3516 19.5393 14.8709 19.5393 14.3795 19.5393C13.6211 19.5393 12.852 19.5607 12.0936 19.5393C10.9185 19.4859 9.98916 18.4924 9.99985 17.3067C10.0105 16.1423 10.9506 15.1489 12.1149 15.1489C15.7362 15.1275 19.3575 15.1489 22.968 15.1489C23.0108 15.1489 23.0535 15.1596 23.139 15.1703V16.6124H22.5942C19.2506 16.6124 15.9071 16.6124 12.5636 16.6124C12.414 16.6124 12.2538 16.6017 12.1042 16.623C11.709 16.6978 11.474 16.9435 11.474 17.3494C11.474 17.7554 11.709 18.001 12.1042 18.0758C12.2538 18.1079 12.414 18.0865 12.5636 18.0865C15.8964 18.0865 19.2186 18.0865 22.5514 18.0865H23.0855V18.0651ZM17.3172 26.8459C17.2958 26.3332 17.4881 25.7777 16.9326 25.5106C16.7296 25.4145 16.3664 25.4359 16.1742 25.5534C15.6935 25.8632 15.8751 26.3759 15.8751 26.8459H17.3065H17.3172Z" fill="black"/>
<path d="M19.5284 48.8724C19.5177 50.0902 18.5136 51.073 17.2958 51.0623C16.0994 51.0409 15.1273 50.0475 15.138 48.8511C15.138 47.6333 16.1422 46.6505 17.3706 46.6612C18.5563 46.6612 19.5391 47.676 19.5284 48.8724ZM17.3386 49.5988C17.7338 49.5988 18.0543 49.257 18.0543 48.8724C18.0543 48.4665 17.7018 48.1247 17.2851 48.146C16.8899 48.1674 16.5801 48.5092 16.5908 48.9045C16.6015 49.2997 16.9433 49.6202 17.3279 49.6095L17.3386 49.5988Z" fill="black"/>
<path d="M24.6879 46.672C25.8736 46.672 26.8671 47.6868 26.8564 48.8725C26.8564 50.0903 25.8416 51.073 24.6238 51.0623C23.4274 51.0517 22.4553 50.0582 22.4553 48.8618C22.4553 47.644 23.4594 46.6613 24.6879 46.672ZM24.6238 49.5989C25.019 49.6202 25.3609 49.3105 25.3929 48.9152C25.425 48.5093 25.0831 48.1461 24.6772 48.1354C24.282 48.1354 23.9508 48.4452 23.9401 48.8404C23.9295 49.2357 24.2392 49.5775 24.6345 49.5989H24.6238Z" fill="black"/>
<path d="M34.1843 48.8618C34.1843 50.0796 33.1909 51.073 31.9731 51.0623C30.7767 51.0623 29.7939 50.0689 29.7939 48.8725C29.7939 47.6547 30.7874 46.6613 32.0052 46.672C33.2016 46.672 34.1843 47.6654 34.1843 48.8618ZM32.7209 48.8511C32.7102 48.4559 32.3684 48.1354 31.9838 48.1461C31.5886 48.1461 31.2681 48.4879 31.2681 48.8725C31.2681 49.2891 31.6206 49.6202 32.0372 49.5989C32.4324 49.5775 32.7422 49.2357 32.7316 48.8404L32.7209 48.8511Z" fill="black"/>
<path d="M39.312 46.6721C40.5084 46.6721 41.5019 47.6442 41.5125 48.8406C41.5125 50.0691 40.5405 51.0625 39.3227 51.0732C38.1263 51.0732 37.1328 50.1011 37.1222 48.9047C37.1115 47.6869 38.0942 46.6828 39.312 46.6721ZM39.3334 49.599C39.7286 49.599 40.0491 49.2572 40.0491 48.862C40.0491 48.456 39.6859 48.1142 39.28 48.1356C38.8847 48.1569 38.5749 48.4988 38.5856 48.894C38.607 49.2893 38.9381 49.6097 39.3334 49.599Z" fill="black"/>
<path d="M48.8511 48.8513C48.8511 50.0797 47.8683 51.0732 46.6505 51.0625C45.4541 51.0625 44.4714 50.0797 44.4607 48.8833C44.4607 47.6656 45.4435 46.6721 46.6612 46.6721C47.8576 46.6721 48.8511 47.6549 48.8511 48.8513ZM46.6612 49.599C47.0565 49.599 47.3769 49.2679 47.3876 48.8727C47.3876 48.4667 47.0351 48.1249 46.6292 48.1356C46.2339 48.1463 45.9135 48.4881 45.9242 48.8833C45.9242 49.2786 46.266 49.599 46.6612 49.599Z" fill="black"/>
<path d="M31.9947 14.4011C33.6184 14.4011 34.9216 15.7257 34.9109 17.3601C34.9109 18.9731 33.565 20.287 31.9413 20.2657C30.3389 20.255 29.0464 18.9304 29.0464 17.3387C29.0464 15.715 30.371 14.4011 31.984 14.4011H31.9947ZM30.5205 17.3387C30.5205 18.1399 31.1721 18.7915 31.9733 18.8022C32.7638 18.8022 33.4368 18.1506 33.4475 17.3601C33.4475 16.5376 32.7852 15.8646 31.9733 15.8753C31.1721 15.8753 30.5205 16.5482 30.5205 17.3387Z" fill="black"/>
</g>
<defs>
<clipPath id="clip0_2350_5501">
<rect width="44" height="44" fill="white" transform="translate(10 10)"/>
</clipPath>
</defs>
</svg>
