<?xml version="1.0" encoding="UTF-8"?>
<svg xmlns="http://www.w3.org/2000/svg" version="1.1" xmlns:xlink="http://www.w3.org/1999/xlink" viewBox="0 0 1083.8 788.5">
  <defs>
    <style>
      .cls-1 {
        fill: url(#linear-gradient-61);
      }

      .cls-2 {
        fill: url(#linear-gradient-15);
      }

      .cls-3 {
        fill: url(#linear-gradient-28);
      }

      .cls-4 {
        opacity: .9;
      }

      .cls-4, .cls-5, .cls-6, .cls-7, .cls-8, .cls-9, .cls-10, .cls-11, .cls-12, .cls-13, .cls-14, .cls-15 {
        fill: #fff;
      }

      .cls-16 {
        fill: url(#linear-gradient-65);
      }

      .cls-17 {
        fill: #127bca;
      }

      .cls-18 {
        fill: #0098f2;
      }

      .cls-19 {
        fill: url(#linear-gradient-53);
      }

      .cls-20 {
        fill: url(#linear-gradient-42);
      }

      .cls-21 {
        fill: url(#linear-gradient-46);
      }

      .cls-22 {
        mask: url(#mask-5);
      }

      .cls-5 {
        opacity: .6;
      }

      .cls-23 {
        fill: #3092c4;
      }

      .cls-24 {
        fill: #fbc5c4;
      }

      .cls-25 {
        fill: url(#linear-gradient-60);
      }

      .cls-6 {
        opacity: .7;
      }

      .cls-26 {
        fill: url(#linear-gradient-2);
      }

      .cls-27 {
        fill: url(#linear-gradient-13);
      }

      .cls-27, .cls-28, .cls-29, .cls-30, .cls-31 {
        mix-blend-mode: multiply;
      }

      .cls-32 {
        mask: url(#mask-1);
      }

      .cls-33 {
        fill: url(#linear-gradient-64);
      }

      .cls-34 {
        fill: url(#linear-gradient-56);
      }

      .cls-7 {
        opacity: 1;
      }

      .cls-35 {
        fill: url(#linear-gradient-43);
      }

      .cls-36 {
        fill: url(#linear-gradient-25);
      }

      .cls-37 {
        fill: url(#linear-gradient-10);
      }

      .cls-38 {
        fill: url(#linear-gradient-12);
      }

      .cls-39 {
        fill: url(#linear-gradient-40);
      }

      .cls-40 {
        fill: url(#linear-gradient-27);
      }

      .cls-41 {
        fill: #125a9e;
      }

      .cls-42 {
        mask: url(#mask-6);
      }

      .cls-43 {
        fill: url(#linear-gradient-37);
      }

      .cls-44 {
        mask: url(#mask-7);
      }

      .cls-45 {
        fill: #b0342d;
      }

      .cls-46 {
        fill: url(#linear-gradient-55);
      }

      .cls-47 {
        filter: url(#luminosity-noclip-5);
      }

      .cls-48 {
        mask: url(#mask);
      }

      .cls-49 {
        fill: url(#linear-gradient-39);
      }

      .cls-50 {
        fill: #1d60b5;
      }

      .cls-51 {
        fill: url(#linear-gradient-52);
      }

      .cls-9 {
        opacity: .5;
      }

      .cls-52 {
        fill: url(#linear-gradient-58);
      }

      .cls-53 {
        fill: url(#linear-gradient-47);
      }

      .cls-54 {
        fill: url(#linear-gradient-26);
      }

      .cls-55 {
        fill: url(#linear-gradient-4);
      }

      .cls-56 {
        fill: #5d7ce6;
      }

      .cls-57 {
        fill: url(#linear-gradient-35);
      }

      .cls-58 {
        fill: #feb6b4;
      }

      .cls-59 {
        fill: url(#linear-gradient-30);
      }

      .cls-60 {
        fill: #1969bc;
      }

      .cls-61 {
        mask: url(#mask-8);
      }

      .cls-62 {
        mask: url(#mask-2);
      }

      .cls-63 {
        filter: url(#luminosity-noclip-3);
      }

      .cls-64 {
        fill: #8767aa;
      }

      .cls-65 {
        fill: #175fab;
      }

      .cls-10 {
        opacity: .8;
      }

      .cls-66 {
        fill: url(#linear-gradient-44);
      }

      .cls-67 {
        mask: url(#mask-9);
      }

      .cls-68 {
        fill: url(#linear-gradient-49);
      }

      .cls-69 {
        fill: url(#linear-gradient-34);
      }

      .cls-70 {
        fill: #a7a9ac;
        opacity: .2;
      }

      .cls-71 {
        fill: url(#linear-gradient-5);
      }

      .cls-72 {
        fill: url(#linear-gradient-38);
      }

      .cls-73 {
        fill: url(#linear-gradient-22);
      }

      .cls-74 {
        fill: url(#linear-gradient-24);
      }

      .cls-75 {
        fill: #6a5588;
      }

      .cls-76 {
        fill: url(#linear-gradient-54);
      }

      .cls-11 {
        opacity: .5;
      }

      .cls-77 {
        fill: url(#linear-gradient-33);
      }

      .cls-78 {
        fill: url(#linear-gradient-51);
      }

      .cls-79 {
        fill: url(#linear-gradient-8);
      }

      .cls-80 {
        fill: url(#linear-gradient-66);
      }

      .cls-81 {
        fill: url(#linear-gradient-57);
      }

      .cls-82 {
        fill: #7dcbec;
      }

      .cls-83 {
        fill: url(#linear-gradient-14);
      }

      .cls-84 {
        fill: url(#linear-gradient-62);
      }

      .cls-85 {
        fill: #8fffe7;
      }

      .cls-86 {
        filter: url(#luminosity-noclip-9);
      }

      .cls-87 {
        fill: url(#linear-gradient-29);
      }

      .cls-88 {
        fill: #05a1e6;
      }

      .cls-89 {
        fill: url(#linear-gradient-20);
      }

      .cls-90 {
        fill: url(#linear-gradient-67);
      }

      .cls-91 {
        fill: url(#linear-gradient-17);
      }

      .cls-92 {
        fill: url(#linear-gradient-50);
      }

      .cls-93 {
        fill: url(#linear-gradient-9);
      }

      .cls-28 {
        fill: url(#linear-gradient-11);
      }

      .cls-94 {
        fill: url(#linear-gradient-59);
      }

      .cls-95 {
        fill: #3f3b4d;
      }

      .cls-96 {
        fill: #2b74b1;
      }

      .cls-97 {
        fill: #191919;
      }

      .cls-29 {
        fill: url(#linear-gradient-3);
      }

      .cls-98 {
        fill: url(#linear-gradient-19);
      }

      .cls-99 {
        fill: url(#linear-gradient-6);
      }

      .cls-100 {
        fill: #fefeff;
      }

      .cls-101 {
        fill: #fcc7c6;
      }

      .cls-102 {
        fill: url(#linear-gradient-36);
      }

      .cls-103 {
        fill: url(#linear-gradient-21);
      }

      .cls-104 {
        fill: url(#linear-gradient-45);
      }

      .cls-105 {
        fill: #f5f5f5;
      }

      .cls-12 {
        opacity: .8;
      }

      .cls-106 {
        fill: #14559a;
      }

      .cls-107 {
        fill: #6c82ed;
      }

      .cls-108 {
        fill: #f8f8ff;
      }

      .cls-109 {
        mask: url(#mask-4);
      }

      .cls-110 {
        fill: #fbc9c8;
      }

      .cls-30 {
        fill: url(#linear-gradient);
      }

      .cls-111 {
        fill: url(#linear-gradient-48);
      }

      .cls-112 {
        fill: url(#linear-gradient-32);
      }

      .cls-113 {
        fill: url(#linear-gradient-41);
      }

      .cls-13 {
        opacity: .7;
      }

      .cls-114 {
        fill: url(#linear-gradient-16);
      }

      .cls-115 {
        fill: #a1ebce;
      }

      .cls-116 {
        fill: #5ec5ed;
      }

      .cls-117 {
        fill: #0d82ca;
      }

      .cls-14 {
        opacity: .9;
      }

      .cls-118 {
        fill: url(#linear-gradient-23);
      }

      .cls-119 {
        fill: url(#linear-gradient-31);
      }

      .cls-120 {
        filter: url(#luminosity-noclip-7);
      }

      .cls-15 {
        opacity: .6;
      }

      .cls-121 {
        fill: url(#linear-gradient-63);
      }

      .cls-122 {
        fill: #079ae1;
      }

      .cls-123 {
        fill: #1e5cb3;
      }

      .cls-124 {
        fill: url(#linear-gradient-18);
      }

      .cls-125 {
        mask: url(#mask-3);
      }

      .cls-126 {
        filter: url(#luminosity-noclip);
      }

      .cls-31 {
        fill: url(#linear-gradient-7);
      }
    </style>
    <filter id="luminosity-noclip" x="856.3" y="243.3" width="177" height="177" color-interpolation-filters="sRGB" filterUnits="userSpaceOnUse">
      <feFlood flood-color="#fff" result="bg"/>
      <feBlend in="SourceGraphic" in2="bg"/>
    </filter>
    <filter id="luminosity-noclip-2" x="856.3" y="-8604.8" width="177" height="32766" color-interpolation-filters="sRGB" filterUnits="userSpaceOnUse">
      <feFlood flood-color="#fff" result="bg"/>
      <feBlend in="SourceGraphic" in2="bg"/>
    </filter>
    <mask id="mask-1" x="856.3" y="-8604.8" width="177" height="32766" maskUnits="userSpaceOnUse"/>
    <linearGradient id="linear-gradient" x1="874.6" y1="331.8" x2="1037.6" y2="331.8" gradientUnits="userSpaceOnUse">
      <stop offset="0" stop-color="gray"/>
      <stop offset="0" stop-color="#888"/>
      <stop offset="0" stop-color="#a8a8a8"/>
      <stop offset=".1" stop-color="#c3c3c3"/>
      <stop offset=".2" stop-color="#d9d9d9"/>
      <stop offset=".3" stop-color="#eaeaea"/>
      <stop offset=".4" stop-color="#f6f6f6"/>
      <stop offset=".6" stop-color="#fdfdfd"/>
      <stop offset="1" stop-color="#fff"/>
    </linearGradient>
    <mask id="mask" x="856.3" y="243.3" width="177" height="177" maskUnits="userSpaceOnUse">
      <g class="cls-126">
        <g class="cls-32">
          <path class="cls-30" d="M1033.4,339.5v-15.4l-18.7-2.2c-.8-5.7-2.3-11.3-4.4-16.5l15.1-11.2-7.7-13.3-17.3,7.5c-3.5-4.5-7.6-8.5-12.1-12.1l7.5-17.3-13.3-7.7-11.2,15.1c-5.2-2.1-10.7-3.6-16.5-4.4l-2.2-18.7h-15.4l-2.2,18.7c-5.7.8-11.3,2.3-16.5,4.4l-11.2-15.1-13.3,7.7,7.5,17.3c-4.5,3.5-8.5,7.6-12.1,12.1l-17.3-7.5-7.7,13.3,15.1,11.2c-2.1,5.2-3.6,10.7-4.4,16.5l-18.7,2.2v15.4l18.7,2.2c.8,5.7,2.3,11.3,4.4,16.5l-15.1,11.2,7.7,13.3,17.3-7.5c3.5,4.5,7.6,8.5,12.1,12.1l-7.5,17.3,13.3,7.7,11.2-15.1c5.2,2.1,10.7,3.6,16.5,4.4l2.2,18.7h15.4l2.2-18.7c5.7-.8,11.3-2.3,16.5-4.4l11.2,15.1,13.3-7.7-7.5-17.3c4.5-3.5,8.5-7.6,12.1-12.1l17.3,7.5,7.7-13.3-15.1-11.2c2.1-5.2,3.6-10.7,4.4-16.5l18.7-2.2ZM944.8,383.7c-28.7,0-51.9-23.2-51.9-51.9s23.2-51.9,51.9-51.9,51.9,23.2,51.9,51.9-23.2,51.9-51.9,51.9Z"/>
        </g>
      </g>
    </mask>
    <linearGradient id="linear-gradient-2" x1="1115" y1="331.8" x2="783.8" y2="331.8" gradientUnits="userSpaceOnUse">
      <stop offset="0" stop-color="#fff"/>
      <stop offset="1" stop-color="#1566ab"/>
    </linearGradient>
    <filter id="luminosity-noclip-3" x="25" y="236.7" width="305" height="305" color-interpolation-filters="sRGB" filterUnits="userSpaceOnUse">
      <feFlood flood-color="#fff" result="bg"/>
      <feBlend in="SourceGraphic" in2="bg"/>
    </filter>
    <filter id="luminosity-noclip-4" x="25" y="-8604.8" width="305" height="32766" color-interpolation-filters="sRGB" filterUnits="userSpaceOnUse">
      <feFlood flood-color="#fff" result="bg"/>
      <feBlend in="SourceGraphic" in2="bg"/>
    </filter>
    <mask id="mask-3" x="25" y="-8604.8" width="305" height="32766" maskUnits="userSpaceOnUse"/>
    <linearGradient id="linear-gradient-3" x1="56.5" y1="389.2" x2="337.3" y2="389.2" gradientUnits="userSpaceOnUse">
      <stop offset="0" stop-color="#fff"/>
      <stop offset=".4" stop-color="#fdfdfd"/>
      <stop offset=".6" stop-color="#f6f6f6"/>
      <stop offset=".7" stop-color="#eaeaea"/>
      <stop offset=".8" stop-color="#d9d9d9"/>
      <stop offset=".9" stop-color="#c3c3c3"/>
      <stop offset=".9" stop-color="#a8a8a8"/>
      <stop offset="1" stop-color="#888"/>
      <stop offset="1" stop-color="gray"/>
    </linearGradient>
    <mask id="mask-2" x="25" y="236.7" width="305" height="305" maskUnits="userSpaceOnUse">
      <g class="cls-63">
        <g class="cls-125">
          <path class="cls-29" d="M329.9,402.4v-26.5l-32.3-3.7c-1.4-9.9-4-19.4-7.6-28.4l26.1-19.4-13.3-23-29.8,12.9c-6.1-7.7-13-14.7-20.8-20.8l12.9-29.8-23-13.3-19.4,26.1c-9-3.6-18.5-6.2-28.4-7.6l-3.7-32.3h-26.5l-3.7,32.3c-9.9,1.4-19.4,4-28.4,7.6l-19.4-26.1-23,13.3,12.9,29.8c-7.7,6.1-14.7,13-20.8,20.8l-29.8-12.9-13.3,23,26.1,19.4c-3.6,9-6.2,18.5-7.6,28.4l-32.3,3.7v26.5l32.3,3.7c1.4,9.9,4,19.4,7.6,28.4l-26.1,19.4,13.3,23,29.8-12.9c6.1,7.7,13,14.7,20.8,20.8l-12.9,29.8,23,13.3,19.4-26.1c9,3.6,18.5,6.2,28.4,7.6l3.7,32.3h26.5l3.7-32.3c9.9-1.4,19.4-4,28.4-7.6l19.4,26.1,23-13.3-12.9-29.8c7.7-6.1,14.7-13,20.8-20.8l29.8,12.9,13.3-23-26.1-19.4c3.6-9,6.2-18.5,7.6-28.4l32.3-3.7ZM185.9,300.2c18.4,1.7,35.1,9,48.6,20.1l-30.1,30.1c-5.4-4.1-11.6-6.9-18.5-8.2v-42ZM169,300.2v42c-6.9,1.3-13.1,4.2-18.5,8.2l-30.1-30.1c13.4-11.1,30.2-18.4,48.6-20.1ZM108.6,332.2l30.7,30.7c-3.2,5.3-5.4,11.4-6.2,17.9h-44.7c1.7-18.4,9-35.1,20.1-48.6ZM108.6,446.2c-11.1-13.4-18.4-30.2-20.1-48.6h45.9c1.5,5.6,4.1,10.8,7.5,15.3l-33.3,33.3ZM169,478.2c-18.4-1.7-35.1-9-48.6-20.1l33.9-33.9c4.4,2.7,9.4,4.7,14.7,5.7v48.4ZM158.3,386c0-10.6,8.6-19.2,19.2-19.2s19.2,8.6,19.2,19.2-8.6,19.2-19.2,19.2-19.2-8.6-19.2-19.2ZM185.9,478.2v-48.4c5.3-1,10.2-3,14.7-5.7l33.9,33.9c-13.4,11.1-30.2,18.4-48.6,20.1ZM246.3,446.2l-33.3-33.3c3.4-4.5,6-9.7,7.5-15.3h45.9c-1.7,18.4-9,35.1-20.1,48.6ZM221.8,380.8c-.8-6.5-2.9-12.5-6.2-17.9l30.7-30.7c11.1,13.4,18.4,30.2,20.1,48.6h-44.7Z"/>
        </g>
      </g>
    </mask>
    <linearGradient id="linear-gradient-4" x1="351.9" y1="389.2" x2="-131.6" y2="389.2" xlink:href="#linear-gradient-2"/>
    <linearGradient id="linear-gradient-5" x1="889.5" y1="664.6" x2="1000.1" y2="664.6" gradientUnits="userSpaceOnUse">
      <stop offset="0" stop-color="#168cd4"/>
      <stop offset=".5" stop-color="#1c87cc"/>
      <stop offset="1" stop-color="#154b8d"/>
    </linearGradient>
    <linearGradient id="linear-gradient-6" x1="165.6" y1="130.9" x2="234.7" y2="130.9" xlink:href="#linear-gradient-5"/>
    <filter id="luminosity-noclip-5" x="300.4" y="96.3" width="581.8" height="20.4" color-interpolation-filters="sRGB" filterUnits="userSpaceOnUse">
      <feFlood flood-color="#fff" result="bg"/>
      <feBlend in="SourceGraphic" in2="bg"/>
    </filter>
    <filter id="luminosity-noclip-6" x="300.4" y="-8604.8" width="581.8" height="32766" color-interpolation-filters="sRGB" filterUnits="userSpaceOnUse">
      <feFlood flood-color="#fff" result="bg"/>
      <feBlend in="SourceGraphic" in2="bg"/>
    </filter>
    <mask id="mask-5" x="300.4" y="-8604.8" width="581.8" height="32766" maskUnits="userSpaceOnUse"/>
    <linearGradient id="linear-gradient-7" x1="591.3" y1="94" x2="591.3" y2="120" gradientUnits="userSpaceOnUse">
      <stop offset="0" stop-color="#fff"/>
      <stop offset="0" stop-color="#f2f2f2"/>
      <stop offset=".3" stop-color="#d1d1d1"/>
      <stop offset=".5" stop-color="#9c9c9c"/>
      <stop offset=".7" stop-color="#525252"/>
      <stop offset="1" stop-color="#000"/>
    </linearGradient>
    <mask id="mask-4" x="300.4" y="96.3" width="581.8" height="20.4" maskUnits="userSpaceOnUse">
      <g class="cls-47">
        <g class="cls-22">
          <rect class="cls-31" x="300.4" y="96.3" width="581.8" height="20.4"/>
        </g>
      </g>
    </mask>
    <linearGradient id="linear-gradient-8" x1="322.8" y1="83.2" x2="323.5" y2="64.3" gradientUnits="userSpaceOnUse">
      <stop offset="0" stop-color="#00d0f1"/>
      <stop offset="0" stop-color="#09d1f1"/>
      <stop offset="0" stop-color="#37daf4"/>
      <stop offset="0" stop-color="#62e2f6"/>
      <stop offset=".1" stop-color="#87e9f8"/>
      <stop offset=".2" stop-color="#a8effa"/>
      <stop offset=".3" stop-color="#c3f4fb"/>
      <stop offset=".3" stop-color="#d9f8fc"/>
      <stop offset=".4" stop-color="#eafbfd"/>
      <stop offset=".5" stop-color="#f6fdfe"/>
      <stop offset=".6" stop-color="#fdfefe"/>
      <stop offset="1" stop-color="#fff"/>
    </linearGradient>
    <linearGradient id="linear-gradient-9" x1="345.4" y1="83.2" x2="346.1" y2="64.3" xlink:href="#linear-gradient-8"/>
    <linearGradient id="linear-gradient-10" x1="367.9" y1="83.2" x2="368.7" y2="64.3" xlink:href="#linear-gradient-8"/>
    <filter id="luminosity-noclip-7" x="224.4" y="175.6" width="52.6" height="38.8" color-interpolation-filters="sRGB" filterUnits="userSpaceOnUse">
      <feFlood flood-color="#fff" result="bg"/>
      <feBlend in="SourceGraphic" in2="bg"/>
    </filter>
    <filter id="luminosity-noclip-8" x="224.4" y="-8604.8" width="52.6" height="32766" color-interpolation-filters="sRGB" filterUnits="userSpaceOnUse">
      <feFlood flood-color="#fff" result="bg"/>
      <feBlend in="SourceGraphic" in2="bg"/>
    </filter>
    <mask id="mask-7" x="224.4" y="-8604.8" width="52.6" height="32766" maskUnits="userSpaceOnUse"/>
    <linearGradient id="linear-gradient-11" x1="229.8" y1="195.1" x2="278.2" y2="195.1" xlink:href="#linear-gradient-3"/>
    <mask id="mask-6" x="224.4" y="175.6" width="52.6" height="38.8" maskUnits="userSpaceOnUse">
      <g class="cls-120">
        <g class="cls-44">
          <path class="cls-28" d="M254.2,175.6l-13,18.9,13.6,19.9h-16.9l-13.6-19.9h0s0,0,0,0l13-18.9h16.9ZM259.4,175.6l-13,18.9h0s0,0,0,0l13.6,19.9h16.9l-13.6-19.9,13-18.9h-16.9Z"/>
        </g>
      </g>
    </mask>
    <linearGradient id="linear-gradient-12" x1="229.8" y1="195.1" x2="278.2" y2="195.1" xlink:href="#linear-gradient-2"/>
    <filter id="luminosity-noclip-9" x="914.4" y="175.6" width="96.8" height="38.8" color-interpolation-filters="sRGB" filterUnits="userSpaceOnUse">
      <feFlood flood-color="#fff" result="bg"/>
      <feBlend in="SourceGraphic" in2="bg"/>
    </filter>
    <filter id="luminosity-noclip-10" x="914.4" y="-8604.8" width="96.8" height="32766" color-interpolation-filters="sRGB" filterUnits="userSpaceOnUse">
      <feFlood flood-color="#fff" result="bg"/>
      <feBlend in="SourceGraphic" in2="bg"/>
    </filter>
    <mask id="mask-9" x="914.4" y="-8604.8" width="96.8" height="32766" maskUnits="userSpaceOnUse"/>
    <linearGradient id="linear-gradient-13" x1="924.4" y1="195.1" x2="1013.4" y2="195.1" xlink:href="#linear-gradient"/>
    <mask id="mask-8" x="914.4" y="175.6" width="96.8" height="38.8" maskUnits="userSpaceOnUse">
      <g class="cls-86">
        <g class="cls-67">
          <path class="cls-27" d="M998.2,175.6l13,18.9h0s0,0,0,0l-13.6,19.9h-16.9l13.6-19.9-13-18.9h16.9ZM959.2,175.6l13,18.9-13.6,19.9h16.9l13.6-19.9h0s0,0,0,0l-13-18.9h-16.9ZM937.1,175.6l13,18.9-13.6,19.9h16.9l13.6-19.9h0s0,0,0,0l-13-18.9h-16.9ZM915,175.6l13,18.9-13.6,19.9h16.9l13.6-19.9h0s0,0,0,0l-13-18.9h-16.9Z"/>
        </g>
      </g>
    </mask>
    <linearGradient id="linear-gradient-14" x1="924.4" y1="195.1" x2="1013.4" y2="195.1" xlink:href="#linear-gradient-2"/>
    <linearGradient id="linear-gradient-15" x1="621" y1="703.2" x2="604" y2="702.1" gradientTransform="translate(7.6 31) rotate(69.9) scale(1 -1)" gradientUnits="userSpaceOnUse">
      <stop offset="0" stop-color="#e89492"/>
      <stop offset="0" stop-color="#e89a98"/>
      <stop offset=".4" stop-color="#ebb3b2"/>
      <stop offset=".8" stop-color="#edc3c2"/>
      <stop offset="1" stop-color="#eec9c8"/>
    </linearGradient>
    <linearGradient id="linear-gradient-16" x1="854.1" y1="422.7" x2="854.1" y2="389" gradientUnits="userSpaceOnUse">
      <stop offset="0" stop-color="#9e9dfb"/>
      <stop offset="0" stop-color="#a9a8fb"/>
      <stop offset=".2" stop-color="#c8c7fc"/>
      <stop offset=".4" stop-color="#e0dffd"/>
      <stop offset=".6" stop-color="#f1f1fe"/>
      <stop offset=".8" stop-color="#fbfbfe"/>
      <stop offset="1" stop-color="#fff"/>
    </linearGradient>
    <linearGradient id="linear-gradient-17" x1="798" y1="688.8" x2="790" y2="674.2" gradientTransform="translate(141.7 -142) rotate(14.2)" gradientUnits="userSpaceOnUse">
      <stop offset="0" stop-color="#ff631d"/>
      <stop offset=".1" stop-color="#fb591e"/>
      <stop offset=".7" stop-color="#ed3921"/>
      <stop offset="1" stop-color="#e82d23"/>
    </linearGradient>
    <linearGradient id="linear-gradient-18" x1="870.5" y1="694.9" x2="858.7" y2="673.7" gradientTransform="translate(-7.5 -17.3) rotate(1.2)" xlink:href="#linear-gradient-17"/>
    <linearGradient id="linear-gradient-19" x1="822.3" y1="651.4" x2="776.6" y2="569" gradientUnits="userSpaceOnUse">
      <stop offset="0" stop-color="#00cfef"/>
      <stop offset=".3" stop-color="#00cbef"/>
      <stop offset=".5" stop-color="#00c1ef"/>
      <stop offset=".8" stop-color="#00b0ef"/>
      <stop offset="1" stop-color="#0097ef"/>
      <stop offset="1" stop-color="#0097ef"/>
    </linearGradient>
    <linearGradient id="linear-gradient-20" x1="845.8" y1="634" x2="802" y2="555" gradientUnits="userSpaceOnUse">
      <stop offset="0" stop-color="#00cfef"/>
      <stop offset=".4" stop-color="#00cbef"/>
      <stop offset=".7" stop-color="#00c1ef"/>
      <stop offset="1" stop-color="#00b0ef"/>
      <stop offset="1" stop-color="#00adef"/>
    </linearGradient>
    <linearGradient id="linear-gradient-21" x1="874.8" y1="403.3" x2="863.3" y2="382.5" gradientTransform="translate(-44 121.1) rotate(-10.5)" gradientUnits="userSpaceOnUse">
      <stop offset="0" stop-color="#ffb73c"/>
      <stop offset=".2" stop-color="#f88e34"/>
      <stop offset=".6" stop-color="#ef5a2b"/>
      <stop offset=".9" stop-color="#ea3925"/>
      <stop offset="1" stop-color="#e82d23"/>
    </linearGradient>
    <linearGradient id="linear-gradient-22" x1="860.1" y1="435.4" x2="918.7" y2="458.2" gradientUnits="userSpaceOnUse">
      <stop offset="0" stop-color="#fff"/>
      <stop offset=".2" stop-color="#fbfbfe"/>
      <stop offset=".4" stop-color="#f1f1fe"/>
      <stop offset=".6" stop-color="#e0dffd"/>
      <stop offset=".8" stop-color="#c8c7fc"/>
      <stop offset=".9" stop-color="#a9a8fb"/>
      <stop offset="1" stop-color="#9e9dfb"/>
    </linearGradient>
    <linearGradient id="linear-gradient-23" x1="-544.7" y1="365.9" x2="-544.7" y2="399.5" gradientTransform="translate(341.9 6.1) rotate(178.2) scale(1 -1)" gradientUnits="userSpaceOnUse">
      <stop offset="0" stop-color="#e85f5a"/>
      <stop offset="1" stop-color="#eec9c8"/>
    </linearGradient>
    <linearGradient id="linear-gradient-24" x1="896.1" y1="397.5" x2="861.1" y2="395.2" gradientTransform="translate(-44 121.1) rotate(-10.5)" xlink:href="#linear-gradient-15"/>
    <linearGradient id="linear-gradient-25" x1="897.1" y1="436.7" x2="922.1" y2="438.9" xlink:href="#linear-gradient-22"/>
    <linearGradient id="linear-gradient-26" x1="880.8" y1="356.9" x2="844.9" y2="292.1" xlink:href="#linear-gradient-17"/>
    <linearGradient id="linear-gradient-27" x1="745.4" y1="503.5" x2="869.4" y2="503.5" gradientTransform="translate(82.3 -89.7) rotate(8.4)" gradientUnits="userSpaceOnUse">
      <stop offset="0" stop-color="#73cbcd"/>
      <stop offset="1" stop-color="#beecce"/>
    </linearGradient>
    <linearGradient id="linear-gradient-28" x1="-432.7" y1="487.7" x2="-308.6" y2="487.7" gradientTransform="translate(514.4 -25.7) rotate(-171.6) scale(1 -1)" xlink:href="#linear-gradient-27"/>
    <linearGradient id="linear-gradient-29" x1="756.9" y1="491.1" x2="847.3" y2="491.1" gradientTransform="translate(82.3 -89.7) rotate(8.4)" gradientUnits="userSpaceOnUse">
      <stop offset="0" stop-color="#dfe9ef"/>
      <stop offset="1" stop-color="#fff"/>
    </linearGradient>
    <linearGradient id="linear-gradient-30" x1="-380.3" y1="472.4" x2="-291.3" y2="472.4" gradientTransform="translate(514.4 -25.7) rotate(-171.6) scale(1 -1)" xlink:href="#linear-gradient-27"/>
    <linearGradient id="linear-gradient-31" x1="855" y1="500.8" x2="816.8" y2="498.4" gradientTransform="matrix(1,0,0,1,0,0)" xlink:href="#linear-gradient-15"/>
    <linearGradient id="linear-gradient-32" x1="873.1" y1="474.3" x2="887.1" y2="493.6" xlink:href="#linear-gradient-22"/>
    <linearGradient id="linear-gradient-33" x1="289.9" y1="583.1" x2="331.7" y2="558.8" gradientTransform="translate(-265.5 463.9) rotate(-45.2)" gradientUnits="userSpaceOnUse">
      <stop offset="0" stop-color="#fa902f"/>
      <stop offset=".2" stop-color="#f7a02f"/>
      <stop offset=".5" stop-color="#f3b530"/>
      <stop offset=".7" stop-color="#f0c130"/>
      <stop offset="1" stop-color="#f0c631"/>
    </linearGradient>
    <linearGradient id="linear-gradient-34" x1="247.6" y1="412.6" x2="363.4" y2="525.8" gradientUnits="userSpaceOnUse">
      <stop offset="0" stop-color="#2357c2"/>
      <stop offset=".2" stop-color="#2155be"/>
      <stop offset=".4" stop-color="#1d4fb4"/>
      <stop offset=".6" stop-color="#1745a2"/>
      <stop offset=".8" stop-color="#0e378a"/>
      <stop offset="1" stop-color="#02256b"/>
      <stop offset="1" stop-color="#002164"/>
    </linearGradient>
    <linearGradient id="linear-gradient-35" x1="334.1" y1="531.5" x2="390.9" y2="586.9" gradientUnits="userSpaceOnUse">
      <stop offset="0" stop-color="#002164"/>
      <stop offset="0" stop-color="#02256b"/>
      <stop offset=".2" stop-color="#0e378a"/>
      <stop offset=".4" stop-color="#1745a2"/>
      <stop offset=".6" stop-color="#1d4fb4"/>
      <stop offset=".8" stop-color="#2155be"/>
      <stop offset="1" stop-color="#2357c2"/>
    </linearGradient>
    <linearGradient id="linear-gradient-36" x1="187" y1="468.3" x2="357.1" y2="634.6" xlink:href="#linear-gradient-34"/>
    <linearGradient id="linear-gradient-37" x1="296.7" y1="370.9" x2="335.1" y2="368.2" gradientUnits="userSpaceOnUse">
      <stop offset="0" stop-color="#ff631d"/>
      <stop offset="0" stop-color="#ff671a"/>
      <stop offset=".7" stop-color="#ff8707"/>
      <stop offset="1" stop-color="#ff9400"/>
    </linearGradient>
    <linearGradient id="linear-gradient-38" x1="268.9" y1="455.9" x2="324.4" y2="399.8" gradientTransform="translate(104.8 -89.3) rotate(16.5)" xlink:href="#linear-gradient-37"/>
    <linearGradient id="linear-gradient-39" x1="245.2" y1="387.8" x2="260.7" y2="386.8" xlink:href="#linear-gradient-37"/>
    <linearGradient id="linear-gradient-40" x1="271.3" y1="365.7" x2="271.3" y2="396.3" gradientTransform="translate(14.5 -60.7) rotate(1.4)" xlink:href="#linear-gradient-23"/>
    <linearGradient id="linear-gradient-41" x1="300.6" y1="351.9" x2="264" y2="349.6" gradientTransform="translate(634 23.2) rotate(-167.1) scale(1 -1)" xlink:href="#linear-gradient-15"/>
    <linearGradient id="linear-gradient-42" x1="270.9" y1="702.7" x2="297.7" y2="687.2" gradientTransform="translate(-128.6 143.9) rotate(-17.3)" xlink:href="#linear-gradient-33"/>
    <linearGradient id="linear-gradient-43" x1="264.5" y1="275.6" x2="291.1" y2="301.6" gradientUnits="userSpaceOnUse">
      <stop offset="0" stop-color="#201600"/>
      <stop offset=".4" stop-color="#211701"/>
      <stop offset=".6" stop-color="#261d08"/>
      <stop offset=".7" stop-color="#2f2714"/>
      <stop offset=".8" stop-color="#3c3426"/>
      <stop offset=".9" stop-color="#4c473c"/>
      <stop offset="1" stop-color="#605d57"/>
      <stop offset="1" stop-color="#6b6966"/>
    </linearGradient>
    <linearGradient id="linear-gradient-44" x1="318.9" y1="370" x2="334.4" y2="359.2" xlink:href="#linear-gradient-37"/>
    <linearGradient id="linear-gradient-45" x1="834.6" y1="489.1" x2="958.6" y2="489.1" gradientTransform="translate(1130.8 -180.7) rotate(168.5) scale(1 -1)" xlink:href="#linear-gradient-27"/>
    <linearGradient id="linear-gradient-46" x1="-521.1" y1="473.2" x2="-397.1" y2="473.2" gradientTransform="translate(702.2 -92.9) rotate(-11.5)" xlink:href="#linear-gradient-27"/>
    <linearGradient id="linear-gradient-47" x1="846.1" y1="476.7" x2="936.4" y2="476.7" gradientTransform="translate(1130.8 -180.7) rotate(168.5) scale(1 -1)" xlink:href="#linear-gradient-29"/>
    <linearGradient id="linear-gradient-48" x1="-468.8" y1="457.8" x2="-379.7" y2="457.8" gradientTransform="translate(702.2 -92.9) rotate(-11.5)" xlink:href="#linear-gradient-27"/>
    <linearGradient id="linear-gradient-49" x1="262.1" y1="448.3" x2="276.5" y2="439.9" xlink:href="#linear-gradient-37"/>
    <linearGradient id="linear-gradient-50" x1="-3003.6" y1="-2971.8" x2="-3003.6" y2="-2971.2" gradientTransform="translate(137574.1 241938.7) scale(45.6 81.3)" gradientUnits="userSpaceOnUse">
      <stop offset="0" stop-color="#0994dc"/>
      <stop offset=".3" stop-color="#66cef5"/>
      <stop offset=".3" stop-color="#66cef5"/>
      <stop offset=".8" stop-color="#127bca"/>
      <stop offset=".8" stop-color="#127bca"/>
      <stop offset="1" stop-color="#127bca"/>
    </linearGradient>
    <linearGradient id="linear-gradient-51" x1="-3007.3" y1="-2972.8" x2="-3007.3" y2="-2972.2" gradientTransform="translate(144547.8 248181) scale(47.9 83.4)" gradientUnits="userSpaceOnUse">
      <stop offset="0" stop-color="#0e76bc"/>
      <stop offset=".4" stop-color="#36aee8"/>
      <stop offset=".4" stop-color="#36aee8"/>
      <stop offset=".8" stop-color="#00adef"/>
      <stop offset=".8" stop-color="#00adef"/>
      <stop offset="1" stop-color="#00adef"/>
    </linearGradient>
    <linearGradient id="linear-gradient-52" x1="-3003.7" y1="-2972.7" x2="-3003.7" y2="-2973.1" gradientTransform="translate(137124.9 251457) scale(45.5 84.5)" gradientUnits="userSpaceOnUse">
      <stop offset="0" stop-color="#1c63b7"/>
      <stop offset=".5" stop-color="#33bdf2"/>
      <stop offset="1" stop-color="#33bdf2" stop-opacity=".4"/>
    </linearGradient>
    <linearGradient id="linear-gradient-53" x1="-3002.9" y1="-2974.1" x2="-3002.9" y2="-2973.5" gradientTransform="translate(135757.3 257777.7) scale(45 86.6)" gradientUnits="userSpaceOnUse">
      <stop offset="0" stop-color="#166ab8"/>
      <stop offset=".4" stop-color="#36aee8"/>
      <stop offset=".4" stop-color="#36aee8"/>
      <stop offset=".8" stop-color="#0798dd"/>
      <stop offset=".8" stop-color="#0798dd"/>
      <stop offset="1" stop-color="#0798dd"/>
    </linearGradient>
    <linearGradient id="linear-gradient-54" x1="-3020.8" y1="-2976.4" x2="-3020.8" y2="-2975.8" gradientTransform="translate(176856.4 274298) scale(58.4 92.1)" gradientUnits="userSpaceOnUse">
      <stop offset="0" stop-color="#124379"/>
      <stop offset=".4" stop-color="#1487cb"/>
      <stop offset=".4" stop-color="#1487cb"/>
      <stop offset=".8" stop-color="#165197"/>
      <stop offset=".8" stop-color="#165197"/>
      <stop offset="1" stop-color="#165197"/>
    </linearGradient>
    <linearGradient id="linear-gradient-55" x1="-2897.6" y1="-2905.5" x2="-2897.2" y2="-2905.5" gradientTransform="translate(56835.1 90082.5) scale(19.4 30.9)" gradientUnits="userSpaceOnUse">
      <stop offset="0" stop-color="#33bdf2" stop-opacity=".7"/>
      <stop offset="1" stop-color="#1dacd8"/>
    </linearGradient>
    <linearGradient id="linear-gradient-56" x1="-3037.4" y1="-2978.3" x2="-3037.4" y2="-2978.7" gradientTransform="translate(241017.8 294163) scale(79.1 98.7)" gradientUnits="userSpaceOnUse">
      <stop offset="0" stop-color="#136ab4"/>
      <stop offset=".6" stop-color="#59caf5" stop-opacity=".5"/>
      <stop offset="1" stop-color="#59caf5" stop-opacity=".2"/>
    </linearGradient>
    <linearGradient id="linear-gradient-57" x1="-3031.7" y1="-2978.7" x2="-3031.4" y2="-2978.7" gradientTransform="translate(218898.6 295618.8) scale(72 99.2)" gradientUnits="userSpaceOnUse">
      <stop offset="0" stop-color="#05a1e6" stop-opacity=".2"/>
      <stop offset="1" stop-color="#05a1e6"/>
    </linearGradient>
    <linearGradient id="linear-gradient-58" x1="-3008.2" y1="-2967" x2="-3008.2" y2="-2967.5" gradientTransform="translate(148114.2 219295.7) scale(49.1 73.8)" gradientUnits="userSpaceOnUse">
      <stop offset="0" stop-color="#318ed5"/>
      <stop offset="1" stop-color="#38a7e4"/>
    </linearGradient>
    <linearGradient id="linear-gradient-59" x1="-3002.7" y1="-2954.5" x2="-3002.7" y2="-2955.1" gradientTransform="translate(137496.6 169051.2) scale(45.6 57.1)" gradientUnits="userSpaceOnUse">
      <stop offset="0" stop-color="#05a1e6"/>
      <stop offset="1" stop-color="#05a1e6" stop-opacity=".5"/>
    </linearGradient>
    <linearGradient id="linear-gradient-60" x1="-3013.2" y1="-2971.2" x2="-3013.2" y2="-2971.6" gradientTransform="translate(158812.5 241214.1) scale(52.5 81.1)" gradientUnits="userSpaceOnUse">
      <stop offset="0" stop-color="#1959a6"/>
      <stop offset=".5" stop-color="#05a1e6"/>
      <stop offset=".5" stop-color="#05a1e6"/>
      <stop offset=".9" stop-color="#7ec5ea"/>
      <stop offset="1" stop-color="#7ec5ea"/>
    </linearGradient>
    <linearGradient id="linear-gradient-61" x1="-3032.1" y1="-2978.5" x2="-3032.1" y2="-2978.8" gradientTransform="translate(220925.9 295147.3) scale(72.7 99)" gradientUnits="userSpaceOnUse">
      <stop offset="0" stop-color="#165096"/>
      <stop offset="1" stop-color="#0d82ca"/>
    </linearGradient>
    <linearGradient id="linear-gradient-62" x1="-2974.7" y1="-2954.2" x2="-2974.7" y2="-2954.5" gradientTransform="translate(98089.7 169303.8) scale(32.8 57.2)" gradientUnits="userSpaceOnUse">
      <stop offset="0" stop-color="#05a1e6"/>
      <stop offset=".9" stop-color="#0495d6"/>
      <stop offset="1" stop-color="#0495d6"/>
    </linearGradient>
    <linearGradient id="linear-gradient-63" x1="-3023.5" y1="-2977.9" x2="-3023.6" y2="-2977.5" gradientTransform="translate(182854.1 287067.6) scale(60.3 96.3)" gradientUnits="userSpaceOnUse">
      <stop offset="0" stop-color="#38a7e4" stop-opacity=".3"/>
      <stop offset="1" stop-color="#0e88d3"/>
      <stop offset="1" stop-color="#0e88d3"/>
      <stop offset="1" stop-color="#0e88d3"/>
    </linearGradient>
    <linearGradient id="linear-gradient-64" x1="-3031.8" y1="-2978.5" x2="-3031.8" y2="-2978.1" gradientTransform="translate(213700.6 292451.5) scale(70.3 98.1)" xlink:href="#linear-gradient-5"/>
    <linearGradient id="linear-gradient-65" x1="-2971.7" y1="-3787.3" x2="-2971.4" y2="-3788.2" gradientTransform="translate(97032 -15864.8) scale(32.5 -4.2)" gradientUnits="userSpaceOnUse">
      <stop offset="0" stop-color="#97d6ee"/>
      <stop offset=".7" stop-color="#55c1ea"/>
      <stop offset="1" stop-color="#55c1ea"/>
    </linearGradient>
    <linearGradient id="linear-gradient-66" x1="-2947.1" y1="-3452.4" x2="-2946.8" y2="-3452" gradientTransform="translate(78595.8 -25605.6) scale(26.5 -7.5)" gradientUnits="userSpaceOnUse">
      <stop offset="0" stop-color="#7accec"/>
      <stop offset="1" stop-color="#3fb7ed"/>
    </linearGradient>
    <linearGradient id="linear-gradient-67" x1="-3014.2" y1="-2971.2" x2="-3014.2" y2="-2970.7" gradientTransform="translate(157489.4 239814.5) scale(52 80.6)" gradientUnits="userSpaceOnUse">
      <stop offset="0" stop-color="#1da7e7"/>
      <stop offset="1" stop-color="#37abe7" stop-opacity="0"/>
    </linearGradient>
  </defs>
  <!-- Generator: Adobe Illustrator 28.6.0, SVG Export Plug-In . SVG Version: 1.2.0 Build 709)  -->
  <g>
    <g id="Layer_1">
      <g>
        <g>
          <g class="cls-48">
            <path class="cls-26" d="M1033.4,339.5v-15.4l-18.7-2.2c-.8-5.7-2.3-11.3-4.4-16.5l15.1-11.2-7.7-13.3-17.3,7.5c-3.5-4.5-7.6-8.5-12.1-12.1l7.5-17.3-13.3-7.7-11.2,15.1c-5.2-2.1-10.7-3.6-16.5-4.4l-2.2-18.7h-15.4l-2.2,18.7c-5.7.8-11.3,2.3-16.5,4.4l-11.2-15.1-13.3,7.7,7.5,17.3c-4.5,3.5-8.5,7.6-12.1,12.1l-17.3-7.5-7.7,13.3,15.1,11.2c-2.1,5.2-3.6,10.7-4.4,16.5l-18.7,2.2v15.4l18.7,2.2c.8,5.7,2.3,11.3,4.4,16.5l-15.1,11.2,7.7,13.3,17.3-7.5c3.5,4.5,7.6,8.5,12.1,12.1l-7.5,17.3,13.3,7.7,11.2-15.1c5.2,2.1,10.7,3.6,16.5,4.4l2.2,18.7h15.4l2.2-18.7c5.7-.8,11.3-2.3,16.5-4.4l11.2,15.1,13.3-7.7-7.5-17.3c4.5-3.5,8.5-7.6,12.1-12.1l17.3,7.5,7.7-13.3-15.1-11.2c2.1-5.2,3.6-10.7,4.4-16.5l18.7-2.2ZM944.8,383.7c-28.7,0-51.9-23.2-51.9-51.9s23.2-51.9,51.9-51.9,51.9,23.2,51.9,51.9-23.2,51.9-51.9,51.9Z"/>
          </g>
          <g class="cls-62">
            <path class="cls-55" d="M329.9,402.4v-26.5l-32.3-3.7c-1.4-9.9-4-19.4-7.6-28.4l26.1-19.4-13.3-23-29.8,12.9c-6.1-7.7-13-14.7-20.8-20.8l12.9-29.8-23-13.3-19.4,26.1c-9-3.6-18.5-6.2-28.4-7.6l-3.7-32.3h-26.5l-3.7,32.3c-9.9,1.4-19.4,4-28.4,7.6l-19.4-26.1-23,13.3,12.9,29.8c-7.7,6.1-14.7,13-20.8,20.8l-29.8-12.9-13.3,23,26.1,19.4c-3.6,9-6.2,18.5-7.6,28.4l-32.3,3.7v26.5l32.3,3.7c1.4,9.9,4,19.4,7.6,28.4l-26.1,19.4,13.3,23,29.8-12.9c6.1,7.7,13,14.7,20.8,20.8l-12.9,29.8,23,13.3,19.4-26.1c9,3.6,18.5,6.2,28.4,7.6l3.7,32.3h26.5l3.7-32.3c9.9-1.4,19.4-4,28.4-7.6l19.4,26.1,23-13.3-12.9-29.8c7.7-6.1,14.7-13,20.8-20.8l29.8,12.9,13.3-23-26.1-19.4c3.6-9,6.2-18.5,7.6-28.4l32.3-3.7ZM185.9,300.2c18.4,1.7,35.1,9,48.6,20.1l-30.1,30.1c-5.4-4.1-11.6-6.9-18.5-8.2v-42ZM169,300.2v42c-6.9,1.3-13.1,4.2-18.5,8.2l-30.1-30.1c13.4-11.1,30.2-18.4,48.6-20.1ZM108.6,332.2l30.7,30.7c-3.2,5.3-5.4,11.4-6.2,17.9h-44.7c1.7-18.4,9-35.1,20.1-48.6ZM108.6,446.2c-11.1-13.4-18.4-30.2-20.1-48.6h45.9c1.5,5.6,4.1,10.8,7.5,15.3l-33.3,33.3ZM169,478.2c-18.4-1.7-35.1-9-48.6-20.1l33.9-33.9c4.4,2.7,9.4,4.7,14.7,5.7v48.4ZM158.3,386c0-10.6,8.6-19.2,19.2-19.2s19.2,8.6,19.2,19.2-8.6,19.2-19.2,19.2-19.2-8.6-19.2-19.2ZM185.9,478.2v-48.4c5.3-1,10.2-3,14.7-5.7l33.9,33.9c-13.4,11.1-30.2,18.4-48.6,20.1ZM246.3,446.2l-33.3-33.3c3.4-4.5,6-9.7,7.5-15.3h45.9c-1.7,18.4-9,35.1-20.1,48.6ZM221.8,380.8c-.8-6.5-2.9-12.5-6.2-17.9l30.7-30.7c11.1,13.4,18.4,30.2,20.1,48.6h-44.7Z"/>
          </g>
          <circle class="cls-71" cx="944.8" cy="664.6" r="55.3"/>
          <circle class="cls-99" cx="200.2" cy="130.9" r="34.6"/>
          <rect class="cls-107" x="300.4" y="50.4" width="581.8" height="422.1" rx="15.7" ry="15.7"/>
          <g class="cls-109">
            <rect class="cls-97" x="300.4" y="96.3" width="581.8" height="20.4"/>
          </g>
          <path class="cls-107" d="M866.4,50.4H316.1c-8.7,0-15.7,7-15.7,15.7v30.2h581.8v-30.2c0-8.7-7-15.7-15.7-15.7Z"/>
          <path class="cls-79" d="M330,73.3c0,3.8-3.1,6.9-6.9,6.9s-6.9-3.1-6.9-6.9,3.1-6.9,6.9-6.9,6.9,3.1,6.9,6.9Z"/>
          <path class="cls-93" d="M352.6,73.3c0,3.8-3.1,6.9-6.9,6.9s-6.9-3.1-6.9-6.9,3.1-6.9,6.9-6.9,6.9,3.1,6.9,6.9Z"/>
          <path class="cls-37" d="M375.2,73.3c0,3.8-3.1,6.9-6.9,6.9s-6.9-3.1-6.9-6.9,3.1-6.9,6.9-6.9,6.9,3.1,6.9,6.9Z"/>
          <path class="cls-8" d="M394.5,56.6h-4.8c-.6,0-1-.5-1-1s.5-1,1-1h4.8c.6,0,1,.5,1,1s-.5,1-1,1Z"/>
          <path class="cls-8" d="M526.7,56.6h-121.9c-.6,0-1-.5-1-1s.5-1,1-1h121.9c.6,0,1,.5,1,1s-.5,1-1,1Z"/>
          <path class="cls-8" d="M814.9,56.6h-3.6c-.6,0-1-.5-1-1s.5-1,1-1h3.6c.6,0,1,.5,1,1s-.5,1-1,1Z"/>
          <path class="cls-12" d="M725.1,408.7h-267.6c-9.1,0-16.5-7.4-16.5-16.5v-.3c0-9.1,7.4-16.5,16.5-16.5h267.6c9.1,0,16.5,7.4,16.5,16.5v.3c0,9.1-7.4,16.5-16.5,16.5ZM457.5,377.4c-8,0-14.4,6.5-14.4,14.4v.3c0,8,6.5,14.4,14.4,14.4h267.6c8,0,14.4-6.5,14.4-14.4v-.3c0-8-6.5-14.4-14.4-14.4h-267.6Z"/>
          <g class="cls-42">
            <path class="cls-38" d="M254.2,175.6l-13,18.9,13.6,19.9h-16.9l-13.6-19.9h0s0,0,0,0l13-18.9h16.9ZM259.4,175.6l-13,18.9h0s0,0,0,0l13.6,19.9h16.9l-13.6-19.9,13-18.9h-16.9Z"/>
          </g>
          <g class="cls-61">
            <path class="cls-83" d="M998.2,175.6l13,18.9h0s0,0,0,0l-13.6,19.9h-16.9l13.6-19.9-13-18.9h16.9ZM959.2,175.6l13,18.9-13.6,19.9h16.9l13.6-19.9h0s0,0,0,0l-13-18.9h-16.9ZM937.1,175.6l13,18.9-13.6,19.9h16.9l13.6-19.9h0s0,0,0,0l-13-18.9h-16.9ZM915,175.6l13,18.9-13.6,19.9h16.9l13.6-19.9h0s0,0,0,0l-13-18.9h-16.9Z"/>
          </g>
          <path class="cls-10" d="M565.3,402.8h-15.5v-21.6h15.5v21.6ZM544.7,381.2h-15.5v21.6h15.5v-21.6ZM503.5,381.2h-15.5v21.6h15.5v-21.6ZM467.5,402.8h15.5v-21.6h-15.5v21.6ZM524.1,381.2h-15.5v21.6h15.5v-21.6ZM462.3,381.2h-4.8c-5.9,0-10.6,4.8-10.6,10.6v.3c0,5.9,4.8,10.6,10.6,10.6h4.8v-21.6ZM627,381.2h-15.5v21.6h15.5v-21.6ZM585.8,381.2h-15.5v21.6h15.5v-21.6ZM606.4,381.2h-15.5v21.6h15.5v-21.6Z"/>
          <g>
            <path class="cls-9" d="M575.9,157.5c0,8.5,6.9,15.4,15.4,15.4s15.4-6.9,15.4-15.4-6.9-15.4-15.4-15.4-15.4,6.9-15.4,15.4Z"/>
            <path class="cls-11" d="M526.7,172c0,8.5,6.9,15.4,15.4,15.4s15.4-6.9,15.4-15.4-6.9-15.4-15.4-15.4-15.4,6.9-15.4,15.4Z"/>
            <circle class="cls-5" cx="509.4" cy="209.7" r="15.4"/>
            <circle class="cls-15" cx="501.9" cy="261.2" r="15.4"/>
            <path class="cls-6" d="M507.7,307.1c0,8.5,6.9,15.4,15.4,15.4s15.4-6.9,15.4-15.4-6.9-15.4-15.4-15.4-15.4,6.9-15.4,15.4Z"/>
            <path class="cls-13" d="M549.8,334.3c0,8.5,6.9,15.4,15.4,15.4s15.4-6.9,15.4-15.4-6.9-15.4-15.4-15.4-15.4,6.9-15.4,15.4Z"/>
            <path class="cls-10" d="M602,334.3c0,8.5,6.9,15.4,15.4,15.4s15.4-6.9,15.4-15.4-6.9-15.4-15.4-15.4-15.4,6.9-15.4,15.4Z"/>
            <path class="cls-12" d="M644.1,307.1c0,8.5,6.9,15.4,15.4,15.4s15.4-6.9,15.4-15.4-6.9-15.4-15.4-15.4-15.4,6.9-15.4,15.4Z"/>
            <circle class="cls-14" cx="680.6" cy="261.2" r="15.4"/>
            <circle class="cls-4" cx="673.2" cy="209.7" r="15.4"/>
            <path class="cls-7" d="M625.1,172c0,8.5,6.9,15.4,15.4,15.4s15.4-6.9,15.4-15.4-6.9-15.4-15.4-15.4-15.4,6.9-15.4,15.4Z"/>
            <path class="cls-8" d="M575.9,157.5c0,8.5,6.9,15.4,15.4,15.4s15.4-6.9,15.4-15.4-6.9-15.4-15.4-15.4-15.4,6.9-15.4,15.4Z"/>
          </g>
          <g>
            <path class="cls-107" d="M689.6,718.8l-30.2-10.6c-3.4-1.2-5.1-4.9-3.9-8.2l7.6-21.6c1.2-3.4,4.9-5.1,8.2-3.9l34,12c2.2.8,4.5-.9,4.3-3.3-.9-12.9-7.2-25.4-18.3-33.9-14.6-11.2-33.7-12.5-49.2-5l-127.9-98.1c3-15.8-2.3-32.7-14.8-44-17.2-15.3-41.9-15.6-59.3-2.8-2.1,1.5-1.5,4.8.9,5.6l30.2,10.6c3.4,1.2,5.1,4.9,3.9,8.2l-7.6,21.6c-1.2,3.4-4.9,5.1-8.2,3.9l-34-12c-2.2-.8-4.5.9-4.3,3.3.9,12.9,7.2,25.4,18.3,33.9,14.6,11.2,33.7,12.5,49.2,5l127.9,98.1c-3,15.8,2.3,32.7,14.8,44,17.2,15.3,41.9,15.6,59.3,2.8,2.1-1.5,1.5-4.8-.9-5.6Z"/>
            <path class="cls-8" d="M511.9,571h.1c2.7-3.7,7.8-4.4,11.4-1.6l93.7,71.9c3.6,2.7,4.2,7.8,1.5,11.4h-.1c-2.7,3.7-7.8,4.4-11.4,1.6l-93.7-71.9c-3.6-2.7-4.2-7.8-1.5-11.4Z"/>
          </g>
          <path class="cls-70" d="M282.2,667.2c20.9-15,44.6,36.7,97,32.2,38.4-3.3,37.4,25.2,10.7,34.1-77.3,25.8-138.5-44.2-107.7-66.4Z"/>
          <path class="cls-70" d="M852.8,677.7c-20.9-15-44.6,36.7-97,32.2-38.4-3.3-37.4,25.2-10.7,34.1,77.3,25.8,138.5-44.2,107.7-66.4Z"/>
          <path class="cls-2" d="M864.2,369.3s17.7-15.9,17.9-16.1c.2-.3,1-.2.5,1-.5,1.1-2.7,4.6-2.7,4.6,0,0,4.6-5.1,5-5.5.4-.5,1.2-.2,1.2.3,0,0,.5-.4.6-.5.4-.6,1.4,0,.6,1.5-.8,1.4-4.3,6.1-4.1,6.6.2.5,4.9-3.8,5.8-4.5.9-.7,1.5.5-.8,3.2s-5.8,6-6.4,7.3c-.6,1.2.9,1.4,1.8,1.4s4.2,1,3.5,2.2c-.7,1.2-2,0-3,.3s-2.5,1.1-5.3.8c-2.8-.3-5.1-1-5.1-1l-2.8,2.9-6.7-4.2Z"/>
          <circle class="cls-75" cx="871.3" cy="499.6" r="27.2" transform="translate(-98.1 762.4) rotate(-45)"/>
          <path class="cls-114" d="M830.5,426c-3.8,0-7.3-2.1-9-5.8-2.3-5-.1-10.9,4.9-13.1l47.3-21.7c5-2.3,10.9-.1,13.1,4.9,2.3,5,.1,10.9-4.9,13.1l-47.3,21.7c-1.3.6-2.7.9-4.1.9Z"/>
          <path class="cls-91" d="M765.2,707c0,2.5,2,6.2,1.3,9.2-.9,3.9-5.1,4-9.6,4.4-4.5.4-8.5,1.5-10.9,3.7-3.6,3.3-7.7,4.4-11.5,4.4-5.5,0-8.6-2.2-8.6-3.5,0-2.3,6-5.5,8.4-6.6,2.4-1.1,6-2.2,8-4.3,2-2.1,9.6-8.1,13.7-10.9,4.2-2.7,2.5-9.1,4.3-7.5,1.9,1.6,4.8,11,4.8,11Z"/>
          <path class="cls-24" d="M764,703.5c.4,1.5,2.1,9.6-3.4,11.1-5.5,1.5-10.8,2.1-13.8,3.8-3,1.7-12.9,6.7-14.9,4.6-2-2,5.3-4.8,7.6-6.1,2.3-1.2,12.6-12.4,17.4-14.2,4.8-1.7,6.1-3,7.1.7Z"/>
          <path class="cls-124" d="M844.3,662.3c1,2.8,1.9,3,6.9,5,4.2,1.6,6.8,5.3,3.6,10.2-3.3,4.9-6.6,8-6.2,11.9.5,3.9-1.5,8.5-3.3,11.4-2.6,4.4-6.6,9-9.2,7-2.6-1.9,0-12.8,0-13.6,0-2.3.5-17.5.7-19.6l.3-8.1,7.3-4.2Z"/>
          <path class="cls-24" d="M845.7,664.6s4.2,4,3,8.1c-1.3,4.1-3.9,12.4-4.6,15.4-.8,3-3.1,14-6,13.7-2.9-.3-1.7-5.7-1.4-9.2.3-3.5-.2-22.4,1-24.6,1.2-2.2,8.1-3.4,8.1-3.4Z"/>
          <path class="cls-18" d="M891.5,513.8l-110.3,63.4c-8.6,4.9-19.5,2-24.5-6.6-4.6-8-2.3-18.2,5.1-23.5l103.2-74.3c10.9-7.9,26.2-5.4,34.1,5.5,7.9,10.9,5.4,26.2-5.5,34.1-.7.5-1.4.9-2.1,1.4Z"/>
          <path class="cls-56" d="M781.4,555.5l62.6,102.3c1.9,3.2.9,7.3-2.2,9.3-3,1.8-6.9,1-9-1.8l-71.2-96.6c-3.9-5.3-2.8-12.8,2.5-16.7,5.3-3.9,12.8-2.8,16.7,2.5.2.3.4.6.6.9Z"/>
          <path class="cls-98" d="M785.8,553l59.7,102.8c3.2,5.6,1.3,12.7-4.2,15.9-5.2,3-11.9,1.5-15.4-3.3l-68.6-97.1c-5.4-7.7-3.6-18.3,4.1-23.7,7.7-5.4,18.3-3.6,23.7,4.1.3.4.6.9.8,1.3Z"/>
          <path class="cls-24" d="M892.5,507.7l-88.5,73.4,2.6-4-42.3,132.5c-1,3-4.2,4.7-7.3,3.7-3-.9-4.6-4.1-3.8-7.1l37.3-134,.6-2.2,2-1.7,86.1-76.2c4.2-3.7,10.7-3.3,14.4.9,3.7,4.2,3.3,10.7-.9,14.4,0,0-.2.2-.2.2Z"/>
          <path class="cls-89" d="M892.5,517l-83.6,70.2,4.9-7.8-42.2,124.4c-1.6,4.8-18.5-.4-17.5-4.9l28.8-128.1c.6-2.8,2.1-5.2,4.1-7l.8-.7,81-73.2c7.4-6.7,18.8-6.1,25.5,1.3,6.7,7.4,6.1,18.8-1.3,25.5-.1.1-.3.3-.5.4Z"/>
          <path class="cls-103" d="M887.2,329.2s-11.7-1.6-14.7,4.4c-3.1,6.1.5,7.3-.5,11.1s-6.3,7.9-2.6,14.6c3.7,6.7,16.7,10.3,23.9,4.7,7.2-5.7-6.1-34.8-6.1-34.8Z"/>
          <path class="cls-73" d="M898.8,512.5c12.6-28.7,31.5-91.8,27-111-3.8-16.4-31.6-28.5-53.1-15.7-5.9,3.5-15.6,63.9-15.6,63.9,0,0-9.8,26.6-15.2,38.4-6.3,13.9,53.4,32.2,56.8,24.4Z"/>
          <path class="cls-110" d="M892.6,396.9c-.3,0-.7-.1-1-.2-4.8-1.3-7.3-5-8-8-.6-2.8,0-5.3,1.6-6.7,2-1.7,8.9-.6,12.9.2,4,.8,17,3.8,16.4,8-.2,1.1-1,2.3-2.5,3.3-3.9,2.7-12.4,4.9-19.3,3.5Z"/>
          <path class="cls-118" d="M885.6,358.7c-.4-1.1-.6-2.2-.6-3.4-.2-6.1,4.5-11.2,10.4-11.4,5.9-.2,10.9,4.6,11.1,10.7,0,.1,0,.3,0,.4h0c0,11.7,0,12.1,3.8,23.1h0c.4,1.1.6,2.2.6,3.4.2,6.1-4.5,11.2-10.4,11.4-5.9.2-10.9-4.6-11.1-10.7,0-.1,0-.3,0-.4h0c0-11.7,0-12.1-3.8-23.1h0Z"/>
          <path class="cls-74" d="M902.4,365.1c.6-2.2,8.9-13,7.8-20.7-1.1-7.7-7.3-17.1-19.1-15.9-11.8,1.2-19.8,14.5-17.5,20.8.7,1.9,1.5,4.6,1.1,5.8-.4,1.2-.9,3.9-.4,5.5.4,1.6,4.7,13.6,6.7,13.5,5.9-.5,20.8-6.7,21.3-8.9Z"/>
          <path class="cls-36" d="M901.3,477c-.8,0-1.6,0-2.4-.3-5.3-1.3-8.5-6.7-7.2-12l14.8-58.7c1.3-5.3,6.7-8.5,12-7.2,5.3,1.3,8.5,6.7,7.2,12l-14.8,58.7c-1.1,4.5-5.2,7.5-9.6,7.5Z"/>
          <path class="cls-108" d="M821.3,425.2c6,6.6,14.7-1.4,20.2-8.3,4.3-5.4,25.3-39,30.2-43.9l-6-5.1s-58.2,42.2-44.5,57.4Z"/>
          <path class="cls-54" d="M917.3,332.9c-9.9-11.5-23.9-7.4-25.5-5.4-1.5,2-9.1-1.2-11.7,3-2.3,3.8,1,12.5,11.8,15.7,5,1.5,0,6.2,1.2,10.7,1.2,4.8,5,5,6.4,7h0s1.4,11.6-15.9,39.4c-10.3,16.4-7.4,27.4-2.6,34.3,1.8,2.6,14.9,7.3,14.9,7.3,0,0-2.1-7.3,1.3-16.8,5.7-15.9,18.2-38.1,20.4-50.4,7.1-28.3,4.4-39.4-.2-44.7Z"/>
          <g>
            <path class="cls-40" d="M814,546.4c.8.6,2.2.8,3.1.5l52.7-20.9c.5-.2.7,0,.7,0l-.2,1.3h0c0,.3-.3.6-.8.8l-52.7,20.9c-.9.4-2.3.2-3.1-.5l-63.8-50.6c-.4-.3-.6-.7-.5-1h0s.2-1.4.2-1.4l64.5,50.8Z"/>
            <path class="cls-3" d="M750,496.6l63.8,50.6c.8.6,2.2.8,3.1.5l52.7-20.9c.9-.4,1.1-1.2.3-1.8l-63.8-50.6c-.8-.6-2.2-.8-3.1-.5l-52.7,20.9c-.9.4-1.1,1.2-.3,1.8Z"/>
            <path class="cls-115" d="M808.3,498.4l18.9,15c.7.6,1.9.7,2.8.4l13.6-5.4c.8-.3.9-1,.2-1.6l-18.9-15c-.7-.6-1.9-.7-2.8-.4l-13.6,5.4c-.8.3-.9,1-.2,1.6Z"/>
            <path class="cls-95" d="M769.7,502.4l-3.3-2.6c-.2-.2-.2-.4,0-.5l1.2-.5c.3-.1.7,0,.9.1l3.3,2.6c.2.2.2.4,0,.5l-1.2.5c-.3.1-.7,0-.9-.1ZM775.6,506.5l1.2-.5c.3-.1.3-.3,0-.5l-3.3-2.6c-.2-.2-.6-.2-.9-.1l-1.2.5c-.3.1-.3.3,0,.5l3.3,2.6c.2.2.6.2.9.1ZM780.7,510.5l1.2-.5c.3-.1.3-.3,0-.5l-3.3-2.6c-.2-.2-.6-.2-.9-.1l-1.2.5c-.3.1-.3.3,0,.5l3.3,2.6c.2.2.6.2.9.1ZM785.7,514.5l1.2-.5c.3-.1.3-.3,0-.5l-3.3-2.6c-.2-.2-.6-.2-.9-.1l-1.2.5c-.3.1-.3.3,0,.5l3.3,2.6c.2.2.6.2.9.1ZM790.8,518.5l1.2-.5c.3-.1.3-.3,0-.5l-3.3-2.6c-.2-.2-.6-.2-.9-.1l-1.2.5c-.3.1-.3.3,0,.5l3.3,2.6c.2.2.6.2.9.1ZM795.8,522.5l1.2-.5c.3-.1.3-.3,0-.5l-3.3-2.6c-.2-.2-.6-.2-.9-.1l-1.2.5c-.3.1-.3.3,0,.5l3.3,2.6c.2.2.6.2.9.1ZM800.9,526.5l1.2-.5c.3-.1.3-.3,0-.5l-3.3-2.6c-.2-.2-.6-.2-.9-.1l-1.2.5c-.3.1-.3.3,0,.5l3.3,2.6c.2.2.6.2.9.1ZM805.9,530.5l1.2-.5c.3-.1.3-.3,0-.5l-3.3-2.6c-.2-.2-.6-.2-.9-.1l-1.2.5c-.3.1-.3.3,0,.5l3.3,2.6c.2.2.6.2.9.1ZM811,534.5l1.2-.5c.3-.1.3-.3,0-.5l-3.3-2.6c-.2-.2-.6-.2-.9-.1l-1.2.5c-.3.1-.3.3,0,.5l3.3,2.6c.2.2.6.2.9.1ZM816,538.5l1.2-.5c.3-.1.3-.3,0-.5l-3.3-2.6c-.2-.2-.6-.2-.9-.1l-1.2.5c-.3.1-.3.3,0,.5l3.3,2.6c.2.2.6.2.9.1ZM821.1,542.5l1.2-.5c.3-.1.3-.3,0-.5l-3.3-2.6c-.2-.2-.6-.2-.9-.1l-1.2.5c-.3.1-.3.3,0,.5l3.3,2.6c.2.2.6.2.9.1ZM765.5,498.5l1.2-.5c.3-.1.3-.3,0-.5l-3.3-2.6c-.2-.2-.6-.2-.9-.1l-1.2.5c-.3.1-.3.3,0,.5l3.3,2.6c.2.2.6.2.9.1ZM788.2,513.5l3.9-1.5c.1,0,.2-.2,0-.3l-3.3-2.6c-.1,0-.3-.1-.5,0l-3.9,1.5c-.1,0-.2.2,0,.3l3.3,2.6c.1,0,.3.1.5,0ZM792.3,516.8l3.9-1.5c.1,0,.2-.2,0-.3l-3.3-2.6c-.1,0-.3-.1-.5,0l-3.9,1.5c-.1,0-.2.2,0,.3l3.3,2.6c.1,0,.3.1.5,0ZM796.5,520l3.9-1.5c.1,0,.2-.2,0-.3l-3.3-2.6c-.1,0-.3-.1-.5,0l-3.9,1.5c-.1,0-.2.2,0,.3l3.3,2.6c.1,0,.3.1.5,0ZM800.6,523.3l3.9-1.5c.1,0,.2-.2,0-.3l-3.3-2.6c-.1,0-.3-.1-.5,0l-3.9,1.5c-.1,0-.2.2,0,.3l3.3,2.6c.1,0,.3.1.5,0ZM804.7,526.6l3.9-1.5c.1,0,.2-.2,0-.3l-3.3-2.6c-.1,0-.3-.1-.5,0l-3.9,1.5c-.1,0-.2.2,0,.3l3.3,2.6c.1,0,.3.1.5,0ZM808.8,529.9l3.9-1.5c.1,0,.2-.2,0-.3l-3.3-2.6c-.1,0-.3-.1-.5,0l-3.9,1.5c-.1,0-.2.2,0,.3l3.3,2.6c.1,0,.3.1.5,0ZM813,533.1l3.9-1.5c.1,0,.2-.2,0-.3l-3.3-2.6c-.1,0-.3-.1-.5,0l-3.9,1.5c-.1,0-.2.2,0,.3l3.3,2.6c.1,0,.3.1.5,0ZM817.1,536.4l3.9-1.5c.1,0,.2-.2,0-.3l-3.3-2.6c-.1,0-.3-.1-.5,0l-3.9,1.5c-.1,0-.2.2,0,.3l3.3,2.6c.1,0,.3.1.5,0ZM823.5,541.5l3.9-1.5c.1,0,.2-.2,0-.3l-5.6-4.4c-.1,0-.3-.1-.5,0l-3.9,1.5c-.1,0-.2.2,0,.3l5.6,4.4c.1,0,.3.1.5,0ZM799.5,499.2l3.9-1.5c.1,0,.2-.2,0-.3l-3.3-2.6c-.1,0-.3-.1-.5,0l-3.9,1.5c-.1,0-.2.2,0,.3l3.3,2.6c.1,0,.3.1.5,0ZM803.7,502.5l3.9-1.5c.1,0,.2-.2,0-.3l-3.3-2.6c-.1,0-.3-.1-.5,0l-3.9,1.5c-.1,0-.2.2,0,.3l3.3,2.6c.1,0,.3.1.5,0ZM807.8,505.7l3.9-1.5c.1,0,.2-.2,0-.3l-3.3-2.6c-.1,0-.3-.1-.5,0l-3.9,1.5c-.1,0-.2.2,0,.3l3.3,2.6c.1,0,.3.1.5,0ZM832.6,525.4l3.9-1.5c.1,0,.2-.2,0-.3l-3.3-2.6c-.1,0-.3-.1-.5,0l-3.9,1.5c-.1,0-.2.2,0,.3l3.3,2.6c.1,0,.3.1.5,0ZM836.7,528.6l3.9-1.5c.1,0,.2-.2,0-.3l-3.3-2.6c-.1,0-.3-.1-.5,0l-3.9,1.5c-.1,0-.2.2,0,.3l3.3,2.6c.1,0,.3.1.5,0ZM843.1,533.7l3.9-1.5c.1,0,.2-.2,0-.3l-5.6-4.4c-.1,0-.3-.1-.5,0l-3.9,1.5c-.1,0-.2.2,0,.3l5.6,4.4c.1,0,.3.1.5,0ZM828.6,535.1l-3.9,1.5c-.1,0-.2.2,0,.3l3.3,2.6c.1,0,.3.1.5,0l3.9-1.5c.1,0,.2-.2,0-.3l-3.3-2.6c-.1,0-.3-.1-.5,0ZM824.5,531.8l-3.9,1.5c-.1,0-.2.2,0,.3l3.3,2.6c.1,0,.3.1.5,0l3.9-1.5c.1,0,.2-.2,0-.3l-3.3-2.6c-.1,0-.3-.1-.5,0ZM820.4,528.6l-3.9,1.5c-.1,0-.2.2,0,.3l3.3,2.6c.1,0,.3.1.5,0l3.9-1.5c.1,0,.2-.2,0-.3l-3.3-2.6c-.1,0-.3-.1-.5,0ZM816.2,525.3l-3.9,1.5c-.1,0-.2.2,0,.3l3.3,2.6c.1,0,.3.1.5,0l3.9-1.5c.1,0,.2-.2,0-.3l-3.3-2.6c-.1,0-.3-.1-.5,0ZM812.1,522l-3.9,1.5c-.1,0-.2.2,0,.3l3.3,2.6c.1,0,.3.1.5,0l3.9-1.5c.1,0,.2-.2,0-.3l-3.3-2.6c-.1,0-.3-.1-.5,0ZM808,518.8l-3.9,1.5c-.1,0-.2.2,0,.3l3.3,2.6c.1,0,.3.1.5,0l3.9-1.5c.1,0,.2-.2,0-.3l-3.3-2.6c-.1,0-.3-.1-.5,0ZM803.8,515.5l-3.9,1.5c-.1,0-.2.2,0,.3l3.3,2.6c.1,0,.3.1.5,0l3.9-1.5c.1,0,.2-.2,0-.3l-3.3-2.6c-.1,0-.3-.1-.5,0ZM799.7,512.2l-3.9,1.5c-.1,0-.2.2,0,.3l3.3,2.6c.1,0,.3.1.5,0l3.9-1.5c.1,0,.2-.2,0-.3l-3.3-2.6c-.1,0-.3-.1-.5,0ZM795.6,508.9l-3.9,1.5c-.1,0-.2.2,0,.3l3.3,2.6c.1,0,.3.1.5,0l3.9-1.5c.1,0,.2-.2,0-.3l-3.3-2.6c-.1,0-.3-.1-.5,0ZM791.5,505.7l-3.9,1.5c-.1,0-.2.2,0,.3l3.3,2.6c.1,0,.3.1.5,0l3.9-1.5c.1,0,.2-.2,0-.3l-3.3-2.6c-.1,0-.3-.1-.5,0ZM798.2,505.2l-3.9,1.5c-.1,0-.2.2,0,.3l3.3,2.6c.1,0,.3.1.5,0l3.9-1.5c.1,0,.2-.2,0-.3l-3.3-2.6c-.1,0-.3-.1-.5,0ZM802.3,508.5l-3.9,1.5c-.1,0-.2.2,0,.3l3.3,2.6c.1,0,.3.1.5,0l3.9-1.5c.1,0,.2-.2,0-.3l-3.3-2.6c-.1,0-.3-.1-.5,0ZM806.4,511.7l-3.9,1.5c-.1,0-.2.2,0,.3l3.3,2.6c.1,0,.3.1.5,0l3.9-1.5c.1,0,.2-.2,0-.3l-3.3-2.6c-.1,0-.3-.1-.5,0ZM810.6,515l-3.9,1.5c-.1,0-.2.2,0,.3l3.3,2.6c.1,0,.3.1.5,0l3.9-1.5c.1,0,.2-.2,0-.3l-3.3-2.6c-.1,0-.3-.1-.5,0ZM814.7,518.3l-3.9,1.5c-.1,0-.2.2,0,.3l3.3,2.6c.1,0,.3.1.5,0l3.9-1.5c.1,0,.2-.2,0-.3l-3.3-2.6c-.1,0-.3-.1-.5,0ZM818.8,521.5l-3.9,1.5c-.1,0-.2.2,0,.3l3.3,2.6c.1,0,.3.1.5,0l3.9-1.5c.1,0,.2-.2,0-.3l-3.3-2.6c-.1,0-.3-.1-.5,0ZM823,524.8l-3.9,1.5c-.1,0-.2.2,0,.3l3.3,2.6c.1,0,.3.1.5,0l3.9-1.5c.1,0,.2-.2,0-.3l-3.3-2.6c-.1,0-.3-.1-.5,0ZM827.1,528.1l-3.9,1.5c-.1,0-.2.2,0,.3l3.3,2.6c.1,0,.3.1.5,0l3.9-1.5c.1,0,.2-.2,0-.3l-3.3-2.6c-.1,0-.3-.1-.5,0ZM831.2,531.4l-3.9,1.5c-.1,0-.2.2,0,.3l5.6,4.4c.1,0,.3.1.5,0l3.9-1.5c.1,0,.2-.2,0-.3l-5.6-4.4c-.1,0-.3-.1-.5,0ZM794.1,501.9l-3.9,1.5c-.1,0-.2.2,0,.3l3.3,2.6c.1,0,.3.1.5,0l3.9-1.5c.1,0,.2-.2,0-.3l-3.3-2.6c-.1,0-.3-.1-.5,0ZM776.8,494l-3.9,1.5c-.1,0-.2.2,0,.3l3.3,2.6c.1,0,.3.1.5,0l3.9-1.5c.1,0,.2-.2,0-.3l-3.3-2.6c-.1,0-.3-.1-.5,0ZM780.9,497.3l-3.9,1.5c-.1,0-.2.2,0,.3l3.3,2.6c.1,0,.3.1.5,0l3.9-1.5c.1,0,.2-.2,0-.3l-3.3-2.6c-.1,0-.3-.1-.5,0ZM772.6,490.8l-3.9,1.5c-.1,0-.2.2,0,.3l3.3,2.6c.1,0,.3.1.5,0l3.9-1.5c.1,0,.2-.2,0-.3l-3.3-2.6c-.1,0-.3-.1-.5,0ZM771.9,496l-3.9,1.5c-.1,0-.2.2,0,.3l3.3,2.6c.1,0,.3.1.5,0l3.9-1.5c.1,0,.2-.2,0-.3l-3.3-2.6c-.1,0-.3-.1-.5,0ZM791.5,488.2l-1.7.7c-.1,0-.2.2,0,.3l3.3,2.6c.1,0,.3.1.5,0l1.7-.7c.1,0,.2-.2,0-.3l-3.3-2.6c-.1,0-.3-.1-.5,0ZM795.6,491.5l-1.7.7c-.1,0-.2.2,0,.3l3.3,2.6c.1,0,.3.1.5,0l1.7-.7c.1,0,.2-.2,0-.3l-3.3-2.6c-.1,0-.3-.1-.5,0ZM787.3,484.9l-1.7.7c-.1,0-.2.2,0,.3l3.3,2.6c.1,0,.3.1.5,0l1.7-.7c.1,0,.2-.2,0-.3l-3.3-2.6c-.1,0-.3-.1-.5,0ZM788.8,489.2l-1.7.7c-.1,0-.2.2,0,.3l3.3,2.6c.1,0,.3.1.5,0l1.7-.7c.1,0,.2-.2,0-.3l-3.3-2.6c-.1,0-.3-.1-.5,0ZM776,499.2l-3.9,1.5c-.1,0-.2.2,0,.3l3.3,2.6c.1,0,.3.1.5,0l3.9-1.5c.1,0,.2-.2,0-.3l-3.3-2.6c-.1,0-.3-.1-.5,0ZM767.7,492.7l-3.9,1.5c-.1,0-.2.2,0,.3l3.3,2.6c.1,0,.3.1.5,0l3.9-1.5c.1,0,.2-.2,0-.3l-3.3-2.6c-.1,0-.3-.1-.5,0ZM787.1,506.8l3.9-1.5c.1,0,.2-.2,0-.3l-1.9-1.5c-.1,0,0-.2,0-.3l4.4-1.7c.1,0,.2-.2,0-.3l-3.3-2.6c-.1,0-.3-.1-.5,0l-4.7,1.8h0l-4.1,1.6c-.1,0-.2.2,0,.3l5.6,4.4c.1,0,.3.1.5,0ZM794.8,496.7l-3.9,1.5c-.1,0-.2.2,0,.3l8.6,6.8c.1,0,.3.1.5,0l3.9-1.5c.1,0,.2-.2,0-.3l-8.6-6.8c-.1,0-.3-.1-.5,0ZM808.3,507.3l-3.9,1.5c-.1,0-.2.2,0,.3l3.3,2.6c.1,0,.3.1.5,0l3.9-1.5c.1,0,.2-.2,0-.3l-3.3-2.6c-.1,0-.3-.1-.5,0ZM812.4,510.6l-3.9,1.5c-.1,0-.2.2,0,.3l3.3,2.6c.1,0,.3.1.5,0l3.9-1.5c.1,0,.2-.2,0-.3l-3.3-2.6c-.1,0-.3-.1-.5,0ZM816.5,513.9l-3.9,1.5c-.1,0-.2.2,0,.3l3.3,2.6c.1,0,.3.1.5,0l3.9-1.5c.1,0,.2-.2,0-.3l-3.3-2.6c-.1,0-.3-.1-.5,0ZM820.6,517.1l-3.9,1.5c-.1,0-.2.2,0,.3l3.3,2.6c.1,0,.3.1.5,0l3.9-1.5c.1,0,.2-.2,0-.3l-3.3-2.6c-.1,0-.3-.1-.5,0ZM824.8,520.4l-3.9,1.5c-.1,0-.2.2,0,.3l3.3,2.6c.1,0,.3.1.5,0l3.9-1.5c.1,0,.2-.2,0-.3l-3.3-2.6c-.1,0-.3-.1-.5,0ZM828.9,523.7l-3.9,1.5c-.1,0-.2.2,0,.3l3.3,2.6c.1,0,.3.1.5,0l3.9-1.5c.1,0,.2-.2,0-.3l-3.3-2.6c-.1,0-.3-.1-.5,0ZM833,527l-3.9,1.5c-.1,0-.2.2,0,.3l3.3,2.6c.1,0,.3.1.5,0l3.9-1.5c.1,0,.2-.2,0-.3l-3.3-2.6c-.1,0-.3-.1-.5,0ZM837.2,530.2l-3.9,1.5c-.1,0-.2.2,0,.3l4.5,3.6c.1,0,.3.1.5,0l3.9-1.5c.1,0,.2-.2,0-.3l-4.5-3.6c-.1,0-.3-.1-.5,0ZM804.3,504.2l-3.9,1.5c-.1,0-.2.2,0,.3l3.3,2.6c.1,0,.3.1.5,0l3.9-1.5c.1,0,.2-.2,0-.3l-3.3-2.6c-.1,0-.3-.1-.5,0ZM784.1,510.2l3.9-1.5c.1,0,.2-.2,0-.3l-7.4-5.9c-.1,0-.3-.1-.5,0l-3.9,1.5c-.1,0-.2.2,0,.3l7.4,5.9c.1,0,.3.1.5,0ZM828.4,522.1l3.9-1.5c.1,0,.2-.2,0-.3l-19.8-15.7c-.1,0-.3-.1-.5,0l-3.9,1.5c-.1,0-.2.2,0,.3l19.8,15.7c.1,0,.3.1.5,0Z"/>
            <path class="cls-87" d="M769.8,501.7l-3.3-2.6c-.2-.2-.2-.4,0-.5l1.2-.5c.3-.1.7,0,.9.1l3.3,2.6c.2.2.2.4,0,.5l-1.2.5c-.3.1-.7,0-.9-.1ZM775.7,505.8l1.2-.5c.3-.1.3-.3,0-.5l-3.3-2.6c-.2-.2-.6-.2-.9-.1l-1.2.5c-.3.1-.3.3,0,.5l3.3,2.6c.2.2.6.2.9.1ZM780.8,509.8l1.2-.5c.3-.1.3-.3,0-.5l-3.3-2.6c-.2-.2-.6-.2-.9-.1l-1.2.5c-.3.1-.3.3,0,.5l3.3,2.6c.2.2.6.2.9.1ZM785.8,513.8l1.2-.5c.3-.1.3-.3,0-.5l-3.3-2.6c-.2-.2-.6-.2-.9-.1l-1.2.5c-.3.1-.3.3,0,.5l3.3,2.6c.2.2.6.2.9.1ZM790.9,517.8l1.2-.5c.3-.1.3-.3,0-.5l-3.3-2.6c-.2-.2-.6-.2-.9-.1l-1.2.5c-.3.1-.3.3,0,.5l3.3,2.6c.2.2.6.2.9.1ZM795.9,521.8l1.2-.5c.3-.1.3-.3,0-.5l-3.3-2.6c-.2-.2-.6-.2-.9-.1l-1.2.5c-.3.1-.3.3,0,.5l3.3,2.6c.2.2.6.2.9.1ZM801,525.8l1.2-.5c.3-.1.3-.3,0-.5l-3.3-2.6c-.2-.2-.6-.2-.9-.1l-1.2.5c-.3.1-.3.3,0,.5l3.3,2.6c.2.2.6.2.9.1ZM806,529.8l1.2-.5c.3-.1.3-.3,0-.5l-3.3-2.6c-.2-.2-.6-.2-.9-.1l-1.2.5c-.3.1-.3.3,0,.5l3.3,2.6c.2.2.6.2.9.1ZM811.1,533.8l1.2-.5c.3-.1.3-.3,0-.5l-3.3-2.6c-.2-.2-.6-.2-.9-.1l-1.2.5c-.3.1-.3.3,0,.5l3.3,2.6c.2.2.6.2.9.1ZM816.1,537.8l1.2-.5c.3-.1.3-.3,0-.5l-3.3-2.6c-.2-.2-.6-.2-.9-.1l-1.2.5c-.3.1-.3.3,0,.5l3.3,2.6c.2.2.6.2.9.1ZM821.1,541.8l1.2-.5c.3-.1.3-.3,0-.5l-3.3-2.6c-.2-.2-.6-.2-.9-.1l-1.2.5c-.3.1-.3.3,0,.5l3.3,2.6c.2.2.6.2.9.1ZM765.6,497.8l1.2-.5c.3-.1.3-.3,0-.5l-3.3-2.6c-.2-.2-.6-.2-.9-.1l-1.2.5c-.3.1-.3.3,0,.5l3.3,2.6c.2.2.6.2.9.1ZM788.3,512.8l3.9-1.5c.1,0,.2-.2,0-.3l-3.3-2.6c-.1,0-.3-.1-.5,0l-3.9,1.5c-.1,0-.2.2,0,.3l3.3,2.6c.1,0,.3.1.5,0ZM792.4,516.1l3.9-1.5c.1,0,.2-.2,0-.3l-3.3-2.6c-.1,0-.3-.1-.5,0l-3.9,1.5c-.1,0-.2.2,0,.3l3.3,2.6c.1,0,.3.1.5,0ZM796.6,519.4l3.9-1.5c.1,0,.2-.2,0-.3l-3.3-2.6c-.1,0-.3-.1-.5,0l-3.9,1.5c-.1,0-.2.2,0,.3l3.3,2.6c.1,0,.3.1.5,0ZM800.7,522.7l3.9-1.5c.1,0,.2-.2,0-.3l-3.3-2.6c-.1,0-.3-.1-.5,0l-3.9,1.5c-.1,0-.2.2,0,.3l3.3,2.6c.1,0,.3.1.5,0ZM804.8,525.9l3.9-1.5c.1,0,.2-.2,0-.3l-3.3-2.6c-.1,0-.3-.1-.5,0l-3.9,1.5c-.1,0-.2.2,0,.3l3.3,2.6c.1,0,.3.1.5,0ZM808.9,529.2l3.9-1.5c.1,0,.2-.2,0-.3l-3.3-2.6c-.1,0-.3-.1-.5,0l-3.9,1.5c-.1,0-.2.2,0,.3l3.3,2.6c.1,0,.3.1.5,0ZM813.1,532.5l3.9-1.5c.1,0,.2-.2,0-.3l-3.3-2.6c-.1,0-.3-.1-.5,0l-3.9,1.5c-.1,0-.2.2,0,.3l3.3,2.6c.1,0,.3.1.5,0ZM817.2,535.7l3.9-1.5c.1,0,.2-.2,0-.3l-3.3-2.6c-.1,0-.3-.1-.5,0l-3.9,1.5c-.1,0-.2.2,0,.3l3.3,2.6c.1,0,.3.1.5,0ZM823.6,540.8l3.9-1.5c.1,0,.2-.2,0-.3l-5.6-4.4c-.1,0-.3-.1-.5,0l-3.9,1.5c-.1,0-.2.2,0,.3l5.6,4.4c.1,0,.3.1.5,0ZM799.6,498.5l3.9-1.5c.1,0,.2-.2,0-.3l-3.3-2.6c-.1,0-.3-.1-.5,0l-3.9,1.5c-.1,0-.2.2,0,.3l3.3,2.6c.1,0,.3.1.5,0ZM803.8,501.8l3.9-1.5c.1,0,.2-.2,0-.3l-3.3-2.6c-.1,0-.3-.1-.5,0l-3.9,1.5c-.1,0-.2.2,0,.3l3.3,2.6c.1,0,.3.1.5,0ZM807.9,505.1l3.9-1.5c.1,0,.2-.2,0-.3l-3.3-2.6c-.1,0-.3-.1-.5,0l-3.9,1.5c-.1,0-.2.2,0,.3l3.3,2.6c.1,0,.3.1.5,0ZM832.7,524.7l3.9-1.5c.1,0,.2-.2,0-.3l-3.3-2.6c-.1,0-.3-.1-.5,0l-3.9,1.5c-.1,0-.2.2,0,.3l3.3,2.6c.1,0,.3.1.5,0ZM836.8,528l3.9-1.5c.1,0,.2-.2,0-.3l-3.3-2.6c-.1,0-.3-.1-.5,0l-3.9,1.5c-.1,0-.2.2,0,.3l3.3,2.6c.1,0,.3.1.5,0ZM843.2,533.1l3.9-1.5c.1,0,.2-.2,0-.3l-5.6-4.4c-.1,0-.3-.1-.5,0l-3.9,1.5c-.1,0-.2.2,0,.3l5.6,4.4c.1,0,.3.1.5,0ZM828.7,534.5l-3.9,1.5c-.1,0-.2.2,0,.3l3.3,2.6c.1,0,.3.1.5,0l3.9-1.5c.1,0,.2-.2,0-.3l-3.3-2.6c-.1,0-.3-.1-.5,0ZM824.6,531.2l-3.9,1.5c-.1,0-.2.2,0,.3l3.3,2.6c.1,0,.3.1.5,0l3.9-1.5c.1,0,.2-.2,0-.3l-3.3-2.6c-.1,0-.3-.1-.5,0ZM820.5,527.9l-3.9,1.5c-.1,0-.2.2,0,.3l3.3,2.6c.1,0,.3.1.5,0l3.9-1.5c.1,0,.2-.2,0-.3l-3.3-2.6c-.1,0-.3-.1-.5,0ZM816.3,524.6l-3.9,1.5c-.1,0-.2.2,0,.3l3.3,2.6c.1,0,.3.1.5,0l3.9-1.5c.1,0,.2-.2,0-.3l-3.3-2.6c-.1,0-.3-.1-.5,0ZM812.2,521.4l-3.9,1.5c-.1,0-.2.2,0,.3l3.3,2.6c.1,0,.3.1.5,0l3.9-1.5c.1,0,.2-.2,0-.3l-3.3-2.6c-.1,0-.3-.1-.5,0ZM808.1,518.1l-3.9,1.5c-.1,0-.2.2,0,.3l3.3,2.6c.1,0,.3.1.5,0l3.9-1.5c.1,0,.2-.2,0-.3l-3.3-2.6c-.1,0-.3-.1-.5,0ZM803.9,514.8l-3.9,1.5c-.1,0-.2.2,0,.3l3.3,2.6c.1,0,.3.1.5,0l3.9-1.5c.1,0,.2-.2,0-.3l-3.3-2.6c-.1,0-.3-.1-.5,0ZM799.8,511.6l-3.9,1.5c-.1,0-.2.2,0,.3l3.3,2.6c.1,0,.3.1.5,0l3.9-1.5c.1,0,.2-.2,0-.3l-3.3-2.6c-.1,0-.3-.1-.5,0ZM795.7,508.3l-3.9,1.5c-.1,0-.2.2,0,.3l3.3,2.6c.1,0,.3.1.5,0l3.9-1.5c.1,0,.2-.2,0-.3l-3.3-2.6c-.1,0-.3-.1-.5,0ZM791.5,505l-3.9,1.5c-.1,0-.2.2,0,.3l3.3,2.6c.1,0,.3.1.5,0l3.9-1.5c.1,0,.2-.2,0-.3l-3.3-2.6c-.1,0-.3-.1-.5,0ZM798.3,504.5l-3.9,1.5c-.1,0-.2.2,0,.3l3.3,2.6c.1,0,.3.1.5,0l3.9-1.5c.1,0,.2-.2,0-.3l-3.3-2.6c-.1,0-.3-.1-.5,0ZM802.4,507.8l-3.9,1.5c-.1,0-.2.2,0,.3l3.3,2.6c.1,0,.3.1.5,0l3.9-1.5c.1,0,.2-.2,0-.3l-3.3-2.6c-.1,0-.3-.1-.5,0ZM806.5,511.1l-3.9,1.5c-.1,0-.2.2,0,.3l3.3,2.6c.1,0,.3.1.5,0l3.9-1.5c.1,0,.2-.2,0-.3l-3.3-2.6c-.1,0-.3-.1-.5,0ZM810.7,514.3l-3.9,1.5c-.1,0-.2.2,0,.3l3.3,2.6c.1,0,.3.1.5,0l3.9-1.5c.1,0,.2-.2,0-.3l-3.3-2.6c-.1,0-.3-.1-.5,0ZM814.8,517.6l-3.9,1.5c-.1,0-.2.2,0,.3l3.3,2.6c.1,0,.3.1.5,0l3.9-1.5c.1,0,.2-.2,0-.3l-3.3-2.6c-.1,0-.3-.1-.5,0ZM818.9,520.9l-3.9,1.5c-.1,0-.2.2,0,.3l3.3,2.6c.1,0,.3.1.5,0l3.9-1.5c.1,0,.2-.2,0-.3l-3.3-2.6c-.1,0-.3-.1-.5,0ZM823.1,524.2l-3.9,1.5c-.1,0-.2.2,0,.3l3.3,2.6c.1,0,.3.1.5,0l3.9-1.5c.1,0,.2-.2,0-.3l-3.3-2.6c-.1,0-.3-.1-.5,0ZM827.2,527.4l-3.9,1.5c-.1,0-.2.2,0,.3l3.3,2.6c.1,0,.3.1.5,0l3.9-1.5c.1,0,.2-.2,0-.3l-3.3-2.6c-.1,0-.3-.1-.5,0ZM831.3,530.7l-3.9,1.5c-.1,0-.2.2,0,.3l5.6,4.4c.1,0,.3.1.5,0l3.9-1.5c.1,0,.2-.2,0-.3l-5.6-4.4c-.1,0-.3-.1-.5,0ZM794.2,501.3l-3.9,1.5c-.1,0-.2.2,0,.3l3.3,2.6c.1,0,.3.1.5,0l3.9-1.5c.1,0,.2-.2,0-.3l-3.3-2.6c-.1,0-.3-.1-.5,0ZM776.9,493.4l-3.9,1.5c-.1,0-.2.2,0,.3l3.3,2.6c.1,0,.3.1.5,0l3.9-1.5c.1,0,.2-.2,0-.3l-3.3-2.6c-.1,0-.3-.1-.5,0ZM781,496.7l-3.9,1.5c-.1,0-.2.2,0,.3l3.3,2.6c.1,0,.3.1.5,0l3.9-1.5c.1,0,.2-.2,0-.3l-3.3-2.6c-.1,0-.3-.1-.5,0ZM772.7,490.1l-3.9,1.5c-.1,0-.2.2,0,.3l3.3,2.6c.1,0,.3.1.5,0l3.9-1.5c.1,0,.2-.2,0-.3l-3.3-2.6c-.1,0-.3-.1-.5,0ZM772,495.3l-3.9,1.5c-.1,0-.2.2,0,.3l3.3,2.6c.1,0,.3.1.5,0l3.9-1.5c.1,0,.2-.2,0-.3l-3.3-2.6c-.1,0-.3-.1-.5,0ZM791.6,487.6l-1.7.7c-.1,0-.2.2,0,.3l3.3,2.6c.1,0,.3.1.5,0l1.7-.7c.1,0,.2-.2,0-.3l-3.3-2.6c-.1,0-.3-.1-.5,0ZM795.7,490.8l-1.7.7c-.1,0-.2.2,0,.3l3.3,2.6c.1,0,.3.1.5,0l1.7-.7c.1,0,.2-.2,0-.3l-3.3-2.6c-.1,0-.3-.1-.5,0ZM787.4,484.3l-1.7.7c-.1,0-.2.2,0,.3l3.3,2.6c.1,0,.3.1.5,0l1.7-.7c.1,0,.2-.2,0-.3l-3.3-2.6c-.1,0-.3-.1-.5,0ZM788.9,488.6l-1.7.7c-.1,0-.2.2,0,.3l3.3,2.6c.1,0,.3.1.5,0l1.7-.7c.1,0,.2-.2,0-.3l-3.3-2.6c-.1,0-.3-.1-.5,0ZM776.1,498.6l-3.9,1.5c-.1,0-.2.2,0,.3l3.3,2.6c.1,0,.3.1.5,0l3.9-1.5c.1,0,.2-.2,0-.3l-3.3-2.6c-.1,0-.3-.1-.5,0ZM767.8,492.1l-3.9,1.5c-.1,0-.2.2,0,.3l3.3,2.6c.1,0,.3.1.5,0l3.9-1.5c.1,0,.2-.2,0-.3l-3.3-2.6c-.1,0-.3-.1-.5,0ZM787.2,506.2l3.9-1.5c.1,0,.2-.2,0-.3l-1.9-1.5c-.1,0,0-.2,0-.3l4.4-1.7c.1,0,.2-.2,0-.3l-3.3-2.6c-.1,0-.3-.1-.5,0l-4.7,1.8h0l-4.1,1.6c-.1,0-.2.2,0,.3l5.6,4.4c.1,0,.3.1.5,0ZM794.9,496l-3.9,1.5c-.1,0-.2.2,0,.3l8.6,6.8c.1,0,.3.1.5,0l3.9-1.5c.1,0,.2-.2,0-.3l-8.6-6.8c-.1,0-.3-.1-.5,0ZM808.3,506.7l-3.9,1.5c-.1,0-.2.2,0,.3l3.3,2.6c.1,0,.3.1.5,0l3.9-1.5c.1,0,.2-.2,0-.3l-3.3-2.6c-.1,0-.3-.1-.5,0ZM812.5,510l-3.9,1.5c-.1,0-.2.2,0,.3l3.3,2.6c.1,0,.3.1.5,0l3.9-1.5c.1,0,.2-.2,0-.3l-3.3-2.6c-.1,0-.3-.1-.5,0ZM816.6,513.2l-3.9,1.5c-.1,0-.2.2,0,.3l3.3,2.6c.1,0,.3.1.5,0l3.9-1.5c.1,0,.2-.2,0-.3l-3.3-2.6c-.1,0-.3-.1-.5,0ZM820.7,516.5l-3.9,1.5c-.1,0-.2.2,0,.3l3.3,2.6c.1,0,.3.1.5,0l3.9-1.5c.1,0,.2-.2,0-.3l-3.3-2.6c-.1,0-.3-.1-.5,0ZM824.9,519.8l-3.9,1.5c-.1,0-.2.2,0,.3l3.3,2.6c.1,0,.3.1.5,0l3.9-1.5c.1,0,.2-.2,0-.3l-3.3-2.6c-.1,0-.3-.1-.5,0ZM829,523l-3.9,1.5c-.1,0-.2.2,0,.3l3.3,2.6c.1,0,.3.1.5,0l3.9-1.5c.1,0,.2-.2,0-.3l-3.3-2.6c-.1,0-.3-.1-.5,0ZM833.1,526.3l-3.9,1.5c-.1,0-.2.2,0,.3l3.3,2.6c.1,0,.3.1.5,0l3.9-1.5c.1,0,.2-.2,0-.3l-3.3-2.6c-.1,0-.3-.1-.5,0ZM837.3,529.6l-3.9,1.5c-.1,0-.2.2,0,.3l4.5,3.6c.1,0,.3.1.5,0l3.9-1.5c.1,0,.2-.2,0-.3l-4.5-3.6c-.1,0-.3-.1-.5,0ZM804.4,503.5l-3.9,1.5c-.1,0-.2.2,0,.3l3.3,2.6c.1,0,.3.1.5,0l3.9-1.5c.1,0,.2-.2,0-.3l-3.3-2.6c-.1,0-.3-.1-.5,0ZM784.2,509.6l3.9-1.5c.1,0,.2-.2,0-.3l-7.4-5.9c-.1,0-.3-.1-.5,0l-3.9,1.5c-.1,0-.2.2,0,.3l7.4,5.9c.1,0,.3.1.5,0ZM828.5,521.4l3.9-1.5c.1,0,.2-.2,0-.3l-19.8-15.7c-.1,0-.3-.1-.5,0l-3.9,1.5c-.1,0-.2.2,0,.3l19.8,15.7c.1,0,.3.1.5,0Z"/>
            <g>
              <path class="cls-85" d="M751.2,495.5l61.8,50.9c.4.3,2.4-.4,2.8-.6.4-.2.8-.7.7-1.3l-7.4-58.1c-.1-.8-.5-1.6-1.2-2.1l-63.3-50.2c-.4-.3-.9-.3-1.3-.1-.9.3-1.6.5-1.6.5l8.3,58.8c.1.8.5,1.6,1.2,2.1Z"/>
              <path class="cls-59" d="M749.3,496.1l63.3,50.2c.9.7,2.1,0,2-1.1l-7.4-58.1c-.1-.8-.5-1.6-1.2-2.1l-63.3-50.2c-.9-.7-2.1,0-2,1.1l7.4,58.1c.1.8.5,1.6,1.2,2.1Z"/>
            </g>
            <path class="cls-105" d="M769.6,481.8c.6-3.9,3.6-5.1,6.7-2.7s5.2,7.7,4.6,11.6c-.6,3.9-3.6,5.1-6.7,2.7-3.1-2.5-5.2-7.7-4.6-11.6Z"/>
          </g>
          <path class="cls-119" d="M853.6,489.4s-9,5.1-9.7,4.9c-2.3-.4-13.4-2.7-14.5-2.3-1.1.4-12.4,5.7-13.5,6.3-1,.6-.4,1.7.8,1.4,1.2-.3,10.5-4.6,10.5-4.6,0,0-4.2,3.7-5,4.3-.9.6-5,6.3-5.8,7.4s.7,1.6,1.5.9c.8-.7,4.7-5.5,4.7-5.5l5.7-4.1s-5.3,4.5-5.5,4.7c-.2.2-3.7,5.5-4.1,6.3s1.2,1.2,1.7.5,4.2-5.5,4.2-5.5l6.2-3s-7.1,7-7.9,7.9c-.9.9.6,1.8,1.7.7,1.1-1.1,7.6-6,8.1-5.9.5,0,5.7,1.8,8.9,1.2,3.1-.6,5.9-3.9,5.9-3.9l9.2-3.5-3-8.1Z"/>
          <path class="cls-112" d="M910.6,464.8c-3.1-8.3-14.1-4.3-21.9,0-6,3.4-38.2,26.5-44.6,29.2l3.6,7s69.9-17.1,62.8-36.3Z"/>
          <path class="cls-45" d="M351.2,623.3c-.3,3.1-1.2,3.6-5.9,6.9-3.9,2.8-5.7,7.2-1.1,11.4,4.6,4.2,8.9,6.5,9.4,10.6s3.8,8.3,6.3,10.8c3.8,3.8,9.1,7.5,11.3,4.9,2.2-2.6-3.2-13.2-3.4-14-.7-2.4-5-17.8-5.7-19.9l-.4-10.3-10.5-.4Z"/>
          <path class="cls-77" d="M352,622.4c-.3,3.1-1.2,3.6-5.9,6.9-3.9,2.8-5.7,7.2-1.1,11.4,4.6,4.2,8.9,6.5,9.4,10.6.5,4.1,3.8,8.3,6.3,10.8,3.8,3.8,9.1,7.5,11.3,4.9,2.2-2.6-3.2-13.2-3.4-14-.7-2.4-5-17.8-5.7-19.9l-.4-10.3-10.5-.4Z"/>
          <circle class="cls-64" cx="268.1" cy="466.6" r="32.4" transform="translate(-141.2 117.3) rotate(-19.6)"/>
          <path class="cls-69" d="M276.6,432.1l114.2,69.3c7.6,4.6,10,14.5,5.4,22.1-4.3,7.2-13.5,9.7-20.8,6.1l-119.8-59.1c-10.8-5.4-15.3-18.5-9.9-29.3,5.4-10.8,18.5-15.3,29.3-9.9.6.3,1.1.6,1.7.9Z"/>
          <path class="cls-57" d="M397.5,519.2l-31.9,107.5c-1.6,5.4-7.3,8.5-12.7,6.9-5.1-1.5-8.2-6.8-7.1-11.9l22.8-109.8c1.7-8.1,9.6-13.3,17.7-11.6,8.1,1.7,13.3,9.6,11.6,17.7,0,.4-.2.8-.3,1.2Z"/>
          <path class="cls-100" d="M265.7,461.7l44.5,104,.4,1,.2.7,33.5,147.5c.8,3.6-1.5,7.3-5.1,8.1-3.6.8-7.1-1.4-8-4.9l-38.6-146.3.6,1.6-49.3-101.9c-2.9-5.9-.4-13.1,5.6-15.9,5.9-2.9,13.1-.4,15.9,5.6,0,.2.2.3.2.5Z"/>
          <path class="cls-102" d="M277.1,457.3l40.4,105.5.8,2.1.2.8,25,127.7c1.3,6.7-22.4,11.8-24.1,5.6l-34.2-125.6,1,2.9-49.1-101.8c-5.3-10.9-.7-24,10.2-29.2,10.9-5.3,24-.7,29.2,10.2.3.5.5,1.1.7,1.7Z"/>
          <path class="cls-43" d="M336.1,397.3c-2.3,0-4.7-.8-6.6-2.4l-42.1-34.6c-4.5-3.7-5.1-10.3-1.4-14.7,3.7-4.5,10.3-5.1,14.7-1.4l42.1,34.6c4.5,3.7,5.1,10.3,1.4,14.7-2.1,2.5-5.1,3.8-8.1,3.8Z"/>
          <path class="cls-72" d="M237.5,481.8c-18.9-82.1-4.7-128.4,8.5-139.6,18-15.4,46.8-7.4,58.6,4.8,7.6,7.9-11.9,30.5,3.8,104,3.3,15.6-69,39.1-70.9,30.7Z"/>
          <path class="cls-110" d="M278.4,352.3c.4,0,.7.1,1.1.1,5,.5,8.7-2.1,10.4-4.8,1.6-2.4,1.9-5,.9-6.9-1.3-2.3-8.2-3.8-12.2-4.4-4.1-.7-17.5-2.5-18.4,1.8-.2,1.2.2,2.5,1.2,4,2.7,4,10,9,17,10.2Z"/>
          <path class="cls-49" d="M253.2,431c-5.7,0-10.4-4.6-10.5-10.3l-1.2-66.5c-.1-5.8,4.5-10.5,10.3-10.6,5.8,0,10.5,4.5,10.6,10.3l1.2,66.5c.1,5.8-4.5,10.5-10.3,10.6,0,0-.1,0-.2,0Z"/>
          <path class="cls-39" d="M276.1,346.1h-.2c-4.6-.1-8.3-4-8.2-8.6l.7-28c.1-4.6,4-8.3,8.6-8.2h.2c4.6.1,8.3,4,8.2,8.6l-.7,28c-.1,4.6-4,8.3-8.6,8.2Z"/>
          <path class="cls-113" d="M284.6,278.3c5.5,1.5,12.8,6.6,14.1,11.1,1.3,4.5,1.1,7,.8,8.6-.3,1.6-1.5,5.4-1.3,6.7.2,1.3.9,5.8.3,7.4s-4.8,12.7-5.7,13.5c-1.5,1.2-4.6,2.9-9.3.5-4.7-2.4-17.1-13.9-19.3-18.7s-3.1-14.6-1.2-20.5c4-12.4,21.6-8.6,21.6-8.6Z"/>
          <path class="cls-45" d="M330,714c.1,2.8.3,5.2,1.3,8.6,1.3,4.2,6,4.2,11,4.3,5,.2,9.6,1.1,12.4,3.4,4.2,3.5,8.9,4.4,13.1,4.2,6.2-.3,9.4-3,9.4-4.5-.1-2.5-7-5.7-9.8-6.8-2.7-1.1-20.4-12.8-25.2-15.6-2.6,8.5-12.1,6.3-12.1,6.3Z"/>
          <path class="cls-20" d="M366.8,721.4c-2.4-.9-15.8-9.7-22.5-13.9h0s-4.5-8-8.1-5.4c-2.7,1.9-1.4,7.2-.6,9.9-3.1.9-6.1.2-6.1.2.1,2.8.3,5.2,1.3,8.6,1.3,4.2,6,4.2,11,4.3,5,.2,9.6,1.1,12.4,3.4,4.2,3.5,8.9,4.4,13.1,4.2,6.2-.3,9.4-3,9.4-4.5-.1-2.5-7-5.7-9.8-6.8Z"/>
          <path class="cls-35" d="M311.9,280c-2.2-1.9-4.3,2.5-5.7,1.8-1.4-.7-3.1-8.3-6.6-8.3-3.5,0-2.1,2.7-5.1,3.2-3,.4-8.1-4-13.4-3.9-11.2.3-22.9,13.2-19,18.1,0,0,0,0,0,0-8.3,9.2,7.4,31.7,7.4,31.7,0,0,.2-8.1.7-14.4.2-2.5.3-3.5,1.4-4.5,3.8-3.2,5.5,4.5,7.5,2.9.7-.5-.8-5.7-1-8.9,6.9,1.2,15,1.2,22.2-1.6,10.6-4.2,15.5-12.6,11.6-16Z"/>
          <path class="cls-101" d="M313.2,320.6c-1.4-1.2-17.7-5.5-18.4-5.6-.7,0-6.4,3.4-8.5,4.7-2.1,1.3-.2,2.4,1.2,1.7,1.4-.7,6.9-3.6,6.9-3.6l1.7.9s-3.1,2.7-4.4,4.2c-1.3,1.5,1.1,1.9,1.6,1.1,0,0,.8,2.2,2.4,2.1,0,0,.2,1.5,1.9,1.4s5.3-2.1,5.3-2.1l8.1,4.3,4.3,11.7,8-3.9s-8.7-15.8-10.2-17Z"/>
          <path class="cls-66" d="M342.5,396.6c-9.1,5.3-17-4.7-19.8-13.8-2.1-6.8-11-41.4-14.2-48l9.7-7.4s42.3,58.7,24.3,69.2Z"/>
          <g>
            <path class="cls-104" d="M344.8,498.2c-.8.7-2.1.9-3.1.6l-53.7-18c-.5-.2-.6,0-.6,0l.3,1.3h0c0,.3.3.6.8.8l53.7,18c1,.3,2.3,0,3.1-.6l61-54c.4-.3.5-.7.4-1h0s-.3-1.3-.3-1.3l-61.6,54.2Z"/>
            <path class="cls-21" d="M405.9,445l-61,54c-.8.7-2.1.9-3.1.6l-53.7-18c-1-.3-1.1-1.1-.4-1.8l61-54c.8-.7,2.1-.9,3.1-.6l53.7,18c1,.3,1.1,1.1.4,1.8Z"/>
            <path class="cls-115" d="M347.8,449.9l-18,16c-.7.6-1.9.8-2.7.6l-13.9-4.6c-.8-.3-1-1-.3-1.6l18-16c.7-.6,1.9-.8,2.7-.6l13.9,4.6c.8.3,1,1,.3,1.6Z"/>
            <path class="cls-95" d="M385.7,452l-1.2-.4c-.3,0-.3-.3-.1-.5l3.2-2.8c.2-.2.6-.3.9-.2l1.2.4c.3,0,.3.3.1.5l-3.2,2.8c-.2.2-.6.3-.9.2ZM381.8,456.1l3.2-2.8c.2-.2.2-.4-.1-.5l-1.2-.4c-.3,0-.7,0-.9.2l-3.2,2.8c-.2.2-.2.4.1.5l1.2.4c.3,0,.7,0,.9-.2ZM377,460.3l3.2-2.8c.2-.2.2-.4-.1-.5l-1.2-.4c-.3,0-.7,0-.9.2l-3.2,2.8c-.2.2-.2.4.1.5l1.2.4c.3,0,.7,0,.9-.2ZM372.2,464.6l3.2-2.8c.2-.2.2-.4-.1-.5l-1.2-.4c-.3,0-.7,0-.9.2l-3.2,2.8c-.2.2-.2.4.1.5l1.2.4c.3,0,.7,0,.9-.2ZM367.4,468.9l3.2-2.8c.2-.2.2-.4-.1-.5l-1.2-.4c-.3,0-.7,0-.9.2l-3.2,2.8c-.2.2-.2.4.1.5l1.2.4c.3,0,.7,0,.9-.2ZM362.5,473.1l3.2-2.8c.2-.2.2-.4-.1-.5l-1.2-.4c-.3,0-.7,0-.9.2l-3.2,2.8c-.2.2-.2.4.1.5l1.2.4c.3,0,.7,0,.9-.2ZM357.7,477.4l3.2-2.8c.2-.2.2-.4-.1-.5l-1.2-.4c-.3,0-.7,0-.9.2l-3.2,2.8c-.2.2-.2.4.1.5l1.2.4c.3,0,.7,0,.9-.2ZM352.9,481.7l3.2-2.8c.2-.2.2-.4-.1-.5l-1.2-.4c-.3,0-.7,0-.9.2l-3.2,2.8c-.2.2-.2.4.1.5l1.2.4c.3,0,.7,0,.9-.2ZM348.1,485.9l3.2-2.8c.2-.2.2-.4-.1-.5l-1.2-.4c-.3,0-.7,0-.9.2l-3.2,2.8c-.2.2-.2.4.1.5l1.2.4c.3,0,.7,0,.9-.2ZM343.2,490.2l3.2-2.8c.2-.2.2-.4-.1-.5l-1.2-.4c-.3,0-.7,0-.9.2l-3.2,2.8c-.2.2-.2.4.1.5l1.2.4c.3,0,.7,0,.9-.2ZM338.4,494.5l3.2-2.8c.2-.2.2-.4-.1-.5l-1.2-.4c-.3,0-.7,0-.9.2l-3.2,2.8c-.2.2-.2.4.1.5l1.2.4c.3,0,.7,0,.9-.2ZM391.5,447.5l3.2-2.8c.2-.2.2-.4-.1-.5l-1.2-.4c-.3,0-.7,0-.9.2l-3.2,2.8c-.2.2-.2.4.1.5l1.2.4c.3,0,.7,0,.9-.2ZM369.2,463.8l3.1-2.8c.1,0,0-.2,0-.3l-3.9-1.3c-.1,0-.3,0-.4,0l-3.1,2.8c-.1,0,0,.2,0,.3l3.9,1.3c.1,0,.3,0,.4,0ZM365.3,467.3l3.1-2.8c.1,0,0-.2,0-.3l-3.9-1.3c-.1,0-.3,0-.4,0l-3.1,2.8c-.1,0,0,.2,0,.3l3.9,1.3c.1,0,.3,0,.4,0ZM361.3,470.8l3.1-2.8c.1,0,0-.2,0-.3l-3.9-1.3c-.1,0-.3,0-.4,0l-3.1,2.8c-.1,0,0,.2,0,.3l3.9,1.3c.1,0,.3,0,.4,0ZM357.4,474.3l3.1-2.8c.1,0,0-.2,0-.3l-3.9-1.3c-.1,0-.3,0-.4,0l-3.1,2.8c-.1,0,0,.2,0,.3l3.9,1.3c.1,0,.3,0,.4,0ZM353.4,477.8l3.1-2.8c.1,0,0-.2,0-.3l-3.9-1.3c-.1,0-.3,0-.4,0l-3.1,2.8c-.1,0,0,.2,0,.3l3.9,1.3c.1,0,.3,0,.4,0ZM349.5,481.3l3.1-2.8c.1,0,0-.2,0-.3l-3.9-1.3c-.1,0-.3,0-.4,0l-3.1,2.8c-.1,0,0,.2,0,.3l3.9,1.3c.1,0,.3,0,.4,0ZM345.5,484.8l3.1-2.8c.1,0,0-.2,0-.3l-3.9-1.3c-.1,0-.3,0-.4,0l-3.1,2.8c-.1,0,0,.2,0,.3l3.9,1.3c.1,0,.3,0,.4,0ZM341.6,488.3l3.1-2.8c.1,0,0-.2,0-.3l-3.9-1.3c-.1,0-.3,0-.4,0l-3.1,2.8c-.1,0,0,.2,0,.3l3.9,1.3c.1,0,.3,0,.4,0ZM335.5,493.7l5.3-4.7c.1,0,0-.2,0-.3l-3.9-1.3c-.1,0-.3,0-.4,0l-5.3,4.7c-.1,0,0,.2,0,.3l3.9,1.3c.1,0,.3,0,.4,0ZM357.1,450.2l3.1-2.8c.1,0,0-.2,0-.3l-3.9-1.3c-.1,0-.3,0-.4,0l-3.1,2.8c-.1,0,0,.2,0,.3l3.9,1.3c.1,0,.3,0,.4,0ZM353.2,453.7l3.1-2.8c.1,0,0-.2,0-.3l-3.9-1.3c-.1,0-.3,0-.4,0l-3.1,2.8c-.1,0,0,.2,0,.3l3.9,1.3c.1,0,.3,0,.4,0ZM349.2,457.2l3.1-2.8c.1,0,0-.2,0-.3l-3.9-1.3c-.1,0-.3,0-.4,0l-3.1,2.8c-.1,0,0,.2,0,.3l3.9,1.3c.1,0,.3,0,.4,0ZM325.5,478.1l3.1-2.8c.1,0,0-.2,0-.3l-3.9-1.3c-.1,0-.3,0-.4,0l-3.1,2.8c-.1,0,0,.2,0,.3l3.9,1.3c.1,0,.3,0,.4,0ZM321.6,481.6l3.1-2.8c.1,0,0-.2,0-.3l-3.9-1.3c-.1,0-.3,0-.4,0l-3.1,2.8c-.1,0,0,.2,0,.3l3.9,1.3c.1,0,.3,0,.4,0ZM315.5,487.1l5.3-4.7c.1,0,0-.2,0-.3l-3.9-1.3c-.1,0-.3,0-.4,0l-5.3,4.7c-.1,0,0,.2,0,.3l3.9,1.3c.1,0,.3,0,.4,0ZM329.1,487.8l-3.1,2.8c-.1,0,0,.2,0,.3l3.9,1.3c.1,0,.3,0,.4,0l3.1-2.8c.1,0,0-.2,0-.3l-3.9-1.3c-.1,0-.3,0-.4,0ZM333.1,484.3l-3.1,2.8c-.1,0,0,.2,0,.3l3.9,1.3c.1,0,.3,0,.4,0l3.1-2.8c.1,0,0-.2,0-.3l-3.9-1.3c-.1,0-.3,0-.4,0ZM337,480.8l-3.1,2.8c-.1,0,0,.2,0,.3l3.9,1.3c.1,0,.3,0,.4,0l3.1-2.8c.1,0,0-.2,0-.3l-3.9-1.3c-.1,0-.3,0-.4,0ZM341,477.3l-3.1,2.8c-.1,0,0,.2,0,.3l3.9,1.3c.1,0,.3,0,.4,0l3.1-2.8c.1,0,0-.2,0-.3l-3.9-1.3c-.1,0-.3,0-.4,0ZM344.9,473.9l-3.1,2.8c-.1,0,0,.2,0,.3l3.9,1.3c.1,0,.3,0,.4,0l3.1-2.8c.1,0,0-.2,0-.3l-3.9-1.3c-.1,0-.3,0-.4,0ZM348.8,470.4l-3.1,2.8c-.1,0,0,.2,0,.3l3.9,1.3c.1,0,.3,0,.4,0l3.1-2.8c.1,0,0-.2,0-.3l-3.9-1.3c-.1,0-.3,0-.4,0ZM352.8,466.9l-3.1,2.8c-.1,0,0,.2,0,.3l3.9,1.3c.1,0,.3,0,.4,0l3.1-2.8c.1,0,0-.2,0-.3l-3.9-1.3c-.1,0-.3,0-.4,0ZM356.7,463.4l-3.1,2.8c-.1,0,0,.2,0,.3l3.9,1.3c.1,0,.3,0,.4,0l3.1-2.8c.1,0,0-.2,0-.3l-3.9-1.3c-.1,0-.3,0-.4,0ZM360.7,459.9l-3.1,2.8c-.1,0,0,.2,0,.3l3.9,1.3c.1,0,.3,0,.4,0l3.1-2.8c.1,0,0-.2,0-.3l-3.9-1.3c-.1,0-.3,0-.4,0ZM364.6,456.4l-3.1,2.8c-.1,0,0,.2,0,.3l3.9,1.3c.1,0,.3,0,.4,0l3.1-2.8c.1,0,0-.2,0-.3l-3.9-1.3c-.1,0-.3,0-.4,0ZM357.9,456.3l-3.1,2.8c-.1,0,0,.2,0,.3l3.9,1.3c.1,0,.3,0,.4,0l3.1-2.8c.1,0,0-.2,0-.3l-3.9-1.3c-.1,0-.3,0-.4,0ZM353.9,459.8l-3.1,2.8c-.1,0,0,.2,0,.3l3.9,1.3c.1,0,.3,0,.4,0l3.1-2.8c.1,0,0-.2,0-.3l-3.9-1.3c-.1,0-.3,0-.4,0ZM350,463.3l-3.1,2.8c-.1,0,0,.2,0,.3l3.9,1.3c.1,0,.3,0,.4,0l3.1-2.8c.1,0,0-.2,0-.3l-3.9-1.3c-.1,0-.3,0-.4,0ZM346,466.7l-3.1,2.8c-.1,0,0,.2,0,.3l3.9,1.3c.1,0,.3,0,.4,0l3.1-2.8c.1,0,0-.2,0-.3l-3.9-1.3c-.1,0-.3,0-.4,0ZM342.1,470.2l-3.1,2.8c-.1,0,0,.2,0,.3l3.9,1.3c.1,0,.3,0,.4,0l3.1-2.8c.1,0,0-.2,0-.3l-3.9-1.3c-.1,0-.3,0-.4,0ZM338.2,473.7l-3.1,2.8c-.1,0,0,.2,0,.3l3.9,1.3c.1,0,.3,0,.4,0l3.1-2.8c.1,0,0-.2,0-.3l-3.9-1.3c-.1,0-.3,0-.4,0ZM334.2,477.2l-3.1,2.8c-.1,0,0,.2,0,.3l3.9,1.3c.1,0,.3,0,.4,0l3.1-2.8c.1,0,0-.2,0-.3l-3.9-1.3c-.1,0-.3,0-.4,0ZM330.3,480.7l-3.1,2.8c-.1,0,0,.2,0,.3l3.9,1.3c.1,0,.3,0,.4,0l3.1-2.8c.1,0,0-.2,0-.3l-3.9-1.3c-.1,0-.3,0-.4,0ZM326.3,484.2l-5.3,4.7c-.1,0,0,.2,0,.3l3.9,1.3c.1,0,.3,0,.4,0l5.3-4.7c.1,0,0-.2,0-.3l-3.9-1.3c-.1,0-.3,0-.4,0ZM361.8,452.8l-3.1,2.8c-.1,0,0,.2,0,.3l3.9,1.3c.1,0,.3,0,.4,0l3.1-2.8c.1,0,0-.2,0-.3l-3.9-1.3c-.1,0-.3,0-.4,0ZM378.7,444l-3.1,2.8c-.1,0,0,.2,0,.3l3.9,1.3c.1,0,.3,0,.4,0l3.1-2.8c.1,0,0-.2,0-.3l-3.9-1.3c-.1,0-.3,0-.4,0ZM374.7,447.5l-3.1,2.8c-.1,0,0,.2,0,.3l3.9,1.3c.1,0,.3,0,.4,0l3.1-2.8c.1,0,0-.2,0-.3l-3.9-1.3c-.1,0-.3,0-.4,0ZM382.6,440.5l-3.1,2.8c-.1,0,0,.2,0,.3l3.9,1.3c.1,0,.3,0,.4,0l3.1-2.8c.1,0,0-.2,0-.3l-3.9-1.3c-.1,0-.3,0-.4,0ZM383.6,445.6l-3.1,2.8c-.1,0,0,.2,0,.3l3.9,1.3c.1,0,.3,0,.4,0l3.1-2.8c.1,0,0-.2,0-.3l-3.9-1.3c-.1,0-.3,0-.4,0ZM363.7,439l-3.1,2.8c-.1,0,0,.2,0,.3l1.7.6c.1,0,.3,0,.4,0l3.1-2.8c.1,0,0-.2,0-.3l-1.7-.6c-.1,0-.3,0-.4,0ZM359.7,442.5l-3.1,2.8c-.1,0,0,.2,0,.3l1.7.6c.1,0,.3,0,.4,0l3.1-2.8c.1,0,0-.2,0-.3l-1.7-.6c-.1,0-.3,0-.4,0ZM367.6,435.5l-3.1,2.8c-.1,0,0,.2,0,.3l1.7.6c.1,0,.3,0,.4,0l3.1-2.8c.1,0,0-.2,0-.3l-1.7-.6c-.1,0-.3,0-.4,0ZM366.3,439.9l-3.1,2.8c-.1,0,0,.2,0,.3l1.7.6c.1,0,.3,0,.4,0l3.1-2.8c.1,0,0-.2,0-.3l-1.7-.6c-.1,0-.3,0-.4,0ZM379.7,449.1l-3.1,2.8c-.1,0,0,.2,0,.3l3.9,1.3c.1,0,.3,0,.4,0l3.1-2.8c.1,0,0-.2,0-.3l-3.9-1.3c-.1,0-.3,0-.4,0ZM387.6,442.1l-3.1,2.8c-.1,0,0,.2,0,.3l3.9,1.3c.1,0,.3,0,.4,0l3.1-2.8c.1,0,0-.2,0-.3l-3.9-1.3c-.1,0-.3,0-.4,0ZM369.9,457.1l5.3-4.7c.1,0,0-.2,0-.3l-4.2-1.4h0l-4.7-1.6c-.1,0-.3,0-.4,0l-3.1,2.8c-.1,0,0,.2,0,.3l4.5,1.5c.1,0,.2.2,0,.3l-1.8,1.6c-.1,0,0,.2,0,.3l3.9,1.3c.1,0,.3,0,.4,0ZM360.8,447.6l-8.2,7.2c-.1,0,0,.2,0,.3l3.9,1.3c.1,0,.3,0,.4,0l8.2-7.2c.1,0,0-.2,0-.3l-3.9-1.3c-.1,0-.3,0-.4,0ZM347.9,459l-3.1,2.8c-.1,0,0,.2,0,.3l3.9,1.3c.1,0,.3,0,.4,0l3.1-2.8c.1,0,0-.2,0-.3l-3.9-1.3c-.1,0-.3,0-.4,0ZM344,462.5l-3.1,2.8c-.1,0,0,.2,0,.3l3.9,1.3c.1,0,.3,0,.4,0l3.1-2.8c.1,0,0-.2,0-.3l-3.9-1.3c-.1,0-.3,0-.4,0ZM340.1,466l-3.1,2.8c-.1,0,0,.2,0,.3l3.9,1.3c.1,0,.3,0,.4,0l3.1-2.8c.1,0,0-.2,0-.3l-3.9-1.3c-.1,0-.3,0-.4,0ZM336.1,469.5l-3.1,2.8c-.1,0,0,.2,0,.3l3.9,1.3c.1,0,.3,0,.4,0l3.1-2.8c.1,0,0-.2,0-.3l-3.9-1.3c-.1,0-.3,0-.4,0ZM332.2,472.9l-3.1,2.8c-.1,0,0,.2,0,.3l3.9,1.3c.1,0,.3,0,.4,0l3.1-2.8c.1,0,0-.2,0-.3l-3.9-1.3c-.1,0-.3,0-.4,0ZM328.2,476.4l-3.1,2.8c-.1,0,0,.2,0,.3l3.9,1.3c.1,0,.3,0,.4,0l3.1-2.8c.1,0,0-.2,0-.3l-3.9-1.3c-.1,0-.3,0-.4,0ZM324.3,479.9l-3.1,2.8c-.1,0,0,.2,0,.3l3.9,1.3c.1,0,.3,0,.4,0l3.1-2.8c.1,0,0-.2,0-.3l-3.9-1.3c-.1,0-.3,0-.4,0ZM320.3,483.4l-4.3,3.8c-.1,0,0,.2,0,.3l3.9,1.3c.1,0,.3,0,.4,0l4.3-3.8c.1,0,0-.2,0-.3l-3.9-1.3c-.1,0-.3,0-.4,0ZM351.8,455.6l-3.1,2.8c-.1,0,0,.2,0,.3l3.9,1.3c.1,0,.3,0,.4,0l3.1-2.8c.1,0,0-.2,0-.3l-3.9-1.3c-.1,0-.3,0-.4,0ZM373.1,460.4l7.1-6.2c.1,0,0-.2,0-.3l-3.9-1.3c-.1,0-.3,0-.4,0l-7.1,6.2c-.1,0,0,.2,0,.3l3.9,1.3c.1,0,.3,0,.4,0ZM329.5,474.6l18.9-16.7c.1,0,0-.2,0-.3l-3.9-1.3c-.1,0-.3,0-.4,0l-18.9,16.7c-.1,0,0,.2,0,.3l3.9,1.3c.1,0,.3,0,.4,0Z"/>
            <path class="cls-53" d="M385.6,451.3l-1.2-.4c-.3,0-.3-.3-.1-.5l3.2-2.8c.2-.2.6-.3.9-.2l1.2.4c.3,0,.3.3.1.5l-3.2,2.8c-.2.2-.6.3-.9.2ZM381.7,455.4l3.2-2.8c.2-.2.2-.4-.1-.5l-1.2-.4c-.3,0-.7,0-.9.2l-3.2,2.8c-.2.2-.2.4.1.5l1.2.4c.3,0,.7,0,.9-.2ZM376.9,459.7l3.2-2.8c.2-.2.2-.4-.1-.5l-1.2-.4c-.3,0-.7,0-.9.2l-3.2,2.8c-.2.2-.2.4.1.5l1.2.4c.3,0,.7,0,.9-.2ZM372,464l3.2-2.8c.2-.2.2-.4-.1-.5l-1.2-.4c-.3,0-.7,0-.9.2l-3.2,2.8c-.2.2-.2.4.1.5l1.2.4c.3,0,.7,0,.9-.2ZM367.2,468.2l3.2-2.8c.2-.2.2-.4-.1-.5l-1.2-.4c-.3,0-.7,0-.9.2l-3.2,2.8c-.2.2-.2.4.1.5l1.2.4c.3,0,.7,0,.9-.2ZM362.4,472.5l3.2-2.8c.2-.2.2-.4-.1-.5l-1.2-.4c-.3,0-.7,0-.9.2l-3.2,2.8c-.2.2-.2.4.1.5l1.2.4c.3,0,.7,0,.9-.2ZM357.6,476.8l3.2-2.8c.2-.2.2-.4-.1-.5l-1.2-.4c-.3,0-.7,0-.9.2l-3.2,2.8c-.2.2-.2.4.1.5l1.2.4c.3,0,.7,0,.9-.2ZM352.8,481l3.2-2.8c.2-.2.2-.4-.1-.5l-1.2-.4c-.3,0-.7,0-.9.2l-3.2,2.8c-.2.2-.2.4.1.5l1.2.4c.3,0,.7,0,.9-.2ZM347.9,485.3l3.2-2.8c.2-.2.2-.4-.1-.5l-1.2-.4c-.3,0-.7,0-.9.2l-3.2,2.8c-.2.2-.2.4.1.5l1.2.4c.3,0,.7,0,.9-.2ZM343.1,489.6l3.2-2.8c.2-.2.2-.4-.1-.5l-1.2-.4c-.3,0-.7,0-.9.2l-3.2,2.8c-.2.2-.2.4.1.5l1.2.4c.3,0,.7,0,.9-.2ZM338.3,493.8l3.2-2.8c.2-.2.2-.4-.1-.5l-1.2-.4c-.3,0-.7,0-.9.2l-3.2,2.8c-.2.2-.2.4.1.5l1.2.4c.3,0,.7,0,.9-.2ZM391.3,446.9l3.2-2.8c.2-.2.2-.4-.1-.5l-1.2-.4c-.3,0-.7,0-.9.2l-3.2,2.8c-.2.2-.2.4.1.5l1.2.4c.3,0,.7,0,.9-.2ZM369.1,463.2l3.1-2.8c.1,0,0-.2,0-.3l-3.9-1.3c-.1,0-.3,0-.4,0l-3.1,2.8c-.1,0,0,.2,0,.3l3.9,1.3c.1,0,.3,0,.4,0ZM365.1,466.7l3.1-2.8c.1,0,0-.2,0-.3l-3.9-1.3c-.1,0-.3,0-.4,0l-3.1,2.8c-.1,0,0,.2,0,.3l3.9,1.3c.1,0,.3,0,.4,0ZM361.2,470.2l3.1-2.8c.1,0,0-.2,0-.3l-3.9-1.3c-.1,0-.3,0-.4,0l-3.1,2.8c-.1,0,0,.2,0,.3l3.9,1.3c.1,0,.3,0,.4,0ZM357.2,473.7l3.1-2.8c.1,0,0-.2,0-.3l-3.9-1.3c-.1,0-.3,0-.4,0l-3.1,2.8c-.1,0,0,.2,0,.3l3.9,1.3c.1,0,.3,0,.4,0ZM353.3,477.2l3.1-2.8c.1,0,0-.2,0-.3l-3.9-1.3c-.1,0-.3,0-.4,0l-3.1,2.8c-.1,0,0,.2,0,.3l3.9,1.3c.1,0,.3,0,.4,0ZM349.3,480.7l3.1-2.8c.1,0,0-.2,0-.3l-3.9-1.3c-.1,0-.3,0-.4,0l-3.1,2.8c-.1,0,0,.2,0,.3l3.9,1.3c.1,0,.3,0,.4,0ZM345.4,484.2l3.1-2.8c.1,0,0-.2,0-.3l-3.9-1.3c-.1,0-.3,0-.4,0l-3.1,2.8c-.1,0,0,.2,0,.3l3.9,1.3c.1,0,.3,0,.4,0ZM341.5,487.7l3.1-2.8c.1,0,0-.2,0-.3l-3.9-1.3c-.1,0-.3,0-.4,0l-3.1,2.8c-.1,0,0,.2,0,.3l3.9,1.3c.1,0,.3,0,.4,0ZM335.3,493.1l5.3-4.7c.1,0,0-.2,0-.3l-3.9-1.3c-.1,0-.3,0-.4,0l-5.3,4.7c-.1,0,0,.2,0,.3l3.9,1.3c.1,0,.3,0,.4,0ZM357,449.5l3.1-2.8c.1,0,0-.2,0-.3l-3.9-1.3c-.1,0-.3,0-.4,0l-3.1,2.8c-.1,0,0,.2,0,.3l3.9,1.3c.1,0,.3,0,.4,0ZM353,453l3.1-2.8c.1,0,0-.2,0-.3l-3.9-1.3c-.1,0-.3,0-.4,0l-3.1,2.8c-.1,0,0,.2,0,.3l3.9,1.3c.1,0,.3,0,.4,0ZM349.1,456.5l3.1-2.8c.1,0,0-.2,0-.3l-3.9-1.3c-.1,0-.3,0-.4,0l-3.1,2.8c-.1,0,0,.2,0,.3l3.9,1.3c.1,0,.3,0,.4,0ZM325.4,477.5l3.1-2.8c.1,0,0-.2,0-.3l-3.9-1.3c-.1,0-.3,0-.4,0l-3.1,2.8c-.1,0,0,.2,0,.3l3.9,1.3c.1,0,.3,0,.4,0ZM321.5,481l3.1-2.8c.1,0,0-.2,0-.3l-3.9-1.3c-.1,0-.3,0-.4,0l-3.1,2.8c-.1,0,0,.2,0,.3l3.9,1.3c.1,0,.3,0,.4,0ZM315.3,486.4l5.3-4.7c.1,0,0-.2,0-.3l-3.9-1.3c-.1,0-.3,0-.4,0l-5.3,4.7c-.1,0,0,.2,0,.3l3.9,1.3c.1,0,.3,0,.4,0ZM329,487.2l-3.1,2.8c-.1,0,0,.2,0,.3l3.9,1.3c.1,0,.3,0,.4,0l3.1-2.8c.1,0,0-.2,0-.3l-3.9-1.3c-.1,0-.3,0-.4,0ZM332.9,483.7l-3.1,2.8c-.1,0,0,.2,0,.3l3.9,1.3c.1,0,.3,0,.4,0l3.1-2.8c.1,0,0-.2,0-.3l-3.9-1.3c-.1,0-.3,0-.4,0ZM336.9,480.2l-3.1,2.8c-.1,0,0,.2,0,.3l3.9,1.3c.1,0,.3,0,.4,0l3.1-2.8c.1,0,0-.2,0-.3l-3.9-1.3c-.1,0-.3,0-.4,0ZM340.8,476.7l-3.1,2.8c-.1,0,0,.2,0,.3l3.9,1.3c.1,0,.3,0,.4,0l3.1-2.8c.1,0,0-.2,0-.3l-3.9-1.3c-.1,0-.3,0-.4,0ZM344.8,473.2l-3.1,2.8c-.1,0,0,.2,0,.3l3.9,1.3c.1,0,.3,0,.4,0l3.1-2.8c.1,0,0-.2,0-.3l-3.9-1.3c-.1,0-.3,0-.4,0ZM348.7,469.7l-3.1,2.8c-.1,0,0,.2,0,.3l3.9,1.3c.1,0,.3,0,.4,0l3.1-2.8c.1,0,0-.2,0-.3l-3.9-1.3c-.1,0-.3,0-.4,0ZM352.7,466.2l-3.1,2.8c-.1,0,0,.2,0,.3l3.9,1.3c.1,0,.3,0,.4,0l3.1-2.8c.1,0,0-.2,0-.3l-3.9-1.3c-.1,0-.3,0-.4,0ZM356.6,462.7l-3.1,2.8c-.1,0,0,.2,0,.3l3.9,1.3c.1,0,.3,0,.4,0l3.1-2.8c.1,0,0-.2,0-.3l-3.9-1.3c-.1,0-.3,0-.4,0ZM360.6,459.2l-3.1,2.8c-.1,0,0,.2,0,.3l3.9,1.3c.1,0,.3,0,.4,0l3.1-2.8c.1,0,0-.2,0-.3l-3.9-1.3c-.1,0-.3,0-.4,0ZM364.5,455.7l-3.1,2.8c-.1,0,0,.2,0,.3l3.9,1.3c.1,0,.3,0,.4,0l3.1-2.8c.1,0,0-.2,0-.3l-3.9-1.3c-.1,0-.3,0-.4,0ZM357.7,455.6l-3.1,2.8c-.1,0,0,.2,0,.3l3.9,1.3c.1,0,.3,0,.4,0l3.1-2.8c.1,0,0-.2,0-.3l-3.9-1.3c-.1,0-.3,0-.4,0ZM353.8,459.1l-3.1,2.8c-.1,0,0,.2,0,.3l3.9,1.3c.1,0,.3,0,.4,0l3.1-2.8c.1,0,0-.2,0-.3l-3.9-1.3c-.1,0-.3,0-.4,0ZM349.9,462.6l-3.1,2.8c-.1,0,0,.2,0,.3l3.9,1.3c.1,0,.3,0,.4,0l3.1-2.8c.1,0,0-.2,0-.3l-3.9-1.3c-.1,0-.3,0-.4,0ZM345.9,466.1l-3.1,2.8c-.1,0,0,.2,0,.3l3.9,1.3c.1,0,.3,0,.4,0l3.1-2.8c.1,0,0-.2,0-.3l-3.9-1.3c-.1,0-.3,0-.4,0ZM342,469.6l-3.1,2.8c-.1,0,0,.2,0,.3l3.9,1.3c.1,0,.3,0,.4,0l3.1-2.8c.1,0,0-.2,0-.3l-3.9-1.3c-.1,0-.3,0-.4,0ZM338,473.1l-3.1,2.8c-.1,0,0,.2,0,.3l3.9,1.3c.1,0,.3,0,.4,0l3.1-2.8c.1,0,0-.2,0-.3l-3.9-1.3c-.1,0-.3,0-.4,0ZM334.1,476.6l-3.1,2.8c-.1,0,0,.2,0,.3l3.9,1.3c.1,0,.3,0,.4,0l3.1-2.8c.1,0,0-.2,0-.3l-3.9-1.3c-.1,0-.3,0-.4,0ZM330.1,480.1l-3.1,2.8c-.1,0,0,.2,0,.3l3.9,1.3c.1,0,.3,0,.4,0l3.1-2.8c.1,0,0-.2,0-.3l-3.9-1.3c-.1,0-.3,0-.4,0ZM326.2,483.6l-5.3,4.7c-.1,0,0,.2,0,.3l3.9,1.3c.1,0,.3,0,.4,0l5.3-4.7c.1,0,0-.2,0-.3l-3.9-1.3c-.1,0-.3,0-.4,0ZM361.7,452.1l-3.1,2.8c-.1,0,0,.2,0,.3l3.9,1.3c.1,0,.3,0,.4,0l3.1-2.8c.1,0,0-.2,0-.3l-3.9-1.3c-.1,0-.3,0-.4,0ZM378.5,443.3l-3.1,2.8c-.1,0,0,.2,0,.3l3.9,1.3c.1,0,.3,0,.4,0l3.1-2.8c.1,0,0-.2,0-.3l-3.9-1.3c-.1,0-.3,0-.4,0ZM374.6,446.8l-3.1,2.8c-.1,0,0,.2,0,.3l3.9,1.3c.1,0,.3,0,.4,0l3.1-2.8c.1,0,0-.2,0-.3l-3.9-1.3c-.1,0-.3,0-.4,0ZM382.5,439.8l-3.1,2.8c-.1,0,0,.2,0,.3l3.9,1.3c.1,0,.3,0,.4,0l3.1-2.8c.1,0,0-.2,0-.3l-3.9-1.3c-.1,0-.3,0-.4,0ZM383.5,445l-3.1,2.8c-.1,0,0,.2,0,.3l3.9,1.3c.1,0,.3,0,.4,0l3.1-2.8c.1,0,0-.2,0-.3l-3.9-1.3c-.1,0-.3,0-.4,0ZM363.5,438.3l-3.1,2.8c-.1,0,0,.2,0,.3l1.7.6c.1,0,.3,0,.4,0l3.1-2.8c.1,0,0-.2,0-.3l-1.7-.6c-.1,0-.3,0-.4,0ZM359.6,441.8l-3.1,2.8c-.1,0,0,.2,0,.3l1.7.6c.1,0,.3,0,.4,0l3.1-2.8c.1,0,0-.2,0-.3l-1.7-.6c-.1,0-.3,0-.4,0ZM367.5,434.8l-3.1,2.8c-.1,0,0,.2,0,.3l1.7.6c.1,0,.3,0,.4,0l3.1-2.8c.1,0,0-.2,0-.3l-1.7-.6c-.1,0-.3,0-.4,0ZM366.2,439.2l-3.1,2.8c-.1,0,0,.2,0,.3l1.7.6c.1,0,.3,0,.4,0l3.1-2.8c.1,0,0-.2,0-.3l-1.7-.6c-.1,0-.3,0-.4,0ZM379.6,448.5l-3.1,2.8c-.1,0,0,.2,0,.3l3.9,1.3c.1,0,.3,0,.4,0l3.1-2.8c.1,0,0-.2,0-.3l-3.9-1.3c-.1,0-.3,0-.4,0ZM387.5,441.5l-3.1,2.8c-.1,0,0,.2,0,.3l3.9,1.3c.1,0,.3,0,.4,0l3.1-2.8c.1,0,0-.2,0-.3l-3.9-1.3c-.1,0-.3,0-.4,0ZM369.8,456.5l5.3-4.7c.1,0,0-.2,0-.3l-4.2-1.4h0l-4.7-1.6c-.1,0-.3,0-.4,0l-3.1,2.8c-.1,0,0,.2,0,.3l4.5,1.5c.1,0,.2.2,0,.3l-1.8,1.6c-.1,0,0,.2,0,.3l3.9,1.3c.1,0,.3,0,.4,0ZM360.6,447l-8.2,7.2c-.1,0,0,.2,0,.3l3.9,1.3c.1,0,.3,0,.4,0l8.2-7.2c.1,0,0-.2,0-.3l-3.9-1.3c-.1,0-.3,0-.4,0ZM347.8,458.3l-3.1,2.8c-.1,0,0,.2,0,.3l3.9,1.3c.1,0,.3,0,.4,0l3.1-2.8c.1,0,0-.2,0-.3l-3.9-1.3c-.1,0-.3,0-.4,0ZM343.9,461.8l-3.1,2.8c-.1,0,0,.2,0,.3l3.9,1.3c.1,0,.3,0,.4,0l3.1-2.8c.1,0,0-.2,0-.3l-3.9-1.3c-.1,0-.3,0-.4,0ZM339.9,465.3l-3.1,2.8c-.1,0,0,.2,0,.3l3.9,1.3c.1,0,.3,0,.4,0l3.1-2.8c.1,0,0-.2,0-.3l-3.9-1.3c-.1,0-.3,0-.4,0ZM336,468.8l-3.1,2.8c-.1,0,0,.2,0,.3l3.9,1.3c.1,0,.3,0,.4,0l3.1-2.8c.1,0,0-.2,0-.3l-3.9-1.3c-.1,0-.3,0-.4,0ZM332,472.3l-3.1,2.8c-.1,0,0,.2,0,.3l3.9,1.3c.1,0,.3,0,.4,0l3.1-2.8c.1,0,0-.2,0-.3l-3.9-1.3c-.1,0-.3,0-.4,0ZM328.1,475.8l-3.1,2.8c-.1,0,0,.2,0,.3l3.9,1.3c.1,0,.3,0,.4,0l3.1-2.8c.1,0,0-.2,0-.3l-3.9-1.3c-.1,0-.3,0-.4,0ZM324.1,479.3l-3.1,2.8c-.1,0,0,.2,0,.3l3.9,1.3c.1,0,.3,0,.4,0l3.1-2.8c.1,0,0-.2,0-.3l-3.9-1.3c-.1,0-.3,0-.4,0ZM320.2,482.8l-4.3,3.8c-.1,0,0,.2,0,.3l3.9,1.3c.1,0,.3,0,.4,0l4.3-3.8c.1,0,0-.2,0-.3l-3.9-1.3c-.1,0-.3,0-.4,0ZM351.6,455l-3.1,2.8c-.1,0,0,.2,0,.3l3.9,1.3c.1,0,.3,0,.4,0l3.1-2.8c.1,0,0-.2,0-.3l-3.9-1.3c-.1,0-.3,0-.4,0ZM373,459.7l7.1-6.2c.1,0,0-.2,0-.3l-3.9-1.3c-.1,0-.3,0-.4,0l-7.1,6.2c-.1,0,0,.2,0,.3l3.9,1.3c.1,0,.3,0,.4,0ZM329.4,474l18.9-16.7c.1,0,0-.2,0-.3l-3.9-1.3c-.1,0-.3,0-.4,0l-18.9,16.7c-.1,0,0,.2,0,.3l3.9,1.3c.1,0,.3,0,.4,0Z"/>
            <g>
              <path class="cls-85" d="M404.7,444l-58.9,54.2c-.4.3-2.4-.3-2.8-.5-.5-.2-.8-.6-.8-1.2l4.2-58.4c0-.8.4-1.6,1.1-2.1l60.5-53.6c.4-.3.9-.3,1.3-.2.9.2,1.6.4,1.6.4l-5.1,59.2c0,.8-.4,1.6-1.1,2.1Z"/>
              <path class="cls-111" d="M406.6,444.4l-60.5,53.6c-.8.7-2.1,0-2-1l4.2-58.4c0-.8.4-1.6,1.1-2.1l60.5-53.6c.8-.7,2.1,0,2,1l-4.2,58.4c0,.8-.4,1.6-1.1,2.1Z"/>
            </g>
            <path class="cls-105" d="M385.6,431.3c-.8-3.9-3.9-4.9-6.8-2.3-3,2.6-4.7,7.9-4,11.8.8,3.9,3.9,4.9,6.8,2.3,3-2.6,4.7-7.9,4-11.8Z"/>
          </g>
          <path class="cls-101" d="M283.3,468.8s20.1,19,27.5,21.7c7.4,2.7,7,.9,7,.9,0,0-10-12.8-9.7-14.3s8,.4,10.1.8c2.1.4,2-1.9-2.3-3.1-4.3-1.1-7-4.1-8.9-4.6-1.9-.5-7.9.7-7.9.7l-7.3-9.4-8.6,7.1Z"/>
          <path class="cls-68" d="M245.2,414.1c7.4-7.4,17.5-1.2,23.6,8.8,3.7,6,24.3,39.5,29,45.1l-8.5,9s-58.9-48.1-44.2-62.8Z"/>
          <path class="cls-58" d="M269.7,302c-2.2.9-2.8,4.2-1.5,7.4,1.3,3.2,4.2,5.1,6.4,4.2s2.8-4.2,1.5-7.4c-1.3-3.2-4.2-5.1-6.4-4.2Z"/>
          <circle class="cls-8" cx="592.6" cy="247.2" r="66.9"/>
        </g>
        <g>
          <path class="cls-92" d="M578.9,237c3.5,10.8,4.8,30.2,15.2,30.2h0c.8,0,1.7,0,2.3-.2h0c-9.5-2.2-10.5-21.3-16.3-31.2h0c-.3.3-.7.8-1.2,1.2"/>
          <path class="cls-78" d="M580.2,235.8c5.7,9.8,6.8,29,16.3,31.2h0c.7-.2,1.5-.3,2.2-.7h0c-8.5-4.2-10.8-22.7-17.3-31.7h0c-.3.5-.8.8-1.2,1.2"/>
          <path class="cls-106" d="M588.5,229.8c-.8,0-1.7,0-2.3.2-2.2.3-4.2,1.3-6.3,2.7.7.5,1.2,1.2,1.7,2,2.2-1.8,4.3-3.2,6.5-4,.8-.3,1.7-.5,2.5-.7-.8,0-1.3-.2-2-.2"/>
          <path class="cls-51" d="M605.4,262.6c.8-.7,1.7-1.5,2.7-2.3-3.7-10.8-4.8-30.3-15.3-30.3s-1.5,0-2.3.2c9.5,2.3,10.7,23,15,32.5"/>
          <path class="cls-23" d="M590.4,230.2c-.7-.2-1.2-.2-1.8-.2h4.2c-.8,0-1.7,0-2.3.2"/>
          <path class="cls-60" d="M605,264.8c-.3-.3-.8-.8-1.2-1.3-1.8,1.2-3.5,2.2-5.2,2.8.7.3,1.3.5,2,.7.5.2,1.2.2,1.7.2,2,0,3.5-.2,4.8-.8-.8-.3-1.5-.8-2.2-1.5"/>
          <path class="cls-19" d="M587.9,230.8c8.5,4.5,9.3,24.7,16,32.8h0c.5-.3.8-.7,1.3-1h0c-4.3-9.5-5.5-30.2-15-32.5h0c-.7.2-1.5.3-2.3.7"/>
          <path class="cls-76" d="M581.4,234.8c6.5,9,8.8,27.5,17.3,31.7h0c1.7-.7,3.5-1.5,5.2-2.8h0c-6.8-8.2-7.5-28.3-16-32.8h0c-2.2.8-4.3,2.2-6.5,4"/>
          <path class="cls-46" d="M574.7,236.8c-1,2.3-2,5.3-3.3,9.3,2.5-3.5,5-6.7,7.5-9-.3-1-.7-2-1.2-2.8-1,.7-2,1.5-3,2.5"/>
          <path class="cls-96" d="M578.7,233.5c-.3.2-.7.5-.8.7.3.8.8,1.8,1.2,2.8l1.3-1.3c-.7-.7-1.2-1.5-1.7-2.2"/>
          <path class="cls-41" d="M579.7,232.8c-.3.2-.7.5-1,.7.5.7,1,1.5,1.5,2.3.3-.3.8-.7,1.2-1-.5-.8-1-1.5-1.7-2"/>
          <path class="cls-34" d="M637.7,229.2c-4.8,18.5-14.8,33.5-23.3,37.2h0c-.2,0-.3.2-.5.2h-1.7c.3.2.8.2,1.2.2,8,0,16-14.3,29.3-38.2l-5,.7h0Z"/>
          <path class="cls-81" d="M569.5,230.7h0s.2,0,0,0h.3q.2,0,.3-.2h.3c.2,0,.3,0,.5-.2h1.3-.8c-9,0-21.3,16.7-27,38.3h1c1.8-3.2,3.3-6.2,4.8-9,4.2-15.8,12.2-26.2,19.2-29"/>
          <path class="cls-117" d="M574.7,236.8c1-1,2-1.8,3-2.7-.2-.5-.5-1-.7-1.3-.8,1-1.7,2.3-2.3,4"/>
          <path class="cls-117" d="M575.4,230.8c.7.5,1.2,1.2,1.7,2l.5-.5c-.7-.7-1.5-1.2-2.2-1.5,0-.2,0,0,0,0h0"/>
          <path class="cls-52" d="M550.7,259.2c8.2-15.8,12.2-25.8,19-28.5h0c-7.2,2.8-15.2,13.2-19,28.5"/>
          <path class="cls-17" d="M577.5,232.3l-.5.5c.3.5.5.8.7,1.3.3-.2.7-.5.8-.7-.3-.5-.7-.8-1-1.2"/>
          <path class="cls-94" d="M554.4,268.1h0s-.2,0,0,0h-.7c8.3-.2,12.2-4.3,14-10.5,1.5-4.5,2.7-8.5,3.7-11.7-3.5,4.8-7,10.7-10.5,17.3-1.7,3.2-4.3,4.5-6.5,4.8"/>
          <path class="cls-25" d="M554.4,268.1h0c2.2-.3,4.8-1.7,6.5-4.8h0c3.5-6.5,7-12.3,10.5-17.3h0c1.3-4,2.3-7,3.3-9.3h0c-7,6.7-14,17.7-20.3,31.5"/>
          <path class="cls-88" d="M550.7,259.2c-1.5,2.8-3,5.8-4.8,9h3.2c.3-3.2.8-6.2,1.7-9"/>
          <path class="cls-1" d="M572.2,230h-1c-.2,0-.3,0-.5.2h-.3q-.2,0-.3.2h-.3c-6.8,2.7-10.8,12.7-19,28.5h0c-.7,2.8-1.3,5.8-1.7,9h5.2c6.5-13.8,13.3-24.8,20.3-31.3h0c.8-1.7,1.5-3,2.3-4h0c-.5-.8-1-1.5-1.7-2h-1.7c-.2,0-.3,0-.5-.2h-.5q-.2-.3-.3-.3"/>
          <path class="cls-84" d="M619,239.3c-1.5,5-2.8,9.2-4,12.7h0c4.3-6,8.7-13.5,12.7-22.2h0c-4.8,1.5-7.3,5-8.7,9.5"/>
          <path class="cls-121" d="M615.2,266c-.2.2-.5.2-.7.3,8.5-3.8,18.5-18.7,23.3-37.2h-1c-11.2,19.7-14.7,32.8-21.7,36.8"/>
          <path class="cls-122" d="M609.7,264.3c1.8-2.2,3.3-6,5.3-12.3-2.3,3.2-4.7,6-7.2,8.3h0c.5,1.5,1.2,3,1.8,4"/>
          <path class="cls-60" d="M609.7,264.3c-.7.8-1.3,1.3-2,1.8-.2.2-.3.2-.5.3.8.5,1.7.7,2.5.8h1.8c.2,0,.3,0,.3-.2-.5-.5-1.5-1.5-2.2-2.8"/>
          <path class="cls-123" d="M594,267.3c.8,0,1.7,0,2.3-.2s1.5-.3,2.2-.7c.7.3,1.3.5,2,.7.5.2,1.2.2,1.7.2h-8.2Z"/>
          <path class="cls-123" d="M602.4,267.3c2,0,3.5-.2,4.8-.8.8.5,1.7.7,2.5.8h.8-8.2Z"/>
          <path class="cls-50" d="M610.5,267.3h1c.2,0,.3,0,.3-.2h0c.3.2.8.2,1.2.2h-2.5Z"/>
          <path class="cls-65" d="M607.9,260.3h0c-.8.8-1.7,1.5-2.7,2.3-.5.3-.8.7-1.3,1,.3.5.8.8,1.2,1.3.7.7,1.3,1.2,2,1.5.2,0,.3-.2.5-.3.7-.5,1.3-1,2-1.8-.5-1.2-1.2-2.5-1.7-4"/>
          <path class="cls-33" d="M633.7,229.2h-5.7c-.2.3-.2.5-.3.8h0c-4,8.7-8.3,16.2-12.7,22.2h0c-2,6.3-3.5,10-5.3,12.3h0c.8,1.3,1.7,2.3,2.8,2.7h1.7c.2,0,.3-.2.5-.2h0c.2-.2.5-.2.7-.3h0c7-4,10.7-17.2,21.7-37h0l-3.3-.5h0Z"/>
          <path class="cls-82" d="M572.5,230h.5c.2,0,.3,0,.5.2h1.5c.8.3,1.5.8,2.2,1.5.2-.3.5-.5.8-.7-1.5-1-3.2-1.7-5-1.7,0,.7-.3.7-.5.7"/>
          <path class="cls-116" d="M577.5,232.3c.3.3.8.8,1.2,1.3.3-.2.7-.5,1-.7-.5-.5-1-.8-1.5-1.3-.2.2-.5.3-.7.7"/>
          <path class="cls-16" d="M572.5,230h.7c1.8,0,3.5.7,5,1.7,1.5-1.2,3.3-1.7,6-1.7h-12.5c.3-.2.5,0,.8,0"/>
          <path class="cls-80" d="M584.2,229.8c-2.7,0-4.5.5-6,1.7.5.3,1,.8,1.5,1.3,2.2-1.3,4.3-2.3,6.3-2.7.8-.2,1.7-.2,2.3-.2h-4.2v-.2Z"/>
          <path class="cls-90" d="M615,252c1.2-3.5,2.3-7.7,4-12.7,1.5-4.5,4-8,8.7-9.5.2-.3.2-.5.3-.8-7.7.5-11.3,4.3-13.2,10.2-3.2,10.2-5.2,16.8-7,21,2.3-2.2,4.8-4.8,7.2-8.2"/>
          <path d="M626.4,264.5h-.8v2.7h-.3v-2.7h-.8v-.3h2.2v.3h-.2Z"/>
          <path d="M629.9,267.3h-.3v-2.7h0q0,.2-.2.3l-.8,2.3h-.2l-1-2.3s0-.2-.2-.3h0v2.7h-.3v-3h.5l1,2.2c0,.2.2.3.2.3h0c0-.2.2-.3.2-.3l1-2.2h.5l-.3,3h0Z"/>
        </g>
      </g>
    </g>
  </g>
</svg>