<?xml version="1.0" encoding="UTF-8"?>
<svg xmlns="http://www.w3.org/2000/svg" version="1.1" viewBox="0 0 120 120">
  <defs>
    <style>
      .cls-1, .cls-2 {
        fill: #689f63;
      }

      .cls-2, .cls-3 {
        fill-rule: evenodd;
      }

      .cls-3 {
        fill: #333;
      }
    </style>
  </defs>
  <!-- Generator: Adobe Illustrator 28.6.0, SVG Export Plug-In . SVG Version: 1.2.0 Build 709)  -->
  <g>
    <g id="Layer_1">
      <g>
        <path class="cls-1" d="M59.3,96.7c-.4,0-.8-.1-1.1-.3l-3.6-2.1c-.5-.3-.3-.4,0-.5.7-.3.9-.3,1.6-.7,0,0,.2,0,.3,0l2.8,1.6c.1,0,.2,0,.3,0l10.8-6.3c.1,0,.2-.2.2-.3v-12.5c0-.1,0-.2-.2-.3l-10.8-6.2c-.1,0-.2,0-.3,0l-10.8,6.2c-.1,0-.2.2-.2.3v12.5c0,.1,0,.2.2.3l3,1.7c1.6.8,2.6-.1,2.6-1.1v-12.3c0-.2.1-.3.3-.3h1.4c.2,0,.3.1.3.3v12.3c0,2.1-1.2,3.4-3.2,3.4s-1.1,0-2.5-.7l-2.8-1.6c-.7-.4-1.1-1.2-1.1-2v-12.5c0-.8.4-1.6,1.1-2l10.8-6.3c.7-.4,1.6-.4,2.3,0l10.8,6.3c.7.4,1.1,1.2,1.1,2v12.5c0,.8-.4,1.6-1.1,2l-10.8,6.3c-.3.2-.7.3-1.1.3"/>
        <path class="cls-1" d="M62.7,88.1c-4.7,0-5.7-2.2-5.7-4s.1-.3.3-.3h1.4c.2,0,.3.1.3.3.2,1.4.8,2.1,3.7,2.1s3.3-.5,3.3-1.7-.3-1.2-3.8-1.6c-3-.3-4.8-.9-4.8-3.3s1.8-3.5,4.9-3.5,5.2,1.2,5.4,3.8c0,0,0,.2,0,.2,0,0-.1.1-.2.1h-1.4c-.1,0-.3-.1-.3-.2-.3-1.5-1.2-2-3.4-2s-2.8.9-2.8,1.5.3,1,3.7,1.5c3.3.4,4.9,1.1,4.9,3.4s-2,3.7-5.4,3.7M75.8,74.9h.4c.3,0,.4-.2.4-.3,0-.3-.2-.3-.3-.3h-.4v.7ZM75.4,73.9h.8c.3,0,.8,0,.8.6s-.3.5-.4.6c.3,0,.3.2.4.5,0,.2,0,.5.1.6h-.5c0-.1,0-.7,0-.7,0-.1,0-.2-.2-.2h-.4v.9h-.5v-2.3ZM74.4,75c0,1,.8,1.8,1.7,1.8s1.8-.8,1.8-1.8-.8-1.7-1.8-1.7-1.7.8-1.7,1.7M78.3,75c0,1.2-.9,2.1-2.1,2.1s-2.1-.9-2.1-2.1,1-2.1,2.1-2.1,2.1.9,2.1,2.1"/>
        <path class="cls-3" d="M25.8,47.8c0-.5-.3-1-.7-1.2l-11.5-6.6c-.2-.1-.4-.2-.6-.2h-.1c-.2,0-.4,0-.6.2L.7,46.6c-.4.2-.7.7-.7,1.2v17.8c0,.2.2.5.4.6.2.1.5.1.7,0l6.8-3.9c.4-.3.7-.7.7-1.2v-8.3c0-.5.3-1,.7-1.2l2.9-1.7c.2-.1.5-.2.7-.2s.5,0,.7.2l2.9,1.7c.4.2.7.7.7,1.2v8.3c0,.5.3.9.7,1.2l6.8,3.9c.2.1.5.1.7,0,.2-.1.3-.4.3-.6v-17.8ZM80,57.1c0,.1,0,.2-.2.3l-3.9,2.3c-.1,0-.2,0-.3,0l-3.9-2.3c-.1,0-.2-.2-.2-.3v-4.6c0-.1,0-.2.2-.3l3.9-2.3c.1,0,.2,0,.3,0l3.9,2.3c.1,0,.2.2.2.3v4.6ZM81,23.3c-.2-.1-.5-.1-.7,0-.2.1-.3.4-.3.6v17.6c0,.2,0,.3-.2.4-.1,0-.3,0-.5,0l-2.9-1.7c-.4-.2-1-.2-1.4,0l-11.5,6.6c-.4.2-.7.7-.7,1.2v13.3c0,.5.3,1,.7,1.2l11.5,6.6c.4.2,1,.2,1.4,0l11.5-6.6c.4-.2.7-.7.7-1.2V28.4c0-.5-.3-1-.7-1.2l-6.8-3.8ZM119.3,52.4c.4-.2.7-.7.7-1.2v-3.2c0-.5-.3-1-.7-1.2l-11.4-6.6c-.4-.2-1-.2-1.4,0l-11.5,6.6c-.4.2-.7.7-.7,1.2v13.3c0,.5.3,1,.7,1.2l11.4,6.5c.4.2.9.2,1.4,0l6.9-3.8c.2-.1.4-.4.4-.6s-.1-.5-.3-.6l-11.6-6.6c-.2-.1-.3-.4-.3-.6v-4.2c0-.2.1-.5.3-.6l3.6-2.1c.2-.1.5-.1.7,0l3.6,2.1c.2.1.3.4.3.6v3.3c0,.2.1.5.3.6.2.1.5.1.7,0l6.9-4Z"/>
        <path class="cls-2" d="M107,51.8c0,0,.2,0,.3,0l2.2,1.3c0,0,.1.1.1.2v2.5c0,0,0,.2-.1.2l-2.2,1.3c0,0-.2,0-.3,0l-2.2-1.3c0,0-.1-.1-.1-.2v-2.5c0,0,0-.2.1-.2l2.2-1.3Z"/>
        <path class="cls-1" d="M57.1,48c0-.4-.1-.7-.4-.9h0s0,0,0,0c0,0,0,0,0,0,0,0,0,0,0,0,0,0,0,0,0,0,0,0,0,0-.1,0l-7.5-4.3-1.2-.7-2.8-1.6c-.1,0-.2-.1-.4-.1,0,0,0,0,0,0h0c-.1,0-.2,0-.3,0s0,0,0,0c0,0,0,0,0,0h0s0,0,0,0c0,0,0,0,0,0,0,0,0,0,0,0,0,0,0,0,0,0,0,0,0,0,0,0,0,0,0,0-.1,0,0,0,0,0,0,0,0,0,0,0-.1,0h0l-8.9,5.2-2.5,1.4h0s0,0,0,0c-.4.2-.7.7-.7,1.2v13.2c0,.3.1.6.3.8h0s0,0,0,0c0,0,0,.1.2.2,0,0,0,0,0,0,0,0,.1,0,.2.1,0,0,0,0,0,0l9.8,5.7h.2c0,0,1.5.9,1.5.9.1,0,.3.1.4.1,0,0,0,0,0,0,0,0,.1,0,.2,0,0,0,0,0,0,0,0,0,0,0,.1,0,0,0,0,0,0,0,0,0,0,0,0,0,0,0,0,0,0,0h0s0,0,0,0c0,0,0,0,0,0,0,0,0,0,0,0,0,0,0,0,0,0,0,0,0,0,0,0h0s0,0,.1,0c0,0,0,0,0,0,0,0,.1,0,.2,0l11.4-6.6c.4-.2.6-.6.7-.9h0c0,0,0-.2,0-.3v-13.2Z"/>
      </g>
    </g>
  </g>
</svg>