<?xml version="1.0" encoding="UTF-8"?>
<svg xmlns="http://www.w3.org/2000/svg" version="1.1" viewBox="0 0 48 48">
  <defs>
    <style>
      .cls-1 {
        fill: none;
        stroke: #bababa;
        stroke-width: 2px;
      }

      .cls-2 {
        fill: #222;
      }
    </style>
  </defs>
  <!-- Generator: Adobe Illustrator 28.6.0, SVG Export Plug-In . SVG Version: 1.2.0 Build 709)  -->
  <g>
    <g id="Layer_1">
      <circle class="cls-1" cx="24" cy="24" r="23"/>
      <path class="cls-2" d="M37.2,20.9c-1.8-3-6-8-13.4-8s-11.5,5-13.4,8c-.6.9-.9,2-.9,3.1s.3,2.1.9,3.1c1.8,3,6,8,13.4,8s11.5-5,13.4-8c.6-.9.9-2,.9-3.1s-.3-2.1-.9-3.1ZM35.2,25.8c-1.6,2.6-5.2,6.9-11.3,6.9s-9.8-4.3-11.3-6.9c-.3-.5-.5-1.2-.5-1.8s.2-1.3.5-1.8c1.6-2.6,5.2-6.9,11.3-6.9s9.8,4.3,11.3,6.9c.3.5.5,1.2.5,1.8s-.2,1.3-.5,1.8Z"/>
      <path class="cls-2" d="M23.8,18.1c-1.2,0-2.3.3-3.3,1-1,.7-1.7,1.6-2.2,2.7-.4,1.1-.6,2.3-.3,3.4.2,1.2.8,2.2,1.6,3,.8.8,1.9,1.4,3,1.6,1.2.2,2.3.1,3.4-.3,1.1-.4,2-1.2,2.7-2.2.7-1,1-2.1,1-3.3,0-1.6-.6-3.1-1.7-4.2s-2.6-1.7-4.2-1.7ZM23.8,27.6c-.7,0-1.4-.2-2-.6-.6-.4-1-.9-1.3-1.6-.3-.7-.3-1.4-.2-2.1.1-.7.5-1.3,1-1.8.5-.5,1.1-.8,1.8-1,.7-.1,1.4,0,2.1.2.7.3,1.2.7,1.6,1.3.4.6.6,1.3.6,2s-.4,1.8-1,2.5c-.7.7-1.6,1-2.5,1Z"/>
    </g>
  </g>
</svg>