<svg width="64" height="64" viewBox="0 0 64 64" fill="none" xmlns="http://www.w3.org/2000/svg">
<rect width="64" height="64" rx="8" fill="#EAF3FF"/>
<g clip-path="url(#clip0_2350_5495)">
<mask id="mask0_2350_5495" style="mask-type:luminance" maskUnits="userSpaceOnUse" x="10" y="10" width="44" height="44">
<path d="M54 10H10V54H54V10Z" fill="white"/>
</mask>
<g mask="url(#mask0_2350_5495)">
<path d="M52.8674 25.5834V43.9925C52.7844 44.2641 52.6283 44.5077 52.4162 44.6965C52.2041 44.8854 51.9441 45.0122 51.6647 45.0632C51.1131 45.1976 50.5316 45.1317 50.0242 44.877C49.5167 44.6224 49.1163 44.1957 48.8943 43.6731L47.7414 41.5448L43.2599 43.4189C43.453 43.8996 43.5057 44.4252 43.4119 44.9347C43.318 45.4441 43.0815 45.9165 42.7298 46.2968C42.3781 46.6771 41.9256 46.9497 41.425 47.083C40.9244 47.2163 40.3963 47.2048 39.902 47.0497C39.7922 47.6744 39.4622 48.239 38.9719 48.6414C38.4817 49.0438 37.8635 49.2573 37.2294 49.2432C37.1341 49.2432 36.9907 49.398 36.9589 49.5072C36.8585 49.9418 36.6268 50.335 36.2954 50.6335C35.9639 50.932 35.5487 51.1214 35.106 51.1759C34.821 51.2013 34.5343 51.2037 34.2488 51.1833C34.1368 51.5769 33.924 51.9344 33.6315 52.2206C33.339 52.5068 32.9769 52.7117 32.5809 52.8152C32.185 52.9186 31.7689 52.9169 31.3738 52.8104C30.9787 52.7038 30.6182 52.496 30.328 52.2075C29.9034 51.8001 29.4137 51.4676 28.9428 51.0936C28.7131 51.4064 28.4031 51.6514 28.0458 51.8027C27.6884 51.9539 27.2968 52.0059 26.9123 51.9531C26.5279 51.9003 26.1648 51.7446 25.8614 51.5025C25.5581 51.2605 25.3257 50.941 25.1889 50.5779C24.5799 50.7522 23.9278 50.693 23.3602 50.412C22.7925 50.1309 22.3501 49.6482 22.1195 49.0582C20.6202 49.3711 19.9065 49.0509 18.9474 47.6567C18.5398 47.7973 18.1007 47.8202 17.6807 47.7227C17.2606 47.6252 16.8765 47.4113 16.5724 47.1055C16.2684 46.7997 16.0566 46.4145 15.9615 45.9939C15.8663 45.5733 15.8916 45.1344 16.0345 44.7275L14.8269 44.1571C14.6745 44.457 14.5189 44.7324 14.391 45.0208C14.2116 45.4974 13.8786 45.9007 13.4445 46.1671C13.0104 46.4334 12.5 46.5476 11.9938 46.4916C11.7799 46.5139 11.5637 46.4881 11.361 46.4162C11.1583 46.3442 10.9742 46.2279 10.8223 46.0757C10.6703 45.9235 10.5542 45.7392 10.4826 45.5364C10.411 45.3336 10.3855 45.1174 10.4082 44.9035C10.4082 38.6566 10.4082 32.4097 10.4082 26.1627C10.3739 25.9023 10.4123 25.6374 10.5193 25.3975C10.6262 25.1575 10.7975 24.9518 11.0141 24.8032C11.2307 24.6546 11.4843 24.5688 11.7466 24.5554C12.009 24.5419 12.2699 24.6013 12.5006 24.727C14.1417 25.3789 15.7794 26.0381 17.4188 26.6932C18.1326 26.9792 18.8464 27.2635 19.5773 27.5553V23.363C19.3211 23.5644 19.0243 23.7077 18.7074 23.7833C18.3905 23.8588 18.0609 23.8647 17.7415 23.8006C17.3223 23.7252 16.9378 23.519 16.643 23.2116C16.3482 22.9043 16.1583 22.5114 16.1005 22.0895C16.0204 21.6714 16.072 21.2389 16.2481 20.8514C16.4243 20.4639 16.7163 20.1406 17.0839 19.9261C21.0494 17.2128 25.0164 14.5003 28.9851 11.7886C29.7103 11.2956 30.4779 10.8678 31.2267 10.4099H32.0562C32.5084 10.6633 32.9826 10.8849 33.4096 11.1758C36.4575 13.2476 39.4995 15.3276 42.5355 17.4157C43.7773 18.2655 45.0248 19.1064 46.2576 19.9693C46.6829 20.2911 46.9712 20.7615 47.0649 21.2866C47.1586 21.8116 47.0508 22.3527 46.7631 22.8017C46.4753 23.2508 46.0288 23.5748 45.5126 23.7091C44.9964 23.8433 44.4486 23.7779 43.9785 23.526C43.8897 23.4747 43.7928 23.4347 43.6942 23.3875V27.3638C43.8702 27.3051 44.0144 27.2635 44.1545 27.2106L50.5785 24.7873C51.7193 24.3547 52.2717 24.5429 52.8706 25.5834M42.4931 31.8681C42.2397 31.3955 42.0042 30.9718 41.7851 30.5448C41.5867 30.1847 41.5066 29.7714 41.5561 29.3633C41.6055 28.9552 41.7819 28.573 42.0605 28.2707C42.1748 28.1257 42.2391 27.9476 42.2438 27.763C42.2568 26.0772 42.2438 24.3913 42.2577 22.7047C42.2659 22.5976 42.2434 22.4903 42.1929 22.3955C42.1424 22.3007 42.0659 22.2223 41.9725 22.1693C38.6187 19.8813 35.2676 17.5865 31.9193 15.285C31.8393 15.2167 31.7371 15.1801 31.6319 15.1822C31.5268 15.1844 31.4261 15.225 31.3489 15.2964C28.0022 17.5969 24.6511 19.8906 21.2957 22.1775C21.2034 22.2324 21.1287 22.3124 21.0802 22.4082C21.0317 22.504 21.0115 22.6116 21.0219 22.7185C21.0325 24.4736 21.0219 26.2287 21.035 27.9838C21.0431 28.169 21.1076 28.3473 21.2199 28.4947C21.4886 28.8145 21.6585 29.2055 21.709 29.6201C21.7595 30.0347 21.6884 30.4551 21.5043 30.83C21.4008 31.0663 21.2827 31.2953 21.1523 31.5707C22.311 32.0245 23.4053 32.5036 24.6625 32.2396C25.4994 32.0644 26.3468 31.9438 27.1885 31.798C27.2545 31.7866 27.3604 31.7833 27.3775 31.7442C27.5991 31.2496 28.0937 30.8878 28.0945 30.2873C28.0945 28.9021 28.0945 27.5227 28.0945 26.1407C28.0706 25.9292 28.0945 25.7149 28.1645 25.5139C28.2345 25.3128 28.3489 25.1301 28.4992 24.9792C28.6494 24.8283 28.8316 24.7132 29.0324 24.6423C29.2332 24.5715 29.4473 24.5467 29.659 24.5698C30.9583 24.5649 32.2574 24.5649 33.5562 24.5698C33.7776 24.5392 34.003 24.5606 34.2147 24.6322C34.4263 24.7038 34.6184 24.8237 34.7758 24.9823C34.9332 25.1409 35.0515 25.334 35.1214 25.5462C35.1913 25.7584 35.2108 25.984 35.1785 26.2051C35.1785 27.297 35.1704 28.3888 35.1891 29.4798C35.1919 29.5707 35.2125 29.6602 35.2498 29.7431C35.2871 29.826 35.3405 29.9007 35.4067 29.963C36.4507 30.7588 37.5054 31.54 38.5706 32.3064C38.8227 32.5039 39.1194 32.6364 39.4346 32.6924C39.7499 32.7484 40.0741 32.7261 40.3787 32.6275C41.0737 32.4042 41.7533 32.1386 42.4972 31.8689M26.623 33.3429C26.6124 33.3021 26.6018 33.2614 26.5904 33.2198C25.61 33.5986 24.5587 33.7583 23.5101 33.6879C22.4615 33.6176 21.441 33.3187 20.52 32.8124L15.46 42.8909L16.6146 43.4279C16.7066 43.0024 16.9144 42.6105 17.2149 42.2956C17.5155 41.9807 17.8973 41.755 18.318 41.6433C18.7388 41.5316 19.1822 41.5384 19.5994 41.6628C20.0166 41.7871 20.3913 42.0244 20.6822 42.3482C21.0056 42.0231 21.4143 41.7959 21.8612 41.6928C22.308 41.5897 22.7749 41.615 23.2081 41.7656C23.6484 41.9086 24.0397 42.1723 24.3376 42.5266C24.6355 42.881 24.8279 43.3118 24.8931 43.7701C26.4804 43.7106 27.2276 44.2264 27.8126 45.7639C27.8504 45.7746 27.8892 45.7811 27.9283 45.7835C28.3099 45.7483 28.6939 45.8177 29.039 45.9841C29.3842 46.1505 29.6775 46.4078 29.8876 46.7282C30.0977 47.0487 30.2167 47.4203 30.2316 47.8032C30.2466 48.1861 30.1571 48.5659 29.9727 48.9018C29.8505 49.178 29.7234 49.4526 29.5873 49.7541C30.2391 50.2536 30.86 50.7563 31.5102 51.2207C31.6889 51.3452 31.9086 51.3962 32.1239 51.3631C32.3391 51.3301 32.5334 51.2155 32.6665 51.0431C32.8123 50.8817 32.889 50.6696 32.8804 50.4523C32.8717 50.2349 32.7782 50.0296 32.62 49.8804C32.3976 49.6359 32.1531 49.411 31.9217 49.1723C31.8361 49.1124 31.7645 49.0344 31.712 48.944C31.6595 48.8536 31.6274 48.7528 31.6178 48.6487C31.6083 48.5446 31.6215 48.4396 31.6566 48.3411C31.6918 48.2427 31.7479 48.153 31.8212 48.0785C31.8945 48.0039 31.9832 47.9462 32.0811 47.9094C32.1789 47.8726 32.2836 47.8576 32.3879 47.8654C32.4922 47.8732 32.5935 47.9036 32.6848 47.9545C32.7761 48.0055 32.8552 48.0757 32.9166 48.1603C33.3411 48.5759 33.7502 49.0069 34.178 49.4192C34.2484 49.5026 34.3353 49.5706 34.4333 49.6189C34.5312 49.6671 34.6381 49.6946 34.7472 49.6997C34.8562 49.7047 34.9652 49.6871 35.0672 49.6481C35.1691 49.6091 35.262 49.5494 35.3398 49.4728C35.4176 49.3962 35.4788 49.3043 35.5195 49.203C35.5601 49.1017 35.5794 48.993 35.5761 48.8839C35.5729 48.7747 35.5471 48.6674 35.5004 48.5687C35.4537 48.47 35.3871 48.382 35.3048 48.3102C35.2111 48.2084 35.1101 48.1139 35.0123 48.0161C34.1975 47.2013 33.3827 46.3987 32.5817 45.5798C32.4836 45.5019 32.408 45.3992 32.3627 45.2824C32.3174 45.1656 32.304 45.0388 32.3239 44.9151C32.3439 44.7914 32.3963 44.6752 32.476 44.5785C32.5557 44.4818 32.6597 44.4081 32.7773 44.3649C32.9285 44.3126 33.0923 44.3093 33.2455 44.3555C33.3987 44.4018 33.5334 44.4951 33.6304 44.6224C34.5454 45.5431 35.4597 46.4663 36.3877 47.3756C36.4987 47.4924 36.6322 47.5853 36.7802 47.6488C36.9282 47.7123 37.0876 47.745 37.2486 47.7449C37.4097 47.7447 37.569 47.7118 37.7169 47.6482C37.8649 47.5845 37.9983 47.4913 38.109 47.3744C38.2198 47.2575 38.3056 47.1193 38.3612 46.9681C38.4168 46.817 38.4411 46.6561 38.4325 46.4953C38.4239 46.3345 38.3827 46.1771 38.3113 46.0327C38.2399 45.8884 38.1399 45.76 38.0174 45.6556C37.8169 45.4649 37.6042 45.2881 37.3965 45.1056C36.5246 44.3405 35.6479 43.5802 34.7801 42.8094C34.6739 42.7416 34.5881 42.6462 34.532 42.5333C34.4759 42.4205 34.4516 42.2945 34.4617 42.1689C34.4717 42.0433 34.5158 41.9228 34.5891 41.8203C34.6624 41.7178 34.7622 41.6372 34.8779 41.5872C35.0315 41.5215 35.2019 41.5063 35.3647 41.5436C35.5275 41.5809 35.6743 41.6689 35.784 41.795C37.1099 42.965 38.4408 44.1302 39.7765 45.2905C39.8967 45.4295 40.0451 45.5413 40.2119 45.6182C40.3788 45.6952 40.5601 45.7356 40.7438 45.7367C40.9275 45.7379 41.1094 45.6998 41.2771 45.6249C41.4449 45.55 41.5948 45.4402 41.7166 45.3027C41.8385 45.1652 41.9295 45.0032 41.9837 44.8277C42.0378 44.6521 42.0538 44.467 42.0306 44.2848C42.0074 44.1025 41.9455 43.9274 41.849 43.771C41.7526 43.6146 41.6238 43.4807 41.4714 43.3782L32.8254 35.701C32.7251 35.613 32.6192 35.5315 32.506 35.4402C32.3837 35.5706 32.2786 35.6781 32.18 35.7906C31.3489 36.7146 30.5325 37.6541 29.6834 38.561C29.3841 38.8941 29.0015 39.1415 28.5748 39.2777C28.1482 39.4139 27.693 39.434 27.256 39.3359C26.819 39.2378 26.416 39.0251 26.0885 38.7196C25.7611 38.4142 25.5208 38.027 25.3926 37.5979C25.2136 36.9815 25.2717 36.3206 25.5556 35.745C25.9182 34.9473 26.2677 34.143 26.623 33.3421M31.4125 34.5293C31.3038 34.4277 31.2023 34.3188 31.1085 34.2033C31.0048 34.08 30.9496 33.9231 30.9533 33.7619C30.9571 33.6008 31.0195 33.4466 31.1289 33.3282C31.2252 33.1984 31.3664 33.109 31.5249 33.0773C31.6835 33.0457 31.8481 33.0741 31.9869 33.1571C32.1055 33.2277 32.2149 33.3125 32.3128 33.4097C35.5118 36.2181 38.7078 39.0281 41.9008 41.8398C42.0284 41.9843 42.202 42.0801 42.3923 42.1112C42.5825 42.1422 42.7776 42.1065 42.9445 42.0101C44.2963 41.4234 45.6709 40.8873 47.0643 40.3202L43.1955 33.1693C42.5437 33.4138 41.9057 33.6321 41.2799 33.8766C40.6664 34.1391 39.9928 34.2286 39.3321 34.1355C38.6714 34.0425 38.0488 33.7703 37.5317 33.3486C36.2052 32.357 34.8608 31.3865 33.5171 30.4153C32.9972 29.9997 32.3387 29.7973 31.6751 29.8492C31.0114 29.9011 30.3924 30.2034 29.9434 30.6947C29.4742 31.1432 29.0751 31.6595 28.7594 32.2266C28.0473 33.6273 27.4166 35.0695 26.7778 36.506C26.6783 36.7373 26.6628 36.9962 26.7341 37.2377C26.8054 37.4792 26.9589 37.6882 27.1681 37.8284C27.3867 37.9659 27.6455 38.0251 27.9022 37.9964C28.1588 37.9677 28.3981 37.8528 28.581 37.6704C28.7497 37.5074 28.902 37.3273 29.0585 37.153L31.4108 34.5284M11.8341 45.0461C12.6652 45.1316 12.7915 45.064 13.1378 44.369L20.1175 30.4576C20.4687 29.7569 20.3465 29.4383 19.6221 29.1425C17.1309 28.1283 14.6392 27.1153 12.147 26.1033C12.05 26.0641 11.9457 26.0421 11.8308 26.0071L11.8341 45.0461ZM51.4341 25.9582C51.2834 26.0071 51.153 26.0397 51.0267 26.091C48.5681 27.0357 46.1098 27.9817 43.6518 28.929C42.9234 29.2101 42.828 29.4636 43.1963 30.1447L50.1451 43.0001C50.4816 43.6226 50.6657 43.713 51.4333 43.6234L51.4341 25.9582ZM18.3021 22.4439C18.4922 22.3488 18.6774 22.2441 18.857 22.1302C22.8936 19.3734 26.9277 16.6145 30.9594 13.8533C31.5803 13.428 31.6993 13.428 32.3267 13.8533L41.9342 20.4297C42.8468 21.0538 43.7537 21.6829 44.6736 22.2956C44.7479 22.353 44.8332 22.3945 44.9243 22.4175C45.0154 22.4405 45.1102 22.4444 45.2028 22.4291C45.2955 22.4139 45.384 22.3796 45.4629 22.3286C45.5417 22.2776 45.6092 22.2109 45.6611 22.1327C45.7142 22.0556 45.7514 21.9687 45.7706 21.8771C45.7897 21.7855 45.7904 21.691 45.7725 21.5991C45.7547 21.5072 45.7187 21.4198 45.6667 21.342C45.6147 21.2642 45.5477 21.1975 45.4697 21.1459C45.4159 21.1027 45.358 21.0644 45.3002 21.027C40.9485 18.0442 36.5969 15.0633 32.2452 12.0844C31.7221 11.7267 31.5624 11.7275 31.0507 12.077C27.0853 14.7893 23.1198 17.5021 19.1544 20.2154C18.6981 20.5275 18.2385 20.833 17.7912 21.1565C17.6611 21.2397 17.5642 21.3659 17.5173 21.5131C17.4704 21.6603 17.4765 21.8192 17.5345 21.9624C17.6413 22.2704 17.8719 22.4195 18.3045 22.4431M33.7331 28.8141V26.0169H29.5465V29.1221C30.1559 28.7078 30.8636 28.4612 31.5984 28.407C32.3333 28.3528 33.0695 28.4937 33.7331 28.8141ZM21.202 47.7496C21.39 47.763 21.5779 47.7223 21.7436 47.6326C21.9093 47.5428 22.0459 47.4076 22.1374 47.2428C22.5929 46.3319 23.0337 45.4127 23.4411 44.4782C23.5327 44.2293 23.5269 43.9551 23.4249 43.7103C23.3229 43.4656 23.1323 43.2684 22.8911 43.1582C22.6543 43.0352 22.3786 43.0106 22.1238 43.0898C21.869 43.169 21.6558 43.3455 21.5304 43.581C21.0765 44.4773 20.6414 45.3859 20.2544 46.3123C20.1887 46.4693 20.1627 46.6401 20.1787 46.8096C20.1946 46.9791 20.252 47.142 20.3458 47.284C20.4396 47.4261 20.567 47.5428 20.7166 47.624C20.8662 47.7052 21.0334 47.7484 21.2037 47.7496M26.4095 46.318C26.4227 46.0681 26.3492 45.8213 26.2015 45.6192C26.0538 45.4172 25.8409 45.2723 25.5988 45.209C25.3701 45.1465 25.1267 45.1662 24.911 45.2648C24.6954 45.3634 24.5212 45.5346 24.4189 45.7485C24.0979 46.3734 23.798 47.009 23.5145 47.651C23.4496 47.7855 23.413 47.9317 23.4068 48.0809C23.4005 48.23 23.4249 48.3788 23.4783 48.5182C23.5317 48.6575 23.6131 48.7845 23.7174 48.8912C23.8217 48.998 23.9468 49.0823 24.0848 49.1389C24.2132 49.1904 24.3505 49.216 24.4888 49.2143C24.6271 49.2125 24.7636 49.1834 24.8907 49.1287C25.0177 49.0739 25.1326 48.9946 25.2288 48.8952C25.325 48.7959 25.4006 48.6785 25.4513 48.5498C25.7454 47.9436 26.0217 47.3276 26.2946 46.7099C26.344 46.5827 26.3819 46.4516 26.4095 46.318ZM18.1986 46.4117C18.4121 46.2618 18.7062 46.1583 18.8252 45.953C19.1664 45.3547 19.4714 44.7365 19.7386 44.1017C19.8142 43.9054 19.8109 43.6875 19.7295 43.4936C19.6481 43.2997 19.4949 43.1447 19.3019 43.0612C19.1136 42.9663 18.8956 42.9494 18.695 43.0143C18.4944 43.0791 18.3275 43.2204 18.2304 43.4075C17.9257 43.9933 17.6348 44.5898 17.3822 45.2001C17.333 45.3339 17.3163 45.4774 17.3333 45.6189C17.3504 45.7604 17.4007 45.8959 17.4802 46.0142C17.5597 46.1325 17.6661 46.2303 17.7907 46.2995C17.9153 46.3688 18.0545 46.4075 18.197 46.4125M27.9267 47.2127C27.8354 47.2754 27.5625 47.3667 27.4631 47.55C27.1176 48.1929 26.8112 48.861 26.5309 49.5341C26.4699 49.721 26.4827 49.9242 26.5666 50.102C26.6506 50.2799 26.7993 50.4189 26.9823 50.4907C27.1446 50.5559 27.3259 50.5556 27.4879 50.4898C27.65 50.424 27.7801 50.2978 27.8509 50.1379C28.1662 49.4933 28.471 48.8431 28.7472 48.1823C28.9525 47.6893 28.6103 47.2216 27.9267 47.2143" fill="black"/>
<path d="M32.0057 53.085C31.3268 53.0843 30.6745 52.8216 30.1846 52.3517C29.8912 52.0829 29.5833 51.8305 29.2622 51.5955C29.1652 51.5214 29.0658 51.4464 28.9672 51.369C28.7104 51.6639 28.3838 51.8898 28.0172 52.026C27.6506 52.1622 27.2558 52.2044 26.8687 52.1487C26.4816 52.093 26.1146 51.9413 25.8013 51.7073C25.4879 51.4733 25.2382 51.1646 25.0749 50.8092C24.8742 50.8421 24.6712 50.859 24.4678 50.8598C23.9495 50.8678 23.4402 50.7235 23.0032 50.4446C22.5661 50.1658 22.2206 49.7647 22.0095 49.2913C21.744 49.343 21.4742 49.3702 21.2037 49.3727C20.274 49.3727 19.6303 48.9653 18.8652 47.8914C18.6455 47.9456 18.42 47.9729 18.1938 47.9729C17.8209 47.9783 17.4517 47.8978 17.1149 47.7378C16.778 47.5777 16.4825 47.3422 16.2512 47.0497C16.0193 46.7385 15.8586 46.3801 15.7805 46C15.7024 45.6198 15.7087 45.2271 15.799 44.8497L14.9174 44.435L14.8579 44.549C14.7561 44.7421 14.6607 44.9247 14.5776 45.1129C14.3912 45.6014 14.0553 46.0187 13.6178 46.3051C13.1804 46.5916 12.6637 46.7327 12.1413 46.7083C12.0908 46.7083 12.0386 46.7083 11.9865 46.7083C11.745 46.7306 11.5015 46.6991 11.2736 46.6159C11.0457 46.5327 10.8392 46.4001 10.6688 46.2274C10.4984 46.0548 10.3685 45.8465 10.2883 45.6175C10.2082 45.3886 10.1798 45.1447 10.2053 44.9035V44.8399C10.2053 38.719 10.2053 32.3904 10.2053 26.1644C10.1782 25.9412 10.1983 25.7148 10.2646 25.5C10.3308 25.2852 10.4415 25.0867 10.5896 24.9176C10.7377 24.7484 10.9198 24.6124 11.124 24.5184C11.3281 24.4243 11.5499 24.3744 11.7746 24.3718C12.0498 24.375 12.3219 24.4303 12.5764 24.5347C13.6707 24.969 14.7829 25.4147 15.8577 25.845L17.4955 26.5009L19.3712 27.257V23.7289C19.0109 23.9364 18.6037 24.0485 18.1881 24.0548C18.0195 24.0546 17.8516 24.0346 17.6878 23.9953C17.2301 23.9105 16.8107 23.6839 16.489 23.3476C16.1673 23.0112 15.9595 22.5822 15.8952 22.1213C15.8069 21.6652 15.8623 21.1929 16.0537 20.7697C16.2452 20.3464 16.5633 19.9931 16.9642 19.7583L20.5331 17.3138C23.2627 15.4447 26.0844 13.5119 28.8662 11.6191C29.3689 11.2769 29.8986 10.9624 30.4103 10.6584C30.6425 10.5207 30.882 10.3781 31.1159 10.2347L31.1648 10.2046H32.1051L32.1515 10.2307C32.2933 10.3121 32.4408 10.3879 32.5834 10.4637C32.9054 10.627 33.2183 10.8079 33.5204 11.0056C35.806 12.5594 38.1249 14.1475 40.3649 15.6826L42.6463 17.2454C43.0173 17.4996 43.3889 17.753 43.761 18.0056C44.619 18.5898 45.5055 19.1944 46.3684 19.7982C46.6216 19.9655 46.8394 20.1811 47.0092 20.4327C47.1791 20.6842 47.2976 20.9668 47.3582 21.2642C47.4187 21.5616 47.42 21.868 47.362 22.166C47.3041 22.4639 47.1879 22.7474 47.0203 23.0004C46.8166 23.3201 46.5357 23.5834 46.2034 23.766C45.8712 23.9485 45.4984 24.0445 45.1193 24.045C44.6907 24.0429 44.2698 23.9307 43.8971 23.7191V27.0884C43.9623 27.0672 44.0226 27.0468 44.082 27.0248L44.1073 27.015L50.506 24.5991C50.8319 24.4613 51.18 24.3835 51.5335 24.3693C52.143 24.3693 52.5928 24.7026 53.0466 25.4832L53.0735 25.5304V44.0341L53.0572 44.0724C52.9595 44.3756 52.7814 44.6467 52.5417 44.8566C52.3021 45.0666 52.0099 45.2075 51.6965 45.2644C51.4963 45.2947 51.2943 45.3105 51.0919 45.3117C50.5882 45.3184 50.0939 45.1756 49.6714 44.9014C49.2489 44.6271 48.9172 44.2337 48.7183 43.7709L48.1561 42.7336L47.6526 41.8039L43.5076 43.5321C43.6708 44.0271 43.6987 44.5567 43.5882 45.066C43.4778 45.5753 43.2331 46.0458 42.8796 46.4287C42.526 46.8116 42.0765 47.0929 41.5776 47.2435C41.0787 47.3941 40.5485 47.4085 40.0422 47.2852C39.8907 47.9077 39.5322 48.4602 39.0254 48.8521C38.5186 49.244 37.8937 49.452 37.2531 49.442C37.2107 49.472 37.1768 49.5124 37.1545 49.5593C37.0442 50.0313 36.792 50.4581 36.4317 50.7823C36.0714 51.1064 35.6204 51.3124 35.1395 51.3723C35.0244 51.3903 34.908 51.3988 34.7915 51.3975C34.6978 51.3975 34.6041 51.3975 34.5129 51.3894L34.3931 51.3845C34.2214 51.881 33.8992 52.3117 33.4713 52.6165C33.0433 52.9213 32.531 53.0851 32.0057 53.085ZM28.9094 50.8035L29.065 50.9282C29.21 51.0439 29.36 51.158 29.505 51.2688C29.838 51.513 30.1573 51.7752 30.4616 52.0543C30.8757 52.4521 31.4274 52.6748 32.0016 52.676C32.4668 52.6778 32.9196 52.5259 33.2896 52.2438C33.6596 51.9618 33.926 51.5655 34.0476 51.1164L34.0924 50.9738H34.2423C34.3377 50.9738 34.4322 50.9738 34.5235 50.982C34.6147 50.9901 34.6995 50.9893 34.785 50.9893C34.8791 50.9905 34.9731 50.984 35.0661 50.9698C35.4709 50.9221 35.8509 50.7499 36.1536 50.4769C36.4564 50.204 36.6669 49.8438 36.756 49.4461C36.7892 49.343 36.8496 49.2508 36.9307 49.1791C37.0119 49.1074 37.1109 49.0589 37.2172 49.0387C37.808 49.0524 38.3841 48.8534 38.8403 48.4778C39.2965 48.1022 39.6025 47.5751 39.7024 46.9927L39.7554 46.8036L39.946 46.8493C40.2156 46.9162 40.4921 46.9512 40.7698 46.9535C41.1073 46.9601 41.4421 46.8936 41.7515 46.7588C42.0609 46.6239 42.3375 46.4238 42.5624 46.1721C42.8983 45.8212 43.1246 45.38 43.2138 44.9024C43.3029 44.4249 43.251 43.9317 43.0643 43.4832L43.0008 43.2999L47.8326 41.289L47.9206 41.4519L48.5122 42.543L49.0744 43.5802C49.236 43.9798 49.5153 44.3208 49.8752 44.5579C50.2351 44.7951 50.6585 44.9174 51.0894 44.9084C51.2722 44.9074 51.4546 44.8932 51.6354 44.866C51.8742 44.8235 52.0967 44.7159 52.2783 44.555C52.4599 44.3941 52.5935 44.1862 52.6645 43.9542V25.638C52.2978 25.0171 51.9776 24.7743 51.5319 24.7743C51.2277 24.7892 50.9286 24.8582 50.6486 24.978L44.2499 27.3939L44.2246 27.4037C44.1277 27.4404 44.0299 27.4713 43.9264 27.5039L43.7569 27.5585L43.4888 27.6473V23.0664L43.7806 23.2066L43.8661 23.2465C43.9362 23.2783 44.0079 23.3117 44.078 23.3524C44.3933 23.5362 44.7511 23.6345 45.116 23.6376C45.4294 23.6387 45.738 23.5605 46.013 23.4102C46.2879 23.2599 46.5204 23.0424 46.6886 22.778C46.8265 22.5684 46.9217 22.3337 46.9688 22.0872C47.0158 21.8408 47.0138 21.5875 46.9629 21.3418C46.912 21.0962 46.8131 20.863 46.6719 20.6556C46.5308 20.4482 46.3501 20.2706 46.1403 20.1331C45.2766 19.5293 44.3909 18.9256 43.5329 18.3405C43.1608 18.0874 42.7892 17.8337 42.4182 17.5795L40.1367 16.0167C37.8952 14.4816 35.5737 12.8935 33.2923 11.3404C33.0031 11.1513 32.7039 10.978 32.396 10.8214C32.264 10.7546 32.1303 10.6837 32.0008 10.6112H31.2813C31.0613 10.7456 30.8372 10.8784 30.6205 11.0072C30.1137 11.3078 29.5898 11.6191 29.0976 11.954C26.315 13.8468 23.4933 15.7796 20.7645 17.6487L17.1956 20.0932C16.8593 20.2847 16.5917 20.5771 16.4309 20.9291C16.27 21.2811 16.224 21.6748 16.2993 22.0544C16.3502 22.4373 16.5219 22.7939 16.7895 23.0723C17.0571 23.3508 17.4066 23.5366 17.7872 23.6026C17.9206 23.6348 18.0573 23.6512 18.1946 23.6515C18.6552 23.6323 19.0992 23.4741 19.4681 23.1976L19.7859 22.9833V27.8584L19.2864 27.6587C18.6346 27.398 17.9901 27.1421 17.348 26.8847L15.7045 26.2287C14.6298 25.7977 13.5192 25.3528 12.4249 24.9185C12.2181 24.8327 11.9969 24.7868 11.773 24.7833C11.0674 24.7833 10.6111 25.3259 10.6111 26.1684C10.6111 32.3936 10.6111 38.7231 10.6111 44.844V44.9075C10.6111 45.8193 11.0527 46.2618 12.0004 46.2984C12.0476 46.2984 12.0941 46.2984 12.1397 46.2984C12.5837 46.3263 13.0247 46.2096 13.3968 45.9657C13.7689 45.7219 14.052 45.3641 14.2036 44.9458C14.2924 44.7454 14.391 44.5572 14.4961 44.3575C14.545 44.2647 14.5947 44.1701 14.6436 44.0732L14.7332 43.8964L14.9125 43.9778L16.1201 44.5482L16.2724 44.6199L16.2309 44.7829C16.1274 45.1227 16.1043 45.4819 16.1635 45.8321C16.2226 46.1824 16.3622 46.5141 16.5715 46.8012C16.7641 47.0453 17.0103 47.2417 17.2911 47.3754C17.5718 47.5091 17.8796 47.5763 18.1905 47.572C18.4269 47.5711 18.6618 47.5357 18.888 47.4669L19.0306 47.4245L19.1121 47.5467C19.8348 48.5978 20.3799 48.9702 21.1972 48.9702C21.4922 48.9648 21.786 48.9293 22.0739 48.8643L22.2303 48.8317L22.2996 48.9751C22.4645 49.4139 22.7605 49.7913 23.1474 50.0559C23.5344 50.3205 23.9934 50.4595 24.4621 50.454C24.692 50.4524 24.9212 50.4287 25.1466 50.3831L25.3046 50.3521L25.3715 50.498C25.4958 50.8282 25.7072 51.1185 25.9831 51.3384C26.2591 51.5582 26.5894 51.6992 26.939 51.7466C27.2887 51.7939 27.6446 51.7458 27.9691 51.6074C28.2936 51.4689 28.5746 51.2452 28.7823 50.96L28.9094 50.8035ZM31.982 51.5776C31.7693 51.577 31.5622 51.5098 31.3897 51.3853C30.9269 51.0553 30.4689 50.6984 30.0257 50.3538C29.8388 50.2082 29.6503 50.0621 29.4602 49.9154L29.3323 49.8168L29.3991 49.6693L29.5384 49.363C29.6199 49.1755 29.7014 48.9979 29.7829 48.8187C29.9529 48.5158 30.0369 48.1723 30.026 47.8251C30.015 47.478 29.9095 47.1404 29.7207 46.8489C29.5319 46.5574 29.2671 46.323 28.9548 46.1709C28.6425 46.0189 28.2946 45.9551 27.9487 45.9864H27.9267C27.8832 45.9856 27.84 45.9796 27.798 45.9684L27.7752 45.9635L27.6643 45.9415L27.6244 45.8356C27.0932 44.4398 26.4641 43.9681 25.1311 43.9681C25.0578 43.9681 24.9812 43.9681 24.9021 43.9721L24.7302 43.9787L24.6935 43.8149C24.6351 43.3921 24.459 42.9942 24.1852 42.6667C23.9115 42.3392 23.5512 42.0953 23.1454 41.9628C22.9032 41.8813 22.6496 41.8387 22.3941 41.8365C21.8037 41.8489 21.2405 42.0868 20.8199 42.5014L20.6749 42.6334L20.5372 42.4933C20.3287 42.2702 20.0777 42.0912 19.7989 41.9668C19.5201 41.8424 19.2193 41.7751 18.9141 41.7689C18.4245 41.7899 17.9548 41.9688 17.5753 42.2789C17.1958 42.5889 16.9268 43.0134 16.8086 43.489L16.7369 43.7065L16.1771 43.4466L15.3737 43.0726L15.1838 42.9838L15.2775 42.7964L18.3608 36.6543L20.4304 32.5313L20.6138 32.6267C21.6503 33.1863 22.8076 33.485 23.9855 33.4969C24.8513 33.4907 25.7093 33.3313 26.5195 33.0259L26.7289 32.9493L26.7868 33.1644C26.7982 33.2068 26.8096 33.2459 26.8202 33.2907L26.8373 33.3584L26.8088 33.4227C26.7001 33.6656 26.5915 33.91 26.4829 34.1561C26.2384 34.7061 25.9899 35.274 25.7373 35.8313C25.4723 36.3619 25.4164 36.9726 25.5809 37.5424C25.7201 38.0202 26.011 38.4396 26.4096 38.7375C26.8083 39.0353 27.293 39.1953 27.7906 39.1933C28.1177 39.1922 28.4409 39.1233 28.7399 38.9909C29.039 38.8585 29.3073 38.6655 29.5278 38.4241C30.1047 37.8073 30.6759 37.1644 31.2292 36.5435C31.4883 36.2518 31.7563 35.9503 32.022 35.6553C32.0904 35.5795 32.1605 35.5062 32.2346 35.428L32.3544 35.3009L32.484 35.1632L32.6315 35.2821L32.73 35.3636C32.8115 35.4264 32.8832 35.4858 32.9566 35.551L41.6017 43.2323C41.7648 43.3525 41.9024 43.5038 42.0066 43.6774C42.1108 43.8511 42.1795 44.0437 42.2089 44.2441C42.2382 44.4445 42.2275 44.6488 42.1774 44.845C42.1273 45.0413 42.0388 45.2256 41.9171 45.3875C41.7804 45.5532 41.609 45.687 41.415 45.7792C41.221 45.8714 41.0091 45.9199 40.7943 45.9212C40.3647 45.9083 39.9546 45.7387 39.6413 45.4445C38.3734 44.338 37.0119 43.1492 35.6487 41.9481C35.5262 41.8179 35.36 41.7373 35.1818 41.7216C35.1054 41.7228 35.0301 41.7403 34.961 41.773C34.8877 41.8009 34.8228 41.8471 34.7726 41.9074C34.7224 41.9676 34.6885 42.0397 34.6742 42.1168C34.6665 42.22 34.6848 42.3235 34.7275 42.4177C34.7703 42.512 34.836 42.594 34.9186 42.6562C35.5126 43.1842 36.1213 43.7155 36.7112 44.2304L37.5358 44.9524L37.7183 45.1113C37.8658 45.2384 38.0182 45.3704 38.1632 45.5081C38.3039 45.6293 38.4188 45.7776 38.501 45.9441C38.5832 46.1106 38.6311 46.292 38.6418 46.4774C38.6525 46.6628 38.6258 46.8484 38.5634 47.0233C38.5009 47.1982 38.4039 47.3588 38.2781 47.4954C38.1502 47.638 37.9937 47.7521 37.8187 47.8303C37.6438 47.9085 37.4544 47.949 37.2629 47.9493C36.8817 47.9454 36.5175 47.7914 36.2492 47.5207C35.4344 46.7213 34.6147 45.8975 33.8235 45.1007L33.4903 44.765C33.4344 44.6956 33.3651 44.6382 33.2866 44.5962C33.208 44.5542 33.1219 44.5285 33.0332 44.5205C32.9712 44.5213 32.91 44.5331 32.8523 44.5555C32.7759 44.5797 32.707 44.6231 32.6524 44.6816C32.5977 44.7401 32.5591 44.8118 32.5402 44.8896C32.5236 44.9895 32.5324 45.092 32.5659 45.1875C32.5993 45.2831 32.6564 45.3687 32.7317 45.4364C33.3069 46.023 33.8993 46.613 34.4721 47.1833L35.1615 47.871L35.2511 47.959C35.3203 48.0267 35.3912 48.0967 35.4597 48.1709C35.5587 48.2604 35.6386 48.369 35.6947 48.4901C35.7508 48.6113 35.7819 48.7425 35.786 48.8759C35.7902 49.0094 35.7674 49.1423 35.7191 49.2667C35.6707 49.3911 35.5977 49.5045 35.5045 49.6001C35.4151 49.6957 35.3071 49.7722 35.1872 49.8249C35.0673 49.8775 34.938 49.9053 34.807 49.9064C34.516 49.8983 34.2398 49.7763 34.0378 49.5667C33.8032 49.3401 33.5709 49.1055 33.3469 48.8781C33.1603 48.6891 32.968 48.4944 32.7765 48.3078C32.6537 48.1702 32.4821 48.086 32.2982 48.0731C32.2366 48.0744 32.176 48.0883 32.12 48.1137C32.064 48.1392 32.0137 48.1759 31.9723 48.2214C31.6618 48.5375 31.9405 48.8944 32.0741 49.0362C32.1637 49.1291 32.2583 49.222 32.3487 49.3116C32.4913 49.4518 32.638 49.5968 32.7765 49.7492C32.9689 49.9344 33.0819 50.1872 33.0914 50.4542C33.101 50.7212 33.0065 50.9814 32.8278 51.18C32.7251 51.3043 32.5963 51.4046 32.4506 51.4738C32.3049 51.5429 32.1458 51.5792 31.9845 51.5801L31.982 51.5776ZM29.8366 49.6913L30.2758 50.0327C30.7354 50.3904 31.1721 50.7294 31.626 51.0537C31.7296 51.1288 31.8541 51.1695 31.982 51.1702C32.0834 51.168 32.183 51.1436 32.2739 51.0988C32.3648 51.0541 32.4448 50.99 32.5084 50.9111C32.565 50.8498 32.6089 50.7778 32.6374 50.6994C32.666 50.621 32.6787 50.5376 32.6749 50.4543C32.671 50.3709 32.6506 50.2891 32.6149 50.2137C32.5792 50.1383 32.5289 50.0707 32.4669 50.0148C32.3365 49.8714 32.1931 49.7304 32.0554 49.5935C31.9625 49.5023 31.8663 49.4078 31.7735 49.3116C31.6714 49.2309 31.5872 49.1298 31.5263 49.0147C31.4654 48.8997 31.4291 48.7732 31.4198 48.6434C31.4104 48.5135 31.4282 48.3832 31.472 48.2606C31.5158 48.138 31.5846 48.0259 31.674 47.9313C31.7537 47.8466 31.8497 47.7789 31.9563 47.7324C32.0629 47.6859 32.1778 47.6616 32.2941 47.6608C32.5851 47.6722 32.8596 47.7985 33.0576 48.012C33.2523 48.2018 33.4463 48.3982 33.6337 48.5889C33.8561 48.8146 34.0867 49.0476 34.3173 49.2701C34.4446 49.4062 34.62 49.4872 34.8062 49.4958C34.883 49.4941 34.9587 49.4769 35.0287 49.4453C35.0987 49.4136 35.1616 49.3682 35.2136 49.3116C35.2702 49.2527 35.3139 49.1825 35.3418 49.1057C35.3698 49.0289 35.3813 48.9471 35.3758 48.8656C35.3703 48.784 35.3478 48.7045 35.3098 48.6322C35.2717 48.5598 35.219 48.4962 35.1549 48.4455C35.0938 48.3787 35.0286 48.3159 34.961 48.2483L34.8689 48.157L34.1804 47.4701C33.61 46.8998 33.0136 46.3074 32.4375 45.7199C32.3148 45.6034 32.2232 45.4581 32.1711 45.2971C32.119 45.1361 32.1081 44.9647 32.1393 44.7984C32.1731 44.6539 32.2432 44.5204 32.343 44.4106C32.4428 44.3008 32.569 44.2183 32.7097 44.171C32.8125 44.132 32.9215 44.1115 33.0315 44.1107C33.1743 44.1175 33.3142 44.1535 33.4425 44.2164C33.5709 44.2793 33.685 44.3678 33.7779 44.4765L34.1112 44.8114C34.9015 45.6067 35.7188 46.4296 36.5336 47.2273C36.7259 47.4231 36.9876 47.5352 37.262 47.5394C37.3971 47.5388 37.5304 47.5099 37.6536 47.4544C37.7767 47.399 37.8867 47.3183 37.9766 47.2175C38.0668 47.1199 38.1361 47.0049 38.1804 46.8796C38.2246 46.7542 38.2428 46.6212 38.2339 46.4886C38.2249 46.3559 38.1891 46.2265 38.1285 46.1082C38.0678 45.99 37.9837 45.8853 37.8813 45.8006C37.7436 45.6694 37.5953 45.5407 37.4511 45.4168L37.2661 45.2538L36.4423 44.5327C35.8532 44.0178 35.2437 43.4857 34.6497 42.9561C34.5161 42.849 34.4118 42.7098 34.3465 42.5515C34.2812 42.3932 34.2572 42.2209 34.2766 42.0508C34.3013 41.9067 34.3623 41.7713 34.4538 41.6572C34.5453 41.5432 34.6644 41.4543 34.7997 41.399C34.9211 41.3429 35.053 41.3132 35.1867 41.3118C35.4634 41.3243 35.7253 41.4407 35.92 41.6377C37.28 42.8379 38.6407 44.0267 39.9126 45.1324C40.1539 45.3601 40.47 45.492 40.8016 45.5032C40.958 45.5024 41.1122 45.4669 41.2532 45.3991C41.3941 45.3313 41.5182 45.233 41.6164 45.1113C41.7039 44.9896 41.7662 44.8517 41.7997 44.7056C41.8331 44.5595 41.8371 44.4082 41.8113 44.2606C41.7855 44.1129 41.7304 43.972 41.6494 43.8459C41.5683 43.7198 41.4629 43.6112 41.3394 43.5264L32.6901 35.8533C32.638 35.8077 32.5834 35.7629 32.5272 35.7164C32.4579 35.789 32.3927 35.8582 32.33 35.9275C32.0652 36.2216 31.7979 36.5223 31.5388 36.8132C30.9847 37.4365 30.4111 38.081 29.8277 38.7011C29.5687 38.9834 29.254 39.2089 28.9033 39.3632C28.5526 39.5175 28.1737 39.5972 27.7906 39.5974C27.205 39.5999 26.6344 39.4117 26.1652 39.0613C25.696 38.7108 25.3536 38.2171 25.1898 37.6549C24.9959 36.9912 25.0588 36.2789 25.3658 35.6594C25.6175 35.1045 25.8677 34.5374 26.1097 33.9882L26.3134 33.527C25.3811 33.8376 24.3961 33.9582 23.4165 33.8818C22.4369 33.8054 21.4825 33.5335 20.6097 33.0821L18.7258 36.8401L15.7363 42.7947L16.349 43.0799L16.4989 43.15C16.669 42.64 16.9919 42.1948 17.4239 41.8748C17.8558 41.5548 18.3758 41.3756 18.9132 41.3615C19.5732 41.3703 20.2062 41.6248 20.6887 42.0753C21.1624 41.6645 21.7664 41.4352 22.3933 41.4283C22.6917 41.4303 22.9879 41.4795 23.2709 41.5741C23.7193 41.7153 24.1214 41.9745 24.4351 42.3246C24.7488 42.6747 24.9625 43.1028 25.0537 43.5639H25.1286C26.5953 43.5639 27.3735 44.1131 27.9585 45.5822C28.3718 45.5522 28.7856 45.6338 29.1566 45.8186C29.5275 46.0035 29.8419 46.2846 30.0669 46.6327C30.2918 46.9808 30.419 47.3829 30.4351 47.7971C30.4512 48.2112 30.3557 48.622 30.1585 48.9865C30.077 49.1674 29.9955 49.3458 29.914 49.5349L29.8366 49.6913ZM27.2292 50.7457C27.1146 50.7463 27.0013 50.7212 26.8976 50.6724C26.6659 50.5789 26.4792 50.3997 26.3765 50.172C26.2737 49.9443 26.2628 49.6857 26.346 49.4501C26.6825 48.6524 26.9815 48.0161 27.2863 47.4498C27.3953 47.2854 27.5516 47.1579 27.7344 47.0839C27.7638 47.0693 27.8012 47.0505 27.8159 47.0415L27.8689 47.0049H27.9332C28.1156 46.9953 28.2976 47.0309 28.463 47.1083C28.6284 47.1858 28.7722 47.3027 28.8817 47.449C28.9574 47.5679 29.0024 47.7039 29.0125 47.8446C29.0226 47.9852 28.9975 48.1262 28.9395 48.2548C28.6951 48.8317 28.4132 49.4575 28.0392 50.2218C27.9668 50.3759 27.8529 50.5067 27.7103 50.5995C27.5676 50.6924 27.4019 50.7436 27.2317 50.7473L27.2292 50.7457ZM27.9805 47.4164L27.9169 47.449C27.8113 47.4907 27.7175 47.5579 27.644 47.6445C27.3458 48.1994 27.0516 48.8244 26.7208 49.6107C26.6808 49.7492 26.6948 49.8978 26.76 50.0264C26.8251 50.1551 26.9366 50.2543 27.072 50.3041C27.1212 50.327 27.1749 50.3387 27.2292 50.3383C27.3226 50.3351 27.4132 50.3061 27.4911 50.2545C27.5689 50.2028 27.6309 50.1306 27.67 50.0458C28.04 49.2888 28.3219 48.6704 28.5606 48.1008C28.5934 48.0339 28.6086 47.9597 28.6048 47.8853C28.6009 47.8109 28.5782 47.7387 28.5386 47.6755C28.472 47.5927 28.3873 47.5265 28.2909 47.4818C28.1945 47.4371 28.0891 47.4153 27.9829 47.418L27.9805 47.4164ZM24.467 49.429C24.3045 49.429 24.1439 49.3931 23.9969 49.3238C23.8354 49.2553 23.6894 49.1549 23.5676 49.0287C23.4458 48.9024 23.3508 48.7528 23.2881 48.589C23.2255 48.4251 23.1966 48.2503 23.2032 48.075C23.2097 47.8997 23.2516 47.7275 23.3263 47.5687C23.6318 46.8761 23.9292 46.2504 24.2356 45.6547C24.335 45.4497 24.4899 45.2766 24.6828 45.1553C24.8757 45.034 25.0988 44.9694 25.3266 44.9687C25.4367 44.9685 25.5462 44.9827 25.6526 45.011C25.9384 45.0845 26.1902 45.2543 26.3655 45.4918C26.5408 45.7293 26.6288 46.0199 26.6149 46.3147V46.3433L26.6075 46.3701C26.6026 46.3881 26.5969 46.4109 26.5912 46.4378C26.566 46.5583 26.5294 46.6761 26.482 46.7898C26.205 47.4147 25.9312 48.0267 25.6363 48.6353C25.5366 48.8648 25.3738 49.0613 25.1668 49.2018C24.9598 49.3423 24.7171 49.4211 24.467 49.429ZM25.3266 45.3769C25.1739 45.3782 25.0246 45.4225 24.8958 45.5046C24.767 45.5867 24.6639 45.7034 24.5982 45.8413C24.2959 46.4296 24.0018 47.0481 23.7019 47.7333C23.6473 47.8436 23.6162 47.964 23.6105 48.087C23.6048 48.2099 23.6247 48.3327 23.6688 48.4476C23.713 48.5624 23.7806 48.6669 23.8672 48.7543C23.9538 48.8418 24.0576 48.9103 24.1721 48.9555C24.2653 48.9996 24.3671 49.0224 24.4703 49.0224C24.6425 49.0135 24.8088 48.9564 24.9501 48.8573C25.0913 48.7583 25.2018 48.6215 25.2688 48.4626C25.5605 47.8596 25.8326 47.251 26.1089 46.6292C26.1445 46.5388 26.1718 46.4452 26.1903 46.3498L26.2034 46.2944C26.212 46.0934 26.1512 45.8955 26.0312 45.7341C25.9111 45.5726 25.7392 45.4574 25.5442 45.4078C25.4733 45.3881 25.4002 45.3777 25.3266 45.3769ZM21.2029 47.9533C20.9988 47.9517 20.7982 47.8998 20.619 47.8021C20.4398 47.7045 20.2874 47.5642 20.1754 47.3935C20.0623 47.2245 19.9932 47.03 19.9742 46.8275C19.9553 46.6251 19.9872 46.4211 20.067 46.2341C20.4141 45.4038 20.8215 44.5319 21.3495 43.489C21.4483 43.2922 21.6007 43.1273 21.7891 43.0134C21.9776 42.8995 22.1943 42.8412 22.4145 42.8453C22.6099 42.846 22.8027 42.8899 22.9792 42.974C23.268 43.1071 23.4958 43.3446 23.6167 43.6387C23.7376 43.9328 23.7427 44.2619 23.631 44.5596C23.2749 45.3818 22.8594 46.2634 22.3273 47.33C22.2206 47.529 22.0589 47.6931 21.8616 47.8029C21.6643 47.9126 21.4396 47.9634 21.2143 47.9493L21.2029 47.9533ZM22.4112 43.2527C22.2666 43.2495 22.1239 43.2873 21.9998 43.3617C21.8757 43.436 21.7751 43.544 21.7097 43.6731C21.1866 44.7063 20.7832 45.57 20.4394 46.3913C20.3853 46.5167 20.3636 46.6537 20.3763 46.7897C20.3889 46.9256 20.4356 47.0562 20.5119 47.1695C20.5869 47.2838 20.6889 47.3779 20.8088 47.4435C20.9287 47.5091 21.0629 47.5443 21.1996 47.5459C21.3499 47.5595 21.501 47.5295 21.6348 47.4595C21.7686 47.3896 21.8794 47.2827 21.9541 47.1516C22.4862 46.0882 22.8985 45.2131 23.2513 44.3975C23.3242 44.1967 23.3182 43.9757 23.2346 43.7791C23.1509 43.5826 22.9959 43.425 22.8007 43.3382C22.679 43.2818 22.5463 43.2528 22.4121 43.2535L22.4112 43.2527ZM18.2483 46.6244L18.1669 46.6138C17.9784 46.5933 17.7972 46.5297 17.6374 46.4278C17.4775 46.3259 17.3434 46.1885 17.2453 46.0263C17.1663 45.8902 17.1202 45.7375 17.1109 45.5805C17.1015 45.4234 17.1292 45.2663 17.1915 45.1218C17.4189 44.5743 17.691 43.9998 18.0471 43.3138C18.1294 43.1504 18.2559 43.0134 18.4122 42.9183C18.5684 42.8233 18.7483 42.774 18.9312 42.776C19.0872 42.7763 19.2413 42.8108 19.3826 42.877C19.623 42.9831 19.8131 43.178 19.9133 43.4209C20.0135 43.6638 20.016 43.936 19.9203 44.1807C19.6505 44.8235 19.342 45.4494 18.9963 46.0548C18.8717 46.2295 18.703 46.3681 18.5075 46.4565C18.4349 46.4981 18.3665 46.538 18.307 46.5779L18.2483 46.6244ZM18.9336 43.1826C18.8255 43.1818 18.7193 43.2111 18.6271 43.2674C18.5348 43.3237 18.46 43.4047 18.4113 43.5012C18.0601 44.1758 17.7929 44.7405 17.5704 45.2775C17.5324 45.3645 17.5153 45.4592 17.5206 45.554C17.5258 45.6488 17.5532 45.7411 17.6006 45.8234C17.6613 45.9207 17.7416 46.0042 17.8365 46.0686C17.9313 46.133 18.0386 46.1769 18.1514 46.1974C18.2043 46.164 18.2589 46.133 18.3143 46.1029C18.4432 46.0451 18.5574 45.9591 18.6484 45.8511C18.9858 45.2601 19.287 44.6493 19.5504 44.0218C19.6052 43.8744 19.601 43.7115 19.5386 43.5672C19.4762 43.4228 19.3604 43.3081 19.2155 43.247C19.1274 43.2053 19.0311 43.1828 18.9336 43.1826ZM12.2749 45.2815C12.1208 45.2793 11.9669 45.2693 11.8138 45.2514L11.6304 45.2294V25.7333L11.8928 25.8148L11.9987 25.845C12.0759 25.8646 12.1518 25.8888 12.2261 25.9175C14.7178 26.93 17.2095 27.9431 19.7012 28.9567C19.8655 29.0009 20.0186 29.0793 20.1506 29.1867C20.2826 29.2941 20.3904 29.4282 20.4671 29.5801C20.5097 29.7443 20.5173 29.9157 20.4892 30.0831C20.4611 30.2504 20.3981 30.41 20.3041 30.5513L16.8216 37.487L13.3228 44.4602C13.0368 45.0298 12.8526 45.2815 12.2749 45.2815ZM12.0378 44.8603C12.1166 44.8682 12.1958 44.872 12.2749 44.8717C12.6009 44.8717 12.6824 44.8244 12.9586 44.2777L16.4574 37.3045L19.9415 30.3704C20.072 30.1824 20.1249 29.9512 20.089 29.7251C20.0377 29.5882 19.8666 29.4644 19.5512 29.3356C17.0579 28.3193 14.5654 27.3062 12.0737 26.2964L12.0378 26.2793V44.8603ZM51.0251 43.8564C50.4734 43.8564 50.2445 43.612 49.9658 43.097L43.0179 30.2417C42.9227 30.11 42.8561 29.9598 42.8223 29.8008C42.7885 29.6419 42.7882 29.4776 42.8215 29.3185C42.9007 29.1746 43.009 29.0488 43.1394 28.9491C43.2699 28.8494 43.4197 28.7779 43.5793 28.7392C46.4409 27.6367 48.7843 26.7347 50.9542 25.9012C51.0446 25.8661 51.1359 25.8376 51.232 25.8083L51.3705 25.7643L51.637 25.6779V43.8043L51.4569 43.8255C51.3137 43.8441 51.1695 43.8544 51.0251 43.8564ZM51.2304 26.2353C51.1856 26.2499 51.1432 26.2646 51.1017 26.2809C48.931 27.1144 46.5876 28.0164 43.726 29.1189C43.4106 29.2403 43.2444 29.3487 43.2037 29.4587C43.1629 29.5687 43.2183 29.7553 43.3764 30.047L50.3251 42.9023C50.5834 43.3798 50.7065 43.4482 51.0259 43.4482C51.0845 43.4482 51.1514 43.4482 51.2304 43.4384V26.2353ZM42.5029 42.3238C42.225 42.3113 41.9625 42.1926 41.7696 41.9921C39.1907 39.7107 36.5548 37.399 34.0069 35.1664L32.1825 33.5678L32.123 33.5156C32.0557 33.4493 31.9805 33.3915 31.8989 33.3437C31.8012 33.2816 31.6834 33.2594 31.5699 33.2817C31.4563 33.304 31.3556 33.3691 31.2886 33.4635C31.2087 33.5474 31.1632 33.6584 31.1612 33.7743C31.1593 33.8902 31.201 34.0026 31.278 34.0893C31.3289 34.1551 31.3853 34.2165 31.4467 34.2726C31.4842 34.3093 31.5225 34.3467 31.564 34.3899L31.6944 34.526L31.4655 34.781L29.2158 37.2907L29.1098 37.4096C28.9892 37.5465 28.8654 37.6883 28.7277 37.817C28.4724 38.0668 28.1299 38.2073 27.7727 38.209C27.5209 38.2092 27.2744 38.1364 27.063 37.9995C26.8143 37.8318 26.6318 37.5826 26.5469 37.2949C26.462 37.0071 26.48 36.6988 26.5978 36.4229L26.7941 35.9813C27.3588 34.7101 27.9422 33.3958 28.5867 32.1337C28.9124 31.5481 29.3244 31.015 29.8089 30.5521C30.0702 30.269 30.3863 30.0419 30.738 29.8846C31.0897 29.7273 31.4697 29.6431 31.8549 29.6371C32.4987 29.6476 33.1226 29.8612 33.6377 30.2474C35.0767 31.2855 36.3731 32.2217 37.6556 33.1807C38.2692 33.6743 39.0299 33.949 39.8173 33.9613C40.2923 33.9552 40.762 33.8607 41.2025 33.6827C41.6311 33.5148 42.054 33.3616 42.5013 33.1995C42.7066 33.1253 42.9128 33.0504 43.1214 32.9738L43.2843 32.9127L47.3454 40.4187L47.1351 40.5043C46.7359 40.6673 46.3326 40.8302 45.9431 40.9858C44.9791 41.3737 43.9826 41.7746 43.0203 42.1926C42.8588 42.2715 42.6826 42.3162 42.5029 42.3238ZM31.6382 32.867C31.7917 32.8695 31.9424 32.908 32.0782 32.9795C32.1923 33.0427 32.2975 33.1208 32.3911 33.2117L32.4465 33.2614L34.2717 34.8601C36.8204 37.0935 39.4563 39.4027 42.0369 41.6874C42.1579 41.8201 42.3247 41.9019 42.5037 41.9164C42.6291 41.9103 42.752 41.8787 42.8647 41.8235C43.8319 41.403 44.8317 41.0013 45.798 40.6127L46.7758 40.2175L43.0986 33.4219L42.6414 33.5849C42.1966 33.7478 41.7761 33.8986 41.3516 34.064C40.8632 34.261 40.3423 34.3651 39.8157 34.3712C38.9408 34.3563 38.0952 34.0536 37.4095 33.5099C36.1294 32.5533 34.8355 31.6171 33.3974 30.5766C32.9505 30.2398 32.4087 30.053 31.8492 30.0429C31.5169 30.0478 31.1891 30.1204 30.8857 30.2563C30.5824 30.3922 30.31 30.5885 30.0852 30.8333C29.6308 31.2671 29.2439 31.7664 28.9371 32.3146C28.2999 33.567 27.7149 34.8764 27.1567 36.1442L26.9603 36.5858C26.8804 36.7728 26.8681 36.9818 26.9255 37.1769C26.9828 37.372 27.1064 37.541 27.2749 37.6549C27.4204 37.7493 27.5903 37.7994 27.7638 37.7991C28.0154 37.7973 28.2565 37.6977 28.436 37.5213C28.5598 37.4015 28.6747 37.2727 28.7953 37.1358L28.9029 37.0144L31.1265 34.5341C31.0569 34.4689 30.9933 34.3974 30.9366 34.3207C30.8386 34.187 30.7787 34.0292 30.7632 33.8641C30.7478 33.6991 30.7773 33.5329 30.8488 33.3834C30.9203 33.2338 31.031 33.1064 31.1692 33.0148C31.3073 32.9231 31.4677 32.8707 31.6333 32.863L31.6382 32.867ZM39.7774 32.9281C39.2979 32.9217 38.8332 32.7615 38.4517 32.471C37.2645 31.6114 36.228 30.8414 35.2837 30.1244C35.1934 30.0436 35.1207 29.9451 35.0699 29.8351C35.0192 29.7251 34.9916 29.6058 34.9887 29.4847C34.9765 28.7514 34.9773 28.001 34.9781 27.2782C34.9781 26.9213 34.9781 26.5642 34.9781 26.2067C34.9781 25.2167 34.5373 24.7751 33.5563 24.7727C32.8436 24.7727 32.1309 24.7727 31.4182 24.7727C30.7867 24.7727 30.2115 24.7727 29.6606 24.7727C29.4756 24.7486 29.2874 24.7675 29.1108 24.8278C28.9342 24.8882 28.7738 24.9884 28.6422 25.1206C28.5105 25.2529 28.4111 25.4138 28.3516 25.5907C28.2921 25.7676 28.2741 25.9558 28.2991 26.1407C28.2991 27.0036 28.2991 27.8812 28.2991 28.7302C28.2991 29.249 28.2991 29.7677 28.2991 30.2865C28.2708 30.6852 28.1135 31.0639 27.8509 31.3653C27.7408 31.5091 27.645 31.6633 27.5649 31.8257C27.5332 31.8773 27.4884 31.9196 27.435 31.9483C27.3816 31.9769 27.3216 31.9908 27.261 31.9887L27.2227 31.9936C26.9514 32.0408 26.6735 32.0864 26.4079 32.1304C25.8481 32.2217 25.2672 32.317 24.7066 32.4344C24.4531 32.488 24.1948 32.5153 23.9358 32.5158C23.0168 32.4612 22.1168 32.2311 21.2843 31.8379L21.0798 31.7564L20.8761 31.675L20.9698 31.4778C21.0155 31.3824 21.0586 31.2928 21.101 31.2056C21.1825 31.0427 21.2534 30.8936 21.3186 30.7428C21.4875 30.4013 21.553 30.0178 21.5069 29.6396C21.4609 29.2613 21.3054 28.9048 21.0595 28.6137C20.9194 28.431 20.8399 28.2091 20.8321 27.979C20.8248 27.0387 20.8248 26.0821 20.824 25.1573C20.824 24.3563 20.824 23.5276 20.8183 22.7128C20.808 22.5725 20.8364 22.432 20.9005 22.3067C20.9646 22.1814 21.0618 22.0761 21.1817 22.0023C24.5045 19.7379 27.8868 17.423 31.234 15.122C31.3527 15.0302 31.4966 14.9771 31.6463 14.9696C31.7903 14.975 31.929 15.0252 32.0432 15.113C35.08 17.2038 38.3669 19.456 42.0931 21.9966C42.2142 22.0686 42.3131 22.1725 42.3791 22.2969C42.445 22.4214 42.4755 22.5616 42.4671 22.7022C42.4614 23.517 42.4614 24.3449 42.4606 25.1467C42.4606 26.0038 42.4606 26.8896 42.4532 27.7614C42.4477 27.9935 42.3661 28.2174 42.221 28.3986C41.9696 28.6709 41.8102 29.0154 41.7653 29.3833C41.7204 29.7512 41.7923 30.1239 41.9709 30.4487C42.12 30.7404 42.2772 31.0288 42.4426 31.3352C42.5192 31.4761 42.5974 31.6204 42.6773 31.7695L42.7889 31.9773L42.5673 32.0587C42.3334 32.1402 42.1037 32.2282 41.8804 32.3113C41.3915 32.4938 40.9246 32.6666 40.4455 32.8198C40.2299 32.8907 40.0044 32.9273 39.7774 32.9281ZM31.4174 24.362C32.1306 24.362 32.8436 24.362 33.5563 24.362C33.8047 24.332 34.0566 24.359 34.293 24.4411C34.5294 24.5231 34.7439 24.6581 34.9202 24.8356C35.0965 25.0131 35.23 25.2285 35.3105 25.4654C35.391 25.7023 35.4164 25.9545 35.3847 26.2027C35.3847 26.5601 35.3847 26.9178 35.3847 27.2758C35.3847 27.9969 35.3847 28.7424 35.3945 29.4758C35.3991 29.5971 35.4471 29.7127 35.5297 29.8017C36.4709 30.5196 37.5049 31.2847 38.6888 32.1418C39.0011 32.3814 39.3821 32.5145 39.7757 32.5215C39.9587 32.5207 40.1404 32.4913 40.3143 32.4344C40.7845 32.2836 41.2449 32.1125 41.7321 31.9316L42.1998 31.7589L42.0776 31.534C41.9146 31.226 41.7517 30.9351 41.6009 30.6377C41.3829 30.2421 41.2946 29.788 41.3487 29.3396C41.4028 28.8911 41.5965 28.471 41.9024 28.1387C41.986 28.0302 42.0333 27.8982 42.0377 27.7614C42.0442 26.8912 42.045 26.0055 42.045 25.1499C42.045 24.3481 42.045 23.5203 42.0515 22.7055C42.0596 22.6318 42.0452 22.5574 42.0101 22.4921C41.9751 22.4268 41.921 22.3736 41.8552 22.3396C38.129 19.7982 34.8412 17.5461 31.8036 15.4553C31.757 15.4167 31.7006 15.3919 31.6406 15.3836C31.5737 15.3932 31.5107 15.4214 31.4589 15.465C28.1109 17.7669 24.7278 20.0818 21.4049 22.3461C21.3403 22.3822 21.288 22.437 21.255 22.5033C21.222 22.5696 21.2098 22.6443 21.22 22.7177C21.2249 23.5325 21.2249 24.362 21.2257 25.1621C21.2257 26.0861 21.2257 27.0419 21.2338 27.9814C21.2417 28.1223 21.2913 28.2576 21.3764 28.3701C21.6667 28.7192 21.8503 29.1445 21.9052 29.5952C21.9602 30.0459 21.8841 30.5029 21.6861 30.9115C21.6168 31.0704 21.541 31.2252 21.4612 31.3898L21.4261 31.4615C22.2118 31.8343 23.0607 32.0554 23.9284 32.1133C24.1592 32.1137 24.3895 32.09 24.6153 32.0424C25.1857 31.9227 25.7699 31.8273 26.3346 31.7353C26.6018 31.6913 26.8789 31.6464 27.1494 31.5992L27.204 31.5918H27.2227C27.3094 31.4299 27.4086 31.2749 27.5193 31.1282C27.73 30.8939 27.8604 30.5984 27.8917 30.2849C27.8917 29.7667 27.8917 29.2482 27.8917 28.7294C27.8917 27.8804 27.8917 27.002 27.8917 26.1383C27.868 25.9 27.8973 25.6595 27.9776 25.4339C28.058 25.2084 28.1873 25.0035 28.3563 24.8338C28.5253 24.6642 28.7297 24.5342 28.955 24.453C29.1802 24.3718 29.4207 24.3416 29.659 24.3644C30.2082 24.3628 30.7859 24.362 31.4174 24.362ZM29.342 29.4953V25.8132H33.936V29.1262L33.65 28.9999C33.0962 28.7451 32.4954 28.6089 31.8859 28.5998C31.0906 28.6109 30.3154 28.8521 29.6541 29.2941L29.342 29.4953ZM29.7495 26.2247V28.771C30.4022 28.4039 31.1371 28.2077 31.8859 28.2006C32.4481 28.2058 33.0048 28.3132 33.5286 28.5175V26.2279L29.7495 26.2247ZM18.3502 22.6501H18.2915C18.0877 22.6633 17.885 22.6103 17.7136 22.499C17.5423 22.3877 17.4115 22.2241 17.3406 22.0324C17.2684 21.8483 17.2613 21.645 17.3206 21.4563C17.3799 21.2676 17.502 21.1049 17.6666 20.9952C18.0047 20.7507 18.3559 20.512 18.6949 20.2814L19.0338 20.0508C22.977 17.3521 26.9191 14.6537 30.86 11.9556L30.9326 11.9059C31.1318 11.7369 31.3781 11.6331 31.6382 11.6085C31.9033 11.6343 32.1541 11.7407 32.3569 11.9133C36.7107 14.8933 41.0634 17.8734 45.4151 20.8534L45.4444 20.873C45.4949 20.9064 45.5463 20.9406 45.5976 20.9821C45.6958 21.0496 45.7797 21.1358 45.8445 21.2359C45.9092 21.3359 45.9536 21.4477 45.975 21.5649C45.9965 21.6821 45.9945 21.8024 45.9693 21.9188C45.9441 22.0353 45.8962 22.1456 45.8282 22.2435C45.7489 22.3634 45.6414 22.462 45.5151 22.5306C45.3888 22.5992 45.2476 22.6358 45.1038 22.637C44.9091 22.634 44.7197 22.5733 44.5595 22.4627C43.8743 22.0064 43.1849 21.533 42.5184 21.0775L41.8193 20.5927L32.2126 14.0244C32.0503 13.8817 31.8538 13.7832 31.6423 13.7384C31.4327 13.7821 31.2381 13.8796 31.0776 14.0212L29.5808 15.0438C26.104 17.4222 22.509 19.8821 18.9719 22.2956C18.8294 22.3897 18.6814 22.4751 18.5286 22.5515C18.4814 22.5759 18.4382 22.5987 18.4015 22.6191L18.3502 22.6501ZM31.639 12.02C31.4627 12.0499 31.2982 12.1283 31.164 12.2465L31.0915 12.2962C27.1499 14.9916 23.2084 17.6876 19.2669 20.3841L18.9263 20.6155C18.5898 20.8436 18.2418 21.0807 17.9086 21.3219C17.8147 21.3792 17.7445 21.4683 17.7107 21.573C17.6769 21.6776 17.6818 21.7909 17.7244 21.8923C17.7872 22.074 17.9037 22.2011 18.2565 22.2321L18.338 22.1881C18.4763 22.1192 18.6104 22.0422 18.7397 21.9575C22.2776 19.5416 25.8718 17.0816 29.3486 14.7056L30.8429 13.683C31.0668 13.4883 31.3437 13.3649 31.6382 13.3286C31.9351 13.3655 32.2145 13.4897 32.4408 13.6855L42.0474 20.257L42.7482 20.7369C43.4139 21.194 44.1024 21.6666 44.7852 22.1221C44.8787 22.188 44.9895 22.2249 45.1038 22.228C45.1817 22.2269 45.2581 22.2064 45.3261 22.1685C45.3941 22.1305 45.4515 22.0762 45.4933 22.0104C45.5315 21.9542 45.558 21.8908 45.571 21.824C45.5841 21.7573 45.5836 21.6886 45.5694 21.622C45.5552 21.5555 45.5278 21.4925 45.4887 21.4369C45.4495 21.3813 45.3996 21.3341 45.3417 21.2983C45.3051 21.269 45.2603 21.2404 45.2187 21.2111L45.1861 21.1899C40.8334 18.2099 36.4806 15.2309 32.1279 12.253C31.9896 12.1316 31.8204 12.0509 31.639 12.02Z" fill="black"/>
<path d="M28.814 20.3148C28.8154 19.7562 28.9825 19.2105 29.2942 18.7468C29.6058 18.2832 30.048 17.9223 30.5647 17.71C31.0814 17.4977 31.6496 17.4433 32.1972 17.5539C32.7448 17.6645 33.2473 17.9351 33.6411 18.3313C34.035 18.7275 34.3024 19.2317 34.4097 19.7799C34.517 20.3282 34.4592 20.896 34.2438 21.4114C34.0283 21.9269 33.6648 22.3668 33.1992 22.6756C32.7337 22.9845 32.187 23.1483 31.6283 23.1463C30.8805 23.1412 30.1651 22.8407 29.6379 22.3103C29.1108 21.7799 28.8146 21.0627 28.814 20.3148ZM33.051 20.2953C33.047 20.0167 32.9606 19.7456 32.8027 19.516C32.6449 19.2865 32.4226 19.1088 32.1639 19.0053C31.9053 18.9019 31.6218 18.8773 31.3491 18.9347C31.0765 18.9921 30.827 19.1289 30.632 19.3279C30.437 19.5268 30.3052 19.7791 30.2533 20.0528C30.2014 20.3265 30.2317 20.6094 30.3403 20.866C30.449 21.1225 30.6311 21.3412 30.8638 21.4944C31.0965 21.6476 31.3693 21.7285 31.6479 21.7269C32.0237 21.7228 32.3825 21.5698 32.6456 21.3014C32.9087 21.0329 33.0545 20.6711 33.051 20.2953Z" fill="black"/>
<path d="M31.6439 23.3499H31.6267C30.8214 23.3499 30.0491 23.03 29.4797 22.4606C28.9102 21.8911 28.5903 21.1188 28.5903 20.3135C28.5903 19.5082 28.9102 18.7359 29.4797 18.1664C30.0491 17.597 30.8214 17.2771 31.6267 17.2771H31.6439C32.0407 17.2766 32.4337 17.355 32.8 17.5079C33.1662 17.6608 33.4984 17.8851 33.777 18.1677C34.2006 18.5915 34.4893 19.1312 34.6068 19.7187C34.7243 20.3063 34.6653 20.9155 34.4372 21.4696C34.2091 22.0237 33.8222 22.4979 33.3251 22.8325C32.828 23.1671 32.243 23.3471 31.6439 23.3499ZM31.6439 17.6845H31.6292C30.9319 17.6845 30.2632 17.9615 29.7702 18.4545C29.2772 18.9476 29.0002 19.6163 29.0002 20.3135C29.0002 21.0108 29.2772 21.6795 29.7702 22.1725C30.2632 22.6655 30.9319 22.9425 31.6292 22.9425H31.6439C32.1627 22.9399 32.6692 22.7838 33.0995 22.4939C33.5297 22.204 33.8646 21.7932 34.0619 21.3133C34.2591 20.8334 34.3099 20.3058 34.2079 19.7971C34.1059 19.2884 33.8556 18.8212 33.4886 18.4545C33.2476 18.2102 32.9603 18.0163 32.6436 17.8841C32.3269 17.7519 31.9871 17.684 31.6439 17.6845ZM31.6349 21.9305C31.2114 21.9261 30.8065 21.7559 30.5071 21.4563C30.2077 21.1568 30.0377 20.7518 30.0335 20.3283C30.0293 19.9048 30.1914 19.4965 30.4848 19.1911C30.7783 18.8857 31.1798 18.7076 31.6031 18.6949H31.6463C32.0755 18.6949 32.4871 18.8654 32.7906 19.1688C33.094 19.4723 33.2645 19.8839 33.2645 20.3131C33.2645 20.7423 33.094 21.1539 32.7906 21.4574C32.4871 21.7608 32.0755 21.9313 31.6463 21.9313L31.6349 21.9305ZM31.6463 19.1015H31.6145C31.2987 19.1119 30.9995 19.2453 30.7807 19.4733C30.5619 19.7014 30.441 20.0058 30.4436 20.3218C30.4463 20.6378 30.5724 20.9402 30.7949 21.1645C31.0175 21.3888 31.3189 21.5172 31.6349 21.5223H31.6447C31.9658 21.5223 32.2738 21.3947 32.5008 21.1676C32.7279 20.9406 32.8555 20.6326 32.8555 20.3115C32.8555 19.9903 32.7279 19.6824 32.5008 19.4553C32.2738 19.2282 31.9658 19.1007 31.6447 19.1007L31.6463 19.1015Z" fill="black"/>
</g>
</g>
<defs>
<clipPath id="clip0_2350_5495">
<rect width="44" height="44" fill="white" transform="translate(10 10)"/>
</clipPath>
</defs>
</svg>
