<svg width="64" height="64" viewBox="0 0 64 64" fill="none" xmlns="http://www.w3.org/2000/svg">
<rect width="64" height="64" rx="8" fill="#EAF3FF"/>
<g clip-path="url(#clip0_2350_5337)">
<mask id="mask0_2350_5337" style="mask-type:luminance" maskUnits="userSpaceOnUse" x="10" y="10" width="44" height="44">
<path d="M54 10H10V54H54V10Z" fill="white"/>
</mask>
<g mask="url(#mask0_2350_5337)">
<path d="M32.7763 11.2222C33.7264 11.3759 34.6352 11.7216 35.4473 12.2382C36.6455 13.0343 37.5163 14.2358 37.8999 15.6222C37.9161 15.7323 37.9676 15.8343 38.0466 15.9127C38.1256 15.9912 38.228 16.0419 38.3382 16.0573C40.2661 16.4932 42.1882 16.9536 44.1112 17.4066C44.7573 17.5598 44.9342 17.8531 44.7851 18.5001C44.6425 19.1185 44.4966 19.7362 44.3402 20.4084C44.728 20.4084 45.0735 20.4174 45.4222 20.4084C45.5783 20.3956 45.7346 20.4287 45.872 20.5037C46.0094 20.5787 46.1219 20.6923 46.1955 20.8305C46.8783 21.9712 47.5701 23.1022 48.2464 24.2429C48.3268 24.3831 48.3731 24.5403 48.3816 24.7017C48.6114 29.2369 48.8377 33.7727 49.0604 38.3091C49.2869 42.7753 49.5197 47.2422 49.7587 51.7095C49.7724 51.8721 49.7767 52.0353 49.7717 52.1984C49.7663 52.3767 49.6935 52.5464 49.5681 52.6733C49.4426 52.8001 49.2737 52.8747 49.0954 52.882C48.974 52.8918 48.851 52.882 48.7288 52.882H15.5406C14.6443 52.882 14.4406 52.6653 14.4862 51.7698C14.7578 46.5039 15.0278 41.2383 15.2961 35.973C15.4876 32.2102 15.6717 28.4465 15.8665 24.6837C15.8822 24.5103 15.938 24.343 16.0294 24.1948C16.5876 23.2505 17.1702 22.3208 17.721 21.3723C18.0469 20.8101 18.3297 20.2096 19.2088 20.4475C19.1274 19.75 19.0646 19.1348 18.9913 18.5205C18.8813 17.5443 18.7599 16.5771 18.6499 15.6083C18.5937 15.1194 18.8511 14.8196 19.4044 14.7503C20.6405 14.5963 21.879 14.4594 23.1183 14.3185C24.3577 14.1775 25.5954 14.0357 26.8306 13.8736C27.0222 13.8467 27.1984 13.7536 27.3285 13.6104C28.2764 12.367 29.668 11.5376 31.2127 11.2955C31.2754 11.2783 31.3359 11.2537 31.3928 11.2222L32.7763 11.2222ZM46.9883 25.3918H17.2606C16.8149 34.0851 16.37 42.7555 15.9243 51.4496H48.3254C47.8797 42.7531 47.434 34.0826 46.9883 25.3918ZM21.052 23.8958H24.4815C24.3104 23.1755 24.1434 22.4797 23.982 21.7838C23.8354 21.1531 24.0048 20.872 24.6282 20.7205C26.6256 20.2365 28.6238 19.7544 30.6228 19.2742C30.7613 19.2399 30.8982 19.1984 31.044 19.1585C30.8721 17.7057 30.7059 16.3001 30.5348 14.8579L20.1312 16.0899C20.44 18.7103 20.744 21.2868 21.052 23.8958ZM34.6887 18.2825C35.0016 18.2125 35.2485 18.1603 35.4921 18.1008C36.3183 17.8996 36.5644 18.0495 36.7608 18.87C37.138 20.4483 37.5145 22.0258 37.9072 23.6C37.9365 23.7206 38.0824 23.8999 38.1777 23.9015C39.4619 23.9219 40.7477 23.9154 42.0644 23.9154C42.4718 22.1643 42.8792 20.4312 43.2939 18.6614L35.0456 16.7303C34.9234 17.264 34.8125 17.7448 34.6895 18.2785M35.4709 19.5569L25.4731 21.9598C25.6361 22.6353 25.7917 23.2708 25.94 23.8811H36.5131C36.1635 22.4316 35.8229 21.0162 35.4709 19.5569ZM29.4551 13.5599L30.9617 13.3896C31.0676 13.3619 31.1785 13.3587 31.2858 13.3801C31.3932 13.4015 31.4943 13.447 31.5815 13.5131C31.6687 13.5792 31.7398 13.6643 31.7894 13.7619C31.839 13.8595 31.8658 13.967 31.8678 14.0765C31.9884 15.0428 32.0943 16.0108 32.2084 16.9788C32.2809 17.5883 32.3583 18.2011 32.4333 18.8073C33.1316 18.7136 33.13 18.7128 33.2734 18.0951C33.4363 17.4107 33.5993 16.7271 33.7549 16.0426C33.9423 15.2278 34.177 15.0852 34.9877 15.271C35.4359 15.3745 35.884 15.4706 36.3729 15.579C36.1265 14.9244 35.7312 14.3361 35.2182 13.8606C34.7052 13.3852 34.0885 13.0356 33.4171 12.8397C32.7457 12.6437 32.0378 12.6067 31.3496 12.7316C30.6614 12.8564 30.0117 13.1397 29.4519 13.5591M43.5229 23.8877H46.3845C45.9845 23.2211 45.6153 22.5937 45.2299 21.9769C45.196 21.932 45.1533 21.8943 45.1044 21.8663C45.0556 21.8383 45.0015 21.8205 44.9456 21.8139C44.6384 21.7928 44.3304 21.8066 44.0126 21.8066L43.5237 23.8893M19.6228 23.8925C19.5511 23.2497 19.4867 22.632 19.4077 22.0185C19.3983 21.9768 19.38 21.9376 19.3541 21.9036C19.3283 21.8696 19.2954 21.8415 19.2577 21.8213C19.22 21.8188 19.1823 21.8257 19.1479 21.8413C19.1135 21.8569 19.0835 21.8809 19.0606 21.9109C18.6605 22.5628 18.271 23.2146 17.8644 23.8942L19.6228 23.8925Z" fill="black"/>
<path d="M31.348 11.0186H32.7943L32.8147 11.0226C33.7914 11.1828 34.7255 11.5393 35.5606 12.0705C36.7959 12.8941 37.6948 14.1336 38.0939 15.5636C38.1501 15.7616 38.2031 15.8162 38.3807 15.8553C40.0755 16.2383 41.7931 16.6457 43.4545 17.0392L44.1553 17.2022C44.3095 17.2107 44.4593 17.2563 44.5921 17.3352C44.7248 17.4142 44.8365 17.524 44.9176 17.6555C44.9987 17.7869 45.0468 17.936 45.0578 18.09C45.0687 18.2441 45.0423 18.3985 44.9807 18.5401C44.8854 18.9524 44.7892 19.3647 44.689 19.7933L44.5937 20.2007H44.6947H45.0206C45.1738 20.2007 45.3001 20.2007 45.4166 20.195H45.4639C45.6487 20.1897 45.8313 20.2356 45.9917 20.3276C46.152 20.4196 46.2838 20.5542 46.3724 20.7165C46.6407 21.1641 46.9099 21.6109 47.1799 22.0569C47.5873 22.7348 48.0126 23.4363 48.4241 24.1297C48.5213 24.2987 48.5772 24.4883 48.5871 24.683C48.6979 26.8683 48.8079 29.0912 48.913 31.2398C49.0271 33.5498 49.1452 35.9389 49.265 38.288C49.4157 41.2604 49.5746 44.2826 49.7278 47.2053C49.8066 48.6997 49.8848 50.1935 49.9625 51.6868C49.9625 51.7186 49.9625 51.7504 49.9682 51.7821C49.9791 51.9201 49.9816 52.0586 49.9755 52.1969C49.9688 52.4253 49.8759 52.6428 49.7156 52.8057C49.5553 52.9686 49.3393 53.0649 49.111 53.0752C49.0564 53.0801 48.9994 53.0818 48.9285 53.0818H48.7264H15.5406C15.1742 53.1275 14.8046 53.0258 14.5131 52.799C14.3011 52.4954 14.2181 52.12 14.2825 51.7552L14.4862 47.8009C14.6859 43.9192 14.8937 39.9062 15.0933 35.9584C15.1672 34.5108 15.2402 33.0631 15.3125 31.6155C15.4265 29.3389 15.5447 26.984 15.6653 24.6683C15.6841 24.4615 15.7505 24.2619 15.8592 24.0849C16.1159 23.6506 16.3815 23.2123 16.6382 22.7877C16.9397 22.2891 17.2517 21.7741 17.5508 21.2632L17.6102 21.163C17.8742 20.7051 18.1741 20.1852 18.8488 20.1852C18.8917 20.1852 18.936 20.1874 18.9816 20.1917L18.9474 19.8862C18.8952 19.4193 18.8463 18.9777 18.795 18.5393C18.7461 18.1197 18.694 17.6927 18.6434 17.2796C18.5774 16.7402 18.5098 16.1829 18.4471 15.6337C18.4237 15.499 18.4305 15.3609 18.4668 15.2291C18.5031 15.0974 18.568 14.9753 18.657 14.8716C18.746 14.7679 18.8568 14.6851 18.9815 14.6292C19.1062 14.5734 19.2418 14.5457 19.3784 14.5483C20.2022 14.4457 21.0406 14.3495 21.8514 14.2558L23.0931 14.1116L23.9731 14.0089C24.9012 13.9014 25.8619 13.7897 26.803 13.6667C26.942 13.6465 27.0703 13.5802 27.1672 13.4785C28.15 12.1993 29.586 11.346 31.1794 11.0943C31.2034 11.0869 31.2266 11.0771 31.2486 11.065C31.2698 11.0544 31.291 11.0438 31.313 11.0349L31.348 11.0186ZM32.7528 11.426H31.4385L31.4295 11.43C31.372 11.4617 31.3098 11.4843 31.2454 11.4969C29.7496 11.7257 28.4016 12.5276 27.4866 13.7327C27.324 13.9174 27.1005 14.0377 26.8568 14.0717C25.9116 14.1955 24.9501 14.3071 24.0204 14.4147L23.1412 14.5174L21.8962 14.6608C21.0862 14.7537 20.2494 14.8506 19.4273 14.9525C18.8569 15.025 18.8227 15.3477 18.8504 15.5848C18.9131 16.1323 18.9808 16.6889 19.046 17.2274C19.0965 17.6406 19.1486 18.0683 19.1975 18.4888C19.2497 18.9288 19.2985 19.3704 19.3507 19.8389C19.3711 20.0263 19.3931 20.2178 19.4151 20.4166L19.4485 20.714L19.16 20.6326C19.0584 20.6058 18.9538 20.5924 18.8488 20.5926C18.4308 20.5926 18.2393 20.8868 17.9631 21.3659L17.9028 21.4694C17.6021 21.9827 17.2892 22.4993 16.9869 22.9996C16.7311 23.4225 16.4662 23.86 16.2104 24.2935C16.1346 24.4135 16.0875 24.5492 16.0727 24.6903C15.9521 27.006 15.834 29.36 15.7199 31.6366C15.6471 33.0843 15.574 34.5319 15.5007 35.9796C15.3002 39.9274 15.0933 43.9412 14.8937 47.8221L14.69 51.7764C14.6688 52.1838 14.7046 52.4087 14.8089 52.5187C14.9132 52.6287 15.1348 52.6752 15.5422 52.6752H48.7297H48.9317C48.9904 52.6752 49.0377 52.6752 49.0792 52.6703C49.2086 52.6667 49.3316 52.6134 49.4227 52.5214C49.5138 52.4295 49.5658 52.3059 49.5681 52.1765C49.573 52.0551 49.5705 51.9334 49.5608 51.8123C49.5608 51.7797 49.5608 51.7463 49.5551 51.7137C49.4774 50.2193 49.3992 48.7255 49.3204 47.2322C49.1672 44.3095 49.0083 41.2841 48.8576 38.3141C48.7386 35.9649 48.6205 33.5759 48.5056 31.2659C48.3997 29.1172 48.2896 26.8944 48.1796 24.7091C48.1729 24.5808 48.1364 24.4558 48.0729 24.344C47.6655 23.6523 47.2394 22.9515 46.8303 22.2736C46.5587 21.8265 46.2893 21.3792 46.022 20.9316C45.9672 20.8243 45.8814 20.7359 45.7758 20.6778C45.6702 20.6197 45.5497 20.5946 45.4297 20.6057C45.3082 20.6057 45.1787 20.6114 45.0222 20.6114H44.6963H44.3419H44.0852L44.2971 19.7053C44.3973 19.2775 44.4934 18.8652 44.5888 18.4529C44.7134 17.9127 44.601 17.7302 44.0665 17.6031L43.3657 17.4401C41.7051 17.0466 39.9883 16.64 38.2959 16.257C38.1497 16.234 38.0144 16.1658 37.9087 16.0621C37.8031 15.9584 37.7325 15.8243 37.7068 15.6785C37.333 14.3385 36.4904 13.1772 35.3325 12.4062C34.548 11.9101 33.6718 11.5768 32.756 11.426H32.7528ZM32.0691 12.4388C33.0061 12.442 33.9228 12.7116 34.7124 13.2161C35.56 13.7607 36.2092 14.5643 36.5637 15.5074L36.6973 15.8602L36.329 15.7787L35.9004 15.685C35.5679 15.6125 35.2534 15.544 34.9381 15.4707C34.7875 15.4317 34.6332 15.4093 34.4777 15.4039C34.2479 15.4039 34.098 15.4503 33.9497 16.09C33.865 16.4572 33.7789 16.8241 33.6914 17.1908C33.6165 17.508 33.542 17.8255 33.4682 18.1433V18.1482C33.3052 18.8497 33.2384 18.9068 32.4578 19.0111L32.2541 19.0388L32.2288 18.8343C32.2044 18.6371 32.1799 18.4402 32.1555 18.2435C32.105 17.8361 32.0528 17.4181 32.0039 17.005C31.9621 16.6514 31.9211 16.2983 31.8809 15.9457C31.8117 15.342 31.74 14.7178 31.6634 14.1051C31.6185 13.7474 31.4491 13.5877 31.1117 13.5877C31.0684 13.5878 31.0252 13.5902 30.9822 13.595L30.0492 13.7001L28.8131 13.8394L29.3216 13.4068C30.0948 12.7682 31.0697 12.4252 32.0724 12.4388H32.0691ZM36.0324 15.2963C35.6716 14.5553 35.108 13.9318 34.407 13.4983C33.7061 13.0647 32.8965 12.8389 32.0724 12.847C31.4476 12.8429 30.8305 12.9855 30.2708 13.2634L30.9398 13.1884C31.0724 13.1569 31.2103 13.1553 31.3435 13.1837C31.4768 13.2121 31.6021 13.2697 31.7103 13.3524C31.8186 13.4352 31.907 13.541 31.9694 13.6621C32.0317 13.7833 32.0664 13.9168 32.0708 14.0529C32.1474 14.6673 32.2191 15.2923 32.2891 15.8969C32.3299 16.2499 32.3709 16.603 32.4122 16.9561C32.4611 17.3676 32.5132 17.7872 32.5637 18.1922L32.6118 18.5784C32.7225 18.5738 32.831 18.546 32.9304 18.4969C33.0086 18.3622 33.058 18.2126 33.0754 18.0577V18.0504C33.1493 17.7326 33.224 17.4149 33.2995 17.0971C33.3859 16.731 33.4717 16.3646 33.557 15.9979C33.6743 15.4911 33.8422 14.9965 34.4818 14.9965C34.668 15.0017 34.853 15.0277 35.0334 15.0739C35.3471 15.1464 35.66 15.2149 35.9917 15.2874L36.0324 15.2963ZM30.7125 14.6314L30.9088 16.2847C31.0213 17.2299 31.1329 18.171 31.2462 19.1366L31.2665 19.3101L31.0979 19.3566L30.9537 19.3973C30.8575 19.425 30.7662 19.4511 30.6709 19.4739L28.5524 19.9848C27.2606 20.296 25.9692 20.6078 24.678 20.9202C24.1622 21.0457 24.0595 21.2143 24.1825 21.7399C24.3015 22.2516 24.4205 22.7527 24.5468 23.284L24.682 23.8543L24.7415 24.1053H20.8703L20.7497 23.0852C20.4768 20.7556 20.2046 18.4521 19.9292 16.1111L19.9056 15.9091L20.1036 15.8879L26.6726 15.1097L30.7125 14.6314ZM30.8208 19.0094C30.7141 18.1066 30.609 17.2217 30.5039 16.3336L30.3556 15.0845L26.724 15.5147L20.357 16.2684C20.6251 18.5377 20.8882 20.7752 21.1547 23.0314L21.2362 23.6922H24.2265L24.1516 23.3752C24.0253 22.844 23.9071 22.342 23.7865 21.8271C23.7271 21.6896 23.7015 21.5399 23.712 21.3905C23.7225 21.2411 23.7688 21.0964 23.8469 20.9686C23.925 20.8408 24.0327 20.7336 24.1609 20.6561C24.289 20.5787 24.434 20.5331 24.5834 20.5234C25.8746 20.2105 27.1664 19.8987 28.4587 19.588L30.5772 19.0771C30.6546 19.0567 30.7361 19.0339 30.8208 19.0094ZM34.8949 16.4835L35.0945 16.53L40.3835 17.7677L43.5417 18.5067L43.1604 20.1363L42.2641 23.9586L42.2274 24.1159H40.5734C39.8563 24.1159 39.0114 24.1159 38.1754 24.1012C37.9423 24.1012 37.7484 23.8014 37.7101 23.6441C37.3304 22.1229 36.9597 20.5714 36.6019 19.0722L36.5628 18.9174C36.408 18.2712 36.2557 18.2248 36.0226 18.2248C35.8598 18.2309 35.6982 18.2558 35.5411 18.2989C35.3732 18.3397 35.207 18.3804 35.0155 18.4187L34.7336 18.4814L34.4182 18.5556L34.4908 18.2403C34.6146 17.7033 34.7246 17.2226 34.8468 16.6921L34.8949 16.4835ZM43.0496 18.8131L40.2882 18.1669L35.1988 16.9757C35.1174 17.3285 35.0416 17.6634 34.9609 18.0137C35.1369 17.9746 35.2909 17.9404 35.4457 17.9029C35.6345 17.8518 35.8287 17.8231 36.0242 17.8174C36.6036 17.8174 36.8122 18.202 36.9605 18.8229L36.9988 18.9858C37.3573 20.4843 37.7272 22.0349 38.1069 23.5553C38.1287 23.6122 38.1643 23.6629 38.2104 23.7028C39.0342 23.7158 39.8677 23.7175 40.5734 23.7175H41.9039L42.7619 20.0508L43.0496 18.8131ZM35.6209 19.315L36.1628 21.5614L36.7111 23.8372L36.7714 24.089H25.7796L25.5808 23.2685C25.4822 22.8611 25.3811 22.4463 25.2752 22.012L25.2263 21.8149L25.4251 21.7668L30.6473 20.5112L35.4221 19.3631L35.6209 19.315ZM36.2548 23.6816L35.7659 21.6576L35.3194 19.8063L30.7418 20.9063L25.7185 22.1139L25.976 23.1732L26.0998 23.6824L36.2548 23.6816ZM44.5358 21.5973C44.6988 21.5973 44.8357 21.5973 44.9587 21.6095C45.0468 21.6185 45.132 21.6463 45.2084 21.691C45.2849 21.7357 45.3509 21.7963 45.4019 21.8686C45.6855 22.3225 45.956 22.7755 46.2428 23.2538L46.559 23.7818L46.7448 24.0906H43.2655L43.8505 21.6006H44.0135H44.2767L44.5358 21.5973ZM46.0245 23.684L45.8933 23.464C45.6081 22.9866 45.3384 22.5352 45.0573 22.0854C45.0239 22.0495 44.98 22.0252 44.9318 22.0161C44.8185 22.0088 44.6931 22.0047 44.5366 22.0047H44.2799H44.174L43.7805 23.6808L46.0245 23.684ZM19.2342 21.6112C19.2709 21.6108 19.3073 21.6183 19.3409 21.6332C19.4106 21.6676 19.4713 21.7178 19.518 21.78C19.5647 21.8421 19.5961 21.9143 19.6098 21.9909C19.6693 22.4545 19.7198 22.9116 19.7728 23.3956C19.7901 23.552 19.8075 23.7101 19.8249 23.8698L19.8502 24.0963H17.5043L17.6893 23.7875L17.9753 23.3109C18.2865 22.791 18.5807 22.2997 18.8871 21.8026C18.9265 21.7464 18.9783 21.6999 19.0385 21.6668C19.0986 21.6336 19.1656 21.6146 19.2342 21.6112ZM19.3971 23.6881L19.3702 23.4404C19.3181 22.9646 19.2684 22.514 19.2073 22.0552C18.9115 22.536 18.6263 23.0126 18.3248 23.5162L18.2238 23.6849L19.3971 23.6881ZM17.0668 25.1882H47.1815L47.6443 34.2587C47.9382 39.9831 48.2321 45.7099 48.5259 51.4391L48.5365 51.6534H15.7101L17.0668 25.1882ZM46.7945 25.5956H17.4538L16.1387 51.246H48.1112C47.8206 45.5857 47.5292 39.9309 47.2369 34.2815L46.7945 25.5956Z" fill="black"/>
<path d="M36.7088 32.5216C36.7088 32.128 36.6917 31.7345 36.7145 31.3426C36.7378 31.2065 36.7142 31.0665 36.6476 30.9456C36.581 30.8246 36.4753 30.7299 36.3478 30.6769C35.9535 30.4578 35.6432 30.114 35.4653 29.6995C35.2875 29.2849 35.2522 28.8231 35.3651 28.3864C35.4687 27.9446 35.7119 27.5479 36.0586 27.2551C36.4052 26.9623 36.837 26.7889 37.2899 26.7607C37.7428 26.7324 38.1928 26.8508 38.5731 27.0983C38.9535 27.3457 39.244 27.7091 39.4017 28.1346C39.5848 28.6146 39.5842 29.1453 39.4 29.6249C39.2158 30.1045 38.8609 30.4991 38.4036 30.7331C38.3133 30.7706 38.2375 30.8363 38.1877 30.9205C38.1379 31.0047 38.1167 31.1027 38.1274 31.2C38.12 32.1883 38.1583 33.1824 38.0646 34.1643C37.8956 35.6204 37.1975 36.9637 36.1031 37.939C35.0087 38.9143 33.5942 39.4536 32.1283 39.4545C30.6624 39.4554 29.2472 38.9178 28.1516 37.9439C27.056 36.97 26.3563 35.6275 26.1854 34.1716C26.0893 33.1938 26.1309 32.1965 26.1219 31.2073C26.1344 31.1102 26.1149 31.0117 26.0664 30.9267C26.0179 30.8417 25.943 30.7749 25.853 30.7363C25.425 30.5216 25.0848 30.165 24.8904 29.7274C24.6961 29.2897 24.6596 28.7982 24.7872 28.3367C24.9052 27.8846 25.1698 27.4843 25.5396 27.1987C25.9094 26.913 26.3635 26.758 26.8308 26.758C27.2981 26.758 27.7521 26.913 28.1219 27.1987C28.4917 27.4843 28.7563 27.8846 28.8743 28.3367C29.0003 28.7987 28.9627 29.2901 28.7679 29.7276C28.5731 30.1651 28.233 30.5217 27.8053 30.7372C27.7192 30.7698 27.6463 30.8298 27.5977 30.908C27.5491 30.9862 27.5276 31.0782 27.5364 31.1698C27.5519 32.0238 27.525 32.8809 27.5609 33.7308C27.6257 34.8937 28.1318 35.9881 28.9759 36.7907C29.82 37.5933 30.9385 38.0436 32.1032 38.0497C33.268 38.0559 34.3912 37.6174 35.2437 36.8237C36.0962 36.0301 36.6138 34.9411 36.6909 33.7789C36.7137 33.36 36.6909 32.9388 36.6909 32.5192H36.7055M26.1846 29.1214C26.3797 29.009 26.5928 28.9312 26.8145 28.8916C27.0451 28.9319 27.2677 29.0092 27.4737 29.1206C27.5397 28.9746 27.5497 28.8095 27.5018 28.6566C27.4539 28.5038 27.3513 28.374 27.2137 28.2919C27.0945 28.1985 26.9458 28.1508 26.7944 28.1574C26.6431 28.164 26.4991 28.2244 26.3883 28.3278C26.2625 28.4117 26.1722 28.5391 26.1346 28.6856C26.097 28.8321 26.1148 28.9872 26.1846 29.1214ZM38.0483 29.1605C38.1241 29.0156 38.143 28.8476 38.1016 28.6894C38.0602 28.5312 37.9613 28.3942 37.8243 28.3049C37.7027 28.2047 37.5485 28.1528 37.3912 28.1592C37.2338 28.1655 37.0843 28.2296 36.9711 28.3392C36.8504 28.4244 36.7657 28.5516 36.7335 28.6958C36.7012 28.8401 36.7238 28.9912 36.7968 29.1198C37.3142 28.7726 37.4983 28.78 38.0524 29.1629" fill="black"/>
<path d="M32.1326 39.6609C30.6064 39.6612 29.133 39.1023 27.9909 38.09C26.8527 37.0913 26.1361 35.6978 25.9857 34.1911C25.9269 33.4593 25.9054 32.725 25.9213 31.9911C25.9213 31.7336 25.9213 31.4663 25.9213 31.2056C25.9213 31.0304 25.8936 30.984 25.7583 30.9131C25.2893 30.6769 24.9167 30.2855 24.7038 29.8055C24.4909 29.3255 24.4509 28.7866 24.5907 28.2804C24.7161 27.7867 25.0021 27.3487 25.4038 27.0355C25.8056 26.7223 26.3001 26.5517 26.8094 26.5506H26.8233C27.3375 26.5488 27.8376 26.7182 28.2448 27.0322C28.6521 27.3461 28.9431 27.7867 29.0722 28.2845C29.2091 28.7905 29.1676 29.3282 28.9547 29.8073C28.7417 30.2863 28.3703 30.6773 27.9029 30.9147C27.7579 30.9962 27.74 31.0377 27.74 31.164C27.7465 31.5095 27.7457 31.8591 27.7449 32.1972C27.7449 32.6975 27.7449 33.2149 27.7644 33.7209C27.8308 34.83 28.3153 35.8726 29.1203 36.6384C29.9252 37.4042 30.9907 37.8361 32.1017 37.8471H32.1253C33.2323 37.8395 34.2958 37.4153 35.1042 36.659C35.9126 35.9027 36.4065 34.8698 36.4878 33.7657C36.5033 33.4871 36.4992 33.1954 36.4943 32.92C36.4943 32.788 36.4943 32.6519 36.4943 32.5174V32.3137H36.5074C36.5074 32.2638 36.5074 32.2141 36.5074 32.1646C36.5074 31.8908 36.5 31.6081 36.5163 31.3278C36.5372 31.2305 36.5224 31.1289 36.4745 31.0417C36.4266 30.9545 36.3489 30.8874 36.2556 30.8528C35.8237 30.6104 35.4835 30.2326 35.2876 29.7777C35.0918 29.3229 35.0511 28.8161 35.1719 28.3358C35.2844 27.8547 35.548 27.4222 35.9241 27.1017C36.3002 26.7812 36.769 26.5895 37.2619 26.5546C37.3083 26.5546 37.3548 26.5546 37.4004 26.5546C37.919 26.5495 38.4243 26.719 38.835 27.0358C39.2456 27.3525 39.5379 27.7982 39.6646 28.3012C39.7914 28.8041 39.7453 29.335 39.5339 29.8086C39.3224 30.2822 38.9579 30.6709 38.4988 30.9123C38.441 30.9324 38.3923 30.9726 38.3616 31.0255C38.3308 31.0784 38.3199 31.1405 38.3309 31.2007C38.3309 31.4508 38.3309 31.7067 38.3309 31.9536C38.3309 32.6869 38.3374 33.4406 38.2666 34.1829C38.0971 35.6878 37.3798 37.0778 36.2515 38.0879C35.1231 39.098 33.6625 39.6576 32.1481 39.6601L32.1326 39.6609ZM26.8225 26.962H26.8119C26.3924 26.9631 25.9853 27.1037 25.6544 27.3615C25.3236 27.6193 25.0878 27.9799 24.9843 28.3863C24.8703 28.8033 24.904 29.2469 25.0797 29.6419C25.2553 30.037 25.5622 30.3591 25.9482 30.5537C26.0712 30.6094 26.1738 30.7022 26.2414 30.8191C26.3091 30.936 26.3385 31.0712 26.3254 31.2056C26.3254 31.4696 26.3254 31.7377 26.3254 31.9968C26.31 32.7158 26.331 33.4351 26.3882 34.152C26.5517 35.5595 27.2278 36.8576 28.2873 37.7985C29.3468 38.7394 30.7156 39.2574 32.1326 39.2535H32.1473C33.5608 39.2523 34.9245 38.731 35.9783 37.7889C37.0322 36.8469 37.7025 35.55 37.8616 34.1454C37.93 33.4235 37.9268 32.6788 37.9235 31.9568C37.9235 31.7124 37.9235 31.4517 37.9235 31.1991C37.9133 31.0653 37.9445 30.9316 38.0131 30.8162C38.0816 30.7009 38.1841 30.6095 38.3065 30.5546C38.7215 30.3451 39.044 29.9889 39.2111 29.5551C39.3783 29.1213 39.3782 28.6408 39.2109 28.2071C39.0732 27.8374 38.8247 27.5193 38.4993 27.2963C38.1739 27.0732 37.7875 26.9562 37.3931 26.9612C37.3548 26.9612 37.3157 26.9612 37.2774 26.9612C36.8723 26.9907 36.4873 27.149 36.1786 27.4129C35.8699 27.6767 35.6536 28.0324 35.5614 28.4279C35.4572 28.8212 35.4874 29.238 35.6473 29.6121C35.8072 29.9862 36.0876 30.2961 36.4438 30.4926C36.6054 30.564 36.7392 30.6864 36.8245 30.8411C36.9099 30.9958 36.9422 31.1742 36.9164 31.349C36.9009 31.6154 36.905 31.8908 36.9083 32.1581C36.9083 32.2779 36.9083 32.3968 36.9083 32.5166V32.7203H36.8952C36.8952 32.7847 36.8952 32.8499 36.8952 32.9126C36.8993 33.1986 36.9042 33.4944 36.8879 33.7877C36.8152 34.9965 36.2773 36.1301 35.387 36.9508C34.5032 37.7855 33.3344 38.2517 32.1188 38.2546H32.0968C30.8763 38.2462 29.7053 37.7713 28.8237 36.9272C27.9382 36.096 27.412 34.9521 27.357 33.7388C27.335 33.2239 27.3358 32.7016 27.3366 32.1972C27.3366 31.8607 27.3366 31.5136 27.3317 31.1722C27.3223 31.0431 27.3534 30.9144 27.4207 30.8039C27.4881 30.6935 27.5883 30.6068 27.7074 30.5562C28.0936 30.361 28.4008 30.0386 28.577 29.6433C28.7532 29.248 28.7876 28.8041 28.6746 28.3863C28.5674 27.9772 28.3274 27.6153 27.9921 27.3574C27.6568 27.0996 27.2454 26.9605 26.8225 26.962ZM38.1427 29.4741L37.9357 29.3307C37.7826 29.1943 37.5938 29.1041 37.3914 29.0708C37.2136 29.097 37.0468 29.1727 36.9099 29.2891L36.7176 29.4179L36.6141 29.2109C36.5206 29.0419 36.4918 28.8446 36.533 28.6558C36.5743 28.4671 36.6827 28.2998 36.8382 28.1851C36.9864 28.0456 37.18 27.9644 37.3834 27.9564C37.5867 27.9485 37.7861 28.0144 37.9447 28.1419C38.1199 28.2576 38.2467 28.4335 38.3011 28.6363C38.3554 28.8392 38.3336 29.0549 38.2397 29.2427L38.1427 29.4741ZM37.3914 28.6642C37.5801 28.6721 37.763 28.7316 37.9203 28.8361C37.9168 28.7618 37.8951 28.6896 37.8572 28.6256C37.8193 28.5617 37.7662 28.5081 37.7027 28.4694C37.6328 28.4222 37.5522 28.3932 37.4682 28.3852C37.3842 28.3771 37.2995 28.3903 37.2219 28.4235C37.1444 28.4566 37.0763 28.5087 37.0241 28.575C36.9718 28.6412 36.9371 28.7195 36.9229 28.8027C37.0651 28.7169 37.227 28.6691 37.3931 28.6642H37.3914ZM27.5974 29.3861L27.4059 29.3144C27.3301 29.2859 27.2584 29.2533 27.1883 29.2207C27.0731 29.1567 26.9467 29.1152 26.816 29.0985C26.6962 29.1149 26.581 29.1551 26.477 29.2166C26.4086 29.25 26.3377 29.2843 26.2627 29.3136L26.0916 29.3804L26.0101 29.2174C25.9188 29.0424 25.8942 28.8402 25.9408 28.6483C25.9874 28.4565 26.1021 28.2881 26.2635 28.1745C26.4187 28.0372 26.6178 27.9597 26.8249 27.9561C27.0092 27.959 27.188 28.0191 27.3366 28.128C27.5101 28.237 27.639 28.4043 27.7002 28.5998C27.7614 28.7953 27.751 29.0062 27.6707 29.1946L27.5974 29.3861ZM26.8225 28.3635C26.7113 28.3673 26.6051 28.411 26.5234 28.4866C26.4659 28.5271 26.4179 28.5798 26.3828 28.6409C26.3478 28.702 26.3265 28.77 26.3206 28.8402C26.4718 28.7533 26.641 28.7023 26.8151 28.6911H26.82C26.9982 28.7031 27.1718 28.7528 27.3293 28.8369C27.3261 28.7603 27.3036 28.6858 27.2639 28.6202C27.2241 28.5547 27.1684 28.5003 27.102 28.4621C27.0212 28.4011 26.9236 28.3667 26.8225 28.3635Z" fill="black"/>
</g>
</g>
<defs>
<clipPath id="clip0_2350_5337">
<rect width="44" height="44" fill="white" transform="translate(10 10)"/>
</clipPath>
</defs>
</svg>
