<svg width="64" height="64" viewBox="0 0 64 64" fill="none" xmlns="http://www.w3.org/2000/svg">
<rect width="64" height="64" rx="8" fill="#EAF3FF"/>
<g clip-path="url(#clip0_2383_29932)">
<path d="M49.6729 15.0772C47.3528 15.0772 45.0326 15.0772 42.7124 15.0876H42.702C42.3691 15.0876 42.1714 14.9835 41.9841 14.7234C40.257 12.2888 37.375 11.1963 34.4722 11.8726C34.1497 11.9455 33.9312 11.9038 33.6711 11.7062C31.7671 10.1871 29.3116 9.6565 26.9291 10.2287C24.5569 10.801 22.6217 12.4032 21.6124 14.6194C21.4356 15.0147 21.1859 15.0876 20.8633 15.0876C19.3131 15.0772 17.7732 15.0772 16.223 15.0772H15.0577C12.5919 15.0876 11 16.669 11 19.1349V40.547C11 40.984 11.0312 41.3273 11.104 41.6291C11.5202 43.4394 13.0184 44.5735 15.0369 44.5839H24.5777C24.7025 44.5839 24.817 44.5943 24.9418 44.6047H25.2435V48.1422C25.2435 48.1422 25.2331 48.2358 25.2227 48.2879L25.1811 48.4751H24.1823C23.7973 48.4855 23.4124 48.4855 23.017 48.4855H22.528C21.8101 48.4855 21.0818 48.4959 20.3639 48.5584C18.6992 48.7144 17.6588 49.8901 17.6588 51.6172V53.0426C17.6588 53.8854 17.7836 53.9998 18.6264 53.9998H46.1563C46.2291 54.0103 46.3019 53.9998 46.3748 53.9998C46.8118 53.979 47.0198 53.7814 47.0302 53.3548C47.0407 52.9386 47.0302 52.5328 47.0302 52.1271V51.6589C47.0302 49.8901 46.0002 48.7352 44.2835 48.548C43.5552 48.4751 42.8061 48.4751 42.0882 48.4855C41.7761 48.4855 41.4743 48.4855 41.1726 48.4751H39.4767V44.5839H49.7042C52.1284 44.5735 53.689 43.0024 53.689 40.5886C53.6994 33.42 53.6994 26.2514 53.689 19.0828C53.689 16.6586 52.1076 15.0876 49.6729 15.0772ZM21.4668 18.9892C21.9038 18.7811 22.0598 18.5314 22.0598 18.032C22.091 15.1084 23.4644 12.9443 26.0343 11.7894C28.5833 10.6345 31.0908 11.0299 33.3069 12.9235C33.6294 13.194 33.9 13.2564 34.2745 13.142C36.0224 12.6113 37.7912 12.8194 39.2582 13.7246C40.7356 14.6298 41.7344 16.128 42.0466 17.928C42.1298 18.417 42.3275 18.6563 42.7749 18.8019C44.6581 19.4262 45.7401 21.2678 45.4176 23.2758C45.1158 25.1798 43.4199 26.5636 41.3911 26.574C40.1738 26.5844 38.9461 26.5844 37.7184 26.5844H32.3393L29.6966 26.574C27.5845 26.574 25.4724 26.5844 23.3708 26.574C21.4668 26.574 19.8957 25.4607 19.3859 23.744C18.8033 21.84 19.6772 19.832 21.4668 18.9892ZM19.0946 25.7104C20.0726 26.9797 21.5708 27.7185 23.2043 27.7393C24.2447 27.7601 25.2956 27.7497 26.3152 27.7497H28.3544V31.8698H27.7406C27.2516 31.8698 26.7314 31.8698 26.232 31.849C26.0967 31.849 25.9719 31.7137 25.8366 31.4432C25.3892 30.538 24.4424 29.997 23.4956 30.0906C22.4656 30.2051 21.6332 30.9334 21.4043 31.9114C21.1234 33.0975 21.7789 34.2836 22.913 34.6894C24.0575 35.0951 25.2956 34.5853 25.8054 33.5137C25.9719 33.1495 26.1903 33.0039 26.5961 33.0351C27.2724 33.0559 27.9591 33.0351 28.625 33.0351H28.8643C29.3533 33.0351 29.5509 32.8374 29.5509 32.338V27.7809H31.7671V29.8201C31.7567 30.5692 31.7567 31.3288 31.7671 32.0779C31.7775 32.39 31.7046 32.6189 31.3301 32.7958C30.248 33.2952 29.7174 34.5229 30.1024 35.6674C30.4769 36.791 31.6214 37.4569 32.8075 37.2384C33.952 37.0199 34.7843 35.9483 34.7115 34.783C34.6491 33.8778 34.1809 33.1911 33.3173 32.7542C33.2549 32.7229 32.9428 32.5565 32.9428 32.3484C32.9324 31.1623 32.9324 30.0074 32.9324 28.7901V27.7705H35.1381V29.6849C35.1381 30.5588 35.1381 31.4328 35.1485 32.3068C35.1485 32.8478 35.3358 33.0351 35.8768 33.0351H36.1161C36.8028 33.0351 37.5103 33.0351 38.197 33.0351C38.5299 33.0143 38.7068 33.1391 38.8524 33.4408C39.331 34.4917 40.4339 35.0327 41.5368 34.7622C42.6396 34.4813 43.3887 33.5241 43.3679 32.4108C43.3367 31.2767 42.5148 30.3299 41.3599 30.1219C40.3403 29.9346 39.2998 30.4964 38.8524 31.4848C38.7172 31.7762 38.5403 31.8802 38.2282 31.8802C37.812 31.8698 37.4062 31.8698 36.9901 31.8698H36.3346V27.7497H36.9901C37.5103 27.7393 38.0201 27.7497 38.5403 27.7497C39.6848 27.7601 40.8709 27.7705 42.0154 27.6768C43.9714 27.5312 45.428 26.4491 46.2291 24.5763C46.999 22.7868 46.7701 21.0493 45.5528 19.395L45.2199 18.9684H49.829V38.0084H14.86V18.958H19.2506L19.1674 19.1453C19.0738 19.3638 18.9593 19.5927 18.8449 19.8216C18.6056 20.3002 18.3455 20.7996 18.2206 21.3094C17.8253 22.8596 18.1478 24.4619 19.0946 25.7104ZM24.8898 32.4316C24.8898 32.7542 24.7754 33.0663 24.5569 33.2952C24.328 33.5241 24.0366 33.6489 23.7141 33.6489H23.7037C23.3812 33.6489 23.0794 33.5241 22.8505 33.3056C22.6217 33.0767 22.4968 32.775 22.4968 32.4628C22.4968 32.1507 22.6321 31.8386 22.861 31.6097C23.0898 31.3912 23.3916 31.2559 23.7037 31.2559H23.7141C24.3488 31.2663 24.8794 31.797 24.8898 32.4316ZM32.3497 33.7322H32.3601C33.0052 33.7322 33.5254 34.242 33.5462 34.8871C33.5566 35.2096 33.4318 35.5113 33.2029 35.7506C32.9844 35.9795 32.6827 36.1148 32.3601 36.1148H32.3393C32.0376 36.1148 31.7463 36.0003 31.5174 35.7714C31.2781 35.5425 31.1532 35.2304 31.1532 34.9183C31.1428 34.5957 31.2677 34.3044 31.4966 34.0755C31.7255 33.8466 32.0272 33.7322 32.3497 33.7322ZM39.7992 32.442C39.8096 31.797 40.3403 31.2663 40.9749 31.2559H40.9957C41.2975 31.2559 41.5992 31.3808 41.8281 31.5993C42.057 31.8282 42.1922 32.1403 42.1922 32.4524C42.1922 32.7646 42.0674 33.0663 41.8489 33.2952C41.6096 33.5241 41.3079 33.6489 40.9957 33.6489H40.9853C40.6628 33.6489 40.3611 33.5241 40.1426 33.2952C39.9137 33.0663 39.7992 32.7646 39.7992 32.442ZM43.4928 49.6508C43.9193 49.6508 44.3459 49.7237 44.7101 49.8485C45.5112 50.1294 45.865 50.6392 45.865 51.534V52.8242H18.8553V52.6889C18.8553 52.512 18.8553 52.3456 18.8553 52.1687C18.8345 51.7733 18.8137 51.3779 18.8865 50.9826C19.0009 50.3583 19.4795 49.9526 20.3327 49.7341C20.6448 49.6612 20.9778 49.6508 21.2067 49.6508C27.9175 49.6508 35.7311 49.6404 43.5032 49.6508H43.4928ZM26.4088 48.4439V44.6151H38.249V48.4439H26.4088ZM52.5237 40.6407C52.5237 42.347 51.4209 43.4082 49.6417 43.4082C45.3864 43.4186 41.1206 43.4186 36.8652 43.4186H15.0993C14.5271 43.4186 13.8716 43.3562 13.2994 42.9504C12.5294 42.399 12.1653 41.6187 12.1653 40.5678V19.0204C12.1757 17.6158 12.9768 16.5754 14.267 16.3049C14.423 16.2633 14.5895 16.2529 14.7768 16.2529H20.624C20.624 16.2529 20.7281 16.2529 20.7905 16.2529H21.0298L20.8529 17.7407H14.9224C14.0589 17.7407 13.6739 18.1256 13.6739 18.9684C13.6635 25.4503 13.6635 31.9322 13.6739 38.4141C13.6739 39.0072 13.8508 39.1945 14.4646 39.1945H50.2452C50.8382 39.1945 51.0255 39.0072 51.0255 38.4037V18.958C51.0255 18.136 50.6406 17.7511 49.8082 17.7511H43.2535L42.8581 16.2529H46.0939C47.3112 16.2425 48.5389 16.2425 49.7562 16.2529C51.4313 16.2529 52.5237 17.3349 52.5237 18.9996C52.5237 26.2202 52.5237 33.4304 52.5237 40.6407Z" fill="black"/>
<path d="M29.3636 13.3294C29.374 13.704 29.1347 13.912 28.6353 13.9433C26.544 14.0473 24.9418 15.66 24.8273 17.7721C24.7961 18.1986 24.6608 18.4067 24.3383 18.4796C24.1718 18.5108 24.0158 18.4796 23.9013 18.3859C23.7453 18.2611 23.6516 18.0322 23.6516 17.7721V17.7304C23.6932 15.1398 25.9926 12.8196 28.5833 12.7676H28.6249C28.9578 12.7676 29.3428 12.8716 29.3636 13.3294Z" fill="black"/>
</g>
<defs>
<clipPath id="clip0_2383_29932">
<rect width="44" height="44" fill="white" transform="translate(10 10)"/>
</clipPath>
</defs>
</svg>
