<svg width="64" height="64" viewBox="0 0 64 64" fill="none" xmlns="http://www.w3.org/2000/svg">
<rect width="64" height="64" rx="8" fill="#EAF3FF"/>
<g clip-path="url(#clip0_2350_5517)">
<mask id="mask0_2350_5517" style="mask-type:luminance" maskUnits="userSpaceOnUse" x="10" y="10" width="44" height="44">
<path d="M54 10H10V54H54V10Z" fill="white"/>
</mask>
<g mask="url(#mask0_2350_5517)">
<path d="M53.3238 40.5245C53.2372 40.6886 53.1021 40.822 52.9369 40.9064C52.7716 40.9909 52.5844 41.0222 52.4006 40.9963C51.7879 40.9767 51.1735 40.9906 50.5266 40.9906C50.5225 41.6355 50.3724 42.2712 50.0875 42.8498C49.8026 43.4284 49.3902 43.9349 48.8815 44.3313C48.11 44.942 47.1436 45.2528 46.1608 45.2064C45.0811 45.1558 44.0616 44.6944 43.3109 43.9168C42.5602 43.1391 42.1351 42.104 42.1226 41.0232H27.3011C27.2959 41.6974 27.1294 42.3606 26.8154 42.9572C26.5014 43.5539 26.0491 44.0667 25.4963 44.4527C24.7204 45.011 23.7715 45.2755 22.8188 45.1991C21.7575 45.1172 20.7659 44.6389 20.0413 43.8593C19.3166 43.0796 18.9119 42.0558 18.9077 40.9914H18.475C17.4874 40.9914 16.4999 40.9963 15.5131 40.9914C15.31 41.0113 15.1049 40.9862 14.9126 40.9176C14.7203 40.8491 14.5456 40.7389 14.4008 40.5949C14.2561 40.451 14.145 40.2768 14.0754 40.0849C14.0058 39.893 13.9795 39.6881 13.9984 39.4848C13.9984 39.0627 13.9984 38.6406 13.9984 38.1672C13.3327 38.1672 12.7061 38.1672 12.0787 38.1672C11.9157 38.1672 11.699 38.1958 11.6028 38.1061C11.4051 37.9563 11.2699 37.7386 11.2231 37.495C11.2288 37.2929 11.4537 37.0656 11.6363 36.9132C11.7414 36.826 11.9516 36.8513 12.1137 36.8505C14.047 36.8472 15.9806 36.8472 17.9144 36.8505C18.0104 36.8477 18.1064 36.8504 18.202 36.8586C18.3753 36.8663 18.5388 36.9412 18.6576 37.0675C18.7765 37.1938 18.8413 37.3615 18.8384 37.5349C18.8365 37.6211 18.8172 37.706 18.7817 37.7845C18.7463 37.863 18.6953 37.9336 18.632 37.992C18.5686 38.0504 18.4942 38.0955 18.413 38.1245C18.3318 38.1534 18.2457 38.1658 18.1597 38.1607C17.3783 38.1738 16.5969 38.1664 15.8154 38.1672H15.3445V39.6755H16.7085C17.4214 39.6755 18.1352 39.6657 18.8474 39.6803C18.9399 39.6914 19.0333 39.6693 19.111 39.618C19.1887 39.5667 19.2457 39.4895 19.2719 39.4C19.5753 38.6337 20.1074 37.9795 20.7958 37.5264C21.4843 37.0732 22.2956 36.8432 23.1194 36.8676C23.9368 36.8476 24.7406 37.0784 25.4228 37.5289C26.105 37.9795 26.6328 38.6282 26.9352 39.3878C26.9606 39.4777 27.0164 39.5559 27.0931 39.6091C27.1698 39.6623 27.2626 39.6872 27.3557 39.6795C31.7296 39.6725 36.1043 39.6703 40.4799 39.673C40.5467 39.673 40.6127 39.6632 40.7178 39.6543C40.7252 39.4954 40.7366 39.3503 40.7366 39.2053C40.7366 37.7655 40.7219 36.3249 40.7521 34.8868C40.7613 34.6093 40.8782 34.3463 41.078 34.1535C41.4854 33.8275 42.0443 34.1852 42.0509 34.7556C42.0623 35.757 42.0509 36.7576 42.0509 37.759C42.0509 38.2797 42.0435 38.8012 42.0574 39.3218C42.0798 39.4422 42.1205 39.5584 42.178 39.6665C42.2782 39.5785 42.4224 39.5092 42.4721 39.3984C42.7907 38.654 43.3187 38.0182 43.9919 37.5684C44.6652 37.1185 45.4546 36.874 46.2643 36.8646C47.0739 36.8552 47.8688 37.0813 48.5524 37.5154C49.2359 37.9495 49.7785 38.5728 50.1143 39.3096C50.1468 39.4321 50.2237 39.5381 50.33 39.607C50.4363 39.676 50.5644 39.703 50.6895 39.6828C51.1092 39.6526 51.5329 39.6755 51.9761 39.6755V36.7543C51.695 36.7543 51.4253 36.7641 51.1556 36.7543C50.636 36.7369 50.143 36.5207 49.7782 36.1502C49.4134 35.7798 49.2047 35.2835 49.1952 34.7638C49.1821 34.2977 49.1846 33.8308 49.1952 33.3647C49.1828 33.2647 49.1935 33.1631 49.2266 33.0678C49.2596 32.9726 49.3141 32.8862 49.3858 32.8154C49.4576 32.7445 49.5446 32.6911 49.6402 32.6592C49.7359 32.6273 49.8376 32.6178 49.9375 32.6314C50.5649 32.6216 51.1931 32.6314 51.8262 32.6314C51.7358 32.2308 51.517 31.8707 51.2032 31.606C50.8893 31.3412 50.4975 31.1863 50.0874 31.1647C47.4295 31.1338 44.7707 31.1533 42.0533 31.1533C42.0533 31.3978 42.0606 31.6267 42.0533 31.8549C42.0585 31.9441 42.0452 32.0335 42.0143 32.1174C41.9835 32.2013 41.9357 32.278 41.8739 32.3426C41.8122 32.4073 41.7378 32.4585 41.6554 32.4932C41.573 32.5279 41.4843 32.5452 41.3949 32.5442C41.2214 32.5408 41.0561 32.4697 40.9343 32.3461C40.8125 32.2224 40.7439 32.0561 40.7431 31.8826C40.7333 31.7595 40.7431 31.6381 40.7431 31.5126V19.895H15.3168V20.3839C15.3168 24.1 15.3168 27.8164 15.3168 31.533C15.321 31.6689 15.3183 31.8048 15.3086 31.9404C15.304 32.0939 15.2414 32.2399 15.1335 32.349C15.0255 32.4582 14.8802 32.5224 14.7269 32.5287C14.5748 32.5533 14.4191 32.5185 14.2919 32.4316C14.1647 32.3448 14.0757 32.2124 14.0432 32.0618C14.0059 31.9017 13.9911 31.7372 13.9992 31.5729C13.9992 27.7743 13.9992 23.9756 13.9992 20.1769C13.9992 19.0615 14.5158 18.5473 15.6411 18.5473H40.4481C40.6674 18.5106 40.8923 18.5266 41.1041 18.5942C41.316 18.6618 41.5086 18.7789 41.6661 18.9359C41.8236 19.0928 41.9415 19.285 42.0098 19.4966C42.0781 19.7082 42.095 19.9331 42.059 20.1525C42.059 20.5338 42.059 20.9152 42.059 21.3364C42.235 21.3446 42.3792 21.3568 42.5251 21.3568C43.938 21.3568 45.3509 21.3861 46.7621 21.3503C48.5425 21.3055 50.0833 22.5375 49.7769 24.9355C49.7484 25.1538 49.5154 25.3429 49.3239 25.628C49.6376 26.8853 49.9758 28.2534 50.3278 29.6206C50.3476 29.6803 50.3805 29.7348 50.4241 29.7802C50.4676 29.8256 50.5207 29.8607 50.5795 29.883C51.256 30.0247 51.8742 30.3666 52.3537 30.8643C52.8333 31.362 53.152 31.9925 53.2684 32.6737C53.2829 32.7115 53.3024 32.7471 53.3263 32.7797L53.3238 40.5245ZM48.9654 29.7999C48.9611 29.7111 48.9513 29.6227 48.9361 29.5351C48.6321 28.3129 48.3168 27.0906 48.0251 25.8684C48.0216 25.8122 48.0061 25.7574 47.9798 25.7077C47.9535 25.6579 47.9169 25.6143 47.8724 25.5798C47.8279 25.5453 47.7766 25.5206 47.7219 25.5074C47.6672 25.4942 47.6102 25.4929 47.5549 25.5034C45.8552 25.5172 44.1555 25.5099 42.4566 25.5115C42.3369 25.5115 42.2179 25.5286 42.0826 25.5392V29.7999H48.9654ZM46.3417 43.8962C46.9074 43.8928 47.4594 43.7216 47.9278 43.4044C48.3962 43.0872 48.76 42.6381 48.9731 42.114C49.1862 41.59 49.239 41.0145 49.1249 40.4604C49.0108 39.9063 48.7349 39.3985 48.3321 39.0012C47.9292 38.604 47.4176 38.3352 46.862 38.2289C46.3063 38.1225 45.7316 38.1834 45.2106 38.4038C44.6896 38.6242 44.2456 38.9942 43.935 39.467C43.6243 39.9398 43.4609 40.4941 43.4654 41.0598C43.4776 41.8152 43.7858 42.5356 44.3237 43.066C44.8616 43.5965 45.5862 43.8946 46.3417 43.8962ZM23.0983 43.8962C23.6642 43.8976 24.2178 43.7311 24.689 43.4177C25.1602 43.1043 25.5278 42.6582 25.7453 42.1357C25.9627 41.6132 26.0202 41.038 25.9106 40.4828C25.8009 39.9276 25.5289 39.4175 25.1291 39.017C24.7293 38.6165 24.2196 38.3437 23.6646 38.233C23.1096 38.1224 22.5343 38.1789 22.0114 38.3955C21.4886 38.612 21.0418 38.9789 20.7276 39.4496C20.4134 39.9202 20.2459 40.4735 20.2464 41.0395C20.2505 41.795 20.5521 42.5185 21.0859 43.0533C21.6197 43.588 22.3427 43.8908 23.0983 43.8962ZM42.0835 22.6915V24.1581H48.4504C48.46 23.9605 48.4276 23.7632 48.3554 23.579C48.2833 23.3948 48.1729 23.228 48.0317 23.0895C47.8905 22.951 47.7216 22.8439 47.5361 22.7753C47.3505 22.7067 47.1526 22.6781 46.9552 22.6915C45.9416 22.6817 44.9272 22.6915 43.9143 22.6915H42.0835ZM50.5632 33.9718C50.3514 35.2054 50.8077 35.6535 51.9737 35.3789V33.9481C51.5321 33.9481 51.1222 33.9481 50.7123 33.9481C50.6622 33.9516 50.6123 33.959 50.5632 33.9701" fill="black"/>
<path d="M23.1292 45.4134C23.0225 45.4134 22.9133 45.4134 22.8033 45.402C21.8037 45.3319 20.8587 44.9202 20.1266 44.236C19.296 43.4321 18.7944 42.3478 18.7194 41.1943H18.475H16.6971C16.2391 41.1943 15.8627 41.1943 15.5115 41.1943C15.2816 41.2139 15.0501 41.1831 14.8333 41.1041C14.6164 41.0252 14.4194 40.8999 14.2559 40.737C14.0924 40.5741 13.9664 40.3776 13.8866 40.1611C13.8068 39.9445 13.7752 39.7132 13.7939 39.4832C13.7939 39.1931 13.7939 38.9038 13.7939 38.5975C13.7939 38.522 13.7939 38.4457 13.7939 38.3685H12.9603C12.6059 38.3685 12.3337 38.3685 12.0763 38.3685H12.0649H11.9785H11.8734C11.7274 38.3815 11.582 38.339 11.466 38.2496C11.2237 38.0639 11.0644 37.7901 11.0227 37.4877C11.0489 37.3383 11.1059 37.1959 11.1901 37.0696C11.2742 36.9434 11.3837 36.836 11.5116 36.7544C11.6334 36.6712 11.7801 36.6324 11.9271 36.6444C11.9883 36.6444 12.0494 36.6444 12.1056 36.6444H12.1121C14.047 36.6411 15.9811 36.6411 17.9144 36.6444H18.0195C18.0884 36.6437 18.1572 36.647 18.2257 36.6541C18.4498 36.6674 18.66 36.7671 18.812 36.9324C18.964 37.0976 19.0459 37.3154 19.0405 37.5398C19.0379 37.6519 19.0129 37.7623 18.9671 37.8647C18.9213 37.967 18.8555 38.0591 18.7736 38.1357C18.6918 38.2122 18.5954 38.2717 18.4903 38.3106C18.3851 38.3494 18.2733 38.3669 18.1613 38.362C17.8419 38.3677 17.5005 38.3701 17.0548 38.3701H15.9295H15.5482V39.4718H16.7085C17.1159 39.4718 17.5233 39.4718 17.9307 39.4718C18.2892 39.4718 18.5826 39.4718 18.8514 39.4799H18.8661C18.9818 39.4799 19.0185 39.4636 19.0869 39.317C19.4072 38.5191 19.9633 37.838 20.6809 37.3647C21.3986 36.8913 22.2437 36.6483 23.1031 36.668H23.1194C23.9752 36.6497 24.8162 36.8924 25.5307 37.3637C26.2452 37.8349 26.7993 38.5125 27.1194 39.3064C27.1927 39.4636 27.2285 39.4799 27.3524 39.4799C30.7917 39.4742 34.2873 39.4742 37.6671 39.4742H40.4831H40.5263C40.5312 39.383 40.5353 39.2966 40.5353 39.2118C40.5353 38.8126 40.5353 38.4136 40.5353 38.0149C40.5353 36.9907 40.5304 35.9314 40.5524 34.8884C40.5573 34.721 40.5955 34.5563 40.6648 34.4038C40.734 34.2513 40.8329 34.1142 40.9557 34.0003C41.087 33.8919 41.2516 33.832 41.4218 33.8308C41.6548 33.8459 41.8727 33.9514 42.0291 34.1247C42.1856 34.298 42.2682 34.5256 42.2594 34.7589C42.2676 35.4751 42.2659 36.2036 42.2643 36.9067C42.2643 37.1925 42.2643 37.4785 42.2643 37.7647C42.2643 37.8989 42.2643 38.0331 42.2643 38.1673C42.2643 38.5461 42.2643 38.9389 42.2716 39.3227C42.2709 39.3308 42.2709 39.339 42.2716 39.3471C42.2808 39.3389 42.2885 39.3293 42.2945 39.3186C42.5599 38.6947 42.9673 38.1414 43.4844 37.7029C44.0014 37.2644 44.6138 36.9527 45.2726 36.7927C45.6265 36.7027 45.9903 36.657 46.3555 36.6566C47.1827 36.6559 47.9925 36.8941 48.6875 37.3427C49.3977 37.8028 49.9601 38.4581 50.3073 39.2298C50.4067 39.4473 50.4768 39.4856 50.6259 39.4856H50.683C50.8353 39.4742 50.9983 39.4693 51.1963 39.4693C51.3259 39.4693 51.4579 39.4693 51.5858 39.4734H51.7805V36.9597H51.7259H51.4725C51.3503 36.9597 51.2493 36.9597 51.1539 36.9532C50.5841 36.9326 50.0436 36.6952 49.6429 36.2895C49.2422 35.8838 49.0115 35.3404 48.9979 34.7703C48.9865 34.358 48.9857 33.9107 48.9979 33.3623C48.9859 33.236 49.002 33.1085 49.0453 32.9892C49.0886 32.8699 49.1578 32.7617 49.2481 32.6725C49.3383 32.5832 49.4473 32.5152 49.5671 32.4733C49.6869 32.4314 49.8145 32.4166 49.9407 32.4301C50.1647 32.4301 50.4051 32.4253 50.6976 32.4253H51.5679C51.445 32.1287 51.2417 31.8725 50.981 31.6853C50.7203 31.4981 50.4125 31.3876 50.0922 31.366C49.0631 31.3538 47.9362 31.3481 46.5453 31.3481C45.8071 31.3481 45.0665 31.3481 44.3233 31.3481H42.2659V31.3701C42.2659 31.533 42.2659 31.696 42.2659 31.8533C42.2698 31.9679 42.2505 32.0822 42.2094 32.1893C42.1682 32.2964 42.106 32.3941 42.0263 32.4767C41.9467 32.5593 41.8513 32.6251 41.7458 32.6701C41.6402 32.7152 41.5267 32.7386 41.412 32.739H41.3957C41.1714 32.7348 40.9574 32.6443 40.7982 32.4863C40.6389 32.3283 40.5468 32.115 40.541 31.8907C40.5328 31.7913 40.5345 31.696 40.5353 31.6031C40.5353 31.5697 40.5353 31.5371 40.5353 31.5037V20.0963H15.5205V20.3815C15.5205 24.0976 15.5205 27.8139 15.5205 31.5306C15.5205 31.5624 15.5205 31.5933 15.5205 31.6251C15.5237 31.7376 15.5204 31.8503 15.5107 31.9624C15.5017 32.1626 15.4185 32.3522 15.2774 32.4943C15.1362 32.6365 14.9473 32.7211 14.7472 32.7316C14.7112 32.7354 14.675 32.7373 14.6389 32.7373C14.4559 32.7415 14.2771 32.6823 14.1327 32.5697C13.9884 32.4572 13.8874 32.2982 13.8469 32.1197C13.8043 31.9443 13.7867 31.7638 13.7947 31.5835V31.5754C13.7947 28.2917 13.7947 24.7766 13.7947 20.1794C13.7587 19.9295 13.7817 19.6747 13.8619 19.4353C13.9422 19.1959 14.0774 18.9786 14.2567 18.8009C14.4361 18.6233 14.6546 18.4901 14.8947 18.4121C15.1348 18.3341 15.3899 18.3134 15.6394 18.3518H40.4481C40.6944 18.3146 40.9459 18.3357 41.1826 18.4133C41.4192 18.4909 41.6344 18.6229 41.8108 18.7987C41.9873 18.9745 42.12 19.1892 42.1985 19.4256C42.277 19.662 42.299 19.9134 42.2627 20.1598C42.2627 20.4858 42.2627 20.8044 42.2627 21.1507C42.358 21.1564 42.4411 21.1604 42.5251 21.1604C42.9382 21.1604 43.3578 21.1604 43.7644 21.1661C44.2101 21.1661 44.6705 21.1718 45.1227 21.1718C45.7509 21.1718 46.2699 21.1661 46.7572 21.1539H46.855C47.3062 21.1399 47.7551 21.2234 48.1712 21.3986C48.5873 21.5738 48.9607 21.8366 49.266 22.1692C49.5803 22.5576 49.8064 23.0096 49.929 23.4939C50.0515 23.9783 50.0675 24.4835 49.9757 24.9746C49.9284 25.177 49.8254 25.3622 49.6783 25.5091C49.6327 25.5645 49.5862 25.6224 49.5414 25.6827L49.7044 26.3247C49.9676 27.384 50.2397 28.4775 50.5257 29.5791C50.5477 29.6282 50.5848 29.6691 50.6316 29.6956C51.3424 29.8469 51.9919 30.2069 52.4969 30.7295C53.0019 31.2521 53.3394 31.9134 53.4664 32.629L53.477 32.6453C53.4867 32.6607 53.4973 32.6762 53.5055 32.6917L53.5307 32.7381V40.5775L53.5071 40.6223C53.4096 40.811 53.2585 40.9668 53.0728 41.07C52.8871 41.1732 52.6751 41.2193 52.4633 41.2024H52.3982C52.1782 41.1951 51.9402 41.1918 51.6477 41.1918H51.1026H50.7221C50.691 41.8322 50.5221 42.4582 50.2267 43.0272C49.9314 43.5962 49.5167 44.0947 49.011 44.4886C48.2021 45.1282 47.1893 45.4541 46.1591 45.4061C45.1472 45.3617 44.1813 44.9704 43.4238 44.2979C42.5529 43.5013 42.0217 42.4003 41.94 41.2228H27.4925C27.4598 41.8943 27.2734 42.5493 26.9476 43.1374C26.6219 43.7255 26.1655 44.231 25.6136 44.6149C24.8908 45.1372 24.021 45.4168 23.1292 45.4134ZM18.475 40.7869H19.0951L19.1065 40.9784C19.1028 41.9952 19.4853 42.9756 20.1767 43.7212C20.8681 44.4669 21.8168 44.9223 22.831 44.9954C23.7367 45.0676 24.6387 44.8161 25.3765 44.2857C25.903 43.9164 26.3336 43.4268 26.6327 42.8575C26.9317 42.2881 27.0905 41.6556 27.0957 41.0126L27.1047 40.8187H42.3148L42.3271 41.0093C42.3314 42.0411 42.7329 43.0316 43.4483 43.7751C44.1637 44.5186 45.138 44.9579 46.1689 45.0019C47.1036 45.0457 48.0226 44.7502 48.7567 44.17C49.2431 43.7924 49.6369 43.3089 49.9084 42.7563C50.1799 42.2037 50.3219 41.5965 50.3236 40.9808L50.3342 40.7869H50.5282C50.7205 40.7869 50.9095 40.7869 51.0985 40.7869H51.6461C51.9427 40.7869 52.1847 40.7869 52.4087 40.7975H52.4617C52.5914 40.8119 52.7224 40.7888 52.8394 40.7311C52.9564 40.6733 53.0543 40.5832 53.1217 40.4716V32.8481C53.0972 32.8116 53.0793 32.7711 53.0687 32.7284C52.9616 32.083 52.6612 31.4853 52.2074 31.0141C51.7535 30.5429 51.1674 30.2204 50.5265 30.0892C50.4326 30.0577 50.3474 30.0044 50.2782 29.9335C50.2089 29.8627 50.1574 29.7764 50.1281 29.6818C49.8421 28.5793 49.5699 27.4818 49.3059 26.4225L49.1234 25.6892L49.1014 25.6012L49.1519 25.5262C49.222 25.4227 49.2962 25.3315 49.3622 25.2508C49.4553 25.1591 49.5269 25.0477 49.5716 24.9249C49.6548 24.4913 49.6432 24.0448 49.5376 23.6161C49.432 23.1874 49.2348 22.7866 48.9596 22.4413C48.6927 22.1519 48.3665 21.9235 48.0033 21.7715C47.6401 21.6195 47.2485 21.5475 46.855 21.5605H46.767C46.2781 21.5727 45.7533 21.5784 45.1219 21.5784C44.668 21.5784 44.2068 21.5784 43.7611 21.5727C43.3537 21.5727 42.9365 21.567 42.5242 21.567C42.4224 21.567 42.323 21.5613 42.217 21.5556L42.05 21.5467L41.8553 21.5377V21.3438C41.8553 20.9233 41.8553 20.542 41.8553 20.1607C41.8553 19.165 41.4479 18.7592 40.4481 18.7592H15.6394C14.6323 18.7592 14.2021 19.1845 14.2013 20.1851C14.2013 24.7823 14.2013 28.2974 14.2013 31.5811V31.5893C14.1944 31.7309 14.2065 31.8729 14.2371 32.0113C14.2568 32.1155 14.3167 32.2077 14.4041 32.2679C14.4914 32.328 14.5989 32.3512 14.7032 32.3324C14.81 32.3304 14.9117 32.2867 14.9866 32.2105C15.0614 32.1343 15.1033 32.0317 15.1033 31.925C15.1112 31.8282 15.1136 31.7311 15.1106 31.6341C15.1106 31.6007 15.1106 31.5681 15.1106 31.5355C15.1106 27.8188 15.1106 24.1025 15.1106 20.3864V19.6938H40.9402V31.511C40.9402 31.5461 40.9402 31.5811 40.9402 31.6161C40.9402 31.7033 40.9402 31.7848 40.9443 31.8606C40.9419 31.9833 40.9881 32.102 41.0728 32.1908C41.1575 32.2796 41.2738 32.3314 41.3965 32.3348H41.4031C41.4657 32.3344 41.5277 32.321 41.5849 32.2953C41.6421 32.2697 41.6933 32.2324 41.7353 32.1859C41.7773 32.1394 41.8092 32.0846 41.8288 32.0251C41.8485 31.9656 41.8556 31.9026 41.8496 31.8402C41.8553 31.6895 41.8536 31.5379 41.8496 31.3766C41.8496 31.3016 41.8496 31.225 41.8496 31.1468V30.9431H42.0533C42.8138 30.9431 43.5675 30.9431 44.3144 30.9431C45.0613 30.9431 45.8022 30.9431 46.5372 30.9431C47.9297 30.9431 49.0582 30.9488 50.089 30.961C50.5465 30.9852 50.9836 31.1585 51.3334 31.4544C51.6833 31.7502 51.9267 32.1524 52.0266 32.5996L52.0649 32.8359H51.8262C51.4465 32.8359 51.0684 32.8359 50.6911 32.8359C50.401 32.8359 50.1623 32.8359 49.9407 32.8408C49.5577 32.8465 49.4062 32.9964 49.3996 33.3729C49.3899 33.9147 49.3907 34.3564 49.3996 34.7581C49.4097 35.2259 49.5983 35.6721 49.9267 36.0054C50.2551 36.3386 50.6986 36.5337 51.1662 36.5507C51.255 36.5547 51.3503 36.5564 51.466 36.5564H51.7153H51.9785H52.1822V39.8792H51.9785C51.8408 39.8792 51.7048 39.8792 51.5711 39.8751C51.4375 39.871 51.3145 39.871 51.189 39.871C51.0007 39.871 50.8467 39.8759 50.705 39.8865C50.6756 39.8865 50.6463 39.8865 50.6186 39.8865C50.4658 39.889 50.3163 39.8423 50.1921 39.7532C50.068 39.6642 49.9758 39.5375 49.9293 39.3919C49.6241 38.6968 49.1229 38.1058 48.487 37.6912C47.8511 37.2766 47.1081 37.0563 46.349 37.0575C46.0176 37.0577 45.6875 37.099 45.3663 37.1805C44.7668 37.3269 44.2098 37.6112 43.7396 38.0108C43.2694 38.4104 42.8989 38.9143 42.6579 39.4824C42.5975 39.5923 42.5092 39.6845 42.402 39.7496C42.3694 39.7733 42.3376 39.7961 42.314 39.8173L42.0908 40.0144L41.9938 39.7407C41.9832 39.7121 41.9685 39.6804 41.9539 39.647C41.9014 39.5491 41.8698 39.4415 41.861 39.3308C41.8512 38.9405 41.852 38.5453 41.8536 38.1632C41.8536 38.0296 41.8536 37.8959 41.8536 37.7623C41.8536 37.476 41.8536 37.1897 41.8536 36.9035C41.8536 36.2011 41.8536 35.4751 41.8488 34.7605C41.8579 34.6345 41.8184 34.5098 41.7384 34.412C41.6583 34.3143 41.5439 34.2509 41.4185 34.235C41.3408 34.2367 41.2662 34.2655 41.2075 34.3164C41.0542 34.4713 40.9646 34.678 40.9565 34.8958C40.9345 35.9338 40.937 36.9907 40.9394 38.0124C40.9394 38.4117 40.9394 38.8112 40.9394 39.211C40.9394 39.3153 40.9337 39.4164 40.928 39.5231C40.928 39.5704 40.9231 39.6184 40.9207 39.6681L40.9125 39.8474L40.7333 39.8621L40.6404 39.871C40.5863 39.8774 40.5319 39.8809 40.4774 39.8816H37.6704C34.2905 39.8816 30.7958 39.8816 27.3589 39.8873C27.2274 39.8948 27.097 39.859 26.9877 39.7854C26.8784 39.7119 26.7961 39.6046 26.7535 39.4799C26.4697 38.753 25.9683 38.1314 25.3178 37.7003C24.6673 37.2691 23.8995 37.0495 23.1194 37.0713H23.1015C22.3186 37.0478 21.5476 37.2672 20.8943 37.6993C20.2411 38.1314 19.7375 38.7551 19.4528 39.4848C19.4118 39.6069 19.3317 39.7121 19.2249 39.7842C19.1182 39.8562 18.9906 39.891 18.862 39.8833H18.8433C18.5768 39.8784 18.2868 39.8759 17.9307 39.8759C17.5233 39.8759 17.1159 39.8759 16.7085 39.8759H15.1408V37.9619H15.932H17.0572C17.5005 37.9619 17.8394 37.9619 18.1572 37.9538C18.2172 37.9589 18.2775 37.9517 18.3346 37.9326C18.3916 37.9136 18.4442 37.883 18.489 37.8429C18.5338 37.8027 18.5699 37.7538 18.5951 37.6992C18.6203 37.6445 18.6341 37.5853 18.6355 37.5252C18.6364 37.4644 18.6252 37.4041 18.6027 37.3476C18.5801 37.2912 18.5467 37.2398 18.5042 37.1963C18.4617 37.1528 18.4111 37.1182 18.3552 37.0944C18.2992 37.0705 18.2392 37.058 18.1784 37.0575C18.1259 37.0524 18.0731 37.0502 18.0203 37.051H17.9144C15.9811 37.051 14.0476 37.051 12.1137 37.051H12.1056C12.0494 37.051 11.9874 37.051 11.9271 37.051C11.872 37.0448 11.8163 37.0515 11.7642 37.0705C11.5197 37.2767 11.4285 37.4307 11.426 37.4999C11.4236 37.5692 11.5189 37.7444 11.7349 37.9481C11.7793 37.9606 11.8257 37.9653 11.8717 37.9619H11.9654H12.0632H12.0787C12.3346 37.9619 12.6059 37.9619 12.9595 37.9619H14.2013V38.1656C14.2013 38.3147 14.2013 38.459 14.2013 38.5999C14.2013 38.9055 14.2013 39.1931 14.2013 39.4816C14.1834 39.658 14.2051 39.8361 14.2649 40.0031C14.3247 40.17 14.421 40.3215 14.5468 40.4464C14.6726 40.5713 14.8247 40.6666 14.992 40.7252C15.1594 40.7839 15.3377 40.8044 15.514 40.7853C15.8635 40.7853 16.2391 40.7853 16.6971 40.7853L18.475 40.7869ZM46.3302 44.0958C45.5232 44.0917 44.7499 43.7712 44.1765 43.2033C43.6031 42.6353 43.2752 41.8652 43.2633 41.0582C43.2615 40.2429 43.583 39.4601 44.1572 38.8813C44.7314 38.3025 45.5117 37.9748 46.327 37.9701H46.3416C46.9462 37.9693 47.5373 38.148 48.0402 38.4835C48.5431 38.819 48.935 39.2963 49.1664 39.8548C49.3977 40.4133 49.4581 41.0279 49.3397 41.6208C49.2214 42.2136 48.9297 42.758 48.5017 43.1849C48.2198 43.4721 47.8838 43.7005 47.513 43.8569C47.1422 44.0133 46.7441 44.0945 46.3416 44.0958H46.3302ZM46.3302 38.3775C45.6239 38.3824 44.9482 38.6666 44.4505 39.1679C43.9529 39.6692 43.6737 40.347 43.6739 41.0533C43.6842 41.7532 43.9684 42.4212 44.4657 42.9139C44.9629 43.4066 45.6335 43.6847 46.3335 43.6884H46.3416C47.0418 43.6758 47.7096 43.3911 48.2036 42.8947C48.6976 42.3983 48.979 41.7291 48.9882 41.0289C48.9849 40.3264 48.7043 39.6536 48.2074 39.157C47.7106 38.6604 47.0376 38.3803 46.3351 38.3775H46.3302ZM23.108 44.0958H23.0991C22.29 44.0888 21.5162 43.764 20.9445 43.1914C20.3729 42.6188 20.0493 41.8445 20.0435 41.0354C20.0454 40.2257 20.3669 39.4495 20.938 38.8755C21.5091 38.3015 22.2837 37.9761 23.0934 37.9701H23.1129C23.9267 37.9742 24.7056 38.3009 25.2788 38.8787C25.8519 39.4564 26.1725 40.2379 26.1701 41.0517C26.1605 41.859 25.8344 42.6303 25.2619 43.1997C24.6893 43.769 23.9154 44.0908 23.108 44.0958ZM23.1121 38.3775H23.095C22.7463 38.3778 22.401 38.4468 22.079 38.5805C21.7569 38.7143 21.4644 38.9102 21.218 39.157C20.7205 39.6554 20.4413 40.3311 20.442 41.0354C20.4423 41.3841 20.5113 41.7294 20.645 42.0514C20.7788 42.3735 20.9746 42.666 21.2215 42.9124C21.4683 43.1588 21.7612 43.3541 22.0835 43.4872C22.4058 43.6204 22.7512 43.6888 23.0999 43.6884H23.108C23.8088 43.6838 24.4797 43.404 24.9763 42.9095C25.4728 42.4149 25.7552 41.7451 25.7627 41.0444C25.7638 40.3395 25.4856 39.6628 24.989 39.1626C24.4924 38.6623 23.8178 38.3791 23.1129 38.375L23.1121 38.3775ZM51.3862 35.6601C51.2315 35.6712 51.0763 35.6473 50.9321 35.5902C50.7879 35.533 50.6585 35.4441 50.5534 35.3301C50.422 35.1258 50.3364 34.8954 50.3027 34.6549C50.2689 34.4143 50.2877 34.1693 50.3579 33.9367L50.3831 33.7917L50.5282 33.7697L50.564 33.7632C50.6114 33.7524 50.6597 33.7464 50.7082 33.7453C50.9527 33.7453 51.1971 33.7453 51.4522 33.7453H52.1725V35.5378L52.0152 35.5745C51.8119 35.6266 51.6033 35.6555 51.3935 35.6609L51.3862 35.6601ZM50.7343 34.1527C50.6945 34.306 50.6854 34.4656 50.7073 34.6225C50.7293 34.7794 50.7819 34.9304 50.8622 35.0669C50.9298 35.1345 51.0116 35.1862 51.1017 35.2182C51.1917 35.2502 51.2878 35.2617 51.3829 35.2518C51.5104 35.2503 51.6375 35.2372 51.7626 35.2127V34.1535H51.4497L50.7343 34.1527ZM49.1862 30.002H41.8797V25.3502L42.0679 25.3364L42.1942 25.325C42.283 25.3168 42.367 25.3087 42.4558 25.3078H45.0062C45.7093 25.3078 46.6358 25.3078 47.5541 25.2989H47.5639C47.6414 25.2897 47.7199 25.2959 47.795 25.3173C47.8701 25.3386 47.9403 25.3746 48.0014 25.4231C48.0625 25.4717 48.1134 25.5318 48.1512 25.6002C48.189 25.6685 48.2128 25.7436 48.2214 25.8212C48.4194 26.6507 48.6288 27.4932 48.8366 28.308C48.9355 28.6996 49.0338 29.0916 49.1316 29.4838C49.1462 29.5505 49.1552 29.6184 49.1585 29.6867C49.1585 29.7152 49.1625 29.7445 49.1658 29.7771L49.1862 30.002ZM42.2814 29.5946H48.7356V29.5815C48.6383 29.191 48.5403 28.7996 48.4414 28.4074C48.2361 27.5926 48.0234 26.7484 47.8246 25.9149C47.7814 25.7315 47.7496 25.7063 47.5639 25.7063H47.5549C46.6333 25.7136 45.7077 25.7153 45.0037 25.7153H42.4574C42.4036 25.7153 42.3466 25.7201 42.2871 25.725L42.2814 29.5946ZM48.6427 24.3578H41.8797V22.4837H43.9168C44.5311 22.4837 45.1447 22.4837 45.7599 22.4837C46.2227 22.4837 46.6048 22.4837 46.9601 22.4886C47.1942 22.4841 47.4269 22.5266 47.6444 22.6135C47.8618 22.7004 48.0597 22.83 48.2263 22.9946C48.3725 23.1507 48.4859 23.3345 48.5598 23.5352C48.6337 23.7359 48.6666 23.9494 48.6565 24.163L48.6427 24.3578ZM42.2814 23.9504H48.2296C48.205 23.6968 48.0963 23.4587 47.9207 23.2741C47.7914 23.1485 47.6383 23.0501 47.4704 22.9846C47.3025 22.9191 47.1231 22.8879 46.943 22.8927C46.5885 22.8927 46.2096 22.8878 45.7468 22.8878C45.1325 22.8878 44.5181 22.8878 43.9037 22.8878H42.2741L42.2814 23.9504Z" fill="black"/>
<path d="M27.3484 30.9473C28.0524 30.2392 28.7335 29.5482 29.4221 28.8613C30.6329 27.6478 31.8453 26.4356 33.0594 25.2248C33.1238 25.1537 33.1948 25.0888 33.2712 25.0309C33.3939 24.9268 33.5526 24.8752 33.713 24.8872C33.8735 24.8993 34.0227 24.974 34.1284 25.0953C34.2465 25.2044 34.3177 25.3551 34.3268 25.5156C34.3359 25.6761 34.2823 25.8339 34.1773 25.9557C34.1101 26.0435 34.0354 26.1253 33.9541 26.2001L27.9929 32.1597C27.4698 32.682 27.2001 32.682 26.6826 32.1654C25.6152 31.0996 24.5429 30.0387 23.4894 28.9583C23.314 28.794 23.2059 28.5704 23.1863 28.3309C23.2114 28.2166 23.2593 28.1085 23.327 28.013C23.3948 27.9175 23.481 27.8367 23.5806 27.7752C23.8601 27.5943 24.1315 27.7499 24.3506 27.9683C25.2339 28.8499 26.1169 29.7321 26.9996 30.6148C27.1039 30.7199 27.2139 30.8177 27.3516 30.9481" fill="black"/>
<path d="M27.3312 32.756C27.0179 32.7169 26.7324 32.5566 26.5359 32.3095L25.8743 31.6511C25.0399 30.8192 24.177 29.9595 23.3402 29.1007C23.1236 28.8959 22.9943 28.6154 22.9792 28.3177C23.0059 28.171 23.0633 28.0316 23.1475 27.9086C23.2317 27.7856 23.341 27.6818 23.4681 27.6039C23.5762 27.5314 23.7031 27.4923 23.8332 27.4915C23.9596 27.5004 24.083 27.5344 24.1963 27.5913C24.3096 27.6482 24.4105 27.727 24.4932 27.8231L25.6722 29.0013L27.1389 30.468C27.2016 30.5315 27.2676 30.5926 27.3418 30.6619L27.9847 30.0149C28.4181 29.5782 28.8467 29.1463 29.2761 28.7161C30.1855 27.8052 31.1111 26.8803 32.0058 25.9865L32.9404 25.0511C33.0054 24.9805 33.0772 24.9164 33.1547 24.8596C33.3063 24.7464 33.4894 24.6832 33.6786 24.6787C33.7906 24.6812 33.9009 24.7063 34.003 24.7525C34.1051 24.7987 34.1968 24.8651 34.2726 24.9476C34.4266 25.0898 34.5203 25.2856 34.5344 25.4947C34.5485 25.7039 34.4819 25.9105 34.3484 26.072C34.2864 26.1549 34.2168 26.2318 34.1406 26.3018L34.1007 26.3409L28.1346 32.3029C27.9362 32.5531 27.6479 32.7157 27.3312 32.756ZM23.8275 27.8997C23.7761 27.9006 23.7262 27.9168 23.6841 27.9461C23.5378 28.0368 23.4304 28.1785 23.3826 28.3437C23.4072 28.5247 23.4935 28.6917 23.627 28.8163C24.4622 29.6727 25.3235 30.5315 26.157 31.3626L26.8178 32.0218C27.0444 32.2483 27.2008 32.3477 27.3255 32.3477C27.4501 32.3477 27.6098 32.2451 27.8404 32.0153L33.8041 26.0517L33.8464 26.0101C33.9043 25.9573 33.9575 25.8995 34.0053 25.8374C34.044 25.7967 34.0741 25.7486 34.0936 25.696C34.1132 25.6434 34.1218 25.5873 34.1191 25.5312C34.1163 25.4752 34.1023 25.4202 34.0777 25.3698C34.0531 25.3193 34.0185 25.2744 33.976 25.2377C33.938 25.194 33.8916 25.1584 33.8395 25.133C33.7874 25.1077 33.7307 25.0931 33.6729 25.0902C33.5669 25.0953 33.4651 25.1329 33.3812 25.1977C33.3251 25.2401 33.273 25.2876 33.2255 25.3395L33.1978 25.368L32.2958 26.2733C31.3995 27.1696 30.4755 28.092 29.5662 29.0029C29.1368 29.4332 28.709 29.865 28.2755 30.3009L27.4933 31.0889L27.3532 31.2298L27.209 31.0937L27.0835 30.9764C27.002 30.8949 26.9254 30.8297 26.8521 30.7556L25.3854 29.2881L24.2039 28.1115C24.1097 27.9985 23.9771 27.9242 23.8315 27.9029L23.8275 27.8997Z" fill="black"/>
<path d="M33.6518 38.1656H29.0473C28.9113 38.1704 28.7752 38.1655 28.6399 38.151C28.4868 38.1381 28.3445 38.0673 28.2419 37.9529C28.1394 37.8386 28.0844 37.6893 28.0883 37.5358C28.074 37.3896 28.1143 37.2433 28.2014 37.1251C28.2885 37.0069 28.4162 36.925 28.5601 36.8953C28.7066 36.8609 28.8569 36.8456 29.0074 36.8497C32.12 36.8497 35.2326 36.8497 38.3452 36.8497C38.4409 36.8467 38.5367 36.85 38.632 36.8595C38.805 36.8712 38.9666 36.9503 39.0821 37.0798C39.1975 37.2093 39.2577 37.3788 39.2496 37.5521C39.241 37.718 39.1681 37.8741 39.0464 37.9872C38.9248 38.1003 38.7639 38.1617 38.5978 38.1583C38.1048 38.1746 37.6102 38.1656 37.1172 38.1656H33.6518Z" fill="black"/>
<path d="M37.8994 38.3717C37.6362 38.3717 37.373 38.3717 37.1098 38.3717H28.9136C28.8112 38.3735 28.7088 38.3677 28.6072 38.3546C28.4072 38.3351 28.2217 38.2414 28.0874 38.0919C27.953 37.9425 27.8795 37.7481 27.8812 37.5472C27.8643 37.3545 27.9182 37.1622 28.0327 37.0064C28.1473 36.8506 28.3148 36.7418 28.5037 36.7006C28.6674 36.6623 28.8353 36.6456 29.0032 36.6509C32.1153 36.6509 35.2279 36.6509 38.341 36.6509H38.4225C38.5012 36.6496 38.5798 36.6537 38.658 36.6631C38.8821 36.682 39.0901 36.7873 39.2382 36.9566C39.3862 37.1259 39.4627 37.3461 39.4516 37.5708C39.4394 37.7877 39.344 37.9916 39.1852 38.1399C39.0265 38.2882 38.8166 38.3695 38.5993 38.3669C38.3932 38.3685 38.178 38.3717 37.8994 38.3717ZM29.0472 37.9643H37.1139C37.3771 37.9643 37.6403 37.9643 37.9035 37.9643C38.1666 37.9643 38.3923 37.9643 38.5879 37.9546C38.6453 37.9574 38.7027 37.9489 38.7568 37.9296C38.811 37.9102 38.8608 37.8804 38.9034 37.8418C38.946 37.8032 38.9805 37.7566 39.0051 37.7047C39.0297 37.6527 39.0438 37.5964 39.0466 37.539C39.0491 37.4786 39.0397 37.4183 39.0188 37.3616C38.998 37.3049 38.9661 37.2528 38.9251 37.2085C38.884 37.1641 38.8346 37.1283 38.7797 37.1031C38.7248 37.0778 38.6654 37.0637 38.605 37.0615C38.545 37.0549 38.4845 37.0522 38.4241 37.0534H38.3426C35.23 37.0534 32.1175 37.0534 29.0049 37.0534C28.8724 37.0487 28.7399 37.0608 28.6105 37.0892C28.5115 37.1068 28.423 37.1618 28.3634 37.2428C28.3038 37.3238 28.2776 37.4246 28.2903 37.5243C28.2871 37.5769 28.2944 37.6297 28.3117 37.6794C28.329 37.7292 28.356 37.775 28.3912 37.8143C28.4264 37.8536 28.469 37.8854 28.5165 37.9081C28.5641 37.9308 28.6157 37.9438 28.6683 37.9464C28.7494 37.9564 28.8311 37.9608 28.9128 37.9595L29.0472 37.9643Z" fill="black"/>
<path d="M17.4385 35.3512C16.0952 35.3512 14.7524 35.3512 13.4101 35.3512C12.8911 35.3512 12.5904 35.1067 12.5953 34.6944C12.6002 34.2821 12.9106 34.0369 13.4215 34.0369C16.1375 34.0369 18.8509 34.0369 21.5615 34.0369C21.8728 34.0369 22.1685 34.111 22.2696 34.4149C22.3068 34.5192 22.3213 34.6302 22.312 34.7406C22.3027 34.8509 22.2699 34.958 22.2158 35.0546C22.0381 35.2309 21.8003 35.3334 21.5501 35.3414C20.1804 35.3675 18.8099 35.3536 17.4393 35.3536" fill="black"/>
<path d="M19.5268 35.5582H18.4831H17.4401H15.1391H13.4125C13.2679 35.5669 13.1231 35.5467 12.9864 35.4989C12.8498 35.451 12.724 35.3765 12.6164 35.2795C12.5418 35.2022 12.4836 35.1106 12.4452 35.0102C12.4068 34.9098 12.3891 34.8027 12.3931 34.6953C12.3931 34.1738 12.8005 33.8357 13.4231 33.8357C16.1364 33.8357 18.8497 33.8357 21.5631 33.8357H21.5679C22.0479 33.8357 22.3502 34.0101 22.4642 34.3531C22.5128 34.4906 22.5296 34.6372 22.5135 34.7821C22.4975 34.927 22.4489 35.0664 22.3714 35.1899C22.1568 35.4109 21.8644 35.5392 21.5565 35.5476C20.9691 35.5533 20.3433 35.5582 19.5268 35.5582ZM17.4401 35.1508H18.4839H19.5268C20.3417 35.1508 20.9634 35.1459 21.5476 35.1345C21.7401 35.1274 21.9235 35.0504 22.0634 34.9178C22.1231 34.7775 22.1283 34.62 22.078 34.4761C22.0405 34.3645 21.9493 34.2366 21.5679 34.2366H21.5639C18.8478 34.2366 16.1342 34.2366 13.4231 34.2366C13.2365 34.2366 12.8038 34.2806 12.8005 34.6921C12.7972 34.7457 12.8048 34.7994 12.8229 34.8499C12.8409 34.9005 12.8691 34.9469 12.9057 34.9862C13.0477 35.1026 13.2295 35.159 13.4125 35.1435H15.1391L17.4401 35.1508Z" fill="black"/>
<path d="M46.3319 39.6786C46.5105 39.6772 46.6876 39.7112 46.853 39.7787C47.0184 39.8461 47.1688 39.9457 47.2955 40.0716C47.4221 40.1976 47.5226 40.3473 47.5911 40.5123C47.6595 40.6773 47.6946 40.8542 47.6942 41.0328C47.6942 41.3938 47.5508 41.74 47.2956 41.9953C47.0403 42.2506 46.6941 42.394 46.3331 42.394C45.9721 42.394 45.6259 42.2506 45.3706 41.9953C45.1154 41.74 44.9719 41.3938 44.9719 41.0328C44.9709 40.8542 45.0053 40.6771 45.0733 40.5119C45.1414 40.3467 45.2416 40.1966 45.3681 40.0705C45.4947 39.9444 45.6451 39.8447 45.8105 39.7773C45.976 39.7099 46.1532 39.6769 46.3319 39.6786Z" fill="black"/>
<path d="M46.3326 42.603C45.9175 42.6015 45.5199 42.4355 45.2269 42.1413C44.934 41.8471 44.7696 41.4488 44.7698 41.0337C44.7684 40.8282 44.8079 40.6244 44.886 40.4344C44.9642 40.2443 45.0794 40.0717 45.2249 39.9266C45.3705 39.7815 45.5435 39.6668 45.7338 39.5893C45.9241 39.5117 46.1279 39.4729 46.3334 39.4749C46.5402 39.4738 46.7451 39.5136 46.9363 39.5922C47.1275 39.6708 47.3012 39.7866 47.4473 39.9329C47.5918 40.0771 47.7063 40.2486 47.7841 40.4374C47.8618 40.6263 47.9014 40.8287 47.9003 41.0329C47.8953 41.4473 47.7286 41.8434 47.4357 42.1367C47.1429 42.43 46.7471 42.5973 46.3326 42.603ZM46.3326 39.8823C46.1798 39.8812 46.0283 39.9105 45.8869 39.9684C45.7455 40.0263 45.617 40.1117 45.5089 40.2197C45.4022 40.3267 45.318 40.4539 45.2609 40.5937C45.2038 40.7336 45.1751 40.8834 45.1764 41.0345C45.1795 41.3406 45.3021 41.6335 45.5179 41.8506C45.7337 42.0678 46.0257 42.1921 46.3318 42.1972C46.6383 42.1924 46.9308 42.0682 47.1472 41.8511C47.3635 41.6339 47.4867 41.341 47.4905 41.0345C47.4916 40.8833 47.4626 40.7334 47.4052 40.5935C47.3479 40.4537 47.2633 40.3266 47.1564 40.2197C47.0481 40.1117 46.9194 40.0264 46.7779 39.9685C46.6363 39.9106 46.4847 39.8813 46.3318 39.8823H46.3326Z" fill="black"/>
<path d="M24.4622 41.0485C24.4594 41.4093 24.3135 41.7543 24.0565 42.0076C23.7995 42.2609 23.4525 42.4018 23.0917 42.3995C22.7308 42.3889 22.3882 42.2385 22.1361 41.98C21.884 41.7216 21.7423 41.3753 21.7407 41.0143C21.7435 40.8353 21.7815 40.6587 21.8527 40.4945C21.9238 40.3303 22.0267 40.1817 22.1554 40.0574C22.2841 39.933 22.4361 39.8352 22.6026 39.7697C22.7691 39.7042 22.947 39.6722 23.1259 39.6755C23.3045 39.6756 23.4813 39.7114 23.6458 39.7809C23.8103 39.8503 23.9592 39.9521 24.0838 40.08C24.2083 40.208 24.306 40.3596 24.371 40.526C24.436 40.6923 24.467 40.87 24.4622 41.0485Z" fill="black"/>
<path d="M23.1145 42.6031H23.0884C22.6746 42.5911 22.2817 42.4185 21.9928 42.122C21.7039 41.8255 21.5416 41.4282 21.5403 41.0142C21.5423 40.8097 21.5846 40.6077 21.6648 40.4196C21.745 40.2315 21.8615 40.061 22.0077 39.918C22.1538 39.7749 22.3267 39.6621 22.5165 39.586C22.7063 39.5098 22.9092 39.4719 23.1137 39.4742H23.1275C23.3325 39.4745 23.5354 39.5157 23.7243 39.5953C23.9131 39.675 24.0842 39.7915 24.2275 39.9381C24.3707 40.0847 24.4833 40.2585 24.5586 40.4491C24.6339 40.6398 24.6704 40.8435 24.6659 41.0484C24.6631 41.4594 24.4989 41.8527 24.2087 42.1436C23.9184 42.4344 23.5254 42.5995 23.1145 42.6031ZM23.1145 39.8824C22.963 39.8805 22.8125 39.9085 22.6718 39.9648C22.5312 40.0212 22.403 40.1047 22.2946 40.2107C22.1863 40.3167 22.1 40.443 22.0406 40.5824C21.9812 40.7219 21.9499 40.8716 21.9485 41.0232C21.9499 41.3303 22.0708 41.6247 22.2855 41.8442C22.5003 42.0637 22.7921 42.1909 23.099 42.199H23.1186C23.3454 42.1948 23.5661 42.1245 23.7536 41.9969C23.9412 41.8692 24.0874 41.6896 24.1745 41.4801C24.2615 41.2707 24.2857 41.0403 24.2438 40.8173C24.202 40.5944 24.0961 40.3884 23.9391 40.2247C23.8327 40.1167 23.7058 40.0311 23.5659 39.9728C23.426 39.9144 23.2759 39.8846 23.1243 39.8849L23.1145 39.8824Z" fill="black"/>
</g>
</g>
<defs>
<clipPath id="clip0_2350_5517">
<rect width="44" height="44" fill="white" transform="translate(10 10)"/>
</clipPath>
</defs>
</svg>
