<svg width="64" height="64" viewBox="0 0 64 64" fill="none" xmlns="http://www.w3.org/2000/svg">
<rect width="64" height="64" rx="8" fill="#EAF3FF"/>
<g clip-path="url(#clip0_2350_5546)">
<mask id="mask0_2350_5546" style="mask-type:luminance" maskUnits="userSpaceOnUse" x="10" y="10" width="44" height="44">
<path d="M54 10H10V54H54V10Z" fill="white"/>
</mask>
<g mask="url(#mask0_2350_5546)">
<path d="M21.7952 24.5093V23.9495C21.7952 20.3814 21.7847 16.8133 21.8001 13.2453C21.7948 12.7619 21.9146 12.2854 22.1479 11.8621C22.3812 11.4388 22.72 11.083 23.1315 10.8294C23.543 10.5758 24.0131 10.433 24.4962 10.4148C24.9792 10.3967 25.4587 10.5038 25.8881 10.7259C26.3698 10.956 26.7731 11.323 27.0477 11.7808C27.3223 12.2387 27.456 12.7673 27.4321 13.3007C27.4387 16.8397 27.4387 20.3784 27.4321 23.9169V24.5093H28.0025C28.7668 24.5093 29.5303 24.4987 30.2938 24.5093C31.2158 24.5159 32.0981 24.8857 32.7492 25.5386C33.4004 26.1914 33.768 27.0746 33.7722 27.9967C33.7934 30.1103 33.7779 32.2247 33.7779 34.3392C33.7688 34.5094 33.7912 34.6798 33.8439 34.8419C33.9091 34.7238 33.9808 34.6097 34.0395 34.4883C35.1851 32.1112 36.3302 29.7333 37.4747 27.3546C37.5789 27.0453 37.7525 26.7639 37.9822 26.5321C38.212 26.3003 38.4918 26.1243 38.8002 26.0174C39.1086 25.9106 39.4374 25.8758 39.7613 25.9158C40.0852 25.9558 40.3957 26.0695 40.6688 26.2481C44.7271 28.1971 48.7852 30.1459 52.843 32.0944C53.5698 32.4431 53.6676 32.7193 53.3147 33.451C50.4444 39.4258 47.5719 45.3989 44.6973 51.3704C44.3762 52.0386 44.0821 52.1372 43.3936 51.8072C40.3141 50.3269 37.2352 48.8456 34.1568 47.3632C34.0142 47.2955 33.87 47.2336 33.6973 47.1562C33.5549 47.7212 33.2794 48.244 32.8939 48.6808C32.5083 49.1177 32.0239 49.456 31.481 49.6675C31.6985 50.1333 31.7385 50.6625 31.5936 51.1557C31.4487 51.649 31.1287 52.0724 30.6938 52.3466C30.3633 52.5889 29.9646 52.7204 29.5548 52.7223C29.145 52.7242 28.7451 52.5964 28.4124 52.3572C28.0111 52.1086 27.7048 51.7328 27.5423 51.2896C27.3799 50.8465 27.3706 50.3617 27.5161 49.9127H21.7056C21.8575 50.3818 21.8415 50.889 21.6603 51.3475C21.479 51.806 21.1439 52.1872 20.7124 52.4256C20.3498 52.6429 19.9283 52.7412 19.5071 52.7069C19.0858 52.6726 18.6858 52.5072 18.3632 52.2341C17.9915 51.9422 17.7285 51.5339 17.6165 51.0747C17.5045 50.6155 17.55 50.132 17.7456 49.7017C17.6487 49.6463 17.5541 49.5884 17.4564 49.5387C16.8429 49.2572 16.326 48.8011 15.9701 48.2276C15.6142 47.654 15.4351 46.9884 15.4552 46.3137C15.4427 40.2493 15.4427 34.1852 15.4552 28.1213C15.4416 27.6429 15.526 27.1667 15.7031 26.722C15.8802 26.2773 16.1463 25.8735 16.4851 25.5353C16.8239 25.1972 17.2281 24.9318 17.6732 24.7555C18.1182 24.5792 18.5945 24.4957 19.073 24.5101C19.9652 24.5044 20.8566 24.5101 21.7912 24.5101M21.7912 25.9189C20.8044 25.9189 19.8804 25.9075 18.9581 25.9189C18.6819 25.9181 18.4082 25.9722 18.1531 26.0779C17.8979 26.1837 17.6663 26.339 17.4716 26.5349C17.2769 26.7308 17.123 26.9634 17.0188 27.2192C16.9147 27.475 16.8623 27.749 16.8648 28.0252C16.8567 34.1461 16.8567 40.267 16.8648 46.3878C16.8672 46.9386 17.0867 47.4661 17.4757 47.8559C17.8648 48.2457 18.3919 48.4663 18.9426 48.4697C19.3679 48.4811 19.7941 48.4697 20.2194 48.4697C23.5379 48.4697 26.8561 48.4697 30.174 48.4697C30.6552 48.4859 31.1276 48.3382 31.514 48.0509C31.9003 47.7636 32.1777 47.3536 32.3007 46.8881C32.3748 46.6152 32.3455 46.4563 32.0611 46.3447C31.7352 46.2175 31.4231 46.0481 31.1078 45.8932C30.8167 45.7842 30.5533 45.6124 30.3361 45.3901C30.1189 45.1678 29.9532 44.9005 29.8509 44.607C29.7485 44.3136 29.712 44.0012 29.7439 43.692C29.7758 43.3829 29.8754 43.0845 30.0355 42.8181C30.7631 41.2985 31.5021 39.7813 32.2224 38.2601C32.3046 38.1064 32.3527 37.9369 32.3634 37.763C32.3707 34.5038 32.3764 31.2445 32.3634 27.9853C32.3716 27.4858 32.1934 27.0013 31.8636 26.6262C31.5338 26.251 31.0761 26.0122 30.5798 25.9564C29.5507 25.8692 28.5077 25.936 27.4232 25.936V29.4022H26.007V25.9482H23.1812V29.4169H21.7961L21.7912 25.9189ZM37.9522 29.6304C37.9449 29.6426 37.9204 29.6793 37.9009 29.7176C35.6993 34.3001 33.4974 38.8831 31.2952 43.4667C31.0165 44.0477 31.1453 44.3516 31.7686 44.6507L43.1833 50.1401C43.3243 50.2069 43.4685 50.2639 43.6323 50.3348L50.6527 35.7431L37.9604 29.632M26.025 24.4881V22.6564C26.025 19.5601 26.025 16.4638 26.025 13.3675C26.0473 13.0651 25.9741 12.7633 25.8156 12.5048C25.6571 12.2463 25.4214 12.0441 25.1417 11.9269C24.9192 11.8379 24.6778 11.8069 24.4401 11.8368C24.2024 11.8667 23.9761 11.9566 23.7827 12.0979C23.5892 12.2393 23.4348 12.4274 23.334 12.6448C23.2332 12.8622 23.1894 13.1016 23.2065 13.3406C23.2022 16.9665 23.2022 20.5919 23.2065 24.2167C23.2065 24.2982 23.2147 24.3846 23.2204 24.4873L26.025 24.4881ZM51.8693 33.2123C51.7112 33.1308 51.5955 33.0689 51.4773 33.0135L43.4758 29.1635C42.3001 28.5996 41.1259 28.0301 39.9485 27.4695C39.4433 27.2291 39.0522 27.3326 38.8632 27.7392C38.6741 28.1458 38.8526 28.4961 39.3602 28.7447L39.4417 28.7821L47.8001 32.8033C48.9465 33.3557 50.093 33.9057 51.2622 34.4679C51.4684 34.0418 51.659 33.6531 51.8709 33.2131M19.6873 49.885C19.5479 49.8834 19.4112 49.9233 19.2946 49.9996C19.1779 50.076 19.0866 50.1853 19.0323 50.3137C18.978 50.4421 18.9631 50.5837 18.9896 50.7206C19.016 50.8574 19.0826 50.9833 19.1808 51.0823C19.279 51.1812 19.4044 51.2486 19.5411 51.276C19.6778 51.3034 19.8196 51.2895 19.9483 51.2361C20.0771 51.1827 20.187 51.0922 20.2642 50.9761C20.3413 50.86 20.3822 50.7235 20.3815 50.5841C20.3795 50.4002 20.3058 50.2243 20.1762 50.0938C20.0466 49.9633 19.8712 49.8884 19.6873 49.885ZM29.5604 51.2881C29.7001 51.2861 29.8359 51.2426 29.9507 51.163C30.0655 51.0835 30.154 50.9716 30.205 50.8416C30.2559 50.7116 30.267 50.5693 30.2368 50.433C30.2066 50.2966 30.1365 50.1724 30.0354 50.076C29.9343 49.9797 29.8069 49.9156 29.6692 49.892C29.5316 49.8683 29.39 49.8862 29.2626 49.9434C29.1352 50.0005 29.0276 50.0943 28.9537 50.2127C28.8798 50.3312 28.8428 50.469 28.8475 50.6086C28.8555 50.792 28.9342 50.9653 29.0671 51.0919C29.2 51.2186 29.3768 51.2889 29.5604 51.2881Z" fill="black"/>
<path d="M29.5549 52.9252C29.2115 52.9148 28.8745 52.8304 28.5667 52.6777C28.259 52.5251 27.9878 52.3079 27.7718 52.0408C27.5557 51.7738 27.3998 51.4632 27.3148 51.1304C27.2298 50.7976 27.2176 50.4504 27.2791 50.1124H21.9518C22.0586 50.5934 22.0056 51.0961 21.8009 51.5443C21.5963 51.9925 21.251 52.3617 20.8176 52.596C20.4186 52.8352 19.9547 52.9434 19.491 52.9056C19.0273 52.8677 18.5871 52.6857 18.2322 52.3849C17.8492 52.0873 17.5714 51.675 17.4394 51.2082C17.3075 50.7414 17.3283 50.2447 17.4989 49.7906C17.4524 49.7637 17.4068 49.7376 17.3603 49.714C16.7133 49.4172 16.168 48.9363 15.7927 48.3315C15.4173 47.7266 15.2286 47.0245 15.25 46.3129C15.2378 40.5921 15.2402 34.9055 15.25 28.1198C15.2357 27.6137 15.3251 27.11 15.5127 26.6398C15.7003 26.1696 15.9822 25.7427 16.3409 25.3854C16.6996 25.0282 17.1276 24.7481 17.5986 24.5624C18.0696 24.3767 18.5736 24.2893 19.0796 24.3056C19.3746 24.3056 19.6891 24.3056 20.068 24.3056H21.5949V23.9495C21.5949 22.9174 21.5949 21.8853 21.5949 20.8532C21.5949 18.3583 21.5909 15.7786 21.6015 13.2404C21.5971 12.4406 21.9102 11.6717 22.472 11.1024C23.0338 10.5331 23.7985 10.2099 24.5983 10.2036C25.0808 10.2041 25.5561 10.3212 25.9835 10.545C26.4975 10.7936 26.9278 11.1867 27.2216 11.6762C27.5154 12.1657 27.66 12.7303 27.6376 13.3007C27.6425 15.8568 27.6376 18.4552 27.6376 20.9681C27.6376 21.9513 27.6376 22.9345 27.6376 23.9178V24.3064H28.0026H28.7115H29.422C29.7586 24.3064 30.0372 24.3064 30.298 24.3129C31.2726 24.3223 32.2045 24.7144 32.8927 25.4046C33.5809 26.0948 33.9703 27.0278 33.9769 28.0024C33.9915 29.4935 33.9883 31.0099 33.985 32.4758C33.985 33.0331 33.985 33.5904 33.985 34.1478L35.7654 30.4509L37.2948 27.2732C37.4534 26.8351 37.7386 26.4541 38.1142 26.1784C38.4898 25.9028 38.9389 25.745 39.4043 25.725C39.8766 25.7384 40.3398 25.8573 40.7602 26.0729L44.2769 27.7621L52.9343 31.9176C53.2582 32.0293 53.5254 32.2633 53.6791 32.5695C53.7494 32.9061 53.6857 33.2569 53.5014 33.5472C50.7482 39.2721 47.9289 45.1331 44.8815 51.4626C44.7063 51.826 44.466 52.1959 44.0097 52.1959C43.7641 52.1815 43.5249 52.1122 43.3097 51.993L38.0216 49.4492L34.0722 47.5466C33.9907 47.5091 33.9149 47.474 33.8277 47.4349C33.6643 47.9516 33.3932 48.4278 33.0324 48.8321C32.6716 49.2364 32.2293 49.5598 31.7345 49.7808C31.9205 50.2729 31.9303 50.8144 31.7622 51.3129C31.594 51.8115 31.2583 52.2364 30.8121 52.5153C30.4444 52.7765 30.0059 52.9195 29.5549 52.9252ZM21.4507 49.7058H27.7802L27.724 49.9543C27.5857 50.3627 27.5901 50.806 27.7365 51.2116C27.8829 51.6171 28.1626 51.961 28.5298 52.1869C28.8291 52.4026 29.189 52.518 29.5579 52.5164C29.9269 52.5147 30.2858 52.3963 30.5831 52.178C30.983 51.9306 31.2769 51.5437 31.4079 51.0921C31.5388 50.6405 31.4976 50.1564 31.292 49.7335L31.2301 49.5526L31.4069 49.4793C31.9218 49.2799 32.3813 48.9597 32.7465 48.5456C33.1118 48.1316 33.3722 47.6358 33.5059 47.1001L33.5703 46.8743L33.7846 46.9697L33.9288 47.0332C34.0404 47.0821 34.1455 47.1286 34.249 47.1783L38.1984 49.0784L43.4857 51.6223C43.6466 51.713 43.8249 51.7686 44.0088 51.7852C44.136 51.7852 44.29 51.7461 44.514 51.2809C47.5606 44.9555 50.3799 39.0888 53.1323 33.3663C53.2896 33.0404 53.3393 32.8335 53.2953 32.6998C53.2513 32.5662 53.0834 32.4375 52.7591 32.2818L44.1017 28.1263L40.5842 26.4355C40.2189 26.2466 39.8161 26.1414 39.4051 26.1275C39.0161 26.148 38.642 26.2847 38.3314 26.5198C38.0207 26.755 37.7876 27.0778 37.6623 27.4467L36.1329 30.6245C35.4978 31.944 34.8626 33.2631 34.227 34.5821C34.1846 34.6701 34.1366 34.7523 34.0909 34.8322C34.0689 34.8697 34.0469 34.908 34.0257 34.9463L33.8074 35.3406L33.6558 34.9161C33.594 34.7326 33.5664 34.5393 33.5743 34.3458C33.5743 33.7216 33.5743 33.0969 33.5743 32.4717C33.5743 31.005 33.5809 29.4919 33.5662 28.0032C33.56 27.135 33.2129 26.304 32.5998 25.6893C31.9866 25.0745 31.1564 24.7254 30.2882 24.7171C30.0299 24.7122 29.7537 24.7106 29.4196 24.7106H28.7115H28.001H27.2286V23.9169C27.2286 22.9337 27.2286 21.9505 27.2286 20.9673C27.2286 18.4544 27.2286 15.8568 27.2286 13.3007C27.2524 12.8049 27.1291 12.3131 26.8741 11.8873C26.619 11.4614 26.2437 11.1206 25.7953 10.9076C25.426 10.7138 25.0154 10.6121 24.5983 10.611C23.9061 10.62 23.2454 10.902 22.76 11.3957C22.2746 11.8893 22.0038 12.5546 22.0064 13.2469C21.995 15.7835 21.9975 18.3632 21.9999 20.8573C21.9999 21.8894 21.9999 22.9215 21.9999 23.9536V24.7171H21.7962H20.0655C19.6875 24.7171 19.3738 24.7171 19.0796 24.7171C18.6275 24.7026 18.1772 24.7807 17.7564 24.9466C17.3356 25.1125 16.9532 25.3628 16.6327 25.6819C16.3122 26.0011 16.0603 26.3824 15.8926 26.8025C15.7249 27.2226 15.6448 27.6725 15.6574 28.1246C15.6509 34.9063 15.6492 40.5962 15.6574 46.3162C15.6394 46.9527 15.8093 47.5805 16.1459 48.121C16.4826 48.6615 16.971 49.0909 17.5502 49.3555C17.6219 49.3929 17.6903 49.4329 17.7572 49.4712L17.8468 49.5225L17.9951 49.604L17.938 49.7669C17.7565 50.1581 17.7127 50.5992 17.8139 51.0184C17.9151 51.4376 18.1553 51.8101 18.4954 52.0753C18.7853 52.321 19.1449 52.4697 19.5237 52.5007C19.9024 52.5317 20.2814 52.4433 20.6074 52.248C21.0022 52.0317 21.3084 51.6834 21.4722 51.264C21.6361 50.8447 21.6472 50.3811 21.5037 49.9543L21.4507 49.7058ZM19.6793 51.4927H19.6435C19.4093 51.4792 19.1896 51.3754 19.0304 51.2032C18.8712 51.031 18.785 50.8038 18.7898 50.5694C18.7947 50.3349 18.8903 50.1115 19.0564 49.9461C19.2226 49.7806 19.4465 49.686 19.6809 49.6822H19.6923C19.9296 49.6862 20.156 49.7826 20.3234 49.9509C20.4908 50.1192 20.5859 50.3461 20.5886 50.5834C20.588 50.8237 20.4926 51.0541 20.3231 51.2245C20.1536 51.3949 19.9237 51.4916 19.6834 51.4935L19.6793 51.4927ZM19.6793 50.0888C19.5498 50.0896 19.4257 50.1405 19.333 50.2309C19.2403 50.3214 19.1863 50.4442 19.1823 50.5736C19.1806 50.7039 19.2292 50.8297 19.318 50.9251C19.4068 51.0204 19.5289 51.0778 19.6589 51.0853H19.6809C19.8128 51.0834 19.9387 51.03 20.0317 50.9365C20.1247 50.843 20.1775 50.7169 20.1788 50.585C20.1771 50.4543 20.1246 50.3295 20.0325 50.2368C19.9403 50.1442 19.8157 50.0911 19.685 50.0888H19.6793ZM29.5483 51.4919C29.3082 51.4895 29.0787 51.3922 28.9101 51.2211C28.7416 51.05 28.6476 50.8191 28.6488 50.5789C28.65 50.3388 28.7462 50.1088 28.9165 49.9394C29.0867 49.77 29.3171 49.6749 29.5573 49.6749C29.7975 49.6749 30.0279 49.77 30.1981 49.9394C30.3684 50.1088 30.4646 50.3388 30.4658 50.5789C30.467 50.8191 30.373 51.05 30.2045 51.2211C30.0359 51.3922 29.8064 51.4895 29.5663 51.4919H29.5483ZM29.5483 50.0863H29.5247C29.3945 50.0947 29.2726 50.1529 29.1841 50.2487C29.0957 50.3446 29.0475 50.4709 29.0497 50.6013C29.0547 50.7299 29.1089 50.8516 29.2011 50.9414C29.2933 51.0312 29.4164 51.0821 29.5451 51.0837H29.5549C29.6837 51.0776 29.8053 51.0219 29.894 50.9282C29.9827 50.8345 30.0318 50.7101 30.0308 50.5811C30.0299 50.452 29.979 50.3284 29.8889 50.236C29.7988 50.1436 29.6765 50.0897 29.5475 50.0855L29.5483 50.0863ZM43.7261 50.6005L43.546 50.519L43.3831 50.4514C43.2804 50.4082 43.1843 50.3699 43.0873 50.3218L31.6783 44.8349C30.9449 44.4837 30.782 44.0616 31.1079 43.3788C32.9714 39.5011 34.8683 35.5566 36.7032 31.7473L37.7226 29.6288C37.7394 29.5958 37.7578 29.5637 37.778 29.5326L37.7829 29.5253L37.879 29.3681L38.042 29.4495L44.3217 32.4741L50.7343 35.5631L50.9177 35.6511L50.8297 35.8344L45.5823 46.7415L43.7261 50.6005ZM38.046 29.8985L37.0683 31.9241C35.2333 35.7358 33.3364 39.6779 31.4729 43.5556C31.2627 43.994 31.288 44.1977 31.851 44.4682L43.2731 49.9568C43.3546 49.9959 43.4426 50.0334 43.5346 50.0717L45.2229 46.5615L50.3823 35.8385L44.1531 32.8383L38.046 29.8985ZM19.4683 48.6792C19.2621 48.6792 19.0935 48.6792 18.937 48.6726C18.3347 48.6656 17.7591 48.4228 17.3338 47.9963C16.9085 47.5697 16.6673 46.9935 16.662 46.3912C16.6523 40.588 16.6523 34.5821 16.662 28.0285C16.6601 27.7263 16.7181 27.4266 16.8327 27.1469C16.9472 26.8672 17.116 26.613 17.3294 26.3989C17.7641 25.9704 18.3487 25.7284 18.959 25.7242C19.2849 25.7193 19.628 25.7169 20.05 25.7169H20.8991H21.7954H21.9991V29.2132H22.9769V25.7446H26.2109V29.2026H27.2212V25.7372H27.4249C27.7509 25.7372 28.0857 25.7307 28.4027 25.725C28.7197 25.7193 29.0391 25.7128 29.3544 25.7128C29.8352 25.7128 30.2295 25.7275 30.5962 25.7584C31.1426 25.8202 31.6467 26.0825 32.0107 26.4947C32.3747 26.9069 32.5727 27.4395 32.5664 27.9894C32.5794 31.2397 32.5737 34.4688 32.5664 37.7672C32.5566 37.9717 32.5009 38.1713 32.4034 38.3514C31.9659 39.2705 31.5169 40.2026 31.0834 41.1046C30.7939 41.706 30.5049 42.3076 30.2165 42.9095C30.0685 43.1519 29.9761 43.4241 29.946 43.7065C29.9159 43.9889 29.9487 44.2744 30.0423 44.5426C30.1358 44.8108 30.2876 45.0549 30.4868 45.2573C30.686 45.4597 30.9276 45.6154 31.1943 45.7132L31.4314 45.8314C31.6595 45.9463 31.8958 46.0652 32.1321 46.1573C32.2112 46.1799 32.2844 46.2193 32.3468 46.2728C32.4092 46.3263 32.4593 46.3927 32.4936 46.4673C32.528 46.542 32.5458 46.6232 32.5459 46.7054C32.5459 46.7876 32.5282 46.8689 32.4939 46.9436C32.3577 47.4512 32.0545 47.8981 31.6331 48.2122C31.2118 48.5263 30.697 48.6894 30.1717 48.6751C28.8623 48.6751 27.4249 48.6751 25.6486 48.6751H20.2195C19.9694 48.6767 19.7184 48.6792 19.4683 48.6792ZM20.0509 26.1186C19.6312 26.1186 19.2866 26.1186 18.9663 26.1259C18.7163 26.1234 18.4683 26.1708 18.2368 26.2654C18.0053 26.36 17.795 26.4998 17.6183 26.6767C17.4416 26.8536 17.3019 27.064 17.2075 27.2956C17.1131 27.5271 17.0659 27.7752 17.0686 28.0252C17.0597 34.5788 17.0597 40.5848 17.0686 46.3871C17.0731 46.884 17.2725 47.3594 17.6239 47.7108C17.9753 48.0622 18.4507 48.2616 18.9476 48.266C19.1008 48.2701 19.2654 48.2726 19.4683 48.2726C19.7184 48.2726 19.9694 48.2726 20.2195 48.2726H25.6511C27.4274 48.2726 28.8647 48.2726 30.1733 48.2726C30.61 48.2897 31.0395 48.1571 31.3906 47.8967C31.7417 47.6364 31.9932 47.2639 32.1036 46.8409C32.1614 46.6283 32.1394 46.6014 31.9863 46.5411C31.732 46.4417 31.4876 46.3186 31.2529 46.1997L31.0207 46.0832C30.706 45.9621 30.4215 45.7739 30.1869 45.5316C29.9523 45.2894 29.7733 44.999 29.6623 44.6806C29.5513 44.3622 29.511 44.0234 29.5443 43.6878C29.5775 43.3523 29.6834 43.028 29.8547 42.7375C30.1432 42.1357 30.4324 41.5338 30.7225 40.9319C31.156 40.0307 31.6049 39.0978 32.0425 38.1795C32.1112 38.0538 32.1524 37.9149 32.1631 37.7721C32.1704 34.4745 32.1761 31.2462 32.1631 27.9943C32.1704 27.5461 32.0111 27.1111 31.7161 26.7736C31.421 26.4361 31.0112 26.2201 30.566 26.1675C30.2108 26.1373 29.8278 26.1235 29.3585 26.1235C29.0472 26.1235 28.7254 26.13 28.4149 26.1357C28.1591 26.1406 27.8959 26.1455 27.6303 26.1471V29.6141H25.8034V26.152H23.3851V29.6206H21.5925V26.1226H20.8983L20.0509 26.1186ZM51.356 34.7393L51.1727 34.6513L49.7688 33.9766L47.7114 32.9875L41.4161 29.9629L39.2731 28.9321C38.658 28.6315 38.442 28.167 38.6783 27.6569C38.7408 27.5029 38.8482 27.3713 38.9866 27.2793C39.125 27.1873 39.2879 27.1392 39.454 27.1412C39.6565 27.1467 39.8552 27.197 40.0358 27.2886C40.7797 27.6431 41.5334 28.0057 42.2635 28.3569L43.5672 28.9818L51.5687 32.8318C51.6551 32.8726 51.7406 32.9133 51.8392 32.9679L51.9655 33.0331L52.1423 33.1243L51.8465 33.7338L51.4473 34.5584L51.356 34.7393ZM39.4548 27.5453C39.3662 27.5433 39.2792 27.5692 39.2061 27.6194C39.133 27.6695 39.0775 27.7414 39.0474 27.8248C38.9969 27.934 38.8437 28.2656 39.4491 28.5581L39.5266 28.5948L41.5921 29.5889L47.8865 32.6167L49.944 33.6059L51.1662 34.1926L51.4774 33.5505L51.5997 33.2995C51.5247 33.2604 51.4571 33.2262 51.3902 33.1944L43.388 29.3436L42.0843 28.7178C41.355 28.3666 40.6013 28.0041 39.8582 27.6504C39.7329 27.5866 39.5953 27.5507 39.4548 27.5453ZM26.2288 24.6935H23.0274L23.0168 24.5036C23.0168 24.4726 23.0168 24.4441 23.0111 24.4156C23.0062 24.3488 23.0021 24.2861 23.0021 24.2217V22.0323C23.0021 19.1804 23.0021 16.2381 23.0021 13.3406C22.9881 13.1192 23.0198 12.8972 23.0953 12.6885C23.1707 12.4799 23.2884 12.289 23.4408 12.1277C23.5933 11.9665 23.7773 11.8383 23.9814 11.7513C24.1856 11.6643 24.4054 11.6202 24.6273 11.6218C24.8492 11.6235 25.0684 11.6707 25.2712 11.7608C25.4741 11.8508 25.6562 11.9816 25.8063 12.145C25.9563 12.3085 26.0712 12.5011 26.1436 12.7109C26.216 12.9206 26.2444 13.143 26.2272 13.3643C26.2272 15.6892 26.2272 18.0142 26.2272 20.3391L26.2288 24.6935ZM23.4112 24.2861H25.8214V20.3391C25.8214 18.0147 25.8214 15.6898 25.8214 13.3643C25.8399 13.196 25.823 13.0257 25.7717 12.8643C25.7204 12.703 25.6358 12.5542 25.5235 12.4275C25.4111 12.3008 25.2735 12.1991 25.1194 12.1289C24.9653 12.0587 24.7982 12.0216 24.6289 12.0199C24.4596 12.0183 24.2918 12.0521 24.1364 12.1193C23.981 12.1864 23.8414 12.2854 23.7266 12.4099C23.6117 12.5343 23.5243 12.6814 23.4698 12.8418C23.4153 13.0021 23.3951 13.172 23.4103 13.3406C23.4103 16.2381 23.4103 19.1829 23.4103 22.0315V24.2168C23.4095 24.2388 23.4103 24.2592 23.4112 24.2844V24.2861Z" fill="black"/>
<path d="M45.3686 14.4675C46.4116 15.1626 47.395 15.8283 48.3932 16.472C48.4596 16.5004 48.5315 16.5133 48.6036 16.51C48.6757 16.5066 48.7461 16.4869 48.8096 16.4524C49.2732 16.1713 49.7156 15.8552 50.1695 15.5561C50.2464 15.4803 50.3388 15.422 50.4404 15.3854C50.542 15.3487 50.6503 15.3345 50.7579 15.3438C50.8655 15.3531 50.9698 15.3857 51.0637 15.4392C51.1575 15.4927 51.2385 15.566 51.3013 15.6539C51.7209 16.0613 52.1389 16.4777 52.5447 16.9014C52.6314 16.9665 52.7017 17.0509 52.7502 17.1479C52.7986 17.245 52.8239 17.3519 52.8239 17.4604C52.8239 17.5688 52.7986 17.6758 52.7502 17.7728C52.7017 17.8698 52.6314 17.9542 52.5447 18.0193C51.6484 18.9287 50.7521 19.8404 49.833 20.7253C49.505 21.0617 49.07 21.2732 48.6028 21.3235C48.1357 21.3738 47.6657 21.2596 47.2736 21.0007C43.3881 18.6399 39.5071 16.271 35.6307 13.8939C35.5131 13.8459 35.4104 13.7674 35.3331 13.6666C35.2558 13.5658 35.2067 13.4462 35.1909 13.3201C35.1751 13.1941 35.193 13.0661 35.243 12.9493C35.2929 12.8325 35.373 12.731 35.4751 12.6554C35.6161 12.5055 35.7636 12.3629 35.911 12.2187C36.4711 11.6359 37.2148 11.2637 38.017 11.1647C38.8192 11.0658 39.631 11.246 40.3159 11.6752C40.7437 11.9196 41.1723 12.327 41.6123 12.3474C42.0376 12.3621 42.4784 11.9693 42.9111 11.7534C43.7104 11.3549 44.5179 10.9655 45.3099 10.5524C45.4789 10.4463 45.6807 10.4054 45.8776 10.4373C46.0745 10.4693 46.253 10.5719 46.3798 10.7259C47.4056 11.7273 47.4113 11.7371 46.5533 12.886C46.1696 13.4018 45.7833 13.9151 45.3694 14.4684M51.0837 17.4832C50.647 16.9364 50.647 16.9356 50.1393 17.2721C49.7849 17.5068 49.4264 17.7366 49.0801 17.9794C48.942 18.0913 48.7699 18.1528 48.5922 18.1538C48.4145 18.1549 48.2417 18.0954 48.1023 17.9851C46.7627 17.0896 45.4167 16.1998 44.0771 15.297C43.9689 15.2484 43.8743 15.1739 43.8017 15.0801C43.729 14.9863 43.6805 14.8761 43.6604 14.7592C43.6403 14.6423 43.6492 14.5223 43.6863 14.4096C43.7235 14.2969 43.7877 14.1951 43.8734 14.1131C44.0193 13.9118 44.1716 13.7138 44.3199 13.5142L45.2692 12.2447C44.1447 12.7165 43.079 13.2339 42.0279 13.7774C41.871 13.8718 41.6899 13.9184 41.5069 13.9113C41.3239 13.9042 41.147 13.8438 40.9979 13.7375C40.5042 13.4229 40.0022 13.1182 39.4905 12.8322C39.1155 12.5997 38.6722 12.5025 38.2343 12.5569C37.7964 12.6113 37.3903 12.814 37.0836 13.1312L40.1611 15.011C42.7142 16.57 45.2651 18.1301 47.8139 19.6913C48.1887 19.9211 48.5407 20.0238 48.8886 19.6799C49.6219 18.9596 50.3414 18.2304 51.0845 17.4864" fill="black"/>
<path d="M48.4006 21.5377C47.9642 21.5336 47.5377 21.408 47.1686 21.1752C43.2852 18.8122 39.3464 16.4044 35.5347 14.0732L35.5257 14.0675C35.3878 13.9982 35.2679 13.8979 35.1751 13.7745C35.0824 13.6511 35.0195 13.5079 34.9912 13.3562C34.9788 13.1997 35.0028 13.0425 35.0611 12.8968C35.1195 12.751 35.2107 12.6208 35.3277 12.5161C35.4565 12.3792 35.5917 12.2472 35.7229 12.1193L35.7694 12.0737C36.1151 11.719 36.5274 11.436 36.9826 11.2408C37.4379 11.0457 37.9271 10.9421 38.4224 10.9362C39.1258 10.9433 39.8145 11.1377 40.4179 11.4992C40.5466 11.5742 40.6745 11.6622 40.7976 11.7437C41.0336 11.9437 41.3164 12.0808 41.6197 12.1421H41.636C41.9177 12.0951 42.1836 11.9796 42.4101 11.8056C42.5429 11.7241 42.6806 11.6377 42.8175 11.5685L43.4791 11.2426C44.0495 10.9606 44.6411 10.6722 45.2131 10.3707C45.3791 10.2777 45.5654 10.2268 45.7557 10.2224C45.9004 10.2276 46.0425 10.2617 46.1736 10.3229C46.3048 10.3841 46.4223 10.471 46.5192 10.5785C47.0684 11.1146 47.3446 11.3843 47.3731 11.7323C47.4016 12.0802 47.1572 12.4118 46.7131 13.0058C46.4279 13.3888 46.1428 13.7709 45.8429 14.1694L45.6579 14.4138L46.1737 14.7585C46.9731 15.293 47.7292 15.799 48.5016 16.2969C48.5219 16.3018 48.5427 16.304 48.5636 16.3034C48.6113 16.3048 48.6588 16.295 48.7021 16.2749C49.0028 16.0923 49.301 15.8911 49.5894 15.6955C49.7418 15.5929 49.8991 15.4861 50.0563 15.3826C50.2478 15.2375 50.4781 15.1524 50.7179 15.1382C50.8576 15.1472 50.994 15.1847 51.1187 15.2483C51.2434 15.3119 51.3538 15.4003 51.4431 15.5081C51.8505 15.9057 52.2791 16.3303 52.6914 16.7605C52.7964 16.8449 52.8809 16.9518 52.9389 17.0734C52.9968 17.1949 53.0266 17.328 53.026 17.4626C53.0255 17.5972 52.9946 17.73 52.9357 17.8511C52.8768 17.9722 52.7913 18.0784 52.6857 18.162L52.5594 18.2899C51.7185 19.1438 50.8483 20.0263 49.9699 20.872C49.5547 21.2917 48.9909 21.5308 48.4006 21.5377ZM38.4224 11.3436C37.9795 11.3494 37.5421 11.4426 37.1353 11.6176C36.7284 11.7926 36.3601 12.0462 36.0513 12.3637L36.0048 12.4094C35.8769 12.534 35.7449 12.6636 35.6219 12.794C35.55 12.8577 35.4924 12.9358 35.4529 13.0233C35.4133 13.1107 35.3926 13.2056 35.3921 13.3016C35.4166 13.3915 35.4598 13.4753 35.5189 13.5473C35.578 13.6193 35.6517 13.6781 35.7351 13.7196L35.7441 13.7253C39.555 16.0573 43.4971 18.4683 47.3772 20.8272C47.6826 21.0209 48.0358 21.1258 48.3974 21.1303C48.8826 21.1236 49.3457 20.926 49.6864 20.5803C50.5615 19.7386 51.4293 18.8578 52.2685 18.0063L52.3948 17.8784C52.4632 17.8324 52.5193 17.7703 52.558 17.6976C52.5968 17.6248 52.617 17.5437 52.617 17.4612C52.617 17.3788 52.5968 17.2976 52.558 17.2249C52.5193 17.1521 52.4632 17.09 52.3948 17.044C51.9874 16.6179 51.5588 16.1958 51.1555 15.8006C51.0471 15.6624 50.8894 15.5716 50.7155 15.5472C50.5557 15.5659 50.4043 15.6285 50.2779 15.7281C50.1231 15.8292 49.9675 15.9351 49.8159 16.0377C49.5234 16.2357 49.2211 16.4403 48.9123 16.6277C48.8055 16.6869 48.685 16.7173 48.5628 16.7157C48.4637 16.7185 48.3658 16.6937 48.28 16.644C47.5043 16.1437 46.7474 15.6377 45.9464 15.1015L45.2587 14.6371L45.0794 14.5173L45.5227 13.9257C45.8209 13.5281 46.1069 13.146 46.3921 12.763C46.7645 12.2652 46.9885 11.9645 46.9722 11.7665C46.9559 11.5685 46.6862 11.3069 46.2389 10.8702C46.1792 10.8003 46.1062 10.743 46.024 10.7017C45.9419 10.6604 45.8523 10.636 45.7606 10.6298C45.6352 10.6352 45.513 10.671 45.4045 10.7341C44.8277 11.0348 44.2353 11.3273 43.6625 11.61L43.0025 11.936C42.8802 11.9971 42.758 12.0737 42.626 12.1543C42.3314 12.3823 41.9771 12.5201 41.6059 12.5512C41.2234 12.4936 40.8643 12.3312 40.5686 12.0818C40.4464 12.0003 40.3307 11.9189 40.215 11.852C39.6732 11.5263 39.0545 11.3508 38.4224 11.3436ZM48.4014 20.1045C48.1502 20.091 47.908 20.0062 47.7031 19.86C45.7182 18.6378 43.6967 17.4058 41.7419 16.2129L40.0545 15.1838L36.774 13.1786L36.9272 12.9969C37.1141 12.7861 37.3447 12.6186 37.6029 12.506C37.8611 12.3934 38.1408 12.3385 38.4224 12.345C38.8309 12.3469 39.2322 12.4529 39.5884 12.653C40.0699 12.9227 40.5662 13.2234 41.1056 13.5648C41.2317 13.6527 41.3805 13.7023 41.5342 13.7074C41.674 13.7028 41.8107 13.6645 41.9326 13.5957C43.1459 12.9683 44.1807 12.4786 45.1919 12.0557L45.8812 11.7665L44.483 13.6357L44.3265 13.8443C44.2312 13.9714 44.1318 14.1026 44.0381 14.2321C43.9768 14.2998 43.9295 14.3789 43.8989 14.4649C43.8683 14.5509 43.8549 14.6421 43.8597 14.7332C43.8859 14.8182 43.9287 14.8972 43.9856 14.9656C44.0425 15.034 44.1124 15.0904 44.1913 15.1317C44.8496 15.5741 45.5211 16.0206 46.1696 16.4533C46.8402 16.8998 47.5345 17.3618 48.214 17.8189C48.3221 17.9001 48.4522 17.9467 48.5872 17.9526C48.7228 17.9469 48.8533 17.899 48.9604 17.8157C49.2236 17.6323 49.4965 17.4531 49.7597 17.2803L50.0253 17.1052C50.1864 16.9645 50.3843 16.8729 50.5957 16.8412C50.8304 16.8412 50.9681 17.0139 51.2435 17.3577L51.3576 17.5003L51.2296 17.6307L50.6519 18.21C50.0971 18.7666 49.5731 19.2921 49.0329 19.825C48.9519 19.9118 48.8542 19.9812 48.7457 20.0293C48.6372 20.0773 48.5201 20.1029 48.4014 20.1045ZM37.4112 13.0922L40.2631 14.8359L41.9579 15.8674C43.9134 17.0612 45.935 18.2956 47.9199 19.5154C48.0616 19.6177 48.2282 19.6802 48.4022 19.6963C48.4674 19.6939 48.5314 19.6783 48.5902 19.6503C48.6491 19.6222 48.7016 19.5824 48.7445 19.5333C49.2839 19.0012 49.8037 18.474 50.3611 17.9208L50.81 17.4702C50.751 17.384 50.6777 17.3085 50.5933 17.2469C50.4708 17.2966 50.3557 17.3626 50.2511 17.4433L49.9838 17.6193C49.7231 17.7904 49.4525 17.9672 49.1942 18.1481C49.0224 18.2831 48.8106 18.3571 48.5921 18.3584C48.3736 18.3597 48.1609 18.2883 47.9875 18.1554C47.3079 17.6983 46.6145 17.2372 45.9448 16.7906C45.2929 16.358 44.6239 15.9114 43.9648 15.4682C43.8392 15.3982 43.7294 15.303 43.6423 15.1886C43.5553 15.0742 43.4928 14.943 43.4588 14.8033C43.4416 14.6576 43.455 14.51 43.4979 14.3697C43.5408 14.2295 43.6124 14.0996 43.7081 13.9885C43.8042 13.8549 43.9045 13.722 44.0014 13.5933L44.1571 13.3863L44.6459 12.7288C43.8629 13.0767 43.0432 13.4743 42.12 13.951C41.9404 14.0502 41.7393 14.1042 41.5342 14.1083C41.3031 14.104 41.0782 14.0323 40.8872 13.9021C40.3535 13.5623 39.8638 13.2682 39.3896 13.0058C39.0942 12.8398 38.7613 12.7517 38.4224 12.75C38.056 12.7443 37.6989 12.8652 37.4112 13.0922Z" fill="black"/>
<path d="M51.0684 25.149L50.0555 22.7046L51.2778 22.0869C52.5356 24.5824 53.2783 27.3056 53.4615 30.0941L52.1138 30.1756C51.9573 29.1978 51.8253 28.2738 51.6566 27.3539C51.5214 26.6124 51.501 26.6206 50.7604 26.5489C47.5589 26.2669 44.5506 24.8973 42.2358 22.6679C41.7338 22.1945 41.258 21.6901 40.7634 21.2126C40.6921 21.1175 40.6004 21.0396 40.495 20.9845C40.3897 20.9294 40.2734 20.8985 40.1546 20.8941C40.0358 20.8898 39.9176 20.912 39.8085 20.9592C39.6994 21.0064 39.6022 21.0774 39.5241 21.167C39.3106 21.3708 39.0583 21.5296 38.7822 21.6339C38.5061 21.7382 38.2118 21.7859 37.9169 21.7741C37.622 21.7623 37.3325 21.6913 37.0656 21.5653C36.7987 21.4393 36.5599 21.2609 36.3634 21.0407C36.0402 20.6918 35.6497 20.4119 35.2154 20.218C34.7812 20.0241 34.3121 19.9203 33.8365 19.9126C33.361 19.905 32.8889 19.9938 32.4486 20.1737C32.0083 20.3536 31.609 20.6208 31.2749 20.9592C30.9609 21.2755 30.5863 21.5251 30.1736 21.6931C29.7608 21.8611 29.3184 21.9441 28.8728 21.937V20.5608C29.4732 20.5095 30.0349 20.243 30.4544 19.8103C31.3646 18.9692 32.5594 18.5036 33.7988 18.5071C35.0382 18.5106 36.2303 18.9828 37.1358 19.8291C37.2336 19.9171 37.3249 20.0124 37.4235 20.1004C37.4946 20.1803 37.5815 20.2447 37.6785 20.2896C37.7756 20.3345 37.8809 20.3591 37.9878 20.3617C38.0948 20.3643 38.2011 20.3449 38.3003 20.3047C38.3994 20.2645 38.4892 20.2044 38.5642 20.1281C38.7825 19.9066 39.0454 19.734 39.3355 19.6218C39.6255 19.5096 39.9361 19.4602 40.2467 19.4771C40.5572 19.494 40.8607 19.5767 41.1368 19.7196C41.413 19.8626 41.6557 20.0627 41.8487 20.3066C43.0556 21.6532 44.4687 22.7995 46.0352 23.7027C47.4153 24.4245 48.9106 24.9001 50.454 25.1083C50.6235 25.1319 50.7978 25.1303 51.0643 25.1457" fill="black"/>
<path d="M51.9377 30.3923L51.9084 30.2098C51.8595 29.9075 51.8138 29.6093 51.7682 29.3135C51.6655 28.6503 51.5678 28.0229 51.4529 27.3914C51.4414 27.2036 51.3891 27.0207 51.2997 26.8552C51.1301 26.785 50.9478 26.7509 50.7644 26.755H50.7391C47.4936 26.4645 44.4442 25.0763 42.0939 22.8194C41.799 22.5408 41.5089 22.2491 41.2286 21.968C41.0298 21.7683 40.8212 21.5606 40.6191 21.3617C40.4976 21.2149 40.3237 21.1211 40.1343 21.1002C39.952 21.1194 39.7815 21.1995 39.6503 21.3275C39.1906 21.7327 38.6031 21.9634 37.9905 21.9794C37.319 21.9571 36.6831 21.6725 36.2191 21.1866C35.5792 20.5235 34.704 20.1389 33.7828 20.1159C32.8947 20.1385 32.0474 20.4935 31.4084 21.1108C30.7602 21.7544 29.8887 22.123 28.9754 22.1399H28.863L28.6658 22.1334V20.3693L28.8605 20.3603C29.4146 20.3141 29.9324 20.0656 30.315 19.662C31.2626 18.7867 32.5062 18.3022 33.7963 18.3057C35.0863 18.3092 36.3273 18.8004 37.2702 19.6808C37.3199 19.7256 37.368 19.772 37.4152 19.8169C37.4625 19.8617 37.5098 19.9081 37.557 19.9505C37.6734 20.0731 37.831 20.1483 37.9995 20.1615C38.1629 20.1492 38.3174 20.082 38.4378 19.9709C38.9155 19.5492 39.523 19.3034 40.1595 19.2742C40.5104 19.2902 40.8542 19.3776 41.1702 19.531C41.4861 19.6844 41.7674 19.9006 41.997 20.1664C43.1898 21.4968 44.5854 22.6304 46.1321 23.5251C47.492 24.235 48.9648 24.7037 50.4849 24.9103C50.5664 24.9217 50.6544 24.9266 50.757 24.9314L50.6633 24.7057L49.8664 22.7803L49.7939 22.606L50.3969 22.3004L51.1815 21.9028L51.3641 21.8107L51.4553 21.9932C52.7281 24.5139 53.4789 27.2657 53.6627 30.0835L53.6773 30.2889L53.472 30.3011L52.3793 30.3671L51.9377 30.3923ZM40.1335 20.696C40.2801 20.705 40.4234 20.7428 40.5553 20.8074C40.6872 20.872 40.805 20.9621 40.9018 21.0725C41.1088 21.2737 41.3158 21.4799 41.5162 21.6828C41.7941 21.9623 42.0817 22.2532 42.3726 22.5253C44.6591 24.7181 47.625 26.0658 50.7807 26.346H50.8059C51.1978 26.3834 51.4146 26.4038 51.5759 26.5497C51.749 26.7681 51.8475 27.0363 51.857 27.3148C51.9735 27.952 52.0713 28.5818 52.1748 29.2483C52.2112 29.483 52.2481 29.7198 52.2856 29.9589L52.3565 29.9548L53.2414 29.9059C53.0449 27.2813 52.3459 24.719 51.1824 22.3583L50.581 22.663L50.3146 22.7983L51.039 24.5493L51.3795 25.3723L51.0536 25.3527C50.9615 25.347 50.8801 25.3437 50.8092 25.3405C50.6707 25.3348 50.5501 25.3299 50.4303 25.3136C48.8653 25.1005 47.349 24.6177 45.9488 23.8869C44.3637 22.9734 42.9336 21.8141 41.7118 20.4524C41.5191 20.2262 41.2826 20.0413 41.0165 19.9089C40.7504 19.7766 40.4603 19.6995 40.1636 19.6824C39.6199 19.7134 39.1028 19.928 38.697 20.2911C38.5055 20.4613 38.2611 20.56 38.0052 20.5706C37.736 20.5598 37.4809 20.4474 37.2914 20.256C37.2376 20.208 37.1863 20.1591 37.1374 20.111C37.0885 20.0629 37.0478 20.0246 37.003 19.9847C36.1348 19.1718 34.9909 18.7179 33.8016 18.7144C32.6122 18.711 31.4657 19.1581 30.5928 19.966C30.1808 20.377 29.6522 20.6513 29.0789 20.7514V21.7341C29.8567 21.692 30.5913 21.3634 31.1412 20.8117C31.8545 20.1262 32.7994 19.7336 33.7885 19.7117C34.8151 19.734 35.7916 20.1597 36.5067 20.8965C36.8936 21.3108 37.4289 21.5549 37.9954 21.5752C38.5143 21.5574 39.0105 21.3582 39.3977 21.0122C39.5989 20.8218 39.861 20.7086 40.1375 20.6928L40.1335 20.696Z" fill="black"/>
<path d="M19.9922 14.4504L20.7883 15.5602C17.0183 18.3042 14.337 22.2899 13.2162 26.816C12.0955 31.3421 12.607 36.1184 14.6609 40.3045L13.4672 40.9058C9.23582 33.1651 10.7587 20.982 19.9922 14.4504Z" fill="black"/>
<path d="M13.3831 41.1797L13.2886 41.0062C11.0907 36.7508 10.451 31.8604 11.4805 27.1828C11.9944 24.6855 12.9526 22.3007 14.3096 20.142C15.7596 17.8411 17.6507 15.85 19.8739 14.2835L20.0369 14.167L20.155 14.33L20.9511 15.4397L21.0676 15.6027L20.9047 15.7225C17.1728 18.4388 14.5189 22.3847 13.4101 26.8653C12.3013 31.346 12.8088 36.0742 14.8433 40.2174L14.9247 40.3967L14.7471 40.4863L13.555 41.0901L13.3831 41.1797ZM19.9407 14.7341C10.9101 21.2583 9.59259 33.1701 13.5526 40.6371L14.391 40.2125C13.4155 38.1526 12.7854 35.9462 12.5259 33.6818C12.052 29.0066 13.2168 24.3119 15.821 20.4003C17.1064 18.5269 18.6886 16.8756 20.5054 15.5114L19.9407 14.7341Z" fill="black"/>
<path d="M38.5372 50.4473C38.6496 50.796 38.7816 51.2091 38.9242 51.6581C37.0426 52.2773 35.0816 52.6222 33.1016 52.6823V51.4055L38.5372 50.4473Z" fill="black"/>
<path d="M32.9011 52.8933V51.2343L35.0025 50.8644L38.5062 50.2468L38.6814 50.2158L38.736 50.3853L38.9495 51.0526L39.185 51.786L38.9927 51.8487C37.093 52.4743 35.1129 52.8226 33.1138 52.8827L32.9011 52.8933ZM33.3085 51.5766V52.4729C35.1305 52.3997 36.9343 52.0821 38.6716 51.5285L38.56 51.1781L38.397 50.6803L35.0702 51.2669L33.3085 51.5766Z" fill="black"/>
<path d="M34.5544 10.5336C34.503 11.0119 34.4582 11.4445 34.4207 11.8014L28.9501 11.9904C28.889 11.6368 28.8132 11.1984 28.7317 10.7299C30.6536 10.3899 32.6139 10.3238 34.5544 10.5336Z" fill="black"/>
<path d="M28.7792 12.1998L28.749 12.0246L28.6243 11.3035L28.4956 10.5637L28.6969 10.5295C29.9077 10.3185 31.1344 10.2114 32.3635 10.2092C33.1037 10.2095 33.8433 10.2503 34.579 10.3315L34.7811 10.3535L34.7599 10.5555C34.7249 10.8815 34.6931 11.1854 34.6646 11.4583L34.6075 11.9994L34.4307 12.0059L28.956 12.1941L28.7792 12.1998ZM28.9666 10.8961L29.0252 11.2351L29.1198 11.7794L34.236 11.6026L34.2555 11.4143C34.2783 11.1984 34.3028 10.9637 34.3297 10.7136C33.6778 10.6484 33.0138 10.615 32.3603 10.615C31.2233 10.6169 30.0884 10.7109 28.9666 10.8961Z" fill="black"/>
<path d="M21.0604 30.8884H19.7029V47.0429H21.0604V30.8884Z" fill="black"/>
<path d="M19.499 30.6848H21.2639V47.2467H19.499V30.6848ZM20.8565 31.0922H19.9064V46.8393H20.8565V31.0922Z" fill="black"/>
<path d="M25.2883 30.8738H23.9341V47.0438H25.2883V30.8738Z" fill="black"/>
<path d="M23.7305 30.6702H25.4921V47.2516H23.7305V30.6702ZM25.0847 31.0776H24.1379V46.8442H25.0847V31.0776Z" fill="black"/>
<path d="M29.5263 30.8723H28.1704V47.0423H29.5263V30.8723Z" fill="black"/>
<path d="M27.9666 30.6685H29.7298V47.2499H27.9666V30.6685ZM29.3224 31.0759H28.374V46.8425H29.3224V31.0759Z" fill="black"/>
<path d="M46.4736 38.4002C46.4757 39.376 46.1882 40.3304 45.6476 41.1428C45.107 41.9551 44.3375 42.5888 43.4366 42.9637C42.5357 43.3385 41.5438 43.4376 40.5865 43.2485C39.6292 43.0593 38.7496 42.5904 38.0589 41.9011C37.3682 41.2118 36.8976 40.3331 36.7065 39.3762C36.5155 38.4193 36.6126 37.4272 36.9857 36.5255C37.3587 35.6239 37.9909 34.8531 38.8022 34.3109C39.6134 33.7687 40.5674 33.4793 41.5431 33.4795C42.8488 33.4804 44.1009 33.9987 45.0251 34.9211C45.9493 35.8434 46.4701 37.0945 46.4736 38.4002ZM41.3802 41.9283C41.9511 41.9459 42.5181 41.8292 43.0356 41.5876C43.5532 41.346 44.0068 40.9863 44.36 40.5374L43.1663 39.967L41.3802 41.9226M38.8787 40.7004C39.0311 39.9002 39.1834 39.1294 39.3154 38.3553C39.3179 38.3001 39.3074 38.245 39.2847 38.1945C39.2621 38.144 39.228 38.0994 39.1851 38.0645C38.8591 37.8787 38.5088 37.7271 38.1372 37.5479C37.9964 38.0955 37.9906 38.6692 38.1203 39.2195C38.25 39.7699 38.5114 40.2806 38.882 40.7077M44.1783 36.1448L43.7855 38.6943C44.1367 38.8638 44.5294 39.052 44.9263 39.2419C45.0899 38.7062 45.107 38.1365 44.9759 37.592C44.8448 37.0475 44.5702 36.548 44.1807 36.1456M41.6743 34.9282C41.1167 34.8794 40.5561 34.9807 40.0508 35.2216C39.5455 35.4624 39.1138 35.834 38.8005 36.2979L39.929 36.843L41.6743 34.9282ZM41.8691 39.3429L40.62 38.7432C40.5263 39.4276 40.4407 40.0583 40.3543 40.6898L40.523 40.755L41.8683 39.3437M42.7369 36.1301L42.5739 36.0543L41.2392 37.4713L42.4867 38.0653C42.578 37.3702 42.6586 36.751 42.7393 36.1309" fill="black"/>
<path d="M41.5325 43.5433C40.1747 43.5337 38.8754 42.9895 37.9159 42.0287C36.9565 41.0679 36.4142 39.7678 36.4065 38.4099C36.4084 37.0491 36.9499 35.7445 37.9122 34.7823C38.8744 33.82 40.179 33.2786 41.5398 33.2766H41.548C42.9094 33.2766 44.2151 33.8174 45.1778 34.7801C46.1405 35.7428 46.6813 37.0485 46.6813 38.4099C46.6813 39.7714 46.1405 41.0771 45.1778 42.0398C44.2151 43.0024 42.9094 43.5433 41.548 43.5433H41.5325ZM41.5431 33.684C40.2897 33.6826 39.0871 34.1792 38.1998 35.0645C37.3125 35.9498 36.8133 37.1513 36.8119 38.4047C36.8105 39.658 37.307 40.8607 38.1923 41.7479C39.0776 42.6352 40.2791 43.1345 41.5325 43.1359H41.548C42.8014 43.1359 44.0034 42.638 44.8897 41.7517C45.776 40.8654 46.2739 39.6633 46.2739 38.4099C46.2739 37.1566 45.776 35.9545 44.8897 35.0682C44.0034 34.1819 42.8014 33.684 41.548 33.684H41.5431ZM41.3801 42.132H40.9181L41.2253 41.7914L42.0287 40.9163L43.0146 39.8318L43.1165 39.7202L43.2526 39.7854L43.9264 40.1064L44.6834 40.4665L44.5147 40.6678C44.1422 41.1377 43.6655 41.5145 43.1224 41.7684C42.5792 42.0224 41.9844 42.1466 41.385 42.1312L41.3801 42.132ZM43.211 40.218L42.3261 41.1885L41.8609 41.6985C42.6934 41.6177 43.4654 41.2275 44.0242 40.6051L43.7488 40.4739L43.211 40.218ZM38.9935 41.1738L38.7206 40.8348C38.3291 40.3844 38.053 39.8456 37.9162 39.2647C37.7793 38.6838 37.7858 38.0784 37.9351 37.5006L37.9921 37.2562L38.2219 37.367L38.5201 37.5079C38.7858 37.6326 39.0359 37.7524 39.2812 37.8893C39.3622 37.9456 39.4267 38.0226 39.468 38.1123C39.5093 38.202 39.5258 38.3011 39.5158 38.3994C39.4115 39.0105 39.2966 39.6077 39.1752 40.24C39.1432 40.4084 39.1109 40.5776 39.0783 40.7477L38.9935 41.1738ZM38.2789 37.842C38.1272 38.6626 38.3008 39.5101 38.7629 40.205L38.7776 40.1585C38.8982 39.5295 39.0123 38.9363 39.1158 38.3301C39.1107 38.2956 39.0973 38.2629 39.0766 38.2348C38.8452 38.1044 38.604 37.9903 38.349 37.8714L38.2789 37.842ZM40.5726 40.9921L40.4463 40.944L40.2777 40.8788L40.1278 40.821L40.1481 40.658L40.2614 39.8269C40.3103 39.4659 40.3608 39.0936 40.4138 38.7114L40.452 38.4344L40.7038 38.555L41.306 38.8442L41.9529 39.1547L42.2063 39.2761L42.0124 39.479L41.1976 40.3321L40.5726 40.9921ZM40.782 39.0422L40.668 39.8807L40.6012 40.3696L40.9067 40.0494L41.5268 39.3975L41.1316 39.2077L40.782 39.0422ZM45.037 39.5181L44.8349 39.4203L44.311 39.1685L43.6966 38.8728L43.5614 38.8076L44.0299 35.7659L44.3037 35.9794C44.7265 36.4093 45.0254 36.9454 45.1688 37.5311C45.3123 38.1168 45.2949 38.7304 45.1185 39.3071L45.037 39.5181ZM44.0095 38.5721L44.487 38.8019L44.7966 38.9502C44.8766 38.5423 44.8754 38.1226 44.793 37.7152C44.7107 37.3078 44.5488 36.9206 44.3167 36.5758L44.0095 38.5721ZM42.6488 38.3635L40.8961 37.5324L41.4755 36.9172L42.4231 35.9117L42.5233 35.8058L42.6561 35.8661L42.7376 35.9052L42.8191 35.9427L42.956 36.0054L42.8305 36.9645C42.7832 37.3246 42.7352 37.6978 42.6838 38.0897L42.6488 38.3635ZM41.5757 37.4045L42.318 37.7581L42.4288 36.9107L42.4915 36.4332L41.772 37.1967L41.5757 37.4045ZM39.9754 37.0867L39.8385 37.0207L39.2909 36.7608L38.71 36.4805L38.5152 36.3868L38.6212 36.1977C38.9222 35.7421 39.3308 35.3675 39.8108 35.107C40.2908 34.8466 40.8275 34.7082 41.3736 34.7042C41.4826 34.704 41.5915 34.7111 41.6995 34.7254L42.0849 34.7767L39.9754 37.0867ZM39.0946 36.2091L39.4678 36.3892L39.8752 36.5872L41.222 35.1156C40.8115 35.1444 40.4111 35.2566 40.0453 35.4453C39.6795 35.634 39.356 35.8953 39.0946 36.2132V36.2091Z" fill="black"/>
<path d="M34.6904 44.4853C34.8949 44.0592 35.0832 43.6705 35.2983 43.2183L41.6465 46.2649L41.0395 47.5351L34.6904 44.4853Z" fill="black"/>
<path d="M41.1364 47.8049L40.9515 47.7194L35.4572 45.0794L34.4199 44.5807L34.7328 43.9289L35.115 43.1312L35.203 42.947L36.1164 43.3854L41.7345 46.0816L41.9179 46.1696L41.8299 46.3529L41.2244 47.6208L41.1364 47.8049ZM34.9626 44.3901L35.6332 44.716L40.9433 47.2672L41.3744 46.3644L35.9396 43.757L35.3936 43.4946L35.0995 44.1081L34.9626 44.3901Z" fill="black"/>
</g>
</g>
<defs>
<clipPath id="clip0_2350_5546">
<rect width="44" height="44" fill="white" transform="translate(10 10)"/>
</clipPath>
</defs>
</svg>
