<svg width="65" height="64" viewBox="0 0 65 64" fill="none" xmlns="http://www.w3.org/2000/svg">
<rect x="0.333252" width="64" height="64" rx="8" fill="#EAF3FF"/>
<g clip-path="url(#clip0_2383_29961)">
<path d="M10.3333 32.357C10.5737 32.2368 10.8041 32.0264 11.0546 32.0064C11.4052 31.9663 11.6156 32.2869 11.6256 32.7177C11.6256 33.419 11.6256 34.1202 11.6256 34.8516H53.0409V34.3607C53.0409 29.3315 53.0409 24.3124 53.0409 19.2832C53.0409 19.143 53.0409 18.9927 53.0409 18.8525C53.081 18.4818 53.3415 18.2414 53.6921 18.2514C54.0628 18.2614 54.2631 18.4818 54.3132 18.8324C54.3333 18.9426 54.3132 19.0628 54.3132 19.173C54.3132 25.4144 54.3132 31.6557 54.3132 37.8971C54.3132 40.4217 52.6502 42.0847 50.1156 42.0847C46.1884 42.0847 42.2713 42.0847 38.3442 42.0847C38.1739 42.0847 38.0036 42.0847 37.8232 42.0847V47.204C38.6948 47.204 39.5464 47.194 40.3979 47.204C41.4198 47.2241 42.3114 47.8853 42.622 48.857C43.1329 50.4099 41.9908 51.9927 40.3178 52.0128C38.8251 52.0328 37.3424 52.0128 35.8497 52.0128C31.652 52.0128 27.4644 52.0128 23.2668 52.0128C21.9444 52.0128 20.9726 51.1913 20.7722 49.939C20.5518 48.5665 21.6238 47.2541 23.0263 47.214C23.8979 47.194 24.7695 47.214 25.6711 47.214V42.0947C25.4908 42.0947 25.3205 42.0947 25.1502 42.0947C21.6438 42.0947 18.1375 42.0947 14.6311 42.0947C12.3169 42.0947 10.9544 41.0328 10.3733 38.7787C10.3733 38.7587 10.3433 38.7386 10.3232 38.7086C10.3232 36.5847 10.3232 34.4709 10.3232 32.347L10.3333 32.357ZM53.0309 36.204H11.6256C11.6256 36.9554 11.5956 37.6667 11.6256 38.388C11.6657 39.0993 11.9963 39.7004 12.5473 40.1712C13.1283 40.6822 13.8196 40.8124 14.581 40.8124C26.4125 40.8124 38.234 40.8124 50.0655 40.8124C50.2258 40.8124 50.3761 40.8124 50.5364 40.8024C51.8487 40.7222 52.9307 39.6904 53.0109 38.388C53.0609 37.6767 53.0109 36.9554 53.0109 36.214L53.0309 36.204ZM27.0236 47.194C27.1839 47.194 27.3242 47.214 27.4644 47.214C28.366 47.214 29.2677 47.214 30.1693 47.214C30.6402 47.214 30.9307 47.4545 30.9407 47.8251C30.9507 48.2159 30.6502 48.4864 30.1593 48.4964C29.7586 48.4964 29.3579 48.4964 28.9571 48.4964C27.0436 48.4964 25.1201 48.4964 23.2067 48.4964C22.5455 48.4964 22.0646 48.9572 22.0446 49.5683C22.0245 50.1794 22.5154 50.6904 23.1866 50.7204C23.2768 50.7204 23.3569 50.7204 23.4471 50.7204C28.9872 50.7204 34.5273 50.7204 40.0673 50.7204C40.2076 50.7204 40.3579 50.7204 40.4981 50.7004C41.1793 50.6002 41.6001 49.9791 41.4398 49.3179C41.3196 48.8069 40.8688 48.4864 40.2376 48.4864C37.9635 48.4864 35.6894 48.4864 33.4052 48.4864C32.8642 48.4864 32.5737 48.2459 32.5837 47.8251C32.5837 47.4244 32.8642 47.204 33.3852 47.204C34.2768 47.204 35.1584 47.204 36.05 47.204C36.2003 47.204 36.3506 47.194 36.4908 47.184V42.1248H27.0236V47.194Z" fill="black"/>
<path d="M10.3333 15.4262C10.5336 14.6448 10.8041 13.9035 11.3752 13.2924C12.1466 12.4709 13.0983 12.0501 14.2203 12C14.2604 12 14.3105 12 14.3506 12C26.3323 12 38.3141 12 50.3059 12C52.3797 12 53.9926 13.4126 54.2932 15.4763C54.3132 15.6066 54.3232 15.7368 54.3232 15.857C54.3232 16.2878 54.0728 16.5783 53.7021 16.5883C53.3314 16.5984 53.071 16.3279 53.0309 15.8971C52.9007 14.2842 51.8187 13.2823 50.2058 13.2823C38.2941 13.2823 26.3824 13.2823 14.4708 13.2823C12.7477 13.2823 11.6156 14.4144 11.6156 16.1275C11.6156 20.5756 11.6156 25.0337 11.6156 29.4818C11.6156 30.0929 11.2349 30.4536 10.754 30.2632C10.5937 30.2031 10.4635 30.0428 10.3232 29.9326C10.3232 25.0938 10.3232 20.255 10.3232 15.4062L10.3333 15.4262Z" fill="black"/>
<path d="M22.906 15.4362C25.1201 15.4362 27.3441 15.4362 29.5581 15.4362C30.8705 15.4362 31.6419 16.2076 31.6419 17.52C31.6419 20.245 31.6419 22.9599 31.6419 25.6849C31.6419 26.9772 30.8805 27.7386 29.5882 27.7386C27.9152 27.7386 26.2421 27.7386 24.5591 27.7386C24.0181 27.7386 23.7275 27.4982 23.7275 27.0874C23.7275 26.6767 24.0281 26.4463 24.5691 26.4463C26.2121 26.4463 27.8651 26.4463 29.5081 26.4463C30.1693 26.4463 30.3396 26.2659 30.3396 25.6047C30.3396 22.9299 30.3396 20.255 30.3396 17.5701C30.3396 16.9189 30.1492 16.7286 29.498 16.7286C25.09 16.7286 20.682 16.7286 16.274 16.7286C15.6529 16.7286 15.4625 16.929 15.4625 17.5501C15.4625 20.245 15.4625 22.9299 15.4625 25.6248C15.4625 26.2559 15.6428 26.4463 16.274 26.4463C17.8869 26.4463 19.5099 26.4463 21.1228 26.4463C21.2631 26.4463 21.4133 26.4463 21.5536 26.4663C21.9042 26.5464 22.1046 26.7869 22.0745 27.1475C22.0445 27.4882 21.8341 27.6985 21.4835 27.7186C21.1829 27.7386 20.8824 27.7186 20.5818 27.7186C19.1192 27.7186 17.6565 27.7186 16.2039 27.7186C14.9416 27.7186 14.1702 26.9472 14.1702 25.6849C14.1702 22.9499 14.1702 20.2149 14.1702 17.48C14.1702 16.1976 14.9516 15.4262 16.2339 15.4262C18.4479 15.4262 20.672 15.4262 22.886 15.4262L22.906 15.4362Z" fill="black"/>
<path d="M22.906 33.0082C20.3113 33.0082 17.7266 33.0082 15.1319 33.0082C14.3705 33.0082 14.2002 32.8379 14.1902 32.0765C14.1902 31.4454 14.1902 30.8142 14.1902 30.1831C14.1902 29.3616 14.3505 29.2013 15.162 29.2013C19.4598 29.2013 23.7476 29.2013 28.0454 29.2013C28.957 29.2013 29.8787 29.2013 30.7904 29.2013C31.4315 29.2013 31.6419 29.4117 31.6419 30.0428C31.6419 30.7341 31.6419 31.4153 31.6419 32.1066C31.6419 32.8079 31.4516 33.0082 30.7503 33.0082C28.1255 33.0082 25.5108 33.0082 22.886 33.0082H22.906ZM22.2649 30.5137H15.5126V31.6858H22.2649V30.5137ZM26.733 30.5137H23.5973V31.6958H26.733V30.5137ZM30.3496 30.5137H28.0554V31.6958H30.3496V30.5137Z" fill="black"/>
<path d="M40.3979 29.2013C40.6384 27.7186 41.2595 27.0474 42.3314 27.0374C43.4134 27.0374 44.0446 27.7086 44.295 29.2013C44.4453 29.2013 44.5956 29.2013 44.7458 29.2013C46.5591 29.2013 48.3824 29.2013 50.1957 29.2013C50.326 29.2013 50.4562 29.2013 50.5865 29.2013C50.9571 29.2414 51.2176 29.5119 51.2176 29.8425C51.2176 30.1931 50.9471 30.4736 50.5464 30.4736C49.4544 30.4736 48.3724 30.4736 47.2804 30.4736C46.2987 30.4736 45.3069 30.4736 44.2549 30.4736C44.2549 31.225 44.0746 31.9062 43.4134 32.2969C43.0828 32.4873 42.6721 32.6275 42.2914 32.6275C41.2495 32.6476 40.7486 32.0465 40.3779 30.4736C40.2376 30.4736 40.0773 30.4736 39.9271 30.4736C38.0837 30.4736 36.2303 30.4736 34.387 30.4736C33.7659 30.4736 33.4653 30.2532 33.4753 29.8224C33.4753 29.4017 33.7959 29.1913 34.4171 29.1913C36.2504 29.1913 38.0837 29.1913 39.9171 29.1913C40.0773 29.1913 40.2276 29.1913 40.3979 29.1913V29.2013ZM42.9526 29.8525C42.9526 29.5519 42.9726 29.2514 42.9526 28.9508C42.9225 28.5601 42.662 28.2996 42.3314 28.3297C41.9608 28.3598 41.7604 28.5802 41.7504 28.9408C41.7404 29.5419 41.7404 30.133 41.7504 30.7341C41.7504 31.0947 41.9508 31.3252 42.3214 31.3552C42.662 31.3853 42.9225 31.1348 42.9526 30.7441C42.9726 30.4435 42.9526 30.143 42.9526 29.8425V29.8525Z" fill="black"/>
<path d="M49.5345 24.9435C49.4544 26.2559 48.7331 27.0373 47.6211 27.0373C46.5191 27.0373 45.7978 26.2459 45.7076 24.8734C45.5473 24.8734 45.377 24.8734 45.2167 24.8734C41.6502 24.8734 38.0937 24.8734 34.5273 24.8734C34.4171 24.8734 34.2968 24.8734 34.1866 24.8734C33.7559 24.8534 33.4753 24.5929 33.4854 24.2222C33.4854 23.8515 33.7659 23.5911 34.1967 23.5911C35.469 23.5911 36.7413 23.5911 38.0136 23.5911C40.418 23.5911 42.8223 23.5911 45.2267 23.5911H45.6775C45.8979 22.1184 46.499 21.4472 47.581 21.4271C48.693 21.4071 49.2941 22.0483 49.5646 23.5911C49.8651 23.5911 50.1757 23.5911 50.4863 23.5911C50.9171 23.6011 51.1976 23.8616 51.1976 24.2322C51.1976 24.5929 50.907 24.8634 50.4863 24.8734C50.1857 24.8834 49.8852 24.8834 49.5846 24.8934C49.5646 24.8934 49.5446 24.9235 49.5245 24.9435H49.5345ZM47.03 24.2022C47.03 24.4827 47.03 24.7732 47.03 25.0537C47.03 25.0838 47.03 25.1138 47.03 25.1439C47.0701 25.5046 47.2604 25.725 47.6311 25.745C47.9517 25.765 48.2222 25.5046 48.2322 25.1539C48.2522 24.5428 48.2522 23.9317 48.2322 23.3106C48.2322 22.9399 48.0118 22.7195 47.6411 22.7195C47.2704 22.7195 47.06 22.9399 47.04 23.3005C47.02 23.6011 47.04 23.9016 47.04 24.2022H47.03Z" fill="black"/>
<path d="M35.2786 19.2332C34.9079 19.2332 34.5473 19.2332 34.1966 19.2332C33.7558 19.2231 33.4854 18.9727 33.4854 18.602C33.4854 18.2313 33.7659 17.9709 34.1966 17.9608C34.5473 17.9508 34.9079 17.9608 35.2486 17.9608C35.5992 16.378 36.2203 15.7368 37.2923 15.7969C38.3442 15.857 39.0054 16.6084 39.1356 17.9608H39.6265C43.1329 17.9608 46.6393 17.9608 50.1456 17.9608C50.887 17.9608 51.2076 18.1512 51.2176 18.592C51.2276 19.0428 50.907 19.2432 50.1757 19.2432C46.6693 19.2432 43.1629 19.2432 39.6566 19.2432C39.4863 19.2432 39.316 19.2432 39.1557 19.2432C38.9152 20.7459 38.244 21.4572 37.162 21.4171C36.0901 21.3771 35.4489 20.6658 35.2786 19.2432V19.2332ZM36.611 18.5519C36.611 18.8825 36.611 19.2131 36.611 19.5337C36.6211 19.8843 36.8415 20.0947 37.1821 20.1148C37.5027 20.1348 37.7731 19.9545 37.7932 19.6339C37.8333 18.9526 37.8333 18.2714 37.7932 17.5902C37.7731 17.2696 37.5227 17.0792 37.1921 17.0893C36.8515 17.0993 36.6311 17.2996 36.611 17.6603C36.591 17.9608 36.611 18.2614 36.611 18.5619V18.5519Z" fill="black"/>
<path d="M19.8806 21.5975C19.8806 20.7559 19.8806 19.9044 19.8806 19.0628C19.8806 18.2714 20.3415 17.9909 21.0227 18.3816C22.4954 19.2332 23.9681 20.0847 25.4407 20.9363C26.1019 21.3169 26.112 21.8579 25.4508 22.2386C23.9681 23.1002 22.4854 23.9618 20.9926 24.8133C20.3615 25.174 19.8806 24.9035 19.8706 24.1822C19.8706 23.3206 19.8706 22.469 19.8706 21.6075L19.8806 21.5975ZM24.0181 21.5874C23.0564 21.0264 22.1447 20.5055 21.203 19.9645V23.2104C22.1648 22.6594 23.0664 22.1384 24.0181 21.5874Z" fill="black"/>
<path d="M32.3032 39.1394C31.8924 39.1394 31.4717 39.1394 31.0609 39.1394C30.6301 39.1293 30.3596 38.8689 30.3496 38.4982C30.3496 38.1175 30.6201 37.857 31.0509 37.857C31.9125 37.857 32.774 37.857 33.6256 37.857C34.0363 37.857 34.2968 38.1075 34.3068 38.4681C34.3168 38.8488 34.0563 39.1193 33.6256 39.1394C33.1848 39.1494 32.7339 39.1394 32.2931 39.1394H32.3032Z" fill="black"/>
</g>
<defs>
<clipPath id="clip0_2383_29961">
<rect width="44" height="44" fill="white" transform="translate(10.3333 10)"/>
</clipPath>
</defs>
</svg>
