<svg width="64" height="64" viewBox="0 0 64 64" fill="none" xmlns="http://www.w3.org/2000/svg">
<rect width="64" height="64" rx="8" fill="#EAF3FF"/>
<g clip-path="url(#clip0_2350_5330)">
<mask id="mask0_2350_5330" style="mask-type:luminance" maskUnits="userSpaceOnUse" x="10" y="10" width="44" height="44">
<path d="M54 10H10V54H54V10Z" fill="white"/>
</mask>
<g mask="url(#mask0_2350_5330)">
<path d="M10.4072 37.6693C10.5432 37.463 10.7336 37.2982 10.9574 37.1933C11.1811 37.0883 11.4295 37.0472 11.6751 37.0745C13.2126 37.103 14.751 37.0834 16.2894 37.0851C17.0032 37.0851 17.2672 37.288 17.4692 38.0156L20.0807 37.5886C20.1068 37.5463 20.1329 37.5071 20.1622 37.4599C19.7474 37.0761 19.3156 36.7086 18.9204 36.3053C17.2354 34.5492 16.1308 32.3176 15.7561 29.9129C15.3814 27.5082 15.7547 25.0464 16.8255 22.8609C16.919 22.6517 17.0868 22.4847 17.2965 22.3923C17.4051 22.3702 17.5175 22.3751 17.6238 22.4067C17.7301 22.4382 17.827 22.4954 17.906 22.5732C17.9659 22.6892 18.0012 22.8163 18.0098 22.9465C18.0183 23.0768 17.9999 23.2074 17.9557 23.3302C17.4372 24.4042 17.0981 25.5558 16.9518 26.7394C16.7405 28.2619 16.8695 29.8123 17.3294 31.279C17.7892 32.7458 18.5686 34.0923 19.6114 35.2216C20.2062 35.8783 20.8385 36.5033 21.474 37.1201C21.5433 37.1758 21.6231 37.2172 21.7086 37.2417C21.7941 37.2662 21.8836 37.2733 21.9719 37.2627C23.6667 36.9914 25.3599 36.7135 27.049 36.4104C28.71 36.154 30.4052 36.2251 32.0389 36.6198C32.716 36.7624 33.407 36.8406 34.076 37.0085C34.6962 37.1103 35.2756 37.3835 35.7488 37.7971C36.2221 38.2108 36.5703 38.7484 36.7543 39.3494C36.8518 39.6915 36.874 40.0506 36.8195 40.4021C36.765 40.7535 36.635 41.089 36.4385 41.3855C36.242 41.682 35.9837 41.9324 35.6812 42.1195C35.3787 42.3066 35.0393 42.4259 34.6863 42.4694C33.9741 42.5578 33.2538 42.5578 32.5417 42.4694C31.5492 42.3879 30.5617 42.2331 29.5733 42.1019C28.9426 42.0204 28.5825 42.2339 28.4855 42.7692C28.3967 43.2516 28.73 43.6386 29.328 43.747C31.2771 44.09 33.2172 44.5137 35.18 44.7329C36.0906 44.7328 36.9972 44.6142 37.8771 44.3801C37.9814 44.3638 38.0726 44.2351 38.159 44.1471C41.0369 41.204 43.9678 38.3106 46.7765 35.3031C49.6373 32.2394 50.2476 28.6126 49.0515 24.6412C49.0343 24.5885 49.0128 24.5372 48.9871 24.488C48.9726 24.4658 48.955 24.4458 48.9349 24.4286C47.9212 24.9234 46.8088 25.183 45.6808 25.1881C44.5527 25.1932 43.4381 24.9437 42.4199 24.4581C41.4017 23.9725 40.5062 23.2633 39.8002 22.3835C39.0942 21.5037 38.5959 20.4759 38.3423 19.3767C37.9887 19.5397 37.6408 19.6929 37.3035 19.8656C36.2403 20.438 35.2738 21.1741 34.4394 22.0468C33.3565 23.1281 33.1161 23.1371 32.0414 22.0468C30.5934 20.4777 28.7001 19.389 26.6155 18.9269C25.3916 18.6207 24.1088 18.6407 22.895 18.9848C21.6812 19.3289 20.5788 19.9852 19.6977 20.8882C19.336 21.2483 19.0084 21.2899 18.72 21.0202C18.4315 20.7505 18.4584 20.3683 18.8218 20.0057C19.8737 18.9279 21.1945 18.1505 22.6475 17.7542C24.1005 17.3578 25.633 17.3568 27.0865 17.7511C29.192 18.2401 31.113 19.3229 32.6215 20.8711C32.7992 21.0454 32.9776 21.2198 33.1569 21.3942C33.1758 21.4094 33.1963 21.4225 33.218 21.4333C33.8245 20.8479 34.4656 20.2994 35.1377 19.7906C36.0196 19.2236 36.9329 18.7067 37.873 18.2425C38.1044 18.1211 38.1989 18.0225 38.1989 17.7626C38.1969 16.7063 38.4267 15.6624 38.872 14.7046C39.0985 14.2157 39.4008 14.0527 39.7683 14.2075C40.1488 14.3705 40.2311 14.7233 40.0078 15.2293C39.4795 16.3805 39.3198 17.6669 39.5505 18.9123C39.7812 20.1578 40.3911 21.3016 41.2967 22.1872C42.2024 23.0728 43.3595 23.6569 44.6098 23.8597C45.8602 24.0625 47.1426 23.874 48.2817 23.3201C49.4208 22.7661 50.361 21.8737 50.9735 20.765C51.5861 19.6563 51.8411 18.3854 51.7037 17.1263C51.5663 15.8671 51.0433 14.6811 50.2061 13.7305C49.3689 12.78 48.2584 12.1113 47.0266 11.816C46.1491 11.5977 45.2337 11.5796 44.3483 11.7629C43.4628 11.9463 42.6299 12.3265 41.9112 12.8753C41.4875 13.1841 41.2129 13.2053 40.9424 12.9503C40.8723 12.8826 40.8188 12.7996 40.7862 12.7077C40.7536 12.6159 40.7427 12.5177 40.7545 12.4209C40.7663 12.3242 40.8003 12.2315 40.854 12.1501C40.9077 12.0688 40.9795 12.001 41.0638 11.9521C42.0433 11.1697 43.2147 10.6643 44.4559 10.4887C46.3538 10.1802 48.2969 10.6304 49.8658 11.742C51.4348 12.8536 52.5037 14.5375 52.842 16.4303C53.1116 17.7155 53.0205 19.0502 52.5789 20.2869C52.1373 21.5235 51.3623 22.614 50.3397 23.4377C50.2356 23.508 50.1607 23.6138 50.1291 23.7353C50.0974 23.8568 50.1112 23.9857 50.1678 24.0977C51.6344 28.7308 50.8245 32.879 47.4365 36.4267C45.1306 38.8426 42.7733 41.2097 40.4397 43.5971C40.3582 43.6834 40.2816 43.7771 40.1366 43.9434C41.1909 43.7388 42.1516 43.5539 43.1115 43.364C43.7755 43.232 44.4339 43.0544 45.1037 42.9688C45.5294 42.9169 45.9608 42.9373 46.3797 43.0291C46.7544 43.0963 47.1063 43.2563 47.4032 43.4946C47.7001 43.7329 47.9325 44.0418 48.0791 44.3931C48.2257 44.7444 48.2819 45.1269 48.2426 45.5056C48.2032 45.8842 48.0695 46.2469 47.8537 46.5606C47.3808 47.3055 46.6439 47.8442 45.7906 48.0688C42.5096 49.1172 39.2294 50.168 35.95 51.2213C35.1206 51.4869 34.2873 51.7411 33.4502 51.984C31.8787 52.4173 30.2164 52.3945 28.6575 51.918C25.0177 50.9092 21.3706 49.9266 17.7259 48.9349C17.6444 48.9137 17.567 48.9064 17.4912 48.8934C17.1849 49.6748 16.9909 49.806 16.1606 49.806C14.6361 49.806 13.1116 49.7946 11.5871 49.8125C11.3451 49.8406 11.1004 49.7911 10.8883 49.6712C10.6763 49.5512 10.5078 49.367 10.4072 49.1451V37.6693ZM17.4269 47.5285C17.5458 47.5709 17.6469 47.6149 17.7528 47.6443C21.5677 48.6861 25.3833 49.7277 29.1993 50.7691C30.4541 51.1526 31.7934 51.1619 33.0534 50.796C37.2757 49.4727 41.4913 48.1269 45.7001 46.7585C46.0881 46.6137 46.4284 46.3644 46.6836 46.0383C46.8364 45.892 46.9419 45.7033 46.9865 45.4965C47.0311 45.2897 47.0128 45.0743 46.9339 44.8781C46.855 44.6818 46.7191 44.5137 46.5438 44.3953C46.3685 44.2769 46.1618 44.2137 45.9503 44.2139C45.7051 44.1728 45.455 44.1695 45.2088 44.2041C44.7729 44.2709 44.3443 44.3907 43.91 44.4763C41.8061 44.8918 39.7055 45.3228 37.596 45.7083C36.7671 45.9233 35.9108 46.0129 35.0554 45.9739C32.9589 45.7066 30.8762 45.3041 28.8 44.8959C28.2913 44.767 27.8508 44.4492 27.5679 44.0071C27.2851 43.5651 27.1812 43.0319 27.2774 42.516C27.3736 42 27.6626 41.5401 28.0858 41.2297C28.5089 40.9192 29.0344 40.7815 29.5554 40.8446C30.5332 40.9595 31.5028 41.1217 32.4814 41.2048C33.1768 41.3019 33.8824 41.3019 34.5779 41.2048C34.8075 41.1686 35.0223 41.0688 35.1981 40.9167C35.3738 40.7645 35.5034 40.5662 35.5721 40.3442C35.6408 40.1221 35.646 39.8853 35.5869 39.6605C35.5278 39.4357 35.4069 39.232 35.2379 39.0724C34.8814 38.641 34.3875 38.3453 33.8389 38.2348C33.187 38.0987 32.5352 37.9968 31.8833 37.8616C30.3738 37.492 28.8073 37.4159 27.269 37.6375C24.1298 38.1862 20.989 38.7131 17.8465 39.2183C17.4725 39.2786 17.4171 39.4236 17.4203 39.7495C17.4342 41.1347 17.4269 42.5199 17.4269 43.9051V47.5302M16.1647 38.3635H11.6759V48.5243H16.1647V38.3635Z" fill="black"/>
<path d="M31.256 52.4974C30.3582 52.4909 29.4656 52.3615 28.6029 52.1128C25.8839 51.3591 23.1152 50.6078 20.4377 49.881L17.6722 49.1297C17.6551 49.1249 17.6372 49.1208 17.6184 49.1175C17.3088 49.8443 17.0179 50.0073 16.1607 50.0073H14.8798H13.5998C12.8135 50.0073 12.1747 50.0073 11.5904 50.0171H11.5627C11.286 50.0415 11.0086 49.9794 10.7686 49.8395C10.5287 49.6995 10.3381 49.4885 10.2232 49.2357L10.2036 49.1925V37.6083L10.2378 37.5569C10.3923 37.3216 10.6084 37.1331 10.8625 37.0122C11.1167 36.8912 11.3992 36.8423 11.6792 36.8708C12.2496 36.8814 12.8721 36.8863 13.6405 36.8863C14.0512 36.8863 14.4621 36.8863 14.8733 36.8863C15.2845 36.8863 15.6957 36.8863 16.1069 36.8863H16.2903C16.5837 36.8398 16.8838 36.9069 17.1295 37.0738C17.3752 37.2408 17.548 37.4951 17.6127 37.7851L18.3461 37.6645L19.8127 37.4241L19.6164 37.2465C19.332 36.9906 19.0386 36.7258 18.7649 36.4471C17.0495 34.6617 15.9254 32.3915 15.545 29.9449C15.1647 27.4984 15.5467 24.994 16.639 22.7721C16.7581 22.5125 16.9721 22.3083 17.2371 22.2017C17.2935 22.1871 17.3516 22.1799 17.4098 22.1806C17.5367 22.1757 17.6631 22.2 17.7791 22.2517C17.895 22.3035 17.9976 22.3811 18.0788 22.4788C18.1546 22.6227 18.199 22.7811 18.209 22.9435C18.219 23.1059 18.1943 23.2686 18.1366 23.4207C17.6272 24.4745 17.2939 25.6047 17.1499 26.7663C16.9451 28.2601 17.0726 29.7806 17.5233 31.2194C17.9741 32.6582 18.7369 33.9797 19.7573 35.0897C20.3538 35.748 21.0007 36.3869 21.611 36.9784C21.6926 37.038 21.7911 37.07 21.8921 37.0697C21.9065 37.0708 21.9209 37.0708 21.9353 37.0697C23.4272 36.8309 25.1946 36.5433 27.0084 36.2182C27.6254 36.1088 28.2509 36.0543 28.8775 36.0552C29.9539 36.0676 31.0261 36.1924 32.0765 36.4276C32.3568 36.4871 32.6469 36.536 32.9264 36.5832C33.3191 36.65 33.7257 36.7185 34.1225 36.8179C34.7775 36.928 35.3888 37.2186 35.8877 37.657C36.3866 38.0955 36.7533 38.6644 36.9466 39.2998C37.0524 39.6531 37.0813 40.0249 37.0316 40.3903C36.9819 40.7557 36.8545 41.1062 36.6582 41.4183C36.4428 41.7539 36.1581 42.0396 35.8232 42.256C35.4883 42.4724 35.111 42.6147 34.7165 42.6731C34.4115 42.7219 34.103 42.7451 33.7941 42.7424C33.3582 42.7424 32.9133 42.7049 32.5206 42.6715C31.7595 42.608 30.992 42.502 30.2489 42.3994C30.0137 42.3668 29.7785 42.3347 29.5432 42.3032C29.4703 42.2933 29.3968 42.2881 29.3232 42.2877C29.2466 42.2763 29.1685 42.2809 29.0938 42.3012C29.0191 42.3215 28.9493 42.3571 28.8891 42.4057C28.8288 42.4544 28.7793 42.515 28.7436 42.5837C28.708 42.6525 28.687 42.7279 28.682 42.8051C28.6666 42.8761 28.6659 42.9493 28.6799 43.0205C28.694 43.0917 28.7224 43.1593 28.7635 43.2191C28.9116 43.4016 29.1255 43.5187 29.3591 43.545C29.9132 43.6428 30.4746 43.7479 31.0181 43.8506C32.3853 44.108 33.7998 44.3737 35.1989 44.5293C35.3071 44.5412 35.4159 44.5472 35.5248 44.5472C36.0387 44.5264 36.5492 44.4538 37.0485 44.3305C37.3052 44.2767 37.5708 44.2205 37.8324 44.1789C37.8736 44.1472 37.911 44.1108 37.944 44.0706C37.9652 44.0469 37.9864 44.0241 38.0067 44.0029C38.8745 43.1156 39.761 42.2185 40.619 41.3507C42.6063 39.3406 44.6605 37.262 46.6209 35.1622C49.3204 32.2712 50.0701 28.7504 48.8503 24.6983V24.6902C47.8316 25.1646 46.7209 25.409 45.5972 25.4061C44.4734 25.4033 43.364 25.1531 42.3478 24.6735C41.3315 24.1939 40.4332 23.4965 39.7167 22.6308C39.0001 21.7651 38.4828 20.7524 38.2015 19.6644L38.0972 19.7125C37.8527 19.8241 37.6221 19.9292 37.3932 20.0457C36.3486 20.6074 35.3995 21.331 34.5812 22.1895C33.9881 22.7819 33.6352 23.0638 33.2335 23.0638C32.8318 23.0638 32.4668 22.7688 31.8948 22.1887C30.4763 20.6475 28.6192 19.5784 26.5741 19.1258C25.9898 19.0059 25.395 18.9439 24.7986 18.9408C23.8734 18.9352 22.9567 19.1177 22.1042 19.4773C21.2518 19.8368 20.4813 20.3659 19.8396 21.0325C19.7485 21.1384 19.6372 21.2253 19.5124 21.2881C19.3875 21.3509 19.2514 21.3884 19.112 21.3983C18.9055 21.3875 18.7102 21.3012 18.5633 21.1558C18.4163 21.0103 18.328 20.8159 18.3151 20.6096C18.3212 20.4669 18.3562 20.327 18.4179 20.1983C18.4797 20.0696 18.567 19.9548 18.6744 19.8608C19.4642 19.0416 20.4118 18.3911 21.4601 17.9485C22.5083 17.506 23.6355 17.2806 24.7733 17.286C25.5656 17.2905 26.3552 17.3807 27.1281 17.5548C29.2698 18.0551 31.2242 19.1561 32.7618 20.7285C32.9111 20.8752 33.0611 21.0219 33.2115 21.1685C33.3615 21.0349 33.5106 20.898 33.6556 20.7611C34.0818 20.3474 34.5383 19.9661 35.0212 19.6204C35.8353 19.0928 36.6786 18.6118 37.5472 18.1798L37.7794 18.0584C37.9668 17.9598 37.9953 17.9207 37.9953 17.7577C37.9941 16.6723 38.2302 15.5996 38.6871 14.615C38.8932 14.1685 39.1703 13.9411 39.5092 13.9411C39.6259 13.9427 39.741 13.9682 39.8474 14.0161C39.9446 14.0535 40.0331 14.1104 40.1075 14.1833C40.1819 14.2561 40.2406 14.3434 40.2801 14.4398C40.3235 14.5829 40.3382 14.7333 40.323 14.8821C40.3079 15.0309 40.2634 15.1753 40.1921 15.3068C39.815 16.1289 39.6304 17.0262 39.6523 17.9304C39.6742 18.8345 39.902 19.7218 40.3184 20.5247C40.7347 21.3277 41.3288 22.025 42.0552 22.5639C42.7816 23.1027 43.6214 23.4687 44.5106 23.6342C44.8745 23.7056 45.2446 23.7416 45.6155 23.7417C47.0707 23.7368 48.4737 23.1985 49.5588 22.2288C50.6438 21.2591 51.3358 19.9252 51.5036 18.4797C51.6715 17.0341 51.3036 15.5772 50.4695 14.3846C49.6355 13.1921 48.3932 12.3467 46.9778 12.0084C46.5044 11.8984 46.0201 11.8418 45.534 11.8397C44.2678 11.8481 43.0385 12.2666 42.0303 13.0326C41.8331 13.2013 41.5874 13.3029 41.3287 13.3227C41.23 13.3216 41.1325 13.301 41.0417 13.2621C40.951 13.2233 40.8688 13.1669 40.7999 13.0962C40.715 13.0193 40.6479 12.9247 40.6034 12.8192C40.559 12.7136 40.5381 12.5996 40.5424 12.4851C40.5536 12.3476 40.5947 12.2142 40.6626 12.0942C40.7306 11.9742 40.8239 11.8704 40.936 11.79C41.9444 10.9852 43.15 10.4652 44.4275 10.2843C44.8089 10.2305 45.1936 10.2032 45.5788 10.2028C47.3544 10.185 49.0787 10.7974 50.4452 11.9313C51.8116 13.0652 52.7317 14.647 53.0417 16.3954C53.3124 17.7132 53.2194 19.0798 52.7728 20.3488C52.2916 21.6058 51.501 22.7209 50.4742 23.591C50.3055 23.7401 50.2884 23.8069 50.3618 24.0367C51.0972 26.1832 51.2559 28.4853 50.8221 30.7125C50.3099 32.9266 49.1883 34.9532 47.5841 36.5628C46.0082 38.2137 44.3826 39.8686 42.8101 41.468C42.1158 42.1745 41.3996 42.9037 40.6915 43.6248L40.8398 43.5963C41.6115 43.4472 42.3399 43.3054 43.0684 43.162C43.2867 43.1189 43.5092 43.0691 43.7202 43.0219C44.1594 42.9241 44.6165 42.8231 45.0712 42.7652C45.2312 42.7451 45.3923 42.735 45.5535 42.7351C45.8437 42.7347 46.133 42.7658 46.4164 42.828C46.814 42.9045 47.1873 43.0755 47.5049 43.3265C47.8226 43.5775 48.0752 43.9011 48.2416 44.2702C48.399 44.6576 48.4611 45.0772 48.4226 45.4936C48.3842 45.9101 48.2464 46.3112 48.0208 46.6633C47.5247 47.4501 46.7501 48.0209 45.8518 48.262C44.2784 48.7647 42.6789 49.278 41.1324 49.7743C39.4546 50.3129 37.7191 50.8694 36.0121 51.4145C35.2315 51.6638 34.4126 51.914 33.5073 52.178C32.7758 52.3904 32.0178 52.498 31.256 52.4974ZM17.3626 48.662L17.5255 48.6914L17.5964 48.7036C17.6585 48.7114 17.72 48.7231 17.7806 48.7386L20.5444 49.4891C23.2227 50.2159 25.9923 50.9671 28.7121 51.7217C29.5392 51.9605 30.3951 52.0849 31.256 52.0916C31.9791 52.0925 32.6987 51.9907 33.3932 51.7893C34.2944 51.5261 35.1109 51.2768 35.8874 51.0283C37.5985 50.4831 39.33 49.9266 41.0077 49.388C42.5558 48.8918 44.1545 48.3785 45.7279 47.8757C46.5353 47.669 47.2331 47.1615 47.6786 46.4571C47.8705 46.1603 47.9884 45.8217 48.0225 45.4698C48.0565 45.1179 48.0056 44.7629 47.8741 44.4348C47.7327 44.1254 47.5191 43.8545 47.2513 43.6448C46.9834 43.4351 46.6692 43.2927 46.3349 43.2297C46.0804 43.1745 45.8205 43.1472 45.5601 43.1482C45.416 43.1481 45.272 43.1571 45.129 43.1751C44.6906 43.2305 44.2458 43.3299 43.8155 43.4252C43.598 43.4733 43.3739 43.523 43.1507 43.5678C42.4173 43.712 41.6921 43.853 40.9205 44.0029L39.5907 44.2604L39.9826 43.8131C40.0364 43.752 40.0804 43.7006 40.1187 43.6558C40.1847 43.5784 40.2369 43.5181 40.2939 43.4594C41.0346 42.7008 41.7899 41.9325 42.52 41.1894C44.0918 39.5899 45.7165 37.9366 47.2899 36.2883C50.541 32.8831 51.4455 28.8026 49.9739 24.1614C49.9063 24.0113 49.8923 23.8426 49.9345 23.6835C49.9766 23.5244 50.0723 23.3847 50.2053 23.2879C51.2014 22.4879 51.9564 21.4276 52.3865 20.2246C52.8165 19.0216 52.9048 17.7229 52.6416 16.4728C52.3485 14.8179 51.4779 13.3206 50.1847 12.2473C48.8914 11.1739 47.2594 10.5941 45.5788 10.611C45.2127 10.6114 44.847 10.6373 44.4845 10.6884C43.2783 10.8593 42.1399 11.3503 41.1878 12.1103C41.1223 12.1549 41.0672 12.213 41.0261 12.2808C40.9851 12.3485 40.9591 12.4243 40.9498 12.503C40.9483 12.559 40.9592 12.6146 40.9817 12.6659C41.0043 12.7172 41.0379 12.7629 41.0802 12.7996C41.1107 12.8351 41.1481 12.864 41.1901 12.8846C41.2322 12.9052 41.2779 12.917 41.3246 12.9194C41.4959 12.8957 41.6563 12.822 41.7858 12.7075C42.8646 11.8889 44.1798 11.4426 45.534 11.4356C46.0505 11.4378 46.5652 11.4979 47.0683 11.6148C48.6734 11.9879 50.0654 12.9817 50.9395 14.3787C51.837 15.7569 52.1516 17.4346 51.8146 19.0443C51.5045 20.4914 50.7121 21.7902 49.5673 22.7281C48.4527 23.6411 47.0579 24.1432 45.6171 24.15C45.2196 24.1497 44.8231 24.111 44.4332 24.0343C43.4844 23.8567 42.5886 23.4654 41.8136 22.89C41.0387 22.3147 40.4049 21.5703 39.9605 20.7135C39.5161 19.8567 39.2727 18.91 39.2487 17.945C39.2247 16.9801 39.4208 16.0224 39.8221 15.1446C39.9179 14.9767 39.947 14.7789 39.9036 14.5905C39.8831 14.5446 39.8535 14.5034 39.8165 14.4693C39.7795 14.4353 39.736 14.4092 39.6885 14.3925C39.6333 14.3669 39.5734 14.3527 39.5125 14.351C39.3495 14.351 39.1939 14.4977 39.0603 14.7877C38.629 15.7192 38.4065 16.7337 38.4084 17.7602C38.4166 17.9024 38.3787 18.0434 38.3005 18.1624C38.2223 18.2814 38.1079 18.3721 37.9741 18.421L37.7411 18.5424C36.8875 18.9676 36.0586 19.4407 35.2584 19.9594C34.7926 20.2933 34.3523 20.6613 33.9408 21.0602C33.7518 21.2346 33.5562 21.4146 33.3582 21.5874L33.2441 21.6868L33.1113 21.6053C33.0794 21.5886 33.0498 21.5678 33.0233 21.5434C32.843 21.3685 32.6637 21.1935 32.4855 21.0186C31.0075 19.4935 29.1197 18.4286 27.0499 17.9525C26.3059 17.7845 25.5459 17.6973 24.7831 17.6925C23.6973 17.6866 22.6216 17.9011 21.6212 18.3231C20.6207 18.7451 19.7164 19.3658 18.9629 20.1476C18.8271 20.2615 18.7413 20.4242 18.7241 20.6006C18.7264 20.6519 18.7394 20.7021 18.7621 20.7481C18.7848 20.7941 18.8168 20.8349 18.8561 20.8679C18.923 20.9395 19.015 20.9824 19.1128 20.9877C19.2848 20.9639 19.4417 20.8767 19.5528 20.7432C20.2318 20.038 21.0471 19.4782 21.9492 19.0979C22.8513 18.7176 23.8213 18.5247 24.8002 18.531C25.4235 18.5342 26.045 18.5988 26.6555 18.7241C28.781 19.1923 30.7116 20.3015 32.1865 21.9019C32.6681 22.3908 32.9777 22.6556 33.2352 22.6556C33.4926 22.6556 33.8055 22.39 34.2944 21.9011C35.1426 21.0121 36.1263 20.2632 37.209 19.6823C37.4461 19.5617 37.6914 19.4501 37.9285 19.3417L38.2544 19.1918L38.4826 19.0859L38.5396 19.3303C38.7807 20.4029 39.2622 21.4068 39.9479 22.2661C40.6335 23.1254 41.5054 23.8178 42.4977 24.2909C43.49 24.7641 44.5769 25.0057 45.6762 24.9975C46.7755 24.9893 47.8586 24.7316 48.8438 24.2437L48.9798 24.1777L49.0825 24.2893L49.0906 24.2974C49.1224 24.3258 49.1487 24.3598 49.1681 24.3977C49.1984 24.4565 49.2238 24.5179 49.2438 24.581C50.5092 28.7814 49.7278 32.4358 46.9224 35.44C44.9587 37.5431 42.9021 39.6241 40.9132 41.6326C40.056 42.5004 39.1695 43.3975 38.3058 44.284C38.2886 44.3011 38.2715 44.3207 38.2544 44.3394C38.1704 44.4554 38.0489 44.5388 37.9106 44.5757C37.6572 44.6157 37.3948 44.6711 37.1414 44.7248C36.6146 44.8548 36.0759 44.9304 35.5338 44.9506C35.4085 44.9507 35.2834 44.9439 35.1589 44.9302C33.7452 44.7729 32.3234 44.5057 30.948 44.2466C30.4061 44.1447 29.8455 44.0396 29.2939 43.9426C28.9533 43.8988 28.6441 43.7215 28.4343 43.4497C28.3626 43.3458 28.3125 43.2286 28.2872 43.105C28.2618 42.9813 28.2617 42.8539 28.2868 42.7302C28.314 42.4799 28.4385 42.2503 28.6334 42.091C28.8284 41.9317 29.0782 41.8554 29.3289 41.8787C29.4202 41.879 29.5114 41.8853 29.6019 41.8974C29.8382 41.9289 30.0742 41.961 30.31 41.9936C31.0474 42.0954 31.8101 42.2006 32.5605 42.2633C32.9451 42.2959 33.381 42.3326 33.7998 42.3326C34.086 42.3349 34.372 42.3134 34.6546 42.2682C34.992 42.2191 35.3149 42.0985 35.6019 41.9144C35.8889 41.7303 36.1332 41.487 36.3184 41.2008C36.4849 40.9368 36.5929 40.6402 36.635 40.331C36.6772 40.0218 36.6526 39.7071 36.5629 39.4082C36.3908 38.8404 36.0619 38.3327 35.614 37.9435C35.1661 37.5543 34.6175 37.2994 34.0312 37.2082C33.6499 37.1128 33.2515 37.0452 32.8661 36.98C32.5817 36.932 32.2884 36.8823 31.9999 36.8211C30.977 36.5919 29.933 36.4701 28.8849 36.4577C28.2826 36.4565 27.6813 36.5086 27.0882 36.6134C25.2744 36.9393 23.503 37.2277 22.007 37.4665C21.9717 37.4719 21.936 37.4747 21.9003 37.4746C21.6936 37.4756 21.4934 37.4028 21.3356 37.2693C20.7196 36.672 20.0669 36.0275 19.4615 35.361C18.4019 34.2096 17.6094 32.8384 17.1406 31.3455C16.6719 29.8525 16.5385 28.2745 16.7498 26.724C16.8984 25.5186 17.2436 24.3457 17.7716 23.252C17.8331 23.0639 17.8185 22.8591 17.7309 22.6817C17.6377 22.6185 17.5273 22.5855 17.4147 22.5871C17.3928 22.5865 17.3709 22.5887 17.3495 22.5937C17.1973 22.6721 17.0765 22.8004 17.0073 22.9571C15.9535 25.1033 15.5854 27.5217 15.953 29.8843C16.3206 32.2468 17.4061 34.4391 19.0623 36.1636C19.3271 36.4333 19.6155 36.694 19.895 36.9458C20.027 37.0648 20.1639 37.1903 20.2967 37.3109L20.4165 37.4217L20.335 37.5626C20.3089 37.6074 20.2821 37.6514 20.2535 37.6954L20.2046 37.7769L20.1126 37.7916L18.4137 38.0686L17.3202 38.2471L17.2721 38.0703C17.0986 37.4363 16.9152 37.2905 16.2886 37.2897H16.1069C15.6963 37.2897 15.2853 37.2897 14.8741 37.2897C14.4629 37.2897 14.0517 37.2918 13.6405 37.2962C12.8697 37.2962 12.2439 37.2913 11.6719 37.2807H11.6238C11.43 37.2621 11.2346 37.2943 11.057 37.3741C10.8794 37.454 10.7257 37.5788 10.611 37.7362V49.098C10.6978 49.2706 10.8358 49.4122 11.0062 49.5034C11.1766 49.5946 11.3709 49.6308 11.5627 49.6072H11.5855C12.1714 49.6007 12.8078 49.5974 13.5998 49.5974H14.8806H16.1607C16.9087 49.5974 17.0261 49.516 17.3015 48.8144L17.3626 48.662ZM31.2592 51.2694C30.5427 51.2629 29.8303 51.161 29.1407 50.9663C26.8891 50.3503 24.6372 49.7357 22.3851 49.1224L17.6983 47.8423C17.6168 47.8203 17.5459 47.7926 17.4685 47.7608L17.3585 47.7201L17.2232 47.672V43.9051C17.2232 43.5401 17.2232 43.1753 17.2232 42.8109C17.2232 41.8078 17.2232 40.7738 17.2159 39.7512C17.211 39.3585 17.3096 39.0994 17.8132 39.0179C21.1621 38.4777 24.2412 37.9586 27.2275 37.4396C27.7657 37.3466 28.311 37.3008 28.8572 37.3027C29.8877 37.3172 30.9139 37.4387 31.9192 37.6653C32.2378 37.7313 32.5654 37.7908 32.8815 37.8486C33.1977 37.9065 33.5456 37.9692 33.8772 38.0385C34.4711 38.1574 35.0058 38.4774 35.3912 38.9446C35.5778 39.1506 35.7077 39.4017 35.768 39.6731C35.8283 39.9445 35.8169 40.227 35.735 40.4927C35.6456 40.73 35.4949 40.9394 35.2982 41.0996C35.1015 41.2597 34.866 41.3649 34.6155 41.4045C34.3237 41.461 34.027 41.4883 33.7298 41.486C33.3533 41.486 32.9728 41.4534 32.6053 41.4208L32.4611 41.4086C31.8459 41.3564 31.225 41.2717 30.6253 41.1902C30.266 41.1413 29.892 41.0908 29.5286 41.0476C29.4418 41.0373 29.3544 41.0322 29.267 41.0321C28.8373 41.02 28.418 41.1653 28.0879 41.4406C27.7578 41.7159 27.5396 42.1024 27.4744 42.5273C27.4202 42.759 27.4124 42.9992 27.4515 43.2339C27.4906 43.4686 27.5757 43.6933 27.7021 43.895C27.8284 44.0966 27.9935 44.2713 28.1877 44.4088C28.3819 44.5463 28.6014 44.6441 28.8335 44.6963C31.0515 45.1331 33.0526 45.5111 35.075 45.7727C35.218 45.7905 35.362 45.7992 35.5061 45.7988C36.0645 45.7785 36.6199 45.7062 37.165 45.5828C37.2954 45.5576 37.4241 45.5331 37.5529 45.5095C39.1255 45.2227 40.7209 44.9041 42.2633 44.5969L43.8644 44.2783C44.0339 44.2449 44.2058 44.2058 44.3729 44.1675C44.6328 44.108 44.9009 44.0469 45.1714 44.0046C45.4387 43.9667 45.7102 43.97 45.9764 44.0143C46.2235 44.0361 46.4604 44.1229 46.6629 44.2661C46.8655 44.4092 47.0264 44.6035 47.1294 44.8291C47.2037 45.0575 47.2159 45.3016 47.1648 45.5363C47.1137 45.771 47.0011 45.9878 46.8385 46.1646C46.559 46.5225 46.1851 46.7951 45.7589 46.9517C41.5512 48.3223 37.2962 49.6814 33.1138 50.9916C32.5133 51.1777 31.8879 51.2714 31.2592 51.2694ZM17.6306 47.3893C17.6942 47.4137 17.7504 47.4341 17.8058 47.4496L22.4959 48.7297C24.7481 49.344 26.9999 49.959 29.2515 50.5744C29.9048 50.7591 30.5796 50.8561 31.2584 50.8629C31.8457 50.8646 32.4298 50.7769 32.9907 50.6029C37.1715 49.2927 41.4257 47.9344 45.635 46.5655C45.9848 46.4334 46.2917 46.208 46.5224 45.9137C46.6401 45.7924 46.7234 45.642 46.7637 45.4779C46.8039 45.3137 46.7997 45.1418 46.7513 44.9799C46.673 44.8212 46.5545 44.6858 46.4075 44.5873C46.2605 44.4888 46.0902 44.4306 45.9137 44.4185C45.6892 44.381 45.4603 44.378 45.2349 44.4095C44.9791 44.4486 44.7175 44.5089 44.4649 44.5668C44.2955 44.6059 44.1195 44.6483 43.9443 44.68L42.3448 44.9978C40.7966 45.3058 39.2037 45.6244 37.6278 45.912C37.5007 45.9357 37.3728 45.9601 37.2441 45.9846C36.6736 46.1134 36.0922 46.1882 35.5077 46.2078C35.3462 46.2082 35.1848 46.1984 35.0245 46.1785C32.9875 45.9194 30.9814 45.5356 28.7553 45.098C28.4707 45.036 28.2012 44.9182 27.9623 44.7514C27.7235 44.5846 27.5201 44.3722 27.3638 44.1263C27.2075 43.8805 27.1015 43.6061 27.0518 43.3191C27.0021 43.0321 27.0098 42.738 27.0744 42.454C27.1592 41.9371 27.4272 41.4681 27.8293 41.1325C28.2314 40.7969 28.7409 40.6173 29.2646 40.6263C29.3678 40.6263 29.4709 40.6323 29.5734 40.6443C29.9425 40.6874 30.3157 40.7388 30.6775 40.7877C31.2723 40.8691 31.8875 40.9506 32.4929 41.0036L32.6379 41.0158C32.9972 41.0468 33.3712 41.0794 33.7273 41.0794C33.9976 41.0825 34.2676 41.0588 34.5332 41.0085C34.7145 40.9831 34.8856 40.9096 35.0289 40.7957C35.1722 40.6818 35.2824 40.5316 35.348 40.3607C35.4064 40.1612 35.4121 39.9499 35.3644 39.7475C35.3167 39.5451 35.2173 39.3585 35.0758 39.2061C34.7492 38.8098 34.296 38.5382 33.7925 38.4369C33.4666 38.3685 33.1317 38.3082 32.8082 38.2495C32.4847 38.1908 32.1564 38.1314 31.8353 38.0646C30.8572 37.844 29.8589 37.7254 28.8564 37.7109C28.334 37.7089 27.8124 37.7525 27.2976 37.8413C24.3097 38.3628 21.2289 38.8794 17.8784 39.4204C17.6339 39.4595 17.6209 39.4946 17.6241 39.7463C17.6347 40.7681 17.6331 41.807 17.6315 42.8109C17.6315 43.1753 17.6315 43.5401 17.6315 43.9051L17.6306 47.3893ZM16.3685 48.728H11.4723V38.1599H16.3685V48.728ZM11.8797 48.3206H15.9611V38.5673H11.8797V48.3206Z" fill="black"/>
<path d="M33.3247 28.0039C32.5506 29.3565 31.8083 30.6537 31.0644 31.9501C30.6431 32.6834 30.1681 32.6891 29.7102 31.9688C29.2767 31.2819 28.844 30.5942 28.3714 29.8405C28.0088 30.441 27.6723 30.9747 27.3619 31.5239C27.2811 31.6837 27.1544 31.8157 26.998 31.9028C26.8416 31.99 26.6627 32.0283 26.4843 32.0128C25.3199 31.9949 24.1556 32.0079 22.9928 32.0055C22.473 32.0055 22.1959 31.7757 22.2033 31.3667C22.2122 30.9731 22.4762 30.7612 22.9814 30.7596C24.0065 30.7596 25.0315 30.7702 26.0557 30.7474C26.1437 30.7389 26.229 30.7122 26.306 30.6688C26.383 30.6254 26.4502 30.5665 26.503 30.4956C26.9308 29.834 27.3227 29.1479 27.7342 28.4749C28.1082 27.8646 28.5939 27.8621 28.9833 28.4692C29.4364 29.1756 29.8796 29.8861 30.3645 30.6537C30.5013 30.4174 30.6032 30.2422 30.7034 30.067C31.3699 28.9018 32.034 27.7342 32.7046 26.5715C33.0884 25.9074 33.6147 25.9123 33.9863 26.5869C34.9543 28.3448 35.9193 30.1042 36.8813 31.8653C36.953 31.9957 37.0329 32.1228 37.1323 32.2907C37.6456 31.4302 38.1459 30.6178 38.6161 29.7892C38.6999 29.6154 38.8348 29.4713 39.0026 29.3762C39.1705 29.2812 39.3634 29.2396 39.5556 29.2571C41.1339 29.2775 42.7138 29.2644 44.2929 29.2661C44.825 29.2661 45.0996 29.4795 45.102 29.8829C45.1044 30.2862 44.825 30.5103 44.2994 30.5119C42.9281 30.5119 41.5559 30.5339 40.1846 30.4989C40.0115 30.4806 39.8372 30.5182 39.687 30.6062C39.5369 30.6941 39.4189 30.8279 39.3502 30.9878C38.8345 31.9101 38.2853 32.8113 37.7402 33.7076C37.3433 34.3684 36.8251 34.3595 36.456 33.6889C35.5016 31.9555 34.551 30.2207 33.6042 28.4847C33.5227 28.3404 33.4412 28.1995 33.3263 28.0031" fill="black"/>
<path d="M37.0983 34.4043C36.8799 34.4043 36.5605 34.2976 36.2834 33.7891C35.6471 32.6329 35.0017 31.4555 34.3776 30.3172L33.4218 28.5849C33.3908 28.5287 33.3591 28.4716 33.324 28.4122L33.0226 28.9385C32.418 29.9978 31.8288 31.0245 31.2381 32.0528C30.988 32.4887 30.7028 32.7095 30.3915 32.7095C30.0803 32.7095 29.8 32.4976 29.5351 32.0788C29.1465 31.4645 28.7546 30.8395 28.3716 30.2292L28.2323 30.4573C27.9878 30.8591 27.7548 31.2396 27.5364 31.6258C27.441 31.8149 27.2925 31.972 27.1091 32.0779C26.9258 32.1839 26.7155 32.234 26.504 32.2222H26.4788C26.0559 32.2157 25.5914 32.2125 25.017 32.2125C24.4426 32.2125 23.8657 32.2125 23.2904 32.2125H22.9922C22.8505 32.2225 22.7082 32.204 22.5738 32.1579C22.4394 32.1118 22.3157 32.0392 22.21 31.9444C22.1377 31.8672 22.0818 31.7761 22.0456 31.6766C22.0095 31.5772 21.9939 31.4715 21.9997 31.3659C22.0054 31.1214 22.1114 30.5625 22.9775 30.5592C23.2877 30.5592 23.5973 30.5592 23.9064 30.5592H24.546C24.9591 30.5592 25.5026 30.5592 26.0486 30.5462C26.1595 30.5324 26.2611 30.4771 26.3329 30.3913C26.6124 29.9595 26.8805 29.5097 27.1404 29.0746C27.2773 28.8448 27.4191 28.6069 27.5617 28.3747C27.6318 28.219 27.7426 28.0851 27.8824 27.987C28.0222 27.889 28.1858 27.8304 28.3561 27.8174C28.5258 27.8304 28.689 27.8879 28.8295 27.984C28.9699 28.0801 29.0826 28.2115 29.1563 28.3649C29.474 28.8603 29.7837 29.3533 30.112 29.8748L30.3565 30.2659L30.526 29.9717L31.155 28.8701C31.604 28.0846 32.0676 27.2722 32.5271 26.4754C32.8123 25.9865 33.1285 25.8789 33.342 25.8789C33.5214 25.8978 33.6925 25.9649 33.8368 26.0733C33.9811 26.1816 34.0934 26.327 34.1617 26.4941C34.785 27.6259 35.4157 28.7756 36.0268 29.8919L37.0575 31.7725C37.0803 31.814 37.1048 31.8539 37.13 31.8988L37.3834 31.4767C37.7517 30.8648 38.0997 30.2879 38.4362 29.6931C38.5355 29.4912 38.6924 29.3233 38.8869 29.2103C39.0815 29.0974 39.3051 29.0445 39.5297 29.0583H39.5549C40.1685 29.0665 40.8179 29.0697 41.662 29.0697C42.4459 29.0697 43.2306 29.0697 44.0144 29.0697H44.2906C45.2 29.0697 45.3018 29.6401 45.3034 29.8894C45.3034 30.4101 44.9286 30.7213 44.298 30.723H43.3039C42.8965 30.723 42.4736 30.723 42.0588 30.723C41.3255 30.723 40.7274 30.7165 40.1774 30.7026H40.144C40.0135 30.6919 39.8831 30.7237 39.7721 30.7931C39.6611 30.8626 39.5755 30.966 39.528 31.088C39.1035 31.8442 38.6488 32.5987 38.2088 33.3279L37.9188 33.8103C37.6263 34.3016 37.3109 34.4043 37.0983 34.4043ZM33.324 27.5965L33.5017 27.9029L33.6076 28.0854C33.672 28.1962 33.7282 28.2916 33.782 28.3894L34.732 30.1225C35.3562 31.2632 36.0007 32.4373 36.6379 33.5936C36.7813 33.8543 36.9443 34.001 37.0983 34.001C37.2523 34.001 37.4177 33.8616 37.5692 33.6099L37.8601 33.1275C38.2985 32.4007 38.7507 31.6494 39.1728 30.8982C39.2553 30.7124 39.3925 30.5561 39.5659 30.4502C39.7394 30.3442 39.9411 30.2936 40.144 30.305H40.1897C40.7364 30.3188 41.3304 30.3253 42.0637 30.3253C42.4777 30.3253 42.8997 30.3253 43.3071 30.3253H44.3028C44.9034 30.3253 44.9026 30.0165 44.9017 29.9008C44.9009 29.7851 44.9017 29.4869 44.2963 29.4869H44.0144C43.2306 29.4869 42.4459 29.4869 41.662 29.4869C40.8163 29.4869 40.1652 29.4869 39.55 29.4755H39.5329C39.3807 29.4627 39.2282 29.497 39.096 29.5736C38.9639 29.6502 38.8584 29.7656 38.7939 29.9041C38.4541 30.503 38.1054 31.0831 37.7346 31.6967C37.5934 31.9313 37.4508 32.1687 37.3068 32.4088L37.1317 32.7022L36.9573 32.408L36.8693 32.2605C36.8074 32.1579 36.7544 32.0699 36.7063 31.977L35.6756 30.0964C35.0653 28.9825 34.4338 27.8304 33.8113 26.6994C33.6695 26.4419 33.5008 26.292 33.3485 26.292C33.1961 26.292 33.0291 26.4354 32.8848 26.6848C32.4253 27.4808 31.9617 28.2932 31.5135 29.0779L30.8845 30.1795C30.803 30.3156 30.728 30.4516 30.6327 30.6162L30.376 31.0595L30.196 30.7743L29.7698 30.098C29.4439 29.5773 29.1326 29.0852 28.8157 28.5914C28.6666 28.3592 28.5044 28.2313 28.3586 28.2313C28.2127 28.2313 28.0546 28.36 27.9112 28.5939C27.7678 28.8277 27.6293 29.0616 27.4924 29.2905C27.2308 29.7289 26.9603 30.1819 26.6776 30.6195C26.6069 30.7183 26.5154 30.8004 26.4095 30.86C26.3037 30.9195 26.186 30.9551 26.0648 30.9642C25.5148 30.9764 24.9681 30.9772 24.5526 30.9772H23.2717H22.9848C22.4186 30.9772 22.4145 31.2632 22.4096 31.3846C22.4049 31.4361 22.4109 31.488 22.4272 31.537C22.4434 31.5861 22.4696 31.6313 22.5041 31.6698C22.6425 31.7791 22.8174 31.8313 22.993 31.8156C23.3798 31.8156 23.7671 31.8156 24.1549 31.8156H25.0194C25.5963 31.8156 26.0632 31.8156 26.4861 31.8254H26.5048C26.6441 31.8377 26.7838 31.807 26.9051 31.7373C27.0263 31.6677 27.1232 31.5625 27.1828 31.4359C27.4044 31.044 27.6383 30.6611 27.886 30.2561C27.987 30.0931 28.0905 29.922 28.1956 29.7476L28.3667 29.4649L28.5427 29.7452C28.9811 30.4427 29.4341 31.1646 29.8814 31.8727C30.0607 32.1571 30.2424 32.3135 30.3931 32.3135C30.5439 32.3135 30.7191 32.1505 30.8869 31.8613C31.4768 30.833 32.066 29.8039 32.6706 28.7471L33.324 27.5965Z" fill="black"/>
<path d="M44.9741 17.1588C44.9741 16.5697 44.9741 16.0327 44.9741 15.4958C44.979 14.9832 45.1803 14.7225 45.5705 14.7111C45.982 14.6989 46.211 14.971 46.2224 15.4958C46.2338 16.0205 46.2224 16.5689 46.2224 17.1572C46.7748 17.1572 47.2817 17.1506 47.7893 17.1572C47.9687 17.1486 48.148 17.1737 48.3181 17.2313C48.4503 17.2814 48.5586 17.3797 48.6213 17.5063C48.684 17.633 48.6965 17.7786 48.6563 17.9141C48.6341 18.0533 48.5613 18.1793 48.4517 18.2679C48.3422 18.3565 48.2038 18.4014 48.0631 18.3941C47.4707 18.4022 46.8783 18.3941 46.2232 18.3941C46.2232 18.9718 46.2363 19.5063 46.2159 20.0408C46.2297 20.2452 46.1746 20.4483 46.0594 20.6177C45.9802 20.6952 45.8844 20.7537 45.7792 20.7888C45.6741 20.824 45.5623 20.8348 45.4524 20.8206C45.3414 20.7679 45.2435 20.6912 45.1657 20.5961C45.0879 20.501 45.0322 20.3898 45.0026 20.2706C44.9513 19.7885 44.9442 19.3027 44.9814 18.8194C44.9953 18.5041 44.9138 18.3688 44.57 18.3916C44.1153 18.4209 43.6557 18.4063 43.1994 18.3916C42.77 18.381 42.5117 18.1431 42.5117 17.7789C42.5111 17.6915 42.5288 17.6049 42.5638 17.5248C42.5988 17.4447 42.6502 17.3729 42.7147 17.3139C42.7793 17.255 42.8555 17.2103 42.9384 17.1827C43.0214 17.1551 43.1092 17.1453 43.1962 17.1539C43.7739 17.1384 44.3516 17.1539 44.9765 17.1539" fill="black"/>
<path d="M45.5486 21.0464C45.4891 21.0473 45.4299 21.0368 45.3743 21.0154C45.2301 20.9496 45.1031 20.8513 45.0033 20.7281C44.9035 20.605 44.8336 20.4604 44.799 20.3057C44.7469 19.8366 44.7382 19.3636 44.7729 18.8928V18.8162C44.7803 18.6533 44.7526 18.6199 44.7518 18.6182C44.7152 18.6002 44.6741 18.5931 44.6336 18.5979H44.5782C44.3924 18.6101 44.1912 18.6158 43.9622 18.6158C43.7332 18.6158 43.5035 18.6101 43.281 18.6044H43.1898C43.0769 18.6144 42.9632 18.6007 42.8559 18.5642C42.7486 18.5278 42.6501 18.4693 42.5667 18.3926C42.4832 18.316 42.4167 18.2227 42.3714 18.1189C42.326 18.015 42.3028 17.9029 42.3032 17.7896C42.3026 17.676 42.3255 17.5635 42.3703 17.4591C42.4152 17.3547 42.481 17.2607 42.5639 17.1829C42.6467 17.1051 42.7446 17.0453 42.8516 17.0071C42.9586 16.9689 43.0723 16.9532 43.1857 16.9609C43.3926 16.9552 43.6159 16.9527 43.888 16.9527H44.4136H44.7681C44.7681 16.8392 44.7681 16.727 44.7681 16.6162C44.7681 16.2284 44.7681 15.8617 44.7681 15.4926C44.7762 14.6533 45.2692 14.5148 45.5625 14.5059H45.5935C45.8379 14.5059 46.4083 14.602 46.4197 15.4918C46.4238 15.8658 46.4197 16.2365 46.4197 16.6325C46.4197 16.7412 46.4197 16.8498 46.4197 16.9585H47.0968C47.3722 16.9585 47.5857 16.9585 47.7869 16.9642C47.9921 16.9558 48.197 16.9865 48.3907 17.0546C48.5578 17.1326 48.6935 17.265 48.7756 17.43C48.8577 17.5951 48.8814 17.7832 48.8428 17.9635C48.8042 18.1438 48.7056 18.3056 48.5631 18.4226C48.4206 18.5396 48.2426 18.6049 48.0583 18.6076C47.8407 18.6076 47.6028 18.6117 47.3111 18.6117H46.4205C46.4205 18.7057 46.4205 18.7988 46.4205 18.8912C46.4205 19.2986 46.4254 19.6759 46.4115 20.0621C46.4284 20.3191 46.3511 20.5734 46.194 20.7775C46.0155 20.9376 45.788 21.0324 45.5486 21.0464ZM44.636 18.1945C44.7111 18.1888 44.7866 18.1987 44.8576 18.2239C44.9286 18.249 44.9936 18.2887 45.0483 18.3404C45.103 18.4099 45.1431 18.4898 45.1662 18.5752C45.1893 18.6606 45.195 18.7498 45.1828 18.8374V18.9132C45.1499 19.3587 45.1575 19.8062 45.2056 20.2503C45.2304 20.3341 45.2721 20.4118 45.3282 20.4788C45.3843 20.5458 45.4535 20.6006 45.5315 20.6398C45.5391 20.6409 45.5468 20.6409 45.5543 20.6398C45.6907 20.6246 45.819 20.5677 45.9218 20.4768C45.9512 20.4475 46.0033 20.3513 46.0155 20.0393C46.0294 19.662 46.0269 19.2847 46.0245 18.8863C46.0245 18.7233 46.0245 18.5653 46.0245 18.3974V18.1937H46.2282H47.3233C47.6134 18.1937 47.8489 18.1937 48.0656 18.1896C48.1602 18.1984 48.2544 18.1701 48.3285 18.1106C48.4025 18.0512 48.4506 17.9653 48.4624 17.871C48.4928 17.7822 48.487 17.685 48.4462 17.6004C48.4055 17.5158 48.3332 17.4506 48.2449 17.4188C48.0988 17.3727 47.9457 17.3529 47.7926 17.3602C47.5922 17.3602 47.3852 17.3545 47.1098 17.3545H46.229H46.0253V17.1573C46.0253 16.9772 46.0253 16.802 46.0253 16.6301C46.0253 16.239 46.0253 15.869 46.0253 15.4983C46.0172 14.9149 45.7189 14.9149 45.6065 14.9149H45.5772C45.4492 14.9149 45.1836 14.9263 45.1787 15.4975C45.1787 15.865 45.1787 16.2308 45.1787 16.617C45.1787 16.793 45.1787 16.9731 45.1787 17.1581V17.361H44.975H44.4136H43.8905C43.6224 17.361 43.4016 17.361 43.1995 17.3691C42.8899 17.3773 42.7106 17.5321 42.7106 17.7896C42.7106 18.1359 43.0178 18.197 43.1995 18.197H43.2908C43.5116 18.2027 43.7389 18.2084 43.9622 18.2084C44.1855 18.2084 44.3753 18.2027 44.5521 18.1913C44.5836 18.1907 44.6119 18.1905 44.6369 18.1905L44.636 18.1945Z" fill="black"/>
</g>
</g>
<defs>
<clipPath id="clip0_2350_5330">
<rect width="44" height="44" fill="white" transform="translate(10 10)"/>
</clipPath>
</defs>
</svg>
